<?xml version="1.0" encoding="utf-8"?>
<!-- Generator: Adobe Illustrator 18.0.0, SVG Export Plug-In . SVG Version: 6.00 Build 0)  -->
<!DOCTYPE svg PUBLIC "-//W3C//DTD SVG 1.1//EN" "http://www.w3.org/Graphics/SVG/1.1/DTD/svg11.dtd">
<svg version="1.1" id="Layer_1" xmlns="http://www.w3.org/2000/svg" xmlns:xlink="http://www.w3.org/1999/xlink" x="0px" y="0px"
	 viewBox="0 0 60 120" enable-background="new 0 0 60 120" xml:space="preserve">
<rect y="60" fill="#B5DEE4" width="60" height="60"/>
<path id="china" fill="#6F9974" d="M15.6,79.3l-1.1,2.7L13,81.9l-1.5,3.4l1.3,1.7l-2.7,3.7l-1.4-0.2l-0.9,1.2L8,92.3l1.1,0.1
	l0.5,1.2l1.1,0.2l3.3,4.3v2.2l1.6,1l1.8-0.3l2.2,1.3l2.7,0.8l1.3-0.2l1.5-0.2l3.1-2l1,0.2l0.4,0.9l0.9,0.3l1.2,1.7l-0.8,1.7l0.5,1.2
	l1.3,0.5l0.2,1.4l1.5,0.2l0.2-0.7l2.2-1.2l1.4,0.1l1.6,1.8l1.1-0.5l0.7,0.1l0.3,0.9l0.5,0.1l0.8-1.1l3.1-1.2l2.8-3.3l0.9-3.2
	L50,98.3l-1.2-0.2l0.7-0.8l-0.2-1.2l-2.9-3v-1.5l0.8-1.1l0.8-0.4l0.1-0.9h-2.2l-0.4,1.2l-1-0.2l-1.2-1.3l0.8-2l1.1-1.2l1,0.1
	l-0.2,1.8l0.5,0.5l1.3-1.3l0.5-0.1l-0.2-1l1.2-1.5l0.9,0.1l0.5-1.7l0.6-0.3l0.1-1.1l-0.6-0.6L51,78.8l1.2-0.1l-0.1-4.3l-0.8,0.5
	L51,76l-1.4,0l-4-2.3l-2.9-3.5l-2.9,0L39,70.9l1,2.2l-0.3,2l-1.2,0.5l-0.7-0.1l0,2l0.7,0.2l1.2-0.5l1.6,0.8v0.8l-1.2,0.1l-0.9,2
	l-0.8,0.1l-3,4l-3.2,1.4L30,86.4l-1.5-1l-2.1,1.1l-2.2-0.7l-0.5-1.5l-3.8-0.2l-2-3.3h-0.8l-0.7-1.5L15.6,79.3z"/>
<g>
	<rect y="-0.4" fill="#DE2910" width="60" height="60.4"/>
	<g>
		<polygon fill="#FFDE00" points="53.2,35.8 50.1,35.9 49,32.9 48.1,36 45,36.1 47.6,37.9 46.7,41 49.2,39 51.8,40.8 50.8,37.8 		
			"/>
		<polygon fill="#FFDE00" points="21.7,24 18.8,14.9 15.9,24 6.4,24 14.1,29.9 11.1,39.1 18.8,33.5 26.4,39.2 23.5,29.8 31.2,24 		
			"/>
		<polygon fill="#FFDE00" points="39.8,16.9 41.5,19.7 41.7,16.5 44.8,15.8 41.9,14.5 42.2,11.4 40.1,13.8 37.2,12.5 38.8,15.2 
			36.8,17.6 		"/>
		<polygon fill="#FFDE00" points="48,25.3 48.4,28.5 49.9,25.7 53,26.2 50.8,23.9 52.3,21.1 49.5,22.5 47.3,20.2 47.7,23.4 
			44.9,24.8 		"/>
		<polygon fill="#FFDE00" points="42,42 40.1,44.5 37.1,43.4 38.8,46 36.9,48.5 39.9,47.7 41.6,50.3 41.8,47.1 44.8,46.3 41.9,45.2 
					"/>
	</g>
</g>
</svg>
