<?xml version="1.0" encoding="utf-8"?>
<!-- Generator: Adobe Illustrator 18.0.0, SVG Export Plug-In . SVG Version: 6.00 Build 0)  -->
<!DOCTYPE svg PUBLIC "-//W3C//DTD SVG 1.1//EN" "http://www.w3.org/Graphics/SVG/1.1/DTD/svg11.dtd">
<svg version="1.1" id="Layer_1" xmlns="http://www.w3.org/2000/svg" xmlns:xlink="http://www.w3.org/1999/xlink" x="0px" y="0px"
	 viewBox="0 0 60 120" enable-background="new 0 0 60 120" xml:space="preserve">
<rect y="-0.4" fill="#6F9974" width="60" height="60.4"/>
<rect y="60" fill="#B5DEE4" width="60" height="60"/>
<g>
	<polygon fill="#6F9974" points="47.3,95.8 47.5,95.6 47.7,95.6 47.5,95.2 47.4,94.9 47.2,94.9 47.1,95.4 46.4,95.7 46.2,95.4 
		46.1,95.5 46.2,96.2 46.4,96.2 46.6,96.4 46.6,96.5 46.9,96.5 47.3,96.1 	"/>
	<polygon fill="#6F9974" points="52.5,97.7 52.3,97.3 52.4,97.2 52.2,97 52,96.9 52,96.7 51.4,96.3 51.3,96.3 51.3,97.7 51.5,97.7 
		51.8,97.4 52,97.4 52.1,97.5 52.2,97.9 52.8,98.2 53,98.1 53,98 	"/>
	<polygon fill="#6F9974" points="13.6,92.5 14,92.4 14.1,92.3 14.2,92 14.3,92 14.6,91.7 14.5,91.6 13.9,91.8 13.8,92.2 13.4,92.3 
		13.1,92.1 12.9,91.6 13,90.9 12.7,90.7 12.6,90.1 12.5,90 12.3,90.2 12.1,90.1 12,89.7 11.1,89.6 10.7,89.2 10.2,89.3 10.5,90.1 
		10.4,90.2 10.6,90.4 11,90.6 11,90.9 11.1,91.2 10.9,90.3 10.7,89.8 10.7,89.4 10.8,89.4 10.9,89.5 11,89.9 12,91.3 12,91.8 
		12.4,92.6 12.9,92.9 13.2,92.7 13.5,93 13.7,92.8 	"/>
	<polygon fill="#6F9974" points="32.1,85 32.1,84.6 31.7,84.5 31.5,84.7 31.5,84.8 31.7,84.9 	"/>
	<polygon fill="#6F9974" points="27.9,90.3 27.6,90.7 27.1,90.8 27.1,91.1 28.9,92.5 29.2,92.5 30.3,91.7 30.2,91.6 30,91.6 
		30,91.4 30,90.5 29.8,90.5 29.8,90.3 29.6,90.1 29.6,89.8 29.6,89.8 29.6,89.5 29.6,89.4 29.3,89.3 28.3,89.5 28.1,89.6 28.3,90.3 
			"/>
	<polygon fill="#6F9974" points="26.3,92 26,92 26,91 27,91 27,90.6 27.6,90.6 27.8,90.2 28.2,90.4 28.1,90 27.4,90 27.3,90.1 
		27,90.2 26.7,90.8 26.3,91.1 25.6,92.2 26.2,92.2 	"/>
	<polygon fill="#6F9974" points="25.7,93.1 25.9,92.9 26,92.9 26.2,93 26.4,93.3 26.6,93.1 27.5,93.1 27.3,91.5 27.5,91.5 27,91.2 
		27,91 26.5,91 26.5,92 26.3,92 26.3,92.3 25.6,92.2 25.7,92.4 	"/>
	<polygon fill="#6F9974" points="26.1,93.3 26.2,93.4 26.1,93.5 26.3,93.6 26.3,93.7 26.6,93.7 26.6,93.6 26.4,93.3 26.1,93 
		26,92.9 25.9,93 25.7,93.1 25.6,93.2 25.6,93.3 25.7,93.4 26,93.4 	"/>
	<polygon fill="#6F9974" points="26.1,93.4 26.1,93.4 26,93.4 25.7,93.4 25.7,93.5 26.1,93.5 	"/>
	<polygon fill="#6F9974" points="26.3,93.7 26.1,93.6 25.7,93.5 25.8,93.7 25.8,93.6 	"/>
	<polygon fill="#6F9974" points="26.1,93.7 25.8,93.7 25.8,93.8 25.9,94 26.1,93.8 	"/>
	<polygon fill="#6F9974" points="26.5,94 26.7,94.3 26.9,94.4 27,94.3 27,94.3 27,94 26.9,93.7 26.6,93.7 26.2,93.7 26.1,93.8 
		25.9,94 26.1,94.3 26.3,94.1 	"/>
	<polygon fill="#6F9974" points="26.5,94.1 26.3,94.1 26.1,94.3 26.4,94.6 26.7,94.3 	"/>
	<polygon fill="#6F9974" points="26.9,94.5 26.7,94.3 26.5,94.6 27.1,95.1 27.1,94.7 	"/>
	<polygon fill="#6F9974" points="27.8,94.5 27.9,94.1 27.6,94.1 27.4,94 27.2,94 27.1,94 27.1,94.3 27,94.3 26.9,94.5 27.1,94.7 
		27.2,95.1 27.4,94.9 27.7,94.8 28,94.9 27.9,94.7 	"/>
	<polygon fill="#6F9974" points="26.9,93.6 27,93.9 27.5,93.9 27.6,93.6 28.2,93.2 29,93.1 29,92.6 28.9,92.5 27.6,91.6 27.4,91.6 
		27.6,93.2 26.6,93.2 26.4,93.3 26.6,93.6 26.6,93.7 	"/>
	<polygon fill="#6F9974" points="28.4,93.2 28.2,93.2 27.6,93.7 27.5,94 27.6,94.1 27.9,94 27.9,93.9 28.2,93.9 28.4,93.9 
		28.8,93.7 	"/>
	<polygon fill="#6F9974" points="29,93.6 29.1,93.4 29.3,93.4 29.5,93.6 30,93.6 30.4,93.4 30.6,93.3 30.6,93.1 30.9,92.8 
		30.9,92.2 30.8,91.9 30.3,91.8 29.2,92.6 29.1,92.6 29,93.1 28.5,93.2 28.8,93.6 	"/>
	<polygon fill="#6F9974" points="28.2,93.9 27.9,93.9 27.9,94.5 27.9,94.7 28.1,94.9 28.2,94.9 28.4,94.8 28.4,94 	"/>
	<polygon fill="#6F9974" points="28.5,93.9 28.5,94 28.5,94.8 28.6,94.7 28.6,94.1 	"/>
	<polygon fill="#6F9974" points="29,93.7 28.8,93.7 28.6,93.9 28.7,94.1 28.7,94.7 28.8,94.7 28.8,94.3 29,94.1 	"/>
	<polygon fill="#6F9974" points="29.6,94.9 29.7,94.9 29.8,94.7 30,94.6 30.2,94.6 30.7,93.8 30.7,93.6 30.5,93.4 30.1,93.6 
		29.5,93.6 29.3,93.4 29.1,93.5 29,93.7 29,94.1 28.9,94.3 28.8,94.6 29.1,94.7 29.3,95 29.5,95 	"/>
	<polygon fill="#6F9974" points="29.9,90.5 30,90.5 30,90.3 30,90.3 30.2,90 30,89.9 30,89.9 30.1,89.8 30.1,89.6 30,89.6 30,89.4 
		30,89.4 30,89.3 29.9,89.2 29.6,89.4 29.7,89.8 29.6,89.9 29.6,90 29.8,90.2 29.8,90.5 	"/>
	<polygon fill="#6F9974" points="30.2,91.5 30.3,91.7 30.8,91.8 30.9,91.8 32.1,92.4 32.3,92.4 32.3,90.3 32,90.2 31.9,90 31.6,90 
		31.4,90.2 31.4,90.2 31.5,90.4 31.5,90.5 31.3,90.6 30.8,90.3 30.7,90.2 30.2,89.9 30.1,90 30,90 30,90.4 29.9,90.5 29.9,91.3 
		30,91.5 	"/>
	<polygon fill="#6F9974" points="33.1,90.5 32.9,90.5 32.8,90.4 32.5,90.3 32.3,90.3 32.3,92 33.8,92 34,91.8 33.9,91.5 33.4,90.9 
		33.3,90.7 33.4,90.5 33.5,90.5 33.6,90.9 33.7,90.9 33.7,90.9 33.7,90.7 33.7,90.6 33.5,90.4 33.5,90.5 33.3,90.5 33.2,90.5 	"/>
	<polygon fill="#6F9974" points="31,93.6 31,94 30.8,94.1 30.8,94.2 30.8,94.2 30.9,94.4 31.1,94.4 31.1,94.4 31.4,94.4 31.4,94.3 
		31.8,94 32.1,94 32,93.6 32,93.3 32,93.1 32,92.4 30.9,91.8 30.8,91.9 31,92.2 30.9,92.9 30.6,93.1 30.6,93.3 30.5,93.4 30.8,93.6 
			"/>
	<polygon fill="#6F9974" points="34.2,94.6 33.9,94 33.8,94 33.7,94 34.2,94.1 35,93.3 35,92.9 34.9,92.6 34.2,91.8 33.9,92.1 
		32.4,92 32.4,92.4 32.2,92.4 32.2,93.1 32,93.3 32,93.6 32.1,93.9 32.3,94 32.3,94.1 32.2,94.2 32.9,94.9 33.3,94.9 33.4,95 
		33.9,95 33.9,94.9 34,94.7 	"/>
	<polygon fill="#6F9974" points="31,95.2 30.8,94.9 30.7,94.8 30.9,94.5 30.8,94.2 30.7,94.2 30.7,94.1 30.7,94 30.7,93.6 
		30.6,93.6 30.7,93.8 30.3,94.6 30,94.6 29.8,94.7 29.8,94.9 30,95.1 29.9,95.4 31,95.3 	"/>
	<polygon fill="#6F9974" points="34.6,92.7 34.5,92.6 34.3,92.9 34.3,93.2 34.7,93.2 35.1,93.6 35.2,93.4 34.7,93 	"/>
	<polygon fill="#6F9974" points="35.2,93.6 35.1,93.8 35.3,93.8 35.4,93.5 35.3,93.5 	"/>
	<polygon fill="#6F9974" points="35.4,94 35.1,94 35.1,93.7 34.7,93.3 34.3,93.3 33.9,94.2 33.8,94 33.8,94 33.9,94 34.2,94.6 
		34.3,94.7 34.7,95 34.8,95 35.6,94.8 36.1,94.3 35.8,94.3 35.4,94.1 	"/>
	<polygon fill="#6F9974" points="36.2,94.3 36.3,94.2 36.4,94 36.3,93.8 35.7,94 35.6,94 35.4,93.8 35.4,94 35.9,94.3 	"/>
	<polygon fill="#6F9974" points="36.3,93.8 36.4,94 36.3,94.2 36.2,94.3 35.6,94.9 35.2,95.1 35,95.3 35,95.8 35.2,95.9 36.4,94.6 
		36.7,93.9 36.7,93.7 36.6,93.7 	"/>
	<polygon fill="#6F9974" points="31.2,95.1 31.3,95.1 31.4,94.9 31.5,94.8 31.9,95.1 32.1,94.9 32.9,94.9 32.1,94.2 32.2,94.1 
		32.3,94 32.1,94 31.9,94 31.5,94.3 31.5,94.5 31.2,94.4 31.1,94.5 30.9,94.5 30.8,94.8 30.8,94.9 31.1,95.2 	"/>
	<polygon fill="#6F9974" points="29.4,95.7 29.4,95.7 29.4,95.7 29.5,95.7 29.4,95.6 	"/>
	<polygon fill="#6F9974" points="29.5,95.5 29.5,95.5 29.6,95.6 29.6,95.5 29.6,95.4 	"/>
	<polygon fill="#6F9974" points="29.8,95.2 29.8,95.1 29.7,95.1 29.7,95.2 29.8,95.3 	"/>
	<polygon fill="#6F9974" points="30.3,96.2 30.2,96.2 30.2,96.1 30.4,96 30.6,96.1 30.8,96.1 30.7,95.5 30.5,95.5 30.5,95.4 
		30.3,95.4 30.3,95.5 29.9,95.5 29.7,95.9 30.2,96.4 30.3,96.3 	"/>
	<polygon fill="#6F9974" points="30,95.5 30.2,95.5 30.2,95.4 30,95.4 	"/>
	<polygon fill="#6F9974" points="30.4,96.2 30.5,96.2 30.5,96.4 30.6,96.5 31,96.2 31,96 31.1,95.9 31.3,95.6 31.3,94.9 31.2,94.9 
		31,95.3 30.5,95.3 30.5,95.5 30.8,95.5 30.8,96.2 30.6,96.2 30.4,96.1 30.3,96.1 30.3,96.2 30.4,96.2 30.4,96.4 30.2,96.5 
		30.3,96.4 	"/>
	<polygon fill="#6F9974" points="30.4,96.5 30.3,96.6 30.4,96.7 30.5,96.6 30.5,96.5 	"/>
	<polygon fill="#6F9974" points="31,96.7 31.2,96.9 31.1,97 31.2,97 31.5,97 31.6,97 31.7,97 31.7,97 31.9,97 31.8,97.5 32,97.5 
		32,97.6 32.9,97.9 33,98 33.2,98 33.2,97.7 32.9,97.6 32.9,97.4 33,97.1 33.3,97.1 33.1,96.3 33.1,96 33.5,95.4 33.5,95.3 
		33.4,95.2 33.4,95.1 33.3,95.1 33.3,95 32.1,94.9 31.9,95.1 31.5,94.9 31.4,95 31.3,95.7 31.1,95.9 31,96.1 31.1,96.3 30.7,96.6 
		30.5,96.6 30.6,96.6 30.4,96.7 	"/>
	<polygon fill="#6F9974" points="33.4,96 33.2,95.8 33.1,96 33.1,96.1 33.4,96.1 	"/>
	<polygon fill="#6F9974" points="33.2,96.4 33.2,96.4 33.3,96.4 33.4,96.2 33.1,96.2 33.1,96.3 	"/>
	<polygon fill="#6F9974" points="33.9,95.1 33.5,95.1 33.5,95.2 33.5,95.3 33.5,95.4 33.2,95.8 33.4,95.9 33.5,95.9 33.8,95.8 
		33.9,95.8 33.9,95.7 34.1,95.4 	"/>
	<polygon fill="#6F9974" points="35,95.3 35.1,95.1 34.9,95.2 34.6,95.2 34.3,94.9 34.2,94.8 34,94.9 34,94.9 34,95.1 34.1,95.4 
		33.9,95.7 33.9,95.9 34.8,96.4 35.1,96 35,95.9 	"/>
	<polygon fill="#6F9974" points="33.8,95.9 33.5,95.9 33.4,96 33.4,96.2 33.4,96.4 33.3,96.5 33.2,96.5 33.4,97.2 33.7,97.3 
		33.9,97.3 33.9,97.4 33.7,97.4 33.8,97.8 33.8,98.1 33.9,98.3 33.9,98.5 34,98.6 34.2,98.4 34.2,98 34.1,97.9 34,97.6 35,97.5 
		34.7,97.1 34.7,96.7 34.8,96.5 	"/>
	<polygon fill="#6F9974" points="33.8,97.8 33.7,97.4 33.3,97.2 33.1,97.2 32.9,97.4 33,97.6 33.2,97.7 33.3,98 33,98 32.9,97.9 
		32.2,97.6 32.2,97.9 31.9,97.9 31.9,98.4 32.1,98.6 32.3,98.7 32.4,98.7 32.7,98.7 33,98.4 33.7,98 	"/>
	<polygon fill="#6F9974" points="31.4,98.6 31.7,98.7 32.1,98.7 32,98.4 32,97.8 32,97.8 32,97.6 31.8,97.6 31.8,97 31.7,97 
		31.7,96.9 31.6,96.8 31.5,96.8 31.2,96.8 31.1,96.9 31.1,96.9 31,96.7 30.4,96.8 30.6,97.5 30.6,97.7 30.3,98.1 30.3,98.6 	"/>
	<polygon fill="#6F9974" points="34,97.7 34.1,97.9 34.2,98 34.3,98.4 33.9,98.7 33.9,98.5 33.9,98.3 33.7,98.1 33.3,98.3 
		33.7,98.5 33.7,99.1 33.4,99.5 33.4,100 33.6,100.2 33.9,99.9 34,99.6 34,99.1 34.6,98.6 34.7,98.6 35,98.3 35,97.6 	"/>
	<polygon fill="#6F9974" points="33.6,98.5 33.2,98.3 33,98.4 32.8,98.8 32.5,98.8 32.5,98.8 33,99.4 33.4,99.5 33.6,99.1 	"/>
	<polygon fill="#6F9974" points="31.2,100.7 31.2,100.7 31,99.9 31,99.4 31.4,99.4 31.6,98.9 32.1,98.8 32.3,98.7 32,98.7 
		31.7,98.9 31.3,99 30.3,99 30.3,99.1 30.6,99.5 30.6,99.8 30.6,99.9 30.9,100.5 31,100.6 	"/>
	<polygon fill="#6F9974" points="31.8,100.3 32.1,100.1 32.4,100.1 32.5,99.9 33,99.5 32.4,98.8 32.4,98.7 32.4,98.7 32.2,98.9 
		31.8,98.9 31.7,99.4 31.5,99.5 31.5,99.9 31.7,100 31.6,100.3 	"/>
	<polygon fill="#6F9974" points="33.2,100.3 33.3,100.4 33.4,100.4 33.5,100.2 33.4,100.1 33.3,100.1 	"/>
	<polygon fill="#6F9974" points="32.6,100.7 32.6,100.8 32.6,100.9 32.8,101 32.8,100.9 33,100.9 33,100.7 32.9,100.6 32.8,100.6 	
		"/>
	<path fill="#6F9974" d="M33.5,101L33.5,101l-0.3-0.4l0.1-0.4l0.2-0.1v-0.5L33,99.5l-0.5,0.4l-0.1,0.3H32l-0.3,0.3h-0.2v-0.4h-0.1
		v0.8H31l-0.1-0.1h-0.2L31,101l0.3,0.2l-0.2,0.2l0.1,0.3l0.3,0.1l0.2-0.2h0.6v-0.1h0.3l0.9-0.9l0,0V101z M33,100.9l-0.2,0.1v0.1
		h-0.3l-0.1-0.2l0.1-0.1l0.2-0.1h0.1l0.1,0.2H33z"/>
	<polygon fill="#6F9974" points="25.7,82.4 26.1,82.2 26.2,81.8 25.9,81.6 25.7,81.5 25.5,81.2 25.8,81 26.3,81.2 26.4,81.1 
		26.2,80.9 26.7,80.2 26.6,79.9 26.4,79.9 26.5,79.6 26.8,79.4 27.4,78.9 27.2,78.7 26.5,78.7 26.2,79.1 26.4,78.6 26.1,78.6 
		26,78.8 25.8,78.7 25.2,78.7 25.4,78.5 26.3,78.4 26.1,78.1 25.1,77.9 24.7,78 24.7,78.2 24.2,78.1 24.3,77.9 24,78 23.9,78.1 
		24.2,78.2 23.9,78.5 23.7,78.2 23.3,77.9 23.3,78 23,78 22.8,77.9 22.3,77.9 22,78.1 22,78.3 21.7,78.3 21.7,78.4 22,78.6 22,78.7 
		21.3,78.8 21,78.7 20.8,78.9 21,79.1 21.3,79 21.4,79.2 21,79.3 20.8,79.2 20.7,79.3 20.8,79.4 20.8,79.6 21,79.9 21.2,79.8 
		21.6,79.7 21.9,80.2 22.2,80.8 22,81.2 22.3,81.2 22.4,81.3 22.4,81.5 22.1,81.5 22.3,81.7 22.5,81.7 22,82.4 21.9,82.9 22,83.2 
		22,83.4 22.1,83.8 22.4,84.1 22.5,84.1 22.6,84.1 22.6,84.3 22.7,84.5 23,84.5 23.1,83.9 23.6,83.3 24.3,83 24.7,82.7 24.9,83 
		25.3,83 	"/>
	<polygon fill="#6F9974" points="22.1,81.9 22.1,81.8 22,81.6 21.9,81.7 21.9,81.8 22,81.9 	"/>
	<polygon fill="#6F9974" points="25.9,81.4 26.2,81.5 26.2,81.3 25.9,81.2 25.8,81.3 	"/>
	<polygon fill="#6F9974" points="52.2,100.9 51.9,100.2 51.7,100 51.7,99 51.5,98.7 51.4,98 51.3,98 50.9,99.5 50.6,99.5 50.1,99 
		50.4,98.3 49.9,98.2 49.3,98.4 49.1,98.8 48.9,98.9 48.9,98.6 47.8,99.2 47.8,99.1 47.6,99 47.2,99 46.4,99.7 46,100.7 46,102.3 
		45.8,102.5 45.8,102.6 46.1,103 46.8,103 47.2,103 47.4,102.6 48.2,102.4 48.8,102.6 48.8,102.8 48.9,103 49.3,102.9 49.4,103.1 
		49.1,103.3 49.2,103.4 49.4,103.3 49.3,104 49.8,104.3 50,104.2 50.1,104.3 50.8,104.2 51.5,103.1 51.7,103.1 52.2,102.2 
		52.4,101.4 52.1,101 	"/>
	<polygon fill="#6F9974" points="49.7,105.2 49.7,105.5 50,105.5 50.3,104.9 49.8,104.8 	"/>
	<polygon fill="#6F9974" points="45.6,96.2 45.4,96.1 45.3,95.8 43.8,94.5 43.8,95 44.2,96 44.3,96 45.1,97 45.4,96.9 	"/>
	<polygon fill="#6F9974" points="46.4,95.6 47.1,95.4 47.2,94.9 47.5,94.9 47.8,94.7 47.4,94.4 47.3,94.3 47.1,94.6 47.2,94.8 
		47.1,94.9 46.9,94.9 46.4,95.2 46.4,95.4 46.2,95.4 	"/>
	<polygon fill="#6F9974" points="47.1,94.6 46.9,94.8 47.1,94.9 47.2,94.8 	"/>
	<polygon fill="#6F9974" points="48.4,96.6 48.3,96.2 48.2,96.1 48.4,95.9 48.4,95.9 48.1,96.2 48.1,96.2 47.9,95.9 48,95.7 
		48.2,95.6 48.5,95.7 48.6,95.7 48.8,95.4 48.7,95.4 48.5,95.6 48.4,95.6 48.2,95.4 48,95.4 47.8,95.7 47.7,96.2 47.7,96.4 
		47.9,96.5 47.9,96.8 47.9,96.8 47.9,96.8 48,96.2 48,96.2 48.2,96.8 48.3,96.8 	"/>
	<polygon fill="#6F9974" points="49.2,95.8 49.3,95.6 49.3,95.6 49.2,95.5 49.1,95.4 49.1,95.3 49,95.5 	"/>
	<polygon fill="#6F9974" points="49.3,96.3 49.4,96.3 49.6,96.4 49.6,96.3 49.5,96.2 49.4,96.1 49.2,96.2 49.1,96.3 49.2,96.4 	"/>
	<polygon fill="#6F9974" points="46.2,97.2 46.3,97.4 46.6,97.4 46.7,97.5 46.9,97.5 47,97.4 46.8,97.3 46.6,97.1 46.1,97 
		45.6,96.9 45.4,97 45.5,97.1 46,97.2 	"/>
	<polygon fill="#6F9974" points="47.2,97.5 47.4,97.5 47.2,97.4 47.1,97.4 	"/>
	<polygon fill="#6F9974" points="47.6,97.5 47.6,97.4 47.6,97.3 47.4,97.3 47.5,97.4 	"/>
	<polygon fill="#6F9974" points="47.8,97.8 47.8,97.6 47.6,97.6 47.7,97.8 	"/>
	<polygon fill="#6F9974" points="48.2,97.4 48.1,97.4 47.9,97.4 47.9,97.4 47.8,97.4 47.8,97.5 48,97.5 	"/>
	<polygon fill="#6F9974" points="48.5,97.7 48.6,97.6 48.9,97.6 48.9,97.5 48.6,97.5 48.3,97.7 48.4,97.8 	"/>
	<polygon fill="#6F9974" points="47.7,93.4 47.6,93.5 47.6,93.6 47.3,93.9 47.3,94 47.4,94 47.8,93.6 	"/>
	<polygon fill="#6F9974" points="48.3,93.3 48.1,93.3 48.1,93.5 48.2,93.7 48.2,93.9 48.4,93.9 48.4,93.8 48.3,93.7 	"/>
	<polygon fill="#6F9974" points="48.4,93.6 48.5,93.7 48.6,93.6 48.5,93.4 48.4,93.4 	"/>
	<polygon fill="#6F9974" points="48.6,93.4 48.7,93.4 48.7,93.2 48.6,93.1 48.5,93.1 48.6,93.3 	"/>
	<polygon fill="#6F9974" points="48.9,94.1 48.9,93.8 48.7,93.7 48.7,93.8 48.5,94 48.3,94 48.2,94.2 48.2,94.3 48.3,94.2 
		48.4,94.1 48.5,94.4 48.7,94.5 48.8,94.5 48.8,94.4 48.7,94.3 48.8,94.2 48.9,94.3 48.9,94.2 	"/>
	<polygon fill="#6F9974" points="48.1,92.2 48,92 47.8,92 47.6,92.1 47.6,92.4 47.8,92.9 47.9,92.9 48,92.9 48.2,92.9 48.2,93 
		48.4,93 48.4,93 48.3,92.9 48.2,92.8 48,92.7 47.9,92.6 48.1,92.4 	"/>
	<polygon fill="#6F9974" points="47.9,93 47.9,93.1 48,93.2 48,93.1 	"/>
	<polygon fill="#6F9974" points="46.1,92 46.1,91.9 46,91.8 45.8,91.9 45.7,92 45.8,92.1 45.9,92.2 	"/>
	<polygon fill="#6F9974" points="48.8,89 48.6,88.8 48.5,88.7 48.4,88.8 48.4,89 48.5,89 48.5,89.3 48.6,89.3 48.7,89.2 	"/>
	<polygon fill="#6F9974" points="49,88.6 49,88.5 48.8,88.7 48.8,88.9 48.8,88.9 49.1,88.7 	"/>
	<polygon fill="#6F9974" points="49.9,88.1 49.8,87.6 49.7,87.4 49.8,87.3 49.6,86.8 49.4,86.8 49.2,87 49.2,87.1 49.3,87.2 
		49.4,87.6 49.2,87.8 49.2,87.7 49.1,87.9 49.1,88.1 49.1,88.2 49.1,88.1 49,87.9 48.9,87.9 48.8,88.1 48.7,88.1 48.5,88.5 
		48.5,88.6 48.7,88.6 48.9,88.4 49.1,88.4 49.3,88.6 49.4,88.5 49.4,88.3 49.7,88.3 	"/>
	<polygon fill="#6F9974" points="49.5,86.4 49.6,86.5 49.6,86.3 49.8,86.1 50,86.1 49.9,85.9 49.8,85.8 49.7,85.9 49.6,86 49.5,86 
		49.3,85.8 49.2,85.7 49.1,85.8 49.2,85.9 49.3,86 49.2,86.3 49.1,86.3 49.1,86.5 49.3,86.8 49.4,86.7 49.5,86.7 49.3,86.5 
		49.4,86.4 	"/>
	<polygon fill="#6F9974" points="49,84.6 49,84.5 48.3,83.4 48.2,83.3 48.2,83.7 48.6,84.4 48.8,85 49.1,85.5 49.2,85.6 49.3,85.5 
		49.3,85.3 48.9,84.9 48.9,84.7 	"/>
	<polygon fill="#6F9974" points="36.4,97.7 36.3,97.7 36.2,98 36,98.4 35.7,98.4 35.5,98.6 35.5,99.2 35.3,99.4 35.3,99.9 
		35.5,100.1 35.7,100.1 36,99.9 35.9,99.6 36.4,98.7 36.3,98.6 36.4,98.4 36.6,98.4 36.6,98.3 36.5,97.9 	"/>
	<polygon fill="#6F9974" points="18.2,92.6 18.2,92.6 18.1,92.6 18.2,92.7 18.3,92.6 	"/>
	<polygon fill="#6F9974" points="18.3,92.8 18.4,92.9 18.5,92.8 18.4,92.7 	"/>
	<polygon fill="#6F9974" points="18.5,93 18.5,93.1 18.6,93.1 	"/>
	<polygon fill="#6F9974" points="18.6,93.3 18.6,93.3 18.5,93.2 18.5,93.3 	"/>
	<polygon fill="#6F9974" points="18.5,93.6 18.6,93.5 18.5,93.4 18.5,93.5 	"/>
	<polygon fill="#6F9974" points="18.4,93.7 18.4,93.7 18.5,93.7 18.5,93.6 18.5,93.6 	"/>
	<polygon fill="#6F9974" points="18.5,93.8 18.5,93.9 18.4,93.9 18.4,94 18.5,94.1 18.6,94 18.6,93.9 18.6,93.8 	"/>
	<polygon fill="#6F9974" points="17.9,92.4 17.8,92.4 17.6,92.5 17.7,92.5 17.9,92.6 	"/>
	<polygon fill="#6F9974" points="16.8,92.4 16.8,92.4 16.5,92.4 16.6,92.6 16.6,92.6 16.6,92.6 16.6,92.6 16.7,92.5 16.7,92.5 
		16.9,92.5 16.9,92.5 17,92.5 17,92.6 17,92.6 17.1,92.5 17.3,92.5 17.4,92.5 17.4,92.4 17.1,92.2 17.1,92.2 16.9,92.1 16.7,92.1 
		16.7,92.1 16.7,92.1 16.7,92.2 16.7,92.2 16.7,92.2 16.7,92.3 16.8,92.3 	"/>
	<polygon fill="#6F9974" points="25.8,83.8 26,83.8 26.1,83.8 26.4,83.7 26.6,83.4 26.6,83.2 26.5,83.1 26.4,83 26.3,83.1 
		26.2,83.2 26.2,83.1 26.1,83.1 26,83.1 25.8,83.2 25.7,83.3 25.7,83.3 25.7,83.1 25.7,83.1 25.7,83 25.6,83 25.4,83.1 25.3,83.2 
		25.3,83.3 25.5,83.3 25.4,83.4 25.4,83.5 25.4,83.5 25.6,83.5 25.6,83.7 	"/>
	<polygon fill="#6F9974" points="34.9,81.3 35,81.5 35.1,81.5 35.2,81.3 35,81.1 34.9,80.8 34.6,80.7 34.6,81 34.5,81.1 34.5,81.2 
		34.6,81.3 	"/>
	<polygon fill="#6F9974" points="41.7,94.1 41.5,94 41.4,94 41.4,94.2 41.4,94.3 41.4,94.3 41.4,94.5 41.5,94.6 41.7,94.5 
		41.7,94.2 	"/>
	<polygon fill="#6F9974" points="15.3,91.5 14.8,91.6 14.8,91.7 15.2,91.7 15.4,91.6 15.5,91.7 15.8,91.8 16.1,92 16,92.1 16,92.2 
		16.2,92.2 16.5,92.1 16.6,92 16.4,92 15.6,91.5 	"/>
	<polygon fill="#6F9974" points="16,91.2 16,91.3 16.1,91.4 16.2,91.3 16.1,91.2 	"/>
	<polygon fill="#6F9974" points="16.1,91.5 16.2,91.6 16.3,91.5 16.2,91.4 	"/>
	<polygon fill="#6F9974" points="16.5,91.7 16.6,91.6 16.6,91.5 16.5,91.5 16.5,91.6 	"/>
	<polygon fill="#6F9974" points="16.4,91.2 16.4,91.1 16.3,91.1 16.3,91.3 16.5,91.4 16.5,91.3 	"/>
	<polygon fill="#6F9974" points="16.2,90.8 16.1,90.9 16.2,90.9 16.3,91 16.3,91 16.4,90.9 16.3,90.8 	"/>
	<polygon fill="#6F9974" points="16.1,92.5 16.2,92.4 16.1,92.4 15.9,92.4 15.9,92.5 16,92.5 	"/>
	<polygon fill="#6F9974" points="49.8,96.3 49.9,96.6 50,96.5 50.1,96.2 50.2,96.2 50.3,96.5 50.9,97.1 50.9,97.5 51.1,97.7 
		51.2,97.7 51.3,96.3 50.9,96 50.5,96.3 50.4,96.3 50.2,96.2 50.2,95.8 50.1,95.8 49.9,95.8 49.7,95.9 49.7,96.1 49.8,96.1 
		49.8,96.2 	"/>
	<polygon fill="#6F9974" points="10.1,82.6 10,82.7 10.1,83 10.2,83 10.2,82 10.3,82 10.3,83.4 10.6,83.1 10.4,82 10.1,82 9.8,81.7 
		11.4,79 9.8,77.8 8,78.1 8,78.7 8.3,78.9 8.2,79.3 7.7,78.9 7.2,79 7.3,79.5 7.8,79.7 7.9,79.8 7.1,80 6.6,80.8 6.8,81.5 7.1,81.7 
		7.2,81.5 7.3,81.6 7.1,81.9 6.1,82.4 5.5,82.5 5.5,82.7 6.9,82.3 7.5,82.2 8,81.5 8.6,81.1 8.3,81.6 8.6,81.7 9.1,81.4 9.2,81.8 
		9.6,81.9 10,82.3 	"/>
	<polygon fill="#6F9974" points="13.7,79.5 14,79.4 14.2,79.1 14.7,78.9 15.1,78.9 14.8,78.5 14.7,78.7 14.5,78.6 14.5,78.5 
		14.3,78.3 14,78.4 14.1,78.6 13.6,79.1 	"/>
	<polygon fill="#6F9974" points="15.2,77.8 15.3,78 15.4,78 15.7,77.7 15.4,77.6 15.2,77.5 15.1,77.7 14.6,77.7 14.5,77.9 15,78 	
		"/>
	<polygon fill="#6F9974" points="15.4,78.2 15.4,78.3 15.8,78.5 15.6,78.7 15.6,79 15.9,79 16.2,79 16.3,79 16.5,78.8 16.5,78.5 
		16.3,78.6 16.3,78.4 16.3,78.4 16.3,78.4 16.1,78.3 16.1,78.3 16.1,78.5 16,78.5 15.8,78.5 15.8,78.3 15.6,78.1 	"/>
	<polygon fill="#6F9974" points="16.4,77.8 16.4,77.7 16,77.7 16,77.8 16.2,77.9 	"/>
	<polygon fill="#6F9974" points="16.4,77.6 16.4,77.5 16.2,77.4 16,77.5 16.1,77.6 	"/>
	<polygon fill="#6F9974" points="17.5,78.1 17.6,78.1 17.6,77.9 17.3,77.6 17.1,77.7 17,77.7 17,77.8 17,78 17.2,77.9 	"/>
	<polygon fill="#6F9974" points="17.7,78.2 17.8,78.3 18.1,78.2 18.1,78.1 17.9,77.9 17.7,77.9 17.8,78 	"/>
	<polygon fill="#6F9974" points="18.4,77.8 18.5,77.9 18.5,78 18.2,78 18.4,78.3 18.7,78.4 19.1,78.2 18.5,77.3 18.4,77.4 
		18.4,77.6 18.2,77.5 18.1,77.6 18.1,77.8 	"/>
	<polygon fill="#6F9974" points="14.9,80.6 15.4,80.6 15.4,80.4 15.8,80.8 16,80.7 16,80.5 16.2,80.6 16.2,80.3 16,80.2 16,79.4 
		15.8,79.3 15.7,79.5 15.1,79.1 14.6,79.2 14.4,79.4 14.4,79.7 14.9,79.9 14.8,80.1 14.4,79.9 14.3,80.1 14.5,80.2 14.5,80.5 	"/>
	<polygon fill="#6F9974" points="16.4,79.7 16.6,79.9 16.6,80.2 17,80 17,79.7 17.1,79.5 17,79.4 16.8,79.4 16.7,79.6 16.5,79.5 	
		"/>
	<polygon fill="#6F9974" points="17.3,80 17.5,80 17.5,79.9 17.6,80 17.8,80 18.1,79.7 17.5,79.5 17.2,79.7 	"/>
	<polygon fill="#6F9974" points="17.8,79.2 17.5,79.1 17.4,79.2 17.7,79.3 	"/>
	<polygon fill="#6F9974" points="17.1,79 17.1,79.1 17.2,79.1 17.4,78.8 17.3,78.6 17,78.6 16.9,78.8 17.2,78.8 	"/>
	<polygon fill="#6F9974" points="17.9,78.9 17.9,79.1 17.8,79.1 17.9,79.4 18.9,79.7 19.1,79.8 19.4,79.6 19.1,79.3 18.8,79.4 
		18.4,79.4 18.2,79.2 18.2,78.8 17.9,78.7 17.8,78.5 17.6,78.6 17.7,78.8 	"/>
	<polygon fill="#6F9974" points="20.4,82.3 20.2,81.7 20.4,81.3 20,80.9 19.7,81 19.5,80.5 19,80.6 18.9,80 18.5,80.5 18.5,81 
		18.3,81 18.3,80.5 18.6,79.9 18.3,79.9 18,80 17.8,80.2 17.8,80.9 18.4,80.9 18.9,81.1 19.3,81.6 19.6,81.6 19.5,81.9 19.2,82.4 
		19,82.5 18.8,82.5 18.6,82.4 18.5,82.6 18.6,82.8 18.8,82.8 19,82.7 19.3,83.3 19.8,83.6 20.2,83.1 19.9,82.6 20.1,82.4 20.4,82.8 
		20.9,82.4 20.8,82.2 	"/>
	<polygon fill="#6F9974" points="19.3,80.1 19.2,80.1 19.1,80.2 19.1,80.3 19.6,80.4 	"/>
	<polygon fill="#6F9974" points="19.4,77.6 19.4,77.8 19.6,78 20.2,77.8 20.2,78 19.8,78.2 19.5,78 19.2,78 19.5,78.4 19.3,78.5 
		19.2,78.3 19,78.1 19.1,78 19.4,78 19.3,78.5 19.1,78.7 19,78.5 19,78.6 19,78.7 18.6,78.8 18.6,78.9 18.9,79.1 19.2,79.1 
		19.5,79.3 19.7,79.2 19.6,79 19.8,79 19.8,78.8 20,78.8 20,78.7 19.9,78.5 20,78.4 20.6,78.5 21.4,78.2 21.1,78.1 21.2,78 21.8,78 
		21.9,77.9 20.7,77.5 20.4,77.4 20.1,77.6 19.7,77.3 19.5,77.3 19.5,77.5 19.2,77.3 19,77.4 19,77.5 	"/>
	<polygon fill="#6F9974" points="17.4,82.5 17.4,82.8 17.6,82.7 17.8,82.7 18,82.8 18.2,82.7 17.6,82.2 	"/>
	<polygon fill="#6F9974" points="20.8,87.1 20.9,86.9 20.8,86.6 20.6,86.7 20.4,86.5 20.7,86.3 20.6,86.1 20,86.7 20,86.8 	"/>
	<polygon fill="#6F9974" points="10.1,82.1 10.5,82.2 10.7,83.4 10.3,83.7 10.3,83.9 10.5,84 10.3,84.2 10,84.4 10,84.7 10.6,85.1 
		10.8,85.3 14.9,86 15.5,86.4 15.8,86.4 16.1,86.7 16.3,86.9 16.5,87.1 16.1,87.7 16.2,87.9 17,87.5 17.5,87 18.2,87 18.3,86.8 
		18.6,86.8 18.7,86.8 18.7,87.3 19,87.2 18.7,87.7 18.8,88 19,88 19.2,87.6 19.5,87.5 19.7,87 19.6,87 19.5,87.2 19.3,87.3 
		19.2,87.2 19.1,86.9 19.2,86.6 19.2,86.5 18.8,86.6 18.5,86.6 19,86.2 19.3,86.2 19.9,86.4 20.1,86.1 20.7,85.9 20.7,85.6 20.2,85 
		20,84 19.5,84.4 19.2,84.2 19.4,83.8 19.1,83.4 18.5,83.2 18,84.1 18,84.6 17.8,84.9 17.5,84.9 17.4,85.5 17.2,85.8 17,85.7 
		17,85.5 17.2,84.9 16.5,84.6 16.1,84.1 16,83.9 15.7,83.7 15.8,83.6 16.2,83 16.7,82.6 17.1,82.5 17.3,82.2 17.2,82.1 17.8,81.9 
		18.1,82.1 18.4,81.9 18.5,81.3 18.2,81 17.8,81.6 17.6,81.5 17.8,81.2 17.6,81.1 17.4,81.3 17.4,80.3 17.2,80.2 16.9,80.3 
		16.8,80.5 17,80.8 16.9,81.1 16.7,81.3 16.6,81.5 16.5,81.3 16.8,80.9 16.7,80.7 16.4,80.8 16.4,81.1 16.3,81.3 16,81.2 15.6,81 
		15.4,80.7 15.1,80.8 15.1,81.2 14.9,81.2 14.9,80.9 14.3,80.8 14.2,80.7 14.4,80.4 14,80.2 13.4,79.6 13,79.6 13,80 13.1,80 
		13.1,79.4 12.7,79.5 12.3,79.5 12.1,79.4 11.9,79.6 11.6,79.5 11.5,79.3 11.4,79.1 9.9,81.8 	"/>
	<polygon fill="#6F9974" points="11.2,89.4 12.1,89.6 12.2,90 12.3,90.2 12.5,90 12.7,90 12.8,90.7 13,90.9 13.2,90.5 13.9,90 
		14.3,90.2 14.6,90.3 14.6,90 15.3,90.1 15.5,90.2 15.5,90.6 15.4,90.7 15.5,91 15.7,91 15.9,90.7 15.9,90.6 15.8,90.3 15.9,89.9 
		16.5,89.4 16.9,89.3 16.9,88.8 17.5,88.2 18.1,88.1 18.2,87.7 19,87.4 19,86.9 18.7,86.9 18.4,87 18.4,87.3 17.6,87.3 17,87.6 
		16.2,87.9 16,87.7 16.4,87.1 16.2,87 16.1,86.7 15.8,86.5 15.5,86.5 14.9,86.1 10.9,85.4 10.8,85.4 10.6,85 10.5,85 10.5,85.5 
		9.8,87.2 10,88.6 10.2,88.7 10.2,89 10.7,89 	"/>
	<polygon fill="#6F9974" points="10.2,83.8 10.1,83.7 10,83.7 9.9,83.9 10,84 10,84 10,84.1 9.9,84.1 10,84.3 10,84.4 10.1,84.3 
		10,84.1 10.1,84 	"/>
	<polygon fill="#6F9974" points="10.3,84.8 10.4,85 10.5,85.2 10.6,85.4 10.8,85.4 10.8,85.2 10.6,85.1 	"/>
	<polygon fill="#6F9974" points="14.2,92.8 14,92.8 14,92.5 14,92.5 13.7,92.6 13.8,92.8 13.5,93 13.9,93.3 14.2,92.9 	"/>
	<polygon fill="#6F9974" points="14.7,93 14.8,93 14.9,93.1 14.8,92.9 14.3,92.9 14.1,93.1 14.2,93.2 14.2,93.5 14.3,93.5 
		14.4,93.3 	"/>
	<polygon fill="#6F9974" points="14,93.2 13.9,93.3 14.2,93.5 14.2,93.2 	"/>
	<polygon fill="#6F9974" points="15,93.4 15,93.1 14.8,93.1 14.7,93.1 14.5,93.3 14.3,93.5 14.4,93.7 14.8,93.8 	"/>
	<polygon fill="#6F9974" points="14.9,94 14.8,93.8 14.4,93.8 14.4,94 14.7,94.2 14.9,94.3 15,94.1 	"/>
	<polygon fill="#6F9974" points="15.4,94.5 15.4,94.2 15.6,94.2 15.7,94.2 15.8,94.3 15.9,94.3 16,94.1 15.7,94.1 15.6,94 
		15.4,94.1 15.3,94.2 15.1,94.1 15,94.1 14.9,94.3 15.2,94.4 	"/>
	<polygon fill="#6F9974" points="17.4,95.5 17.3,94.7 16.7,94.5 16.5,94 16.9,93.5 16.8,93.5 16,94.2 15.9,94.4 15.8,94.4 
		15.9,94.9 15.6,95.6 15.9,95.8 16.3,95.8 16.5,96.2 16.9,96 16.9,96 17,96 17.2,95.7 17.1,95.7 17.1,95.4 	"/>
	<polygon fill="#6F9974" points="18,95 18.3,95.2 18.4,95.1 18.5,94.9 18.5,94.7 18.7,94.3 18.5,94.2 18.2,93.9 17.8,94 17.4,93.8 
		17.2,93.6 17,93.8 16.9,94.1 16.7,94 16.7,93.9 16.6,94.1 16.7,94.4 17.4,94.7 17.4,95.5 17.6,95.7 17.8,95.7 18,95.5 18.2,95.4 
		18,95.3 18,95.1 	"/>
	<polygon fill="#6F9974" points="18.8,95.6 19.2,95.5 19.2,95.2 18.9,95 19,94.9 19.1,94.7 18.7,94.3 18.5,94.7 18.6,94.9 
		18.6,95.3 	"/>
	<polygon fill="#6F9974" points="19.5,95.3 19.5,95 19.6,94.8 19.6,94.7 19.5,94.7 19.3,94.9 19.2,94.7 19,94.9 19,95 19.2,95.2 
		19.2,95.5 	"/>
	<polygon fill="#6F9974" points="19.8,95.3 20,95 19.7,94.8 19.6,94.9 19.6,95.3 19.8,95.4 	"/>
	<polygon fill="#6F9974" points="15.3,96.5 15.6,96.6 16.1,96.1 16.1,95.9 15.9,95.9 15.6,95.6 15.3,95.8 15.3,96 15.2,96.1 
		15.4,96.3 15.3,96.3 	"/>
	<polygon fill="#6F9974" points="17.3,98.3 17.3,97.9 17,97.4 16.8,97.5 16.7,97.6 16.4,97.2 16.5,96.8 16.9,96.5 16.8,96.3 
		16.5,96.3 16.3,95.9 16.1,95.9 16.2,96.1 15.7,96.7 15.3,96.6 15.3,96.4 15.2,96.5 15.2,96.7 16.1,98.4 17.1,99.1 17.3,98.8 	"/>
	<polygon fill="#6F9974" points="19.1,98.6 18.8,98.6 18.6,98.2 17.9,98 17.8,97.5 17.7,97.5 17.2,97.7 17.3,97.9 17.4,98.2 
		17.3,98.8 17.2,99 17.6,99.9 17.7,99.9 17.9,99.7 18.1,99.7 18.4,99.7 18.6,99.2 19.1,99.2 19.2,98.9 	"/>
	<polygon fill="#6F9974" points="19.1,99.2 18.7,99.3 18.5,99.8 18.7,100 19,100 19.4,100.2 19.3,100.5 19.3,100.6 19.6,100.6 
		19.8,100.3 19.8,100 19.6,99.7 19.2,99.7 19.2,99.4 	"/>
	<polygon fill="#6F9974" points="19.5,101.2 19.5,101.9 19.9,102 20.4,101.5 19.6,101.1 	"/>
	<polygon fill="#6F9974" points="19.4,101.2 19.6,101.1 20,100.4 19.9,100.3 19.7,100.6 19.2,100.7 19.2,100.4 19.3,100.2 19,100 
		18.7,100 18.4,99.8 18,99.7 17.8,99.9 17.8,100.1 17.6,100.3 17.5,101.3 17.7,102 17.6,102.6 18,104.4 18.1,105.4 18.3,105.7 
		18.6,105.7 18.5,105.4 18.8,105 18.9,104.7 18.6,104.4 18.9,103.7 18.8,103.4 19.1,103.3 19.1,103 19.3,103 19.5,102.9 19.8,102.4 
		19.5,101.9 	"/>
	<polygon fill="#6F9974" points="18.5,106.4 18.9,106.4 18.9,106.1 18.7,105.8 	"/>
	<polygon fill="#6F9974" points="18.9,106.1 18.9,106.4 19.2,106.4 19.4,106.3 19.1,106.2 	"/>
	<polygon fill="#6F9974" points="18.3,105.8 18,105.4 18,104.4 17.5,102.7 17.7,102.1 17.4,101.3 17.6,100.2 17.7,100 17.7,99.9 
		17.6,99.9 17.2,99.1 17.2,99.1 17.4,103.4 17.6,103.6 17.6,104.4 17.4,104.5 17.4,104.6 17.5,104.7 17.7,104.8 17.7,105 
		17.6,105.2 17.7,105.4 18.1,106 18.4,106.2 18.4,105.9 18.6,105.7 	"/>
	<polygon fill="#6F9974" points="17.5,103.7 17.4,103.6 17.3,103.7 17.4,103.9 17.4,103.9 	"/>
	<polygon fill="#6F9974" points="20.6,95.9 20.1,95.8 20.2,95.5 20.2,95.1 20.1,95 19.9,95.4 19.8,95.5 19.6,95.4 18.8,95.7 
		18.5,95.3 18.5,95 18.3,95.2 18,95.1 18,95.1 18,95.2 18.2,95.4 17.9,95.8 17.6,95.8 17.4,95.5 17.1,95.5 17.1,95.8 17.3,96 
		17.1,96.6 16.9,96.6 16.5,96.8 16.5,97.2 16.7,97.5 16.8,97.4 17,97.4 17.2,97.7 17.7,97.5 17.9,97.5 18,97.9 18.7,98.1 18.8,98.5 
		19.1,98.6 19.2,98.9 19.1,99.2 19.3,99.4 19.3,99.6 19.6,99.6 19.9,100 19.9,100.3 20.1,100.4 19.6,101.1 20.4,101.5 20.7,100.8 
		20.8,100.3 21.4,100 21.8,100 22.1,99.4 22.1,98.4 22,98.1 22.7,97.5 22.8,96.7 21.8,96.3 	"/>
	<polygon fill="#6F9974" points="14.1,92.7 14.1,92.7 14.3,92.4 14.2,92.4 14.1,92.5 	"/>
	<polygon fill="#6F9974" points="32,82.4 32.1,82.4 32.1,82.8 32.5,83.8 32.2,84.2 32.2,84.4 32.3,84.5 32.2,84.6 32.1,84.6 
		32.1,85 32.3,85.2 32.3,85.3 32.4,85.3 32.7,85.4 32.9,85.8 32.9,85.9 32.8,86 33,86 33.2,86.1 33.5,86.5 34.1,86.5 34.1,86.9 
		33.9,87.1 33.9,87.2 33.7,87.4 33.7,87.7 33.8,87.9 34.2,88 34.4,87.9 35.5,88.3 35.4,88.2 35,88 35,87.7 35,87.7 35.1,87.4 
		35.4,87.2 35,86.8 35,86.4 35.5,86.1 36,86.1 36.1,86.3 36.6,86.3 37,86.1 36.8,85.9 36.8,85.5 37.9,85 38.6,85.4 38.9,85.1 
		39.7,85.8 40.2,85.8 40.4,86 41,86 41.3,85.6 41.8,85.8 42,85.8 42.3,85.6 42.1,85.4 42.3,85.1 42.8,85.3 42.9,85.6 43.1,85.6 
		43.3,85.5 43.7,85.5 43.7,85.6 44.2,85.6 44.5,85.3 45.1,85.3 45.3,85.3 45.3,84.9 45.2,84.3 45.3,84 45.9,84 46.5,84.6 47.2,85 
		47.4,85 47.5,85 47.7,85 47.5,86 47,86 47,86.3 47.4,86.4 47.5,86.6 47.7,86.7 47.7,86.5 47.8,86.6 47.9,86.6 48.2,86.6 48.4,85.8 
		48.5,84.9 48.1,84.1 47.5,83.6 47,83.6 47,83.8 46.8,83.6 47.1,83.2 47.3,82.1 48,82.1 48.4,82 48.7,82 48.6,82 48.7,82 49,81.7 
		49.2,81.7 49.1,81.5 48.9,81.4 49.1,80.7 49.3,80.5 49.4,80.8 49.6,80.9 49.8,80.6 49.7,80.3 49.7,80 50,80 50,80.2 50,80.8 
		49.6,81.9 49.6,82.1 49.6,82.5 50.4,83.7 50.6,83.8 50.6,82.8 50.7,82.7 50.6,82.3 50.7,82.1 50.4,81.7 50.2,81.7 50.2,81 
		50.6,80.9 50.6,80.7 50.9,80.6 51,80.8 51.2,80.1 51.4,79.7 51.7,79.5 52,79.6 52,79.3 51.6,79.3 51.2,78.9 51.3,78.7 51.1,78.3 
		51.3,78.2 51.5,78.4 51.9,78.5 52.4,78.6 52.4,78.4 52.2,78.1 52.4,77.8 51.8,77.5 51.7,77.9 51.5,77.6 50.3,77.2 49.2,77.4 
		49,77.5 49,77.6 49.3,77.7 49.3,78 48.9,77.8 47.9,78.2 47.8,78 47.2,78 46.9,78.2 45.8,77.9 44.9,78.1 44.8,78.4 44.9,78.4 
		44.9,78.6 44,78.7 44.1,79 43.2,78.9 43.4,78.5 42.6,78.5 42.7,78.9 42.4,79 42.1,78.8 41.2,78.9 40.9,79.3 40.8,79.5 40.6,79.5 
		40.9,79.2 42,78.6 42,78.2 41.2,78 40.4,78.3 40,78 39.8,78 39.7,78.3 39.8,78.4 39,78.9 38.4,79.4 38,80 38,80.2 38.4,80.4 
		38.1,80.6 37.6,80.4 37.4,80.6 37.1,80.2 37,80.4 37.4,81.4 37.4,81.5 37.8,81.3 38,81.4 38,81.6 37.7,81.5 37.5,81.6 37.6,81.8 
		37.5,82.3 37,82.4 37,82.2 37.2,82 37.3,81.6 37,81.2 36.9,80.6 36.5,80.5 36.4,80.7 36.5,80.8 36.3,81 36.4,81.4 36.7,81.6 
		36.7,81.9 36.4,81.7 35.7,81.6 35.6,81.8 35.1,82 35,81.9 34.3,82.3 34.2,82.5 33.9,82.6 34,82.4 34,82.2 33.7,82.1 33.6,82.2 
		33.8,82.5 34,82.7 34,82.8 33.7,82.8 33.6,82.7 33.4,83 33.5,83.2 33,83.2 33.1,83.1 33.1,83 32.8,83 32.7,83.1 33,82.8 33,82.8 
		33,82.7 33.3,82.8 33.5,82.9 33.5,82.6 33.3,82.4 32.4,82 32.1,82.1 32,82.2 	"/>
	<polygon fill="#6F9974" points="43.4,90.1 43.5,90.3 43.6,90.3 43.8,90.7 43.7,91 43.8,91.2 44,91.3 44.1,91.5 44.4,91.6 
		44.4,91.4 44.8,91.2 45.1,91.2 45.4,91.6 45.6,91.5 45.7,91.5 45.8,91.7 45.9,91.7 46,91.5 46.6,91.3 47.1,90.6 47.3,90 47.3,89.6 
		47.1,89.6 47.2,89.5 47.4,89.2 47,88.7 47,88.4 47,88.2 47,88.1 46.9,88 46.5,88 46.5,88.2 46.3,88.1 46,87.9 46.2,87.5 46.4,87.3 
		46.6,87.3 46.6,87.6 46.7,87.7 46.9,87.5 47,87.5 47,87.3 47.2,87 47.4,87 47.5,86.7 47.6,86.6 47.6,86.4 47.5,86.3 47.5,86 
		47.7,86 47.7,85.2 47.5,85 47.5,85 47.2,85 46.5,84.8 45.9,84.3 45.4,84.3 45.2,84.5 45.4,84.9 45.3,85.3 45.1,85.4 45,85.4 
		45,85.8 45.1,85.8 45,85.7 45,85.8 45,86 45.1,86 45.1,86.4 45,86.4 44.5,87.1 43.9,87.4 43.5,87.4 43.3,87.2 42.9,87.4 42.5,87.3 
		42.4,87 41.6,87.3 41.3,87 41.1,87 41,86.4 40.8,86.2 40.6,86.7 40.4,86.6 40.1,87.2 40.3,87.5 39.8,88.2 39.6,88.2 39.4,88.4 
		39.4,88.5 39.6,88.5 39.7,88.8 39.7,88.8 40,89.6 40,90 40.6,90.2 41,90.1 41.5,90.4 42.1,90.5 42.3,90.5 42.6,90.5 43.2,90.1 	"/>
	<polygon fill="#6F9974" points="44.5,85.3 44.2,85.6 43.7,85.6 43.6,85.5 43.3,85.5 43.2,85.6 42.9,85.6 42.7,85.4 42.3,85.2 
		42.1,85.4 42.4,85.6 42,85.9 41.8,85.8 41.4,85.6 41,86.1 41.1,86.3 41.3,86.3 41.7,86.9 42.4,87 42.5,87.3 42.9,87.4 43.3,87.2 
		43.6,87.4 43.9,87.3 44.5,87.1 45.1,86.3 45.2,86.3 45.4,85.9 45.6,85.9 45.6,85.9 45.3,85.7 45.1,85.8 44.9,85.8 44.9,85.4 	"/>
	<polygon fill="#6F9974" points="47.7,86.7 47.6,86.7 47.5,86.7 47.4,87.1 47.2,87 47,87.3 47,87.5 47.1,87.5 47.2,87.9 47.4,87.9 
		47.6,87.7 47.5,87.6 47.5,87.3 47.7,87.1 47.6,87 47.7,86.9 	"/>
	<polygon fill="#6F9974" points="47.6,87.7 47.4,87.9 47.5,87.9 47.5,88 47.5,88.1 47.5,88.2 47.7,88.6 47.8,88.6 48,88.4 48,88.3 
		48,88 	"/>
	<polygon fill="#6F9974" points="36.1,88 36.1,88.2 36.2,88.1 36.3,88 36.4,88 36.5,88 36,88 36,88 36,87.7 36,87.5 36.5,87.4 
		37,87.4 37.3,87.7 37.9,87.6 38.2,88.1 38.6,88.1 38.7,87.9 38.8,87.9 38.9,87.7 39.1,87.7 39.2,87.8 39.3,87.6 40.1,87.7 
		40.3,87.5 40,87.2 40.3,86.5 40.6,86.5 40.8,86.1 40.4,86 40.2,85.8 39.6,85.9 38.9,85.2 38.6,85.4 37.8,85.1 36.9,85.5 36.9,85.9 
		37.1,86.1 36.6,86.4 36.1,86.4 35.9,86.2 35.5,86.2 35.1,86.4 35.1,86.8 35.5,87.1 35.7,87 36,86.8 36,87 35.8,87 35.7,87.4 
		35.9,87.8 	"/>
	<polygon fill="#6F9974" points="36.4,89.1 36.5,89.1 36.6,88.9 36.9,88.8 37.6,89.1 37.6,89.3 38,89.3 38.4,88.9 38.3,88.7 
		38.1,88.7 37.3,88.1 37.2,87.9 36.9,87.9 36.8,87.9 36.7,87.9 36.4,87.9 36.4,88.6 36.4,88.6 36.4,88.6 36.6,88.8 36.4,89 	"/>
	<polygon fill="#6F9974" points="39.3,88.2 38.9,88 38.8,87.9 38.7,88 38.6,88.1 38.2,88.1 37.9,87.7 37.4,87.7 37.1,87.5 
		36.8,87.4 36.5,87.5 36.7,88 36.7,88.2 36.8,88.2 36.9,87.9 37.3,87.9 37.3,88.1 38.1,88.6 38.4,88.7 38.1,88.9 38,88.9 38,88.6 
		38.1,88.4 38.7,88 38.9,88 39,88.2 	"/>
	<polygon fill="#6F9974" points="39.7,88.8 39.7,88.8 39.6,88.6 39.4,88.5 39.4,88.4 39.3,88.4 39.2,88.5 38.8,88.4 38.8,88.4 
		38.8,88.3 38.9,88.2 38.9,88.2 38.8,88.2 38.5,88.5 38.7,88.6 38.7,88.9 38.8,88.9 38.9,88.8 38.9,88.8 39.1,88.6 39.2,88.7 
		39.2,88.9 39.3,88.9 39.3,88.8 39.5,88.8 39.6,88.8 39.6,88.8 	"/>
	<polygon fill="#6F9974" points="38.8,88.4 38.9,88.4 39.2,88.4 39.3,88.4 39.5,88.1 39.8,88.2 40.1,87.7 39.3,87.6 39.2,87.9 
		39,87.7 38.9,87.7 38.9,87.9 38.9,88 39.4,88.1 39,88.3 38.9,88.3 38.8,88.3 	"/>
	<polygon fill="#6F9974" points="38.1,90.6 38.7,90.4 38.7,90.2 39.1,89.9 39.2,89.4 39.3,89.3 39.2,89.1 39.6,88.9 39.5,88.8 
		39.4,88.8 39.4,89 39.1,89 39.1,88.8 39.1,88.7 38.9,88.8 38.9,88.9 38.8,88.9 38.4,88.9 38,89.4 37.6,89.3 37.7,90.1 37.9,90.1 
		37.9,90.2 37.8,90.4 	"/>
	<polygon fill="#6F9974" points="39.5,91 39.2,90.8 39.3,90.7 39.6,90.7 40,89.8 39.8,89.7 39.7,89.4 40.2,89.3 39.9,88.8 
		39.7,88.8 39.7,88.9 39.6,88.9 39.3,89.1 39.4,89.3 39.3,89.4 39.1,90 38.8,90.2 38.7,90.4 38.1,90.7 38.3,90.9 38.3,91 38.1,90.9 
		38,91 38.3,91 38.3,91 38.8,91 39.2,91.3 39.2,91 	"/>
	<polygon fill="#6F9974" points="42.2,91 42.3,90.8 42.6,91 43,91 43,91.1 42.8,91.2 42.8,91.3 42.9,91.6 43,92 43,92 43.1,91.5 
		43.2,90.8 43.4,90.6 43.4,90.3 43.3,90.2 43.2,90.2 42.7,90.5 42.7,90.7 42.3,90.7 42.2,90.6 42.1,90.6 42.2,90.8 41.4,90.7 
		40.9,90.5 40.8,90.2 40.5,90 40.5,89.6 40.3,89.3 39.7,89.4 39.8,89.6 40.1,89.8 39.6,90.7 39.3,90.8 39.3,90.9 39.6,91.1 
		39.6,91.4 39.3,91.4 39.2,91.5 39.5,91.5 39.5,91.6 39.3,91.7 39.4,91.9 39.6,92 39.8,91.9 39.8,91.7 39.9,91.7 40,91.8 40,92 
		39.9,92.1 39.9,92.3 40.9,94.3 41.1,94.2 41.3,93.6 41.2,92.9 42,91.9 42,91.7 42.3,91.6 42.3,91.4 	"/>
	<polygon fill="#6F9974" points="41.6,90.4 41.2,90.2 40.9,90.2 40.9,90.5 41.4,90.7 42.1,90.7 42.1,90.6 	"/>
	<polygon fill="#6F9974" points="42.4,90.7 42.7,90.7 42.6,90.5 42.3,90.6 	"/>
	<polygon fill="#6F9974" points="43,91.6 42.9,91.5 42.9,91.4 42.7,91.4 42.7,91.2 42.8,91.1 42.8,91 42.5,91 42.3,90.8 42.2,91 
		42.4,91.3 42.4,91.6 42.4,91.7 42.7,91.7 42.8,91.6 42.9,91.7 42.9,91.8 43,91.8 	"/>
	<polygon fill="#6F9974" points="44,93.1 44.1,93.1 44.2,93.3 44.1,93.5 44.2,93.7 44.3,93.6 44.3,93.3 44.1,93 44.1,92.9 
		44.1,92.8 44.1,92.6 43.8,92.2 43.9,92 44.3,91.8 44.4,91.6 44,91.6 44,91.3 43.7,91.2 43.6,91 43.8,90.7 43.6,90.4 43.5,90.3 
		43.5,90.6 43.3,90.7 43.2,91.3 43,91.5 43,91.8 42.9,91.9 43.3,92.2 43.4,92.4 43.5,92.7 43.5,92.7 43.6,92.7 43.8,92.5 43.8,92.5 
		43.9,92.8 	"/>
	<polygon fill="#6F9974" points="44.2,93.9 44.1,94.1 44.2,94 44.4,94 44.5,94 44.7,94.4 44.8,94.5 44.9,94.5 44.6,94.2 44.4,93.9 
		44.4,93.2 44.7,93.1 45,93.1 45,93.3 45,93.5 45,93.4 45,93.3 44.8,93.2 44.8,93.1 44.9,92.9 45,92.9 45.1,92.9 45.2,93 45.2,92.7 
		44.9,92.3 44.8,92.3 44.8,92.4 45,92.4 45,92.1 44.5,91.8 44,92 43.8,92.2 44,92.6 44,92.8 44,92.9 44.1,92.9 44.3,93.3 44.3,93.6 
		44.2,93.8 	"/>
	<polygon fill="#6F9974" points="44.6,95 44.7,95.3 45.1,95.5 45.2,95.5 45.2,95.3 45.1,95 44.9,94.6 44.9,94.6 44.7,94.6 
		44.5,94.4 44.4,94.4 44.5,94.7 	"/>
	<polygon fill="#6F9974" points="44.9,93.5 45.1,93.8 45.5,93.4 45.6,92.9 45.3,93.1 45.2,93 45.1,93 45,92.9 44.9,92.9 44.8,93.1 
		44.8,93.2 45,93.3 	"/>
	<polygon fill="#6F9974" points="44.5,92.1 44.5,92.3 44.5,92.3 44.8,92.2 45.3,92.7 45.2,93 45.3,93 45.6,92.8 45.6,92.7 
		44.9,92.1 44.9,92 45,91.9 44.9,91.7 44.6,91.7 44.6,91.4 44.4,91.5 44.3,91.8 	"/>
	<polygon fill="#6F9974" points="45.6,93.7 45.8,93.7 45.9,93.4 45.9,92.9 45.7,92.6 45.4,92.4 45.1,92 45.3,91.6 45.1,91.3 
		44.8,91.3 44.6,91.4 44.7,91.7 45,91.7 45,91.9 44.9,92 44.9,92 45.6,92.7 45.6,92.9 45.6,93.5 45.1,93.8 45.2,93.9 45.2,94 
		45.4,94 	"/>
	<polygon fill="#6F9974" points="34.7,88.4 34.8,88.4 35,88.3 35.1,88.2 34.4,87.9 34.2,88 34.4,88.3 	"/>
	<polygon fill="#6F9974" points="35.2,88.8 35.3,88.7 35.1,88.4 34.8,88.4 34.8,88.6 35.1,88.8 	"/>
	<polygon fill="#6F9974" points="35.5,88.7 35.6,88.8 35.7,88.5 35.8,88.6 35.8,88.5 35.6,88.2 35.5,88.4 35.2,88.2 35.1,88.3 
		35.4,88.7 	"/>
	<polygon fill="#6F9974" points="38.2,90.9 38.1,90.7 37.7,90.4 37.9,90.2 37.9,90.1 37.7,90.1 37.6,89.3 37.5,89.1 36.9,88.9 
		36.6,89 36.5,89.1 36.3,89.1 36.3,89.2 36,89.2 35.6,88.9 35.4,88.7 35.4,88.7 35.3,88.9 35,88.8 35,88.9 35,89 35.1,89.1 
		35.4,89.7 35.3,90 35.3,90 35.3,89.9 35.4,90.1 35.6,90 35.9,90.5 36.1,90.5 36.2,90.5 36.2,90.7 36.8,91 37,91 37.1,90.9 
		37.3,90.9 37.4,91.2 38,91.3 38,91 38.2,91 	"/>
	<polygon fill="#6F9974" points="34.8,88.9 34.8,89 34.6,89 34.4,88.6 34.3,88.6 33.8,88.5 33.5,88.3 33.3,88.3 32.9,88.5 
		32.7,88.7 32.6,89 32.3,89 32,88.8 32,88.9 32,88.9 32,89 32.1,89.1 32.2,89.2 32.3,89.1 32.4,89.2 32.4,89.3 32.4,89.4 32.4,89.4 
		32.8,89.5 33,89.4 33,89.3 33.1,89.3 33.3,89.4 33.6,89.4 33.8,89.3 34,89.3 34,89 33.8,89 33.9,89 34.7,89.1 35,89.1 34.9,89 
		34.9,88.9 35,88.9 	"/>
	<polygon fill="#6F9974" points="36.1,92.6 35.8,92.9 35.4,92.7 35.1,92.9 35.2,93.2 35.2,93.4 35.4,93.6 36.8,93 36.9,92.9 
		36.6,92.5 	"/>
	<polygon fill="#6F9974" points="37.2,91.3 37.1,91.4 37.1,91.8 37.2,91.8 37.1,92.2 36.7,92.4 36.9,92.8 37.1,92.8 37.7,91.9 
		37.7,91.8 37.3,91.5 	"/>
	<polygon fill="#6F9974" points="36.5,91.7 37.1,91.8 37.1,91.4 37.2,91.3 37.2,91.2 37.1,91.2 36.9,91.5 36.4,91.5 	"/>
	<polygon fill="#6F9974" points="36.4,91.2 36.3,91.4 36.4,91.5 36.5,91.5 36.5,91.2 36.5,91.1 	"/>
	<polygon fill="#6F9974" points="35.8,90.5 35.7,90.4 35.6,90.5 35.6,90.7 35.8,90.8 	"/>
	<polygon fill="#6F9974" points="35.9,90.8 35.6,90.7 35.6,90.7 35.2,90.7 34.7,90.2 34.3,90.2 34.2,90.3 34.2,90.4 34.2,90.1 
		33.9,90 33.7,90 34,90.5 35,91.9 35,92.1 34.9,92.3 35,92.4 35.2,92.9 35.4,92.7 35.8,92.9 36.1,92.6 36.7,92.4 37.1,92.2 
		37.2,91.8 37.1,91.8 36.5,91.8 36.4,91.5 36.3,91.4 	"/>
	<polygon fill="#6F9974" points="34.7,89.2 34,89.3 33.9,89.5 33.7,89.5 33.7,89.6 33.9,89.7 33.9,90.1 34,90.1 34.2,90 34.2,89.9 
		34.6,89.7 	"/>
	<polygon fill="#6F9974" points="35.3,89.6 35.3,89.5 35.1,89.2 34.7,89.2 34.7,89.7 34.3,90 34.3,90.1 34.7,90.2 35.2,90.6 
		35.6,90.6 35.6,90.5 35.7,90.4 35.9,90.5 35.9,90.4 35.6,90 35.4,90 35.2,89.8 35.2,89.6 	"/>
	<polygon fill="#6F9974" points="34.2,90 34,90.1 33.9,90.1 33.7,90.6 33.7,90.7 33.9,90.7 34.2,90.5 34.2,90.4 34.1,90.3 
		34.3,90.1 	"/>
	<polygon fill="#6F9974" points="33.8,89.9 33.8,89.7 33.7,89.7 33.7,89.8 33.7,89.9 	"/>
	<polygon fill="#6F9974" points="33.6,90.3 33.7,90.6 33.8,90.1 33.8,90 33.7,90 	"/>
	<polygon fill="#6F9974" points="33.4,89.6 33.2,89.6 33.2,89.7 33.3,89.8 33.4,89.8 33.6,89.6 33.5,89.5 	"/>
	<polygon fill="#6F9974" points="29.2,84.9 29.3,85 29.5,85 29.7,84.7 29.8,84.5 29.9,84.8 30,84.5 30.1,83.6 30.2,83.5 30.2,83 
		30.7,82.3 30.9,82.3 31,82.2 31.3,82.2 31.5,82.3 31.5,82.1 31.8,81.9 31.9,82.2 32.1,82.1 32,82 32,82 32,82 32,82 32,81.8 
		31.7,81.7 31.3,81.7 31.3,81.9 31.2,81.9 31.2,81.8 31,81.8 30.9,82 30.8,82 30.8,81.9 30.4,82.3 30.5,82.4 30.3,82.4 29.9,83.1 
		29.8,83.2 29.8,83.3 29.9,83.4 29.9,83.5 29.7,83.5 29.6,83.4 29.5,83.6 29.4,83.6 29.4,83.8 29.3,83.8 29.1,83.9 29,84.2 
		29.1,84.7 	"/>
	<polygon fill="#6F9974" points="27.6,85.6 27.7,85.7 27.9,85.7 27.9,86 27.8,86.1 27.7,86.2 27.6,86.4 27.8,86.4 27.9,86.5 
		27.5,86.7 27.6,86.8 28.1,86.6 28.3,86.6 28.5,86.6 28.5,86.5 28.5,86.4 28.5,86.4 28.6,86.3 28.6,86.2 28.5,86.1 28.4,86 
		28.3,85.8 28.1,85.5 28.1,85.3 28.1,85.2 28.1,85.4 27.9,85.4 27.9,85.2 28,84.9 27.9,84.8 27.7,85 27.5,85.4 27.7,85.4 	"/>
	<polygon fill="#6F9974" points="27.3,85.8 27.4,85.9 27.6,85.8 27.6,85.7 27.5,85.6 27.3,85.6 	"/>
	<polygon fill="#6F9974" points="26.8,86.3 26.9,86.4 27.1,86.4 27.5,86.2 27.6,85.9 27.4,85.9 27.3,85.8 27.3,85.6 27.2,85.8 
		27,85.8 27,86 27,86.1 26.8,86.2 	"/>
	<polygon fill="#6F9974" points="30.7,82.4 30.3,83 30.3,83.5 30.1,83.6 30.1,84.5 29.9,84.8 30.1,85 30.2,85 30.3,85 30.4,85.1 
		30.6,85.2 30.6,84.8 30.8,84.7 30.9,84.5 30.9,84.4 30.6,84.2 30.6,84 30.8,83.7 30.9,83.7 31,83.4 31,83.2 31.3,83 31.3,82.4 
		31.2,82 31,82 30.9,82.1 	"/>
	<polygon fill="#6F9974" points="32,82.5 31.9,82.2 31.8,82 31.6,82.1 31.5,82.4 31.3,82.3 31,82.2 31,82.3 31.1,82.4 31.3,82.4 
		31.4,82.6 31.4,83 31.6,83.1 31.6,83.2 31.6,83.3 31.2,83.7 31.1,83.9 31.2,84.2 31.5,84.4 31.9,84.3 32.2,84.2 32.5,83.8 
		32.3,83.3 32.1,82.8 32.1,82.5 	"/>
	<polygon fill="#6F9974" points="32.1,85 31.7,84.9 31.7,85.2 32.1,85.4 32.2,85.3 32.2,85.2 	"/>
	<polygon fill="#6F9974" points="31.5,84.8 31.4,84.8 31.3,84.8 31.3,84.8 31.3,84.9 31.4,84.9 	"/>
	<polygon fill="#6F9974" points="31.2,85.3 31.2,85.3 31.3,85.3 31.5,85.2 31.5,85.1 31.4,85 31.3,85 31.2,85.2 	"/>
	<polygon fill="#6F9974" points="31.5,85.7 31.6,85.7 31.6,85.8 31.8,85.8 32,85.6 32,85.4 31.7,85.2 31.5,85.2 31.4,85.3 
		31.2,85.3 31.2,85.6 31.2,85.7 	"/>
	<polygon fill="#6F9974" points="32.9,85.8 32.6,85.5 32.4,85.4 32.2,85.4 32.1,85.4 32.1,85.6 31.9,85.9 31.7,85.9 31.7,86 
		31.7,86.1 31.7,86.2 31.8,86.3 31.9,86.2 32.2,86.2 32.3,86.3 32.7,86.3 32.8,86 32.9,85.9 	"/>
	<polygon fill="#6F9974" points="30.4,85.9 30.4,86.3 30.6,86.5 30.8,86.6 31.1,86.8 31.3,86.8 31.4,86.8 31.5,86.8 31.6,86.8 
		31.6,86.8 31.7,86.6 31.8,86.5 31.8,86.4 31.7,86.3 31.7,86.2 31.7,86.1 31.7,86 31.5,85.8 31.4,85.8 31,85.8 31,85.7 31,85.6 
		30.9,85.7 30.6,85.7 	"/>
	<polygon fill="#6F9974" points="27.5,89.4 27.7,89.5 28.2,89.3 28.4,89.1 28.4,88.8 28.8,88.4 28.8,88.3 28.4,88.2 28.1,87.9 
		27.4,87.9 27.2,87.9 27.1,88 27,88.2 27.1,88.4 27.4,88.4 27.4,88.5 27.3,89.2 27.3,89.3 	"/>
	<polygon fill="#6F9974" points="27.3,88.4 27.1,88.4 27,88.9 26.9,89 27,89.1 27,89.2 27,89.3 27.1,89.4 27.2,89.3 27.2,89.2 
		27.3,88.5 	"/>
	<polygon fill="#6F9974" points="29.8,88.9 29.8,88.6 29.8,88.6 29.6,88.6 29.6,88.9 29.8,89 	"/>
	<polygon fill="#6F9974" points="28.3,86.9 28.2,86.8 28.2,86.8 28.1,87 27.7,87 27.7,87.1 28,87.2 28.3,87.5 28.3,87.8 28.1,88 
		28.5,88.2 28.8,88.2 28.9,88.1 29.1,88.1 29.2,88.1 29.4,88.1 29.5,88 29.4,87.8 29.4,87.7 29.4,87.6 29.3,87.5 29.2,87.5 
		29.2,87.4 29.4,87.1 29.4,87 29.3,86.9 29.2,86.8 28.8,86.6 28.6,86.6 28.4,86.9 	"/>
	<polygon fill="#6F9974" points="29.2,86.5 29.2,86.5 29.3,86.3 29.4,86.3 29.3,86 29.1,86.1 29.1,86.1 29.1,86.3 29.1,86.3 
		29,86.2 28.9,86.4 29.1,86.4 	"/>
	<polygon fill="#6F9974" points="29.3,86.8 29.3,86.7 29.2,86.6 29.2,86.6 29.1,86.5 28.8,86.4 28.8,86.5 29.2,86.8 	"/>
	<polygon fill="#6F9974" points="29.5,86.9 29.5,87.1 29.7,87.2 29.8,87.3 29.9,87.3 29.9,87.2 30.1,87.2 30.3,87.1 30.4,86.9 
		30.1,86.7 30.1,86.7 30.4,86.5 30.5,86.5 30.4,86.3 30.4,85.9 30.3,85.8 30.1,85.8 30,85.8 29.9,85.8 29.7,85.7 29.4,85.8 
		29.4,85.9 29.3,85.9 29.4,86.3 29.3,86.4 29.3,86.6 29.4,86.7 29.4,86.8 	"/>
	<polygon fill="#6F9974" points="29.8,85.2 29.8,85 29.7,85 29.5,85.3 29.5,85.4 29.6,85.7 29.7,85.7 29.7,85.5 29.8,85.3 	"/>
	<polygon fill="#6F9974" points="29.9,85.6 30,85.6 30,85.5 30,85.5 29.9,85.5 29.9,85.5 	"/>
	<polygon fill="#6F9974" points="31,85.1 31,84.9 30.8,85 30.9,85.2 	"/>
	<polygon fill="#6F9974" points="29.2,87.5 29.4,87.4 29.4,87.6 29.6,87.5 29.7,87.6 29.8,87.6 29.9,87.4 29.9,87.3 29.7,87.3 
		29.7,87.2 29.5,87.2 29.2,87.4 	"/>
	<polygon fill="#6F9974" points="30.2,86.7 30.4,86.9 30.6,86.9 30.6,86.9 30.8,87 31,86.8 30.8,86.6 30.5,86.5 30.4,86.5 	"/>
	<polygon fill="#6F9974" points="31.3,87.1 31.6,87 31.6,86.9 31.6,86.9 31.5,86.8 31.4,86.8 31.3,86.9 31.1,86.8 30.8,87.1 
		30.9,87.1 30.9,87.1 	"/>
	<polygon fill="#6F9974" points="29.9,87.2 29.9,87.3 29.9,87.4 30.1,87.3 30.2,87.3 30.3,87.4 30.6,87.4 30.8,87.3 30.8,87.2 
		30.8,87.1 30.6,87 30.4,87 30.4,87.1 30.1,87.2 	"/>
	<polygon fill="#6F9974" points="31.7,87.1 31.6,87 31.3,87.2 30.9,87.2 30.8,87.3 30.8,87.5 30.9,87.5 31.2,87.5 	"/>
	<polygon fill="#6F9974" points="30.6,87.6 30.8,87.5 30.8,87.3 30.6,87.4 30.3,87.5 30.4,87.6 	"/>
	<polygon fill="#6F9974" points="30.5,87.8 30.6,87.8 30.6,88.1 31,88.2 31.1,88.2 30.7,87.8 30.7,87.7 31.1,87.7 31.1,87.6 
		30.9,87.6 30.8,87.5 30.6,87.7 30.4,87.7 30.4,87.8 30.5,87.9 	"/>
	<polygon fill="#6F9974" points="31.3,88 31.3,87.9 31.1,87.7 30.8,87.7 30.7,87.8 31.1,88.2 	"/>
	<polygon fill="#6F9974" points="29.6,88 29.8,88 30.3,88.5 30.6,88.6 30.7,88.8 30.8,89.1 30.9,89.1 31,88.9 30.9,88.7 31.1,88.7 
		31.1,88.6 30.7,88.4 30.3,88.1 30.2,87.9 30.1,87.7 30.3,87.6 30.3,87.5 30.2,87.4 30.1,87.4 29.9,87.4 29.8,87.6 29.7,87.6 
		29.6,87.6 29.5,87.6 29.4,87.7 29.4,87.8 	"/>
	<polygon fill="#6F9974" points="30.5,89.1 30.2,89.1 30.3,89.2 30.5,89.3 30.6,89.4 30.6,89.4 30.6,89.1 	"/>
	<polygon fill="#6F9974" points="30.5,89.7 30.6,89.7 30.7,89.7 30.6,89.5 30.5,89.6 	"/>
	<polygon fill="#6F9974" points="33.6,87 33.9,86.9 34.1,86.9 34.1,86.5 33.5,86.5 33.2,86.1 33,86.1 32.8,86.1 32.7,86.3 
		32.3,86.3 32.1,86.3 31.9,86.2 31.8,86.3 31.8,86.5 31.7,86.8 31.7,87 31.7,87 32.2,87.1 32.3,86.9 32.5,87 32.7,87.3 32.5,87.5 
		32.7,87.6 32.9,87.3 33.1,87.3 33.2,87.4 33.1,87.7 33.2,88 33.4,88 33.4,87.7 33.6,87.7 33.6,87.5 33.3,87.3 33.3,87 	"/>
	<polygon fill="#6F9974" points="32.5,87.5 32.6,87.3 32.4,87 32.3,87 32.2,87.1 32.4,87.4 32.4,87.5 	"/>
	<polygon fill="#6F9974" points="32.7,87.6 32.5,87.6 32.4,87.6 32.4,87.4 32.2,87.1 31.7,87.1 31.7,87.2 31.4,87.4 31.7,87.8 
		31.9,87.9 32.2,87.9 32.3,87.9 32.4,87.9 32.5,87.9 32.7,87.7 	"/>
	<polygon fill="#6F9974" points="31.4,87.5 31.3,87.6 31.2,87.6 31.2,87.7 31.3,87.8 31.3,88 31.1,88.2 31.2,88.3 31.3,88.3 
		31.3,88.2 31.4,88.2 31.4,88.3 31.7,88.2 31.7,87.9 	"/>
	<polygon fill="#6F9974" points="32.5,88.2 32.5,88.1 32.5,88 32.4,87.9 32.3,87.9 32.2,88 31.8,88 31.7,87.9 31.7,88.2 31.8,88.4 
		32.2,88.4 32.3,88.3 	"/>
	<polygon fill="#6F9974" points="31.4,88.3 31.4,88.3 31.3,88.4 31.3,88.6 31.4,88.8 31.4,88.8 31.5,88.6 31.5,88.5 	"/>
	<polygon fill="#6F9974" points="31.8,88.4 31.7,88.3 31.5,88.3 31.5,88.5 31.5,88.5 	"/>
	<polygon fill="#6F9974" points="32.3,88.4 32.2,88.5 31.8,88.5 31.6,88.6 31.4,88.8 31.4,88.9 31.7,89 31.8,89.1 31.8,89.1 
		31.6,89.1 31.6,89.2 31.6,89.3 31.8,89.4 31.9,89.4 31.9,89.2 32,89.1 31.7,88.7 31.7,88.6 31.8,88.6 31.9,88.7 32,88.7 32,88.6 
		32.3,88.6 	"/>
	<polygon fill="#6F9974" points="32.6,88.4 32.6,88.4 32.5,88.3 32.4,88.3 32.4,88.6 32.5,88.5 	"/>
	<polygon fill="#6F9974" points="32.3,89.6 32.1,89.6 32.1,89.6 32,89.5 32,89.6 32,89.6 32.1,89.7 32.3,89.7 32.4,89.6 32.4,89.6 	
		"/>
</g>
<path fill="#B5DEE4" d="M43.9,48.5c-0.4-0.1-0.8-0.2-1.2-0.4c0.2-0.9,0.4-1.8,0.6-2.8c0.8-0.6,1.6-1.1,2.4-1.7c0,0.5,0.1,1,0.1,1.5
	C45.2,46.3,44.6,47.5,43.9,48.5L43.9,48.5z M22.1,10.2c0.5-0.4,0.9-0.7,1.4-1c0-0.2,0-0.5,0.1-0.7C24,8.4,24.4,8.2,24.9,8
	c0.5,0.7,1.2,1.6,1.8,2.6c-0.2,0.2-0.4,0.4-0.6,0.7c-0.7,0.2-1.5,0.5-2.2,0.8c0.1-0.8,0.2-1.5,0.3-2.2c-0.3,0.5-0.6,0.9-0.9,1.4
	c-0.5,0-1,0-1.5,0.1C21.9,11,22,10.6,22.1,10.2L22.1,10.2z M59.5,29.5c-0.7,0.9-1.6,1.8-2.5,2.8c0,0.6,0,1.2-0.1,1.7
	c-0.4,0.5-0.7,1-1.1,1.5c-0.4-1.5-0.8-3.1-1.3-4.7c-0.5-0.8-1.1-1.7-1.7-2.6c-1.4-0.4-2.9-0.7-4.6-1.1c-0.5-0.5-1-0.9-1.5-1.4
	c-0.2,0.1-0.5,0.3-0.7,0.4c0.4,0.9,0.7,1.8,1.1,2.7c0.5-0.3,1.1-0.6,1.6-0.9c0.7,0.6,1.4,1.2,2.1,1.8c-1.9,1.4-4.1,2.8-6.4,4.2
	c-1.1-2.4-2.3-4.8-3.5-7.3c-0.3,0-0.5,0.1-0.8,0.1c1.3,2.9,2.5,5.9,3.6,8.6c1.2-0.6,2.3-1.2,3.4-1.8c-0.4,1.3-0.8,2.6-1.2,3.9
	c-1.2,1.1-2.4,2.2-3.6,3.2c0.1,1.5,0.1,2.9,0.1,4.2c-0.7,0.5-1.4,0.9-2,1.4c-1.4,1.9-2.8,3.5-4.1,4.7c-1.1,0.1-2.2,0.3-3.3,0.4
	c-0.8-1.3-1.8-3-2.8-5.1c0.2-0.9,0.5-2,0.8-3c-0.7-1.9-1.4-3.9-2.1-6c-2.4,0.1-4.7,0.3-7,0.4c-1.3-1.3-2.6-2.5-3.9-3.8
	c0.2-2.1,0.4-4.2,0.6-6.3c1.3-1.6,2.5-3.1,3.8-4.7c2.5-0.5,5-0.9,7.4-1.3c0.2,0.6,0.3,1.3,0.5,1.9c1,0.7,2,1.3,3.1,2
	c0.4-0.5,0.8-1.1,1.2-1.6c1.6,0.4,3.1,0.8,4.6,1.2c0.4-0.2,0.8-0.5,1.2-0.7c0.2-0.6,0.3-1.1,0.5-1.7c-1-0.2-2.1-0.4-3.1-0.6
	c-0.4-0.6-0.7-1.2-1.1-1.7c-0.3-0.1-0.5-0.2-0.8-0.4c-0.2,0.7-0.4,1.4-0.6,2.2c-0.5-0.6-1-1.2-1.4-1.7c0-0.5,0.1-0.9,0.1-1.4
	c-0.6-0.5-1.3-0.9-1.9-1.4c-0.4-0.2-0.7-0.3-1.1-0.5c0,0.4,0.1,0.9,0.1,1.4c0.8,0.5,1.6,1,2.3,1.5c-0.4,0.4-0.8,0.9-1.2,1.3
	c-0.6-0.7-1.1-1.4-1.7-2.1c-0.4-0.4-0.8-0.9-1.2-1.3c-0.9,0.4-1.9,0.9-2.8,1.3c-0.7,1-1.4,2-2,3c-1-0.1-2-0.3-2.9-0.4
	c0-1.2,0-2.4,0-3.5c1.2,0.1,2.5,0.1,3.7,0.2c-0.4-0.6-0.7-1.2-1.1-1.7c-0.2-0.5-0.4-0.9-0.6-1.4c0.9-0.3,1.9-0.6,2.8-0.8
	c0.5-0.6,1.1-1.2,1.6-1.7c0.4,0,0.8-0.1,1.2-0.1c-0.1-0.3-0.2-0.6-0.2-0.9c0.3-0.3,0.5-0.5,0.8-0.8c0.2,0.4,0.4,0.9,0.6,1.3
	c1.1,0,2.3,0.1,3.4,0.1c0.3-0.6,0.6-1.3,0.8-1.8c0.4,0.1,0.9,0.2,1.3,0.3c-0.2-0.4-0.4-0.8-0.5-1.2c0.6-0.1,1.2-0.3,1.8-0.4
	C37,9.3,36.8,9.2,36.5,9c-0.5,0.1-1.1,0.2-1.7,0.3c-0.2-0.3-0.5-0.6-0.7-0.9h-0.1c0,0,0,0,0-0.1C34,8.2,33.9,8.1,33.8,8
	c0.2-0.1,0.4-0.2,0.6-0.3c0.2-0.3,0.3-0.5,0.4-0.7c-0.2,0-0.4,0-0.6-0.1c-0.3,0.2-0.6,0.4-0.9,0.6c-0.2,0.3-0.5,0.7-0.8,1.1
	c0.3,0.2,0.7,0.4,1,0.7c-0.3,0.6-0.6,1.2-0.9,1.9c-0.5,0.1-1,0.3-1.5,0.4c-0.3-0.7-0.6-1.4-0.9-2c-0.6,0.2-1.2,0.5-1.8,0.7
	c-0.3-0.1-0.5-0.2-0.8-0.4c0.1-0.6,0.1-1.1,0.2-1.6c0.5-0.2,1-0.4,1.5-0.6c0.4-0.5,0.8-1,1.2-1.3c0.9-0.2,1.8-0.3,2.7-0.5
	c2.1,0.1,4.4,0.3,6.7,0.4c3.1-0.1,7-0.2,8.6-0.3C43.3,2.5,36.9,0,30,0c-7.1,0-13.6,2.5-18.7,6.7c0.3,0,0.7,0.1,1,0.2
	c0.2,0.5,0.4,1.1,0.7,1.7c0.1,0.3,0.2,0.7,0.3,1c-0.5,0.5-1.1,1.1-1.6,1.7c-0.1,0.3-0.2,0.6-0.3,0.9c-0.4,0.2-0.8,0.5-1.2,0.7
	c-0.3,0.8-0.5,1.7-0.7,2.6c-0.5-0.1-0.9-0.1-1.4-0.2c-0.3-1.8-0.5-3.4-0.6-4.9c-1.4,1.6-2.6,3.3-3.7,5.2c0.2-0.1,0.3-0.3,0.5-0.4
	c0.4,2,0.9,4.2,1.5,6.7c-1.3,0.8-2.5,1.7-3.5,2.5c-0.7,0.7-1.4,1.4-1.9,2c-0.1,1.2-0.2,2.4-0.2,3.6c0,2.6,0.4,5,1,7.4
	c0.5,0.2,1.1,0.4,1.8,0.6c1,1.1,2.1,2.3,3.3,3.4c0.3,0.8,0.6,1.6,0.9,2.4c1.6,1,3.3,2,5.2,2.9c-0.5,1.7-1,3.2-1.3,4.5
	c-0.7,0-1.4,0-2.1,0.1c5.4,5.5,12.9,8.9,21.2,8.9c16-0.2,29.2-13.1,29.6-29.3C59.7,30.3,59.6,29.9,59.5,29.5z"/>
</svg>
