<?xml version="1.0" encoding="utf-8"?>
<!-- Generator: Adobe Illustrator 18.0.0, SVG Export Plug-In . SVG Version: 6.00 Build 0)  -->
<!DOCTYPE svg PUBLIC "-//W3C//DTD SVG 1.1//EN" "http://www.w3.org/Graphics/SVG/1.1/DTD/svg11.dtd">
<svg version="1.1" id="Layer_1" xmlns="http://www.w3.org/2000/svg" xmlns:xlink="http://www.w3.org/1999/xlink" x="0px" y="0px"
	 viewBox="0 0 60 120" enable-background="new 0 0 60 120" xml:space="preserve">
<rect y="60" fill="#B5DEE4" width="60" height="60"/>
<rect fill="#6F9974" width="20" height="60"/>
<rect x="20" fill="#FFFFFF" width="20" height="60"/>
<rect x="40" fill="#B22234" width="20" height="60"/>
<path id="italy" fill="#6F9974" d="M16.1,78.6l-0.6,1.6l0.2,1.7l2.4,2.8l3.8-0.1l8.3,9.6l5.2,1.5l3.1,2.9l0.7,6.6l1.6-1l1.4-3.6
	L41.8,98l2.4-0.2l0.4-1.5L37.7,93l-6.5-6.4l-2.6-3.8L28,79.3l3.3-0.8l-0.9-2.4l-2-1.7l-1.8-0.1L24.2,75l-2.3,3.2l-1.4,0.9l-2.1-1.3
	L16.1,78.6L16.1,78.6z"/>
</svg>
