<?xml version="1.0" encoding="utf-8"?>
<!-- Generator: Adobe Illustrator 18.0.0, SVG Export Plug-In . SVG Version: 6.00 Build 0)  -->
<!DOCTYPE svg PUBLIC "-//W3C//DTD SVG 1.1//EN" "http://www.w3.org/Graphics/SVG/1.1/DTD/svg11.dtd">
<svg version="1.1" id="Layer_1" xmlns="http://www.w3.org/2000/svg" xmlns:xlink="http://www.w3.org/1999/xlink" x="0px" y="0px"
	 viewBox="0 0 60 120" enable-background="new 0 0 60 120" xml:space="preserve">
<rect y="60" fill="#B5DEE4" width="60" height="60"/>
<path id="india" fill="#6F9974" d="M29.3,111.8l2.3-1.1l1.4-5l-0.1-6.1l7.9-8.5v-2l1.6-0.6l-0.1-2.3l-1.7-3.4l1-1.8l2.2,2l2.8,0.1
	v1.1l-0.9,0.9l0.2,0.5l1.5,0.1l0.3,1.7h0.4l1.1-2l0.6-5.3l1.9-1.3l0.1-1.8L51,75.5l-1.2-0.1l-4.6,3.1l0.3,2h-3.3L41,79.1l-0.6,0.1
	l0.2,2l-7.1-0.5l-4.4-2L29,76.3l-2.9-1.8v-3.7l-2-2.3l-4.6,0.4l0.5,2l2.3,1.8l-3.9,8l-2.6,0.2l-0.4,1l2.6,2.4l-0.1,2.4h-2.6L15,87.9
	l2.2-0.1l0.1,0.9l-1.6,0.8l1,1.9l1.9,0.6l1.2-0.9l0.6-1.6l0.7-0.3l0.8,0.8l-0.2,2l-0.8,1l0.1,1.6L29.3,111.8L29.3,111.8z"/>
<rect y="-0.4" fill="#FF9933" width="60" height="60.2"/>
<rect y="19.6" fill="#FFFFFF" width="60" height="20.1"/>
<rect y="39.7" fill="#128807" width="60" height="20.1"/>
<circle fill="#2E3192" cx="30" cy="29.7" r="1.3"/>
<g>
	<path fill="#2E3192" d="M30,36.8c-3.9,0-7.1-3.2-7.1-7.1s3.2-7.1,7.1-7.1s7.1,3.2,7.1,7.1S33.9,36.8,30,36.8z M30,23.5
		c-3.4,0-6.1,2.7-6.1,6.1s2.7,6.1,6.1,6.1s6.1-2.7,6.1-6.1S33.4,23.5,30,23.5z"/>
</g>
<polygon fill="#2E3192" points="30,23.8 29.6,27.5 30,28.1 30.4,27.5 "/>
<polygon fill="#2E3192" points="34.1,25.5 31.2,27.8 31.1,28.5 31.8,28.4 "/>
<polygon fill="#2E3192" points="35.8,29.6 32.2,29.2 31.6,29.6 32.2,30.1 "/>
<polygon fill="#2E3192" points="34.1,33.8 31.8,30.9 31.1,30.8 31.2,31.5 "/>
<polygon fill="#2E3192" points="30,35.5 30.4,31.8 30,31.2 29.6,31.8 "/>
<polygon fill="#2E3192" points="25.9,33.8 28.8,31.5 28.9,30.8 28.2,30.9 "/>
<polygon fill="#2E3192" points="24.2,29.7 27.8,30.1 28.4,29.7 27.8,29.2 "/>
<polygon fill="#2E3192" points="25.9,25.5 28.2,28.4 28.9,28.5 28.8,27.8 "/>
</svg>
