<?xml version="1.0" encoding="utf-8"?>
<!-- Generator: Adobe Illustrator 18.0.0, SVG Export Plug-In . SVG Version: 6.00 Build 0)  -->
<!DOCTYPE svg PUBLIC "-//W3C//DTD SVG 1.1//EN" "http://www.w3.org/Graphics/SVG/1.1/DTD/svg11.dtd">
<svg version="1.1" id="Layer_1" xmlns="http://www.w3.org/2000/svg" xmlns:xlink="http://www.w3.org/1999/xlink" x="0px" y="0px"
	 viewBox="0 0 60 120" enable-background="new 0 0 60 120" xml:space="preserve">
<rect y="60" fill="#B5DEE4" width="60" height="60"/>
<g>
	<rect x="-15" y="0" fill="#B22234" width="90" height="60"/>
</g>
<g>
	<path fill="#006233" d="M38.4,42L30,35.9L21.6,42l3.2-9.9L16.3,26h10.4l3.2-9.9l3.2,9.9h10.4l-8.4,6.1L38.4,42z M26.6,33.4l-1,3.1
		l2.6-1.9L26.6,33.4z M31.8,34.6l2.6,1.9l-1-3.1L31.8,34.6z M27.3,31.3l2.7,2l2.7-2l-1-3.2h-3.4L27.3,31.3z M33.9,28.1l0.6,1.9
		l2.6-1.9H33.9z M22.9,28.1l2.6,1.9l0.6-1.9H22.9z M29,26h2l-1-3.1L29,26z"/>
</g>
<path id="morocco" fill="#6F9974" d="M50.2,70.2H39.8l-2,4.5l-4.7,2.3l-3.9,10.4l-7.5,4.5l-10.6,17.4l10.4-0.2l0.4-5.1h2.6v-7h9.1
	l0.2-9l8.7-2l3.7-5.9l5.7-0.2L50.2,70.2L50.2,70.2z"/>
</svg>
