<?xml version="1.0" encoding="utf-8"?>
<!-- Generator: Adobe Illustrator 18.0.0, SVG Export Plug-In . SVG Version: 6.00 Build 0)  -->
<!DOCTYPE svg PUBLIC "-//W3C//DTD SVG 1.1//EN" "http://www.w3.org/Graphics/SVG/1.1/DTD/svg11.dtd">
<svg version="1.1" id="Layer_1" xmlns="http://www.w3.org/2000/svg" xmlns:xlink="http://www.w3.org/1999/xlink" x="0px" y="0px"
	 viewBox="216 0 396 792" enable-background="new 216 0 396 792" xml:space="preserve">
<rect x="216" y="396" fill="#B5DEE4" width="396" height="396"/>
<rect x="216" fill="#2E3192" width="132" height="396"/>
<rect x="348" fill="#FFFFFF" width="132" height="396"/>
<rect x="480" fill="#B22234" width="132" height="396"/>
<polygon fill="#6F9974" points="367.8,541.9 355.3,533.3 347.3,535.3 341.4,554.4 296.5,555.1 297.8,565 328.2,585.4 363.8,613.8 
	363.2,648.1 344,681.1 385.6,700.9 427.2,702.2 439.7,687.7 466.1,688.4 473.4,695 499.8,693 513.7,675.8 496.5,655.4 495.2,642.2 
	498.5,628.3 489.9,615.8 475.4,620.4 470.8,609.2 499.8,572.9 499.8,551.8 481.3,539.2 472.1,537.2 421.9,504.2 406.7,507.5 
	376.4,541.2 "/>
</svg>
