<?xml version="1.0" encoding="utf-8"?>
<!-- Generator: Adobe Illustrator 18.0.0, SVG Export Plug-In . SVG Version: 6.00 Build 0)  -->
<!DOCTYPE svg PUBLIC "-//W3C//DTD SVG 1.1//EN" "http://www.w3.org/Graphics/SVG/1.1/DTD/svg11.dtd">
<svg version="1.1" id="Layer_1" xmlns="http://www.w3.org/2000/svg" xmlns:xlink="http://www.w3.org/1999/xlink" x="0px" y="0px"
	 viewBox="0 0 60 120" enable-background="new 0 0 60 120" xml:space="preserve">
<rect fill="#FFFFFF" width="60" height="60"/>
<rect y="60" fill="#B5DEE4" width="60" height="60"/>
<circle fill="#B22234" cx="30" cy="30" r="10.5"/>
<g id="Japan">
	<polygon fill="#6F9974" points="11.8,100.2 9.8,100.7 9.3,102.7 10.3,103.4 8.7,107.5 9,109 11.3,108.5 13.4,106.5 13.2,102.8 	"/>
	<polygon fill="#6F9974" points="19.7,101.8 16.5,102.4 15.1,104.6 15.2,105.5 19.4,104.9 20.6,102.4 	"/>
	<polygon fill="#6F9974" points="38.9,92.4 41.2,92.1 41,84.6 40,84.1 36.8,85.1 35.7,86.8 36,88.4 33.3,93.2 29.5,94.6 28.7,93 
		26.4,94.6 24.9,96.5 24.9,98.2 23.9,98.8 23.1,96.5 21.9,95.8 20.6,95.8 19.7,95.5 13.6,97.4 13.6,98.8 15.2,100.1 20.1,99.6 
		22.7,100.6 23.3,104.4 25.3,104.8 27.4,102.8 30.5,104.5 35.6,102.8 37.7,96 	"/>
	<polygon fill="#6F9974" points="39.8,74.4 37.4,76 37.9,81.8 40.2,82.3 41.1,81.5 40.2,78.4 42.5,77.6 43.7,78.6 44,80.4 
		45.6,78.1 49.9,77.5 51.8,78.1 51.8,75 51.8,73.6 50.3,73.7 48.7,74.3 47,72.6 45.8,70 45.5,67.1 43.8,67.4 43,69.9 43.4,71.5 
		41.3,74.7 	"/>
</g>
</svg>
