<?xml version="1.0" encoding="utf-8"?>
<!-- Generator: Adobe Illustrator 18.0.0, SVG Export Plug-In . SVG Version: 6.00 Build 0)  -->
<!DOCTYPE svg PUBLIC "-//W3C//DTD SVG 1.1//EN" "http://www.w3.org/Graphics/SVG/1.1/DTD/svg11.dtd">
<svg version="1.1" id="Layer_1" xmlns="http://www.w3.org/2000/svg" xmlns:xlink="http://www.w3.org/1999/xlink" x="0px" y="0px"
	 viewBox="0 0 60 120" enable-background="new 0 0 60 120" xml:space="preserve">
<rect y="60" fill="#B5DEE4" width="60" height="60"/>
<rect y="0" fill="#006AA7" width="60" height="60"/>
<rect x="24" y="0" fill="#FECC00" width="12" height="60"/>
<rect y="24" fill="#FECC00" width="60" height="12"/>
<path id="sweden" fill="#6F9974" d="M33.2,71.4l1.3,1.2h2.4l1.3,2.5l0.4,4.3l-3.2,2.3v2.3L33.1,87l-1.3,0.1l-1.8,3l0.1,2.9l3.1,2.3
	L33,96.6l-1.2,1.8L30,99.9l0.1,5.1l-2.7,1l-1,2h-1.3l-0.7-3.6l-3-4.6l2.4-4.1l0.2-10.1l1.7-0.9l0.4-5.8l4.8-6.9L33.2,71.4L33.2,71.4
	z"/>
</svg>
