<?xml version="1.0" encoding="utf-8"?>
<!-- Generator: Adobe Illustrator 18.0.0, SVG Export Plug-In . SVG Version: 6.00 Build 0)  -->
<!DOCTYPE svg PUBLIC "-//W3C//DTD SVG 1.1//EN" "http://www.w3.org/Graphics/SVG/1.1/DTD/svg11.dtd">
<svg version="1.1" id="Layer_1" xmlns="http://www.w3.org/2000/svg" xmlns:xlink="http://www.w3.org/1999/xlink" x="0px" y="0px"
	 viewBox="0 0 60 120" enable-background="new 0 0 60 120" xml:space="preserve">
<rect y="60" fill="#B5DEE4" width="60" height="60"/>
<g>
	<rect fill="#FFFFFF" width="60" height="60"/>
	<g>
		<rect id="stripe" y="0" fill="#B22234" width="60" height="4.6"/>
	</g>
	<g>
		<rect id="stripe_1_" y="9.2" fill="#B22234" width="60" height="4.6"/>
	</g>
	<g>
		<rect id="stripe_2_" y="18.5" fill="#B22234" width="60" height="4.6"/>
	</g>
	<g>
		<rect id="stripe_3_" y="27.7" fill="#B22234" width="60" height="4.6"/>
	</g>
	<g>
		<rect id="stripe_4_" y="36.9" fill="#B22234" width="60" height="4.6"/>
	</g>
	<g>
		<rect id="stripe_5_" y="46.2" fill="#B22234" width="60" height="4.6"/>
	</g>
	<g>
		<rect id="stripe_6_" y="55.4" fill="#B22234" width="60" height="4.6"/>
	</g>
	<rect y="0" fill="#567483" width="32.5" height="32.3"/>
	<g>
		<polygon fill="#FFFFFF" points="6.5,1.3 6.1,2.6 4.8,2.6 5.9,3.4 5.5,4.7 6.5,3.9 7.6,4.7 7.2,3.4 8.3,2.6 7,2.6 		"/>
		<polygon fill="#FFFFFF" points="14.1,1.3 13.7,2.6 12.3,2.6 13.4,3.4 13,4.7 14.1,3.9 15.2,4.7 14.8,3.4 15.9,2.6 14.5,2.6 		"/>
		<polygon fill="#FFFFFF" points="21.7,1.3 21.2,2.6 19.9,2.6 21,3.4 20.6,4.7 21.7,3.9 22.7,4.7 22.3,3.4 23.4,2.6 22.1,2.6 		"/>
		<polygon fill="#FFFFFF" points="28.5,3.4 28.1,4.7 29.2,3.9 30.3,4.7 29.9,3.4 31,2.6 29.6,2.6 29.2,1.3 28.8,2.6 27.5,2.6 		"/>
		<polygon fill="#FFFFFF" points="3.2,5.9 2.8,4.6 2.3,5.9 1,5.9 2.1,6.7 1.7,7.9 2.8,7.1 3.8,7.9 3.4,6.7 4.5,5.9 		"/>
		<polygon fill="#FFFFFF" points="10.7,5.9 10.3,4.6 9.9,5.9 8.6,5.9 9.6,6.7 9.2,7.9 10.3,7.1 11.4,7.9 11,6.7 12.1,5.9 		"/>
		<polygon fill="#FFFFFF" points="18.3,5.9 17.9,4.6 17.5,5.9 16.1,5.9 17.2,6.7 16.8,7.9 17.9,7.1 19,7.9 18.5,6.7 19.6,5.9 		"/>
		<polygon fill="#FFFFFF" points="25.9,5.9 25.4,4.6 25,5.9 23.7,5.9 24.8,6.7 24.4,7.9 25.4,7.1 26.5,7.9 26.1,6.7 27.2,5.9 		"/>
		<polygon fill="#FFFFFF" points="7,9.1 6.5,7.8 6.1,9.1 4.8,9.1 5.9,9.9 5.5,11.2 6.5,10.4 7.6,11.2 7.2,9.9 8.3,9.1 		"/>
		<polygon fill="#FFFFFF" points="14.5,9.1 14.1,7.8 13.7,9.1 12.3,9.1 13.4,9.9 13,11.2 14.1,10.4 15.2,11.2 14.8,9.9 15.9,9.1 		
			"/>
		<polygon fill="#FFFFFF" points="22.1,9.1 21.7,7.8 21.2,9.1 19.9,9.1 21,9.9 20.6,11.2 21.7,10.4 22.7,11.2 22.3,9.9 23.4,9.1 		
			"/>
		<polygon fill="#FFFFFF" points="29.6,9.1 29.2,7.8 28.8,9.1 27.5,9.1 28.5,9.9 28.1,11.2 29.2,10.4 30.3,11.2 29.9,9.9 31,9.1 		
			"/>
		<polygon fill="#FFFFFF" points="3.2,12.4 2.8,11.2 2.3,12.4 1,12.4 2.1,13.2 1.7,14.5 2.8,13.7 3.8,14.5 3.4,13.2 4.5,12.4 		"/>
		<polygon fill="#FFFFFF" points="10.7,12.4 10.3,11.2 9.9,12.4 8.6,12.4 9.6,13.2 9.2,14.5 10.3,13.7 11.4,14.5 11,13.2 12.1,12.4 
					"/>
		<polygon fill="#FFFFFF" points="18.3,12.4 17.9,11.2 17.5,12.4 16.1,12.4 17.2,13.2 16.8,14.5 17.9,13.7 19,14.5 18.5,13.2 
			19.6,12.4 		"/>
		<polygon fill="#FFFFFF" points="25.9,12.4 25.4,11.2 25,12.4 23.7,12.4 24.8,13.2 24.4,14.5 25.4,13.7 26.5,14.5 26.1,13.2 
			27.2,12.4 		"/>
		<polygon fill="#FFFFFF" points="7,15.7 6.5,14.4 6.1,15.7 4.8,15.7 5.9,16.5 5.5,17.8 6.5,17 7.6,17.8 7.2,16.5 8.3,15.7 		"/>
		<polygon fill="#FFFFFF" points="14.5,15.7 14.1,14.4 13.7,15.7 12.3,15.7 13.4,16.5 13,17.8 14.1,17 15.2,17.8 14.8,16.5 
			15.9,15.7 		"/>
		<polygon fill="#FFFFFF" points="22.1,15.7 21.7,14.4 21.2,15.7 19.9,15.7 21,16.5 20.6,17.8 21.7,17 22.7,17.8 22.3,16.5 
			23.4,15.7 		"/>
		<polygon fill="#FFFFFF" points="29.6,15.7 29.2,14.4 28.8,15.7 27.5,15.7 28.5,16.5 28.1,17.8 29.2,17 30.3,17.8 29.9,16.5 
			31,15.7 		"/>
		<polygon fill="#FFFFFF" points="3.2,19 2.8,17.8 2.3,19 1,19 2.1,19.8 1.7,21.1 2.8,20.3 3.8,21.1 3.4,19.8 4.5,19 		"/>
		<polygon fill="#FFFFFF" points="10.7,19 10.3,17.8 9.9,19 8.6,19 9.6,19.8 9.2,21.1 10.3,20.3 11.4,21.1 11,19.8 12.1,19 		"/>
		<polygon fill="#FFFFFF" points="18.3,19 17.9,17.8 17.5,19 16.1,19 17.2,19.8 16.8,21.1 17.9,20.3 19,21.1 18.5,19.8 19.6,19 		
			"/>
		<polygon fill="#FFFFFF" points="25.9,19 25.4,17.8 25,19 23.7,19 24.8,19.8 24.4,21.1 25.4,20.3 26.5,21.1 26.1,19.8 27.2,19 		
			"/>
		<polygon fill="#FFFFFF" points="7,22.3 6.5,21 6.1,22.3 4.8,22.3 5.9,23.1 5.5,24.3 6.5,23.5 7.6,24.3 7.2,23.1 8.3,22.3 		"/>
		<polygon fill="#FFFFFF" points="14.5,22.3 14.1,21 13.7,22.3 12.3,22.3 13.4,23.1 13,24.3 14.1,23.5 15.2,24.3 14.8,23.1 
			15.9,22.3 		"/>
		<polygon fill="#FFFFFF" points="22.1,22.3 21.7,21 21.2,22.3 19.9,22.3 21,23.1 20.6,24.3 21.7,23.5 22.7,24.3 22.3,23.1 
			23.4,22.3 		"/>
		<polygon fill="#FFFFFF" points="29.6,22.3 29.2,21 28.8,22.3 27.5,22.3 28.5,23.1 28.1,24.3 29.2,23.5 30.3,24.3 29.9,23.1 
			31,22.3 		"/>
		<polygon fill="#FFFFFF" points="3.2,25.6 2.8,24.3 2.3,25.6 1,25.6 2.1,26.4 1.7,27.7 2.8,26.9 3.8,27.7 3.4,26.4 4.5,25.6 		"/>
		<polygon fill="#FFFFFF" points="10.7,25.6 10.3,24.3 9.9,25.6 8.6,25.6 9.6,26.4 9.2,27.7 10.3,26.9 11.4,27.7 11,26.4 12.1,25.6 
					"/>
		<polygon fill="#FFFFFF" points="18.3,25.6 17.9,24.3 17.5,25.6 16.1,25.6 17.2,26.4 16.8,27.7 17.9,26.9 19,27.7 18.5,26.4 
			19.6,25.6 		"/>
		<polygon fill="#FFFFFF" points="25.9,25.6 25.4,24.3 25,25.6 23.7,25.6 24.8,26.4 24.4,27.7 25.4,26.9 26.5,27.7 26.1,26.4 
			27.2,25.6 		"/>
		<polygon fill="#FFFFFF" points="7,28.9 6.5,27.6 6.1,28.9 4.8,28.9 5.9,29.6 5.5,30.9 6.5,30.1 7.6,30.9 7.2,29.6 8.3,28.9 		"/>
		<polygon fill="#FFFFFF" points="14.5,28.9 14.1,27.6 13.7,28.9 12.3,28.9 13.4,29.6 13,30.9 14.1,30.1 15.2,30.9 14.8,29.6 
			15.9,28.9 		"/>
		<polygon fill="#FFFFFF" points="22.1,28.9 21.7,27.6 21.2,28.9 19.9,28.9 21,29.6 20.6,30.9 21.7,30.1 22.7,30.9 22.3,29.6 
			23.4,28.9 		"/>
		<polygon fill="#FFFFFF" points="29.6,28.9 29.2,27.6 28.8,28.9 27.5,28.9 28.5,29.6 28.1,30.9 29.2,30.1 30.3,30.9 29.9,29.6 
			31,28.9 		"/>
	</g>
</g>
<path id="usa" fill="#6F9974" d="M15.5,75.2l-0.3,1.2l-1-0.7h-0.5L13.3,77l-3.6,8.1l1,7.1l1.2,0.6l0.2,1.9h2.4l2.4,1.8l4.6,0.4
	l0.5,2.4l0.7,0.5l1-1l0.8,0.4l0.7,3.4l1.3,0.8l1-1.9l3.2-2.3l2.1,1l1.8,0.1l0.1-1.1l3.7,0.1l0.7,0.8l0.1,1.9l-0.4,1l0.5,1.8h1.1
	l1.1-1.7l-0.4-0.8l-0.4-1.8l0.7-2l3-2.6l2.3-0.7L46.4,93l3.2-3.4l3.2-0.5l-0.5-1.8l3.1-1.8v-2.4L55,83l-1.1,0.4l-0.1,1.5h-3.7
	l-2.9,1.9l-4.5,1.5L42,87.4l2.1-3.1l-1-1L42.3,82l-1.4-1.1l-1.6-0.1l-2.9-2L15.5,75.2L15.5,75.2z"/>
</svg>
