<?xml version="1.0" encoding="utf-8"?>
<!-- Generator: Adobe Illustrator 18.0.0, SVG Export Plug-In . SVG Version: 6.00 Build 0)  -->
<!DOCTYPE svg PUBLIC "-//W3C//DTD SVG 1.1//EN" "http://www.w3.org/Graphics/SVG/1.1/DTD/svg11.dtd">
<svg version="1.1" id="Layer_1" xmlns="http://www.w3.org/2000/svg" xmlns:xlink="http://www.w3.org/1999/xlink" x="0px" y="0px"
	 viewBox="0 0 60 120" enable-background="new 0 0 60 120" xml:space="preserve">
<rect y="60" fill="#B5DEE4" width="60" height="60"/>
<g>
	<g>
		<rect fill="#FFFFFF" width="60" height="60"/>
	</g>
	<g>
		<rect width="60" height="18"/>
	</g>
	<g>
		<rect y="42" fill="#006600" width="60" height="18"/>
	</g>
	<g id="spear">
		<g>
			<g id="spearshape">
				<path d="M18.6,47.8l0.6,0.4l17.5-30.3c1-0.3,1.6-1.2,2.1-2.2c0.4-0.6,1.9-3.2,2.5-6.6c-2.6,2.3-4.1,4.8-4.5,5.5
					c-0.6,1-1.1,1.9-0.9,3L18.6,47.8z"/>
				<path d="M19.4,48.9L17.9,48l17.7-30.6c-0.2-1.1,0.4-2.2,0.9-3.1c1.6-2.7,3.4-4.6,4.6-5.6l1.1-0.9l-0.3,1.4c-0.3,1.6-1,4-2.6,6.8
					c-0.6,1-1.2,2-2.2,2.4L19.4,48.9z M40.5,10.5c-1,1-2.1,2.4-3.2,4.2c-0.5,0.9-1,1.8-0.8,2.6l0,0l0,0c0.8-0.2,1.3-1.1,1.8-2
					C39.5,13.6,40.1,11.9,40.5,10.5z"/>
			</g>
		</g>
		<g>
			<g id="spearshape_1_">
				<path fill="#FFFFFF" d="M18.6,47.8l0.6,0.4l17.5-30.3c1-0.3,1.6-1.2,2.1-2.2c0.4-0.6,1.9-3.2,2.5-6.6c-2.6,2.3-4.1,4.8-4.5,5.5
					c-0.6,1-1.1,1.9-0.9,3L18.6,47.8z"/>
			</g>
		</g>
	</g>
	<g>
		<g id="spear_1_">
			<g>
				<g id="spearshape_2_">
					<path d="M40.7,47.8l-0.6,0.4L22.6,17.8c-1-0.3-1.6-1.2-2.1-2.2c-0.5-0.6-2-3.2-2.6-6.6c2.6,2.3,4.1,4.8,4.5,5.5
						c0.6,1,1.1,1.9,0.9,3L40.7,47.8z"/>
					<path d="M39.9,48.9L22.2,18.3c-1.1-0.4-1.7-1.4-2.2-2.4c-1.6-2.7-2.3-5.2-2.6-6.8l-0.3-1.4l1.1,0.9c1.2,1.1,3,2.9,4.6,5.6
						c0.5,0.9,1.2,2,0.9,3.1L41.4,48L39.9,48.9z M18.8,10.5c0.4,1.4,1,3,2.1,4.8c0.5,0.9,1,1.8,1.8,2l0,0l0,0
						c0.2-0.8-0.3-1.7-0.8-2.6C20.9,12.9,19.7,11.5,18.8,10.5z"/>
				</g>
			</g>
			<g transform="scale(-1,1)">
				<g id="spearshape_3_">
					<path fill="#FFFFFF" d="M-23.2,17.5c-0.2-1.1,0.3-2,0.9-3c0.4-0.7,1.9-3.2,4.5-5.5c-0.6,3.4-2.1,6-2.6,6.6
						c-0.5,1-1.1,1.9-2.1,2.2L-40,48.2l-0.6-0.4L-23.2,17.5z"/>
				</g>
			</g>
		</g>
		<g>
			<path fill="#B22234" d="M0,21v18h22.9c1.1,3,4.9,9,7.1,9s6-6,7.1-9H60V21H37.1c-1.1-3-4.9-9-7.1-9s-6,6-7.1,9H0z"/>
		</g>
		<g id="deco_r">
			<path d="M37.1,39c1.1-3,1.9-6,1.9-9s-0.8-6-1.9-9c-1.1,3-1.9,6-1.9,9S36,36,37.1,39"/>
		</g>
		<g transform="scale(-1,1)">
			<g id="deco_r_1_">
				<path d="M-22.8,39c-1.1-3-1.9-6-1.9-9s0.8-6,1.9-9c1.1,3,1.9,6,1.9,9S-21.7,36-22.8,39"/>
			</g>
		</g>
		<g>
			<g>
				<ellipse fill="#FFFFFF" cx="30" cy="30" rx="1.5" ry="2.2"/>
			</g>
			<g id="deco_br">
				<path fill="#FFFFFF" d="M30.4,32.2c0,0,1.5,3,1.5,7.9S30.4,48,30.4,48V32.2z"/>
			</g>
			<g transform="scale(-1,1)">
				<g id="deco_br_2_">
					<path fill="#FFFFFF" d="M-29.5,48c0,0,1.5-3,1.5-7.9s-1.5-7.9-1.5-7.9V48z"/>
				</g>
			</g>
			<g id="deco_br_5_">
				<path fill="#FFFFFF" d="M30.4,12c0,0,1.5,3,1.5,7.9s-1.5,7.9-1.5,7.9V12z"/>
			</g>
			<g transform="scale(-1,1)">
				<g id="deco_br_4_">
					<path fill="#FFFFFF" d="M-29.5,27.8c0,0,1.5-3,1.5-7.9s-1.5-7.9-1.5-7.9V27.8z"/>
				</g>
			</g>
		</g>
	</g>
</g>
<path id="kenya" fill="#6F9974" d="M17,75.7l3.8,7.5l-4.6,9.7l-0.6,2.9l23,14.3l7.1-11.2L42.1,96L42,81.2l4.5-4.9l-7.2,2.4L34,78.6
	l-8.5-7.2l-2.7-1.2l-5,0.5l-0.9,1.5L17,75.7L17,75.7z"/>
</svg>
