<?xml version="1.0" encoding="utf-8"?>
<!-- Generator: Adobe Illustrator 18.0.0, SVG Export Plug-In . SVG Version: 6.00 Build 0)  -->
<!DOCTYPE svg PUBLIC "-//W3C//DTD SVG 1.1//EN" "http://www.w3.org/Graphics/SVG/1.1/DTD/svg11.dtd">
<svg version="1.1" xmlns="http://www.w3.org/2000/svg" xmlns:xlink="http://www.w3.org/1999/xlink" x="0px" y="0px"
	 viewBox="0 0 768 417" enable-background="new 0 0 768 417" xml:space="preserve">
<pattern  x="-25" y="-253" width="23" height="23" patternUnits="userSpaceOnUse" id="New_Pattern_Swatch_1" viewBox="0 -23 23 23" overflow="visible">
	<g>
		<polygon fill="none" points="0,0 23,0 23,-23 0,-23 		"/>
		<polygon fill="#A46642" points="23,0 0,0 0,-23 23,-23 		"/>
	</g>
</pattern>
<g id="Layer_1">
	<g>
		<defs>
			<path id="SVGID_1_" d="M646,285.9c41.1,25.6,82.2,51.2,123.3,76.8H768c-40.9-25.6-81.9-51.2-122.8-76.8c-5.5,0-10.9,0-16.4,0
				c38.3,25.6,76.7,51.2,115,76.8h-1.3c-38.2-25.6-76.4-51.2-114.6-76.8c-5.5,0-10.9,0-16.4,0c35.6,25.6,71.2,51.2,106.8,76.8H717
				c-35.5-25.6-71-51.2-106.4-76.8c-5.5,0-10.9,0-16.4,0c32.9,25.6,65.8,51.2,98.6,76.8h-1.3c-32.7-25.6-65.5-51.2-98.2-76.8
				c-5.5,0-10.9,0-16.4,0c30.1,25.6,60.3,51.2,90.4,76.8h-1.3c-30-25.6-60-51.2-90-76.8c-5.5,0-10.9,0-16.4,0
				c27.4,25.6,54.8,51.2,82.2,76.8h-1.3c-27.3-25.6-54.6-51.2-81.8-76.8c-5.5,0-10.9,0-16.4,0c24.7,25.6,49.4,51.2,74,76.8h-1.3
				c-24.5-25.6-49.1-51.2-73.6-76.8c-5.5,0-10.9,0-16.4,0c21.9,25.6,43.9,51.2,65.8,76.8h-1.3c-21.8-25.6-43.6-51.2-65.4-76.8
				c-5.5,0-10.9,0-16.4,0c19.2,25.6,38.4,51.2,57.6,76.8h-1.3c-19.1-25.6-38.1-51.2-57.2-76.8c-5.5,0-10.9,0-16.4,0
				c16.5,25.6,32.9,51.2,49.4,76.8h-1.3c-16.3-25.6-32.7-51.2-49-76.8c-5.5,0-10.9,0-16.4,0c13.7,25.6,27.5,51.2,41.2,76.8h-1.3
				c-13.6-25.6-27.2-51.2-40.8-76.8c-5.5,0-10.9,0-16.4,0c11,25.6,22,51.2,33,76.8h-1.3c-10.9-25.6-21.7-51.2-32.6-76.8
				c-5.5,0-10.9,0-16.4,0c8.3,25.6,16.5,51.2,24.8,76.8h-1.3c-8.1-25.6-16.3-51.2-24.4-76.8c-5.5,0-10.9,0-16.4,0
				c5.5,25.6,11.1,51.2,16.6,76.8H437c-5.4-25.6-10.8-51.2-16.2-76.8c-5.5,0-10.9,0-16.4,0c2.8,25.6,5.6,51.2,8.4,76.8h-1.3
				c-2.7-25.6-5.3-51.2-8-76.8c-5.5,0-10.9,0-16.4,0c0.1,25.6,0.1,51.2,0.2,76.8H386c0.1-25.6,0.1-51.2,0.2-76.8
				c-5.5,0-10.9,0-16.4,0c-2.7,25.6-5.3,51.2-8,76.8h-1.3c2.8-25.6,5.6-51.2,8.4-76.8c-5.5,0-10.9,0-16.4,0
				c-5.4,25.6-10.8,51.2-16.2,76.8h-1.3c5.5-25.6,11.1-51.2,16.6-76.8c-5.5,0-10.9,0-16.4,0c-8.1,25.6-16.3,51.2-24.4,76.8h-1.3
				c8.3-25.6,16.5-51.2,24.8-76.8c-5.5,0-10.9,0-16.4,0c-10.9,25.6-21.7,51.2-32.6,76.8h-1.3c11-25.6,22-51.2,33-76.8
				c-5.5,0-10.9,0-16.4,0c-13.6,25.6-27.2,51.2-40.8,76.8h-1.3c13.7-25.6,27.5-51.2,41.2-76.8c-5.5,0-10.9,0-16.4,0
				c-16.3,25.6-32.7,51.2-49,76.8h-1.3c16.5-25.6,32.9-51.2,49.4-76.8c-5.5,0-10.9,0-16.4,0c-19.1,25.6-38.1,51.2-57.2,76.8h-1.3
				c19.2-25.6,38.4-51.2,57.6-76.8c-5.5,0-10.9,0-16.4,0c-21.8,25.6-43.6,51.2-65.4,76.8h-1.3c21.9-25.6,43.9-51.2,65.8-76.8
				c-5.5,0-10.9,0-16.4,0c-24.5,25.6-49.1,51.2-73.6,76.8h-1.3c24.7-25.6,49.4-51.2,74-76.8c-5.5,0-10.9,0-16.4,0
				c-27.3,25.6-54.6,51.2-81.8,76.8h-1.3c27.4-25.6,54.8-51.2,82.2-76.8c-5.5,0-10.9,0-16.4,0c-30,25.6-60,51.2-90,76.8H106
				c30.1-25.6,60.3-51.2,90.4-76.8c-5.5,0-10.9,0-16.4,0c-32.7,25.6-65.5,51.2-98.2,76.8h-1.3c32.9-25.6,65.8-51.2,98.6-76.8
				c-5.5,0-10.9,0-16.4,0c-35.5,25.6-71,51.2-106.4,76.8H55c35.6-25.6,71.2-51.2,106.8-76.8c-5.5,0-10.9,0-16.4,0
				c-38.2,25.6-76.4,51.2-114.6,76.8h-1.3c38.3-25.6,76.7-51.2,115-76.8c-5.5,0-10.9,0-16.4,0c-40.9,25.6-81.9,51.2-122.8,76.8H4.1
				c41.1-25.6,82.2-51.2,123.3-76.8c-5.5,0-127.4,0-127.4,0V417h768v-35.3V286C768,286,650.1,285.9,646,285.9z"/>
		</defs>
		<clipPath id="SVGID_2_">
			<use xlink:href="#SVGID_1_"  overflow="visible"/>
		</clipPath>
		<g id="floor" clip-path="url(#SVGID_2_)">
			<defs>
				<rect id="SVGID_3_" y="285.9" width="768" height="131.1"/>
			</defs>
			<clipPath id="SVGID_4_">
				<use xlink:href="#SVGID_3_"  overflow="visible"/>
			</clipPath>
			
				<radialGradient id="SVGID_5_" cx="384" cy="285.8932" r="271.9031" gradientTransform="matrix(1 0 0 0.3 0 200.1252)" gradientUnits="userSpaceOnUse">
				<stop  offset="0" style="stop-color:#7C655B"/>
				<stop  offset="0.8662" style="stop-color:#7C655B;stop-opacity:0.1072"/>
				<stop  offset="0.9702" style="stop-color:#7C655B;stop-opacity:0"/>
			</radialGradient>
			<ellipse clip-path="url(#SVGID_4_)" fill="url(#SVGID_5_)" cx="384" cy="285.9" rx="366.5" ry="116.4"/>
		</g>
	</g>
	<g>
		<defs>
			<path id="SVGID_6_" d="M276.7,286h-29.8L215,323.9h334l-28.5-37.3C520.5,286.6,276.1,286.6,276.7,286z"/>
		</defs>
		<use xlink:href="#SVGID_6_"  overflow="visible" fill="#352D2B"/>
		<clipPath id="SVGID_7_">
			<use xlink:href="#SVGID_6_"  overflow="visible"/>
		</clipPath>
		<g clip-path="url(#SVGID_7_)">
			<polygon fill="#E7E3DE" points="230,335.7 216,335.7 250,303.1 216,269.7 230,269.7 264,303.1 			"/>
			<polygon fill="#E7E3DE" points="260.1,335.7 246.1,335.7 280.1,303.1 246.1,269.7 260.1,269.7 294.1,303.1 			"/>
			<polygon fill="#E7E3DE" points="292.1,335.7 278.1,335.7 312.1,303.1 278.1,269.7 292.1,269.7 326.1,303.1 			"/>
			<polygon fill="#E7E3DE" points="324.2,335.7 310.2,335.7 344.2,303.1 310.2,269.7 324.2,269.7 358.2,303.1 			"/>
			<polygon fill="#E7E3DE" points="388.4,335.7 374.4,335.7 408.4,303.1 374.4,269.7 388.4,269.7 422.4,303.1 			"/>
			<polygon fill="#E7E3DE" points="420.4,335.7 406.4,335.7 440.4,303.1 406.4,269.7 420.4,269.7 454.4,303.1 			"/>
			<polygon fill="#E7E3DE" points="484.6,336.4 470.6,336.4 504.6,303.7 470.6,270.4 484.6,270.4 518.6,303.7 			"/>
			<polygon fill="#E7E3DE" points="516.7,336.4 502.7,336.4 536.7,303.7 502.7,270.4 516.7,270.4 550.7,303.7 			"/>
			<polygon fill="#E7E3DE" points="452.5,336.4 438.5,336.4 472.5,303.7 438.5,270.4 452.5,270.4 486.5,303.7 			"/>
			<polygon fill="#E7E3DE" points="356.3,336.4 342.3,336.4 376.3,303.7 342.3,270.4 356.3,270.4 390.3,303.7 			"/>
		</g>
	</g>
	<path d="M575.8,227c-0.3-0.5-0.9-1.6-2.3-4.1c-0.2-0.4-0.4-0.8-0.6-1.2c-0.8-2.1-0.5-3.9,0-5.6c0.4-1.4,1.1-2.7,1.4-4
		c0.7-3.1,0.1-3.8-1.4-7.4c-0.1-0.3-0.3-0.6-0.4-0.9c-1.3-3.2-0.2-8.1,0.4-10.4V192l-3-0.6l-3,0.6v1.4c0.6,2.3,1.7,7.1,0.4,10.4
		c-0.1,0.3-0.3,0.6-0.4,0.9c-1.5,3.5-2.1,4.3-1.4,7.4c0.3,1.4,0.9,2.7,1.4,4c0.5,1.7,0.8,3.5,0,5.6c-0.2,0.4-0.4,0.8-0.6,1.2
		c-1.4,2.5-2,3.6-2.3,4.1c-1.4,1.2-2.3,3.1-2.3,5.6c0,5.1,3.7,6.7,8.2,6.7c4.5,0,8.2-1.6,8.2-6.7C578.1,230.1,577.2,228.3,575.8,227
		z"/>
	<polygon fill="#F9F8F5" points="601.2,193.9 538.6,193.9 566.4,162.9 573.4,162.9 	"/>
	<g>
		<linearGradient id="SVGID_8_" gradientUnits="userSpaceOnUse" x1="384" y1="377.6305" x2="384" y2="39.2715">
			<stop  offset="0" style="stop-color:#D75216"/>
			<stop  offset="0.9542" style="stop-color:#D75216;stop-opacity:4.578042e-02"/>
			<stop  offset="1" style="stop-color:#D75216;stop-opacity:0"/>
		</linearGradient>
		<rect x="286.7" y="0.5" fill="url(#SVGID_8_)" width="194.6" height="287.5"/>
		<linearGradient id="SVGID_9_" gradientUnits="userSpaceOnUse" x1="384" y1="377.6305" x2="384" y2="39.2715">
			<stop  offset="0" style="stop-color:#D75216"/>
			<stop  offset="0.9132" style="stop-color:#D75216;stop-opacity:0"/>
		</linearGradient>
		<rect x="286.7" y="0.5" fill="url(#SVGID_9_)" width="194.6" height="287.5"/>
	</g>
	<rect x="323.3" y="82" fill="#624C42" width="121.3" height="80.7"/>
	<g>
		<g>
			<path fill="#352D2B" d="M338.1,254.1c-22.6,0-45.3,0-67.9,0c-3.3,0-6-2.7-6-6c0-17,0-34,0-51c0-3.3,2.7-6.3,6.1-6.7
				c22.6-2.3,45.2-3.9,67.9-5c3.3-0.1,6,2.6,6,6.5c0,18.7-0.1,37.4-0.1,56.2C344.1,251.4,341.4,254.1,338.1,254.1z"/>
			<path fill="#352D2B" d="M497.8,254.1c-22.6,0-45.3,0-67.9,0c-3.3,0-6-2.7-6-6c0-18.6,0-37.1,0-55.7c0-3.8,2.7-6.4,6-6.2
				c22.6,1.5,45.2,3.2,67.9,4.7c3.3,0.2,6,3,6,6.3c0,17,0,34,0,51C503.8,251.4,501.1,254.1,497.8,254.1z"/>
			<path fill="#352D2B" d="M417.9,254.1c-22.6,0-45.3,0-67.9,0c-3.3,0-6-2.7-6-6c0-18.7,0-37.4,0.1-56.2c0-3.9,2.7-6.8,6-6.9
				c22.7-0.5,45.2-0.5,67.8,0.4c3.3,0.2,6,3.1,6,6.9c0,18.6,0,37.1,0,55.7C423.9,251.4,421.2,254.1,417.9,254.1z"/>
		</g>
	</g>
	<linearGradient id="SVGID_10_" gradientUnits="userSpaceOnUse" x1="382.3834" y1="256" x2="382.3834" y2="239.2295">
		<stop  offset="0" style="stop-color:#352D2B"/>
		<stop  offset="1" style="stop-color:#563F36"/>
	</linearGradient>
	<path fill="url(#SVGID_10_)" d="M493.7,274.3H271c-6.1,0-11.1-5-11.1-11.1v-5.7c0-6.1,5-11.1,11.1-11.1h222.7
		c6.1,0,11.1,5,11.1,11.1v5.7C504.9,269.3,499.9,274.3,493.7,274.3z"/>
	<path fill="#352D2B" d="M471.2,298.2H296.8c-4.8,0-8.7-3.9-8.7-8.7v-19.6c0-4.8,3.9-8.7,8.7-8.7h174.4c4.8,0,8.7,3.9,8.7,8.7v19.6
		C479.9,294.2,476,298.2,471.2,298.2z"/>
	<path fill="#F5BB3B" d="M321.2,245.6c-0.2,0.1-0.6-0.1-0.8-0.1c-0.3,0-0.6,0.1-0.9,0.1c-0.9,0.2-1.7,0.3-2.6,0.5
		c-0.5,0.1-0.9,0.1-1.4,0.3c-0.5,0.1-0.9,0.3-1.4,0.4c-0.5,0.1-0.9,0.3-1.4,0.3c-0.5,0.1-1.1,0.2-1.6,0.3c-1.2,0.2-2.5,0.4-3.7,0.7
		c-0.9,0.2-1.9,0.3-2.8,0.6c-1.1,0.4-2.3,0.7-3.3,1.2c-0.3,0.1-0.6,0.2-0.9,0.3c-0.3,0.1-0.5,0.3-0.7,0.4c-0.6,0.3-1.1,0.7-1.7,1
		c-0.2,0.1-0.3,0.3-0.5,0.4c-0.2,0.1-0.4,0.2-0.6,0.3c-0.3,0.2-0.6,0.2-0.9,0.4c-0.3,0.1-0.6,0.3-0.9,0.4c-1,0.4-2,0.7-3.1,0.9
		c-0.5,0.1-1,0.1-1.5,0.3c-0.6,0.2-1.1,0.4-1.7,0.6c-0.6,0.2-1.1,0.4-1.7,0.5c-0.3,0.1-1,0.3-1.3,0c-0.1-0.1-0.1-0.3-0.2-0.4
		c0-0.1-0.1-0.3-0.1-0.4c0-0.4,0.1-0.8,0.1-1.2c0.1-0.9,0.4-1.9,0.5-2.8c0.1-0.9,0.2-1.8,0.4-2.6c0.2-0.8,0.3-1.7,0.5-2.5
		c0.1-0.4,0.2-0.9,0.3-1.3c0-0.3,0-0.7,0-1c0-0.8-0.4-1.6-0.4-2.4c0-0.7,0-1.3,0-1.9c0-0.8-0.1-1.6,0.3-2.3c0.2-0.4,0.3-0.8,0.6-1.1
		c0.1-0.1,0.3-0.2,0.4-0.4c0.1-0.2,0.1-0.4,0.1-0.6c0-0.3-0.2-0.5-0.2-0.7c0-0.2,0-0.3-0.1-0.5c0-0.1-0.1-0.2-0.2-0.4
		c-0.1-0.3-0.1-0.6-0.2-1c-0.1-0.4-0.1-0.7-0.2-1.1c-0.1-0.3,0-0.5,0-0.8c0-0.3-0.1-0.7-0.2-1c-0.1-0.4-0.2-0.8-0.3-1.2
		c-0.2-0.6-0.2-1.2-0.4-1.8c-0.2-0.6-0.3-1.2-0.4-1.8c-0.1-0.7-0.3-1.5-0.5-2.2c-0.2-0.7-0.3-1.3-0.5-2c-0.2-0.7-0.4-1.3-0.6-2
		c-0.1-0.6-0.1-1.1-0.4-1.7c-0.2-0.5-0.3-1-0.5-1.4c-0.6-1.1-1.1-2.2-1.6-3.4c-0.2-0.6-0.4-1.2-0.5-1.9c0-0.3-0.2-0.6-0.1-0.9
		c0.1-0.3,0.7-0.5,1-0.6c0.4-0.1,0.7,0,1.1,0.1c0.5,0.2,1.1,0.2,1.7,0.3c0.5,0.1,1,0.1,1.5,0.1c0.7,0,1.3-0.1,2-0.1
		c0.5,0.1,1,0.2,1.5,0.3c0.5,0.1,0.9,0.3,1.4,0.3c0.2,0,0.5,0,0.7-0.1c0.4-0.1,0.7,0,1.1-0.1c0.7-0.1,1.5-0.3,2.2-0.5
		c0.6-0.1,1.1-0.4,1.7-0.6c0.4-0.1,0.7-0.1,1.1-0.2c0.5-0.1,0.9-0.3,1.4-0.4c0.9-0.2,1.7-0.4,2.6-0.3c0.9,0,1.8,0.1,2.8,0
		c0.8-0.1,1.6-0.3,2.4-0.5c0.9-0.3,1.9-0.4,2.8-0.6c0.8-0.1,1.6-0.4,2.4-0.4c0.3,0,0.7,0,1,0c0.5,0,0.9-0.1,1.3-0.2
		c0.7-0.1,1.3-0.3,2-0.5c0.6-0.2,1.2-0.3,1.8-0.4c1.4-0.4,2.6-1.1,3.9-1.7c0.6-0.2,1.1-0.6,1.7-0.7c0.6-0.2,1.2-0.2,1.8-0.4
		c0.8-0.3,1.7-0.3,2.5-0.5c0.4-0.1,0.5,0,0.6,0.4c0.1,0.3,0.1,0.7,0.1,1c0,0.4,0,0.8-0.1,1.2c-0.2,0.6-0.4,1.2-0.5,1.7
		c-0.1,0.4-0.2,0.7-0.3,1.1c-0.1,0.3-0.1,0.7-0.1,1c-0.1,0.8-0.1,1.6-0.1,2.4c0.1,1.8,0.1,3.6,0,5.4c-0.1,0.6-0.2,1.3-0.2,1.9
		c0,0.5,0,1,0.1,1.5c0,0.4,0,0.7,0.1,1.1c0.1,0.4,0.2,0.9,0.2,1.3c0.1,0.4,0.1,0.7,0.2,1.1c0.1,0.2,0.1,0.4,0.2,0.7
		c0.2,0.6,0.2,1.2,0.4,1.8c0.2,1,0.6,2,0.9,2.9c0.2,0.7,0.3,1.4,0.5,2.1c0.1,0.4,0.3,0.9,0.4,1.3c0,0.2,0.1,0.4,0.1,0.6
		c0.1,0.4,0.2,0.7,0.4,1.1c0.5,1.2,0.8,2.5,1.3,3.6c0.2,0.4,0.3,0.9,0.5,1.3c0.2,0.4,0.3,0.7,0.5,1.1c0.1,0.3,0.2,0.5,0.2,0.8
		c0,0.2,0,0.3,0,0.5c0,0.1-0.1,0.3,0,0.4c0.1,0.1,0.5,0.3,0.6,0.4c0.3,0.2,0.6,0.3,0.9,0.6c0.3,0.3,0.5,0.6,0.7,0.9
		c0.3,0.3,0.6,0.7,0.8,1.1c0.5,0.9,1.6,2.2,0.7,3.2c-0.5,0.6-1.6,0.6-2.3,0.5c-0.9-0.1-1.8-0.3-2.7-0.4c-0.5-0.1-0.9-0.3-1.4-0.3
		c-0.6,0-1.2,0-1.8,0c-0.5,0-1.1,0-1.6,0.1c-0.7,0.1-1.4,0.3-2.1,0.2c-0.6,0-1.2-0.1-1.8-0.1c-0.6,0-1.1-0.3-1.7-0.3
		c-0.3,0-0.6-0.1-0.9-0.2c-0.3,0-0.5,0-0.8-0.1"/>
	<g>
		<rect x="537.2" y="239.2" fill="#352D2B" width="63.8" height="15.6"/>
		<rect x="533.2" y="237.4" fill="#352D2B" width="71.9" height="2.6"/>
		<rect x="549.3" y="297.4" fill="#352D2B" width="39.6" height="4.1"/>
		<g>
			<g>
				<path fill="#352D2B" d="M594.9,255.1c0,4.6-3.3,6-7.4,6c-4.1,0-7.4-1.4-7.4-6c0-4.6,3.3-6.7,7.4-6.7
					C591.6,248.4,594.9,250.5,594.9,255.1z"/>
				<path fill="#352D2B" d="M593,304c0,3.4-2.5,4.5-5.5,4.5c-3,0-5.5-1.1-5.5-4.5s2.5-5,5.5-5C590.5,299,593,300.6,593,304z"/>
				<path fill="#352D2B" d="M592,296.3c0,2.8-2,3.7-4.5,3.7c-2.5,0-4.5-0.9-4.5-3.7s2-4.1,4.5-4.1C590,292.2,592,293.5,592,296.3z"
					/>
				<path fill="#352D2B" d="M592,261c0,2.8-2,3.7-4.5,3.7c-2.5,0-4.5-0.9-4.5-3.7c0-2.8,2-4.1,4.5-4.1C590,256.9,592,258.2,592,261z
					"/>
				<rect x="585.2" y="256.3" fill="#352D2B" width="4.7" height="46.9"/>
			</g>
			<g>
				<path fill="#352D2B" d="M558.1,255.1c0,4.6-3.3,6-7.4,6c-4.1,0-7.4-1.4-7.4-6c0-4.6,3.3-6.7,7.4-6.7
					C554.8,248.4,558.1,250.5,558.1,255.1z"/>
				<path fill="#352D2B" d="M556.2,304c0,3.4-2.5,4.5-5.5,4.5c-3,0-5.5-1.1-5.5-4.5s2.5-5,5.5-5C553.7,299,556.2,300.6,556.2,304z"
					/>
				<path fill="#352D2B" d="M555.2,296.3c0,2.8-2,3.7-4.5,3.7c-2.5,0-4.5-0.9-4.5-3.7s2-4.1,4.5-4.1
					C553.2,292.2,555.2,293.5,555.2,296.3z"/>
				<path fill="#352D2B" d="M555.2,261c0,2.8-2,3.7-4.5,3.7c-2.5,0-4.5-0.9-4.5-3.7c0-2.8,2-4.1,4.5-4.1
					C553.2,256.9,555.2,258.2,555.2,261z"/>
				<rect x="548.4" y="256.3" fill="#352D2B" width="4.7" height="46.9"/>
			</g>
		</g>
	</g>
	<path fill="#8B7B7D" d="M570,247.3c-2.1,0-3.8-1.4-4.3-3.3h-0.8c0,2.7,2.3,5,5,5s5-2.2,5-5h-0.8C573.8,245.8,572,247.3,570,247.3z"
		/>
	<g>
		<g>
			<polygon points="288,303.4 258.9,303.4 256.3,295.7 290.6,295.7 			"/>
			<path fill="#352D2B" d="M292.2,291.1c0,0,5.3-51.4-4-65.4c-9.3-14-23.7-14.3-34.3-7.7s-14,17.7-8.3,27.3c5.7,9.7,7.7,10,8.3,21.7
				c0.7,11.7,0,20.3,0,23.3s-0.3,8,5,8c5.3,0,27.7,0,30.3,0C291.9,298.3,292.2,293.2,292.2,291.1z"/>
		</g>
		<g>
			<polygon points="480,303.4 509.1,303.4 511.7,295.7 477.4,295.7 			"/>
			<path fill="#352D2B" d="M475.8,291.1c0,0-5.3-51.4,4-65.4c9.3-14,23.7-14.3,34.3-7.7c10.7,6.7,14,17.7,8.3,27.3
				c-5.7,9.7-7.7,10-8.3,21.7c-0.7,11.7,0,20.3,0,23.3s0.3,8-5,8c-5.3,0-27.7,0-30.3,0C476.1,298.3,475.8,293.2,475.8,291.1z"/>
		</g>
	</g>
	<g>
		<g>
			<path fill="#624C42" d="M313.1,285h-28.4l-14,25.1h226.7L484,285.4C484,285.4,312.7,285.4,313.1,285z"/>
		</g>
		<rect x="270.7" y="309.7" fill="#352D2B" width="226.7" height="7.7"/>
		<g>
			<path fill="#352D2B" d="M493,323.6c0,6.5-5.7,8.5-12.8,8.5s-12.8-2-12.8-8.5c0-6.5,5.7-9.5,12.8-9.5S493,317.1,493,323.6z"/>
			<path fill="#352D2B" d="M489.7,344.8c0,4.8-4.3,6.3-9.5,6.3s-9.5-1.5-9.5-6.3c0-4.8,4.3-7.1,9.5-7.1S489.7,339.9,489.7,344.8z"/>
			<path fill="#352D2B" d="M488.1,333.9c0,4-3.5,5.2-7.9,5.2c-4.3,0-7.9-1.2-7.9-5.2c0-4,3.5-5.9,7.9-5.9
				C484.5,328,488.1,329.9,488.1,333.9z"/>
		</g>
		<g>
			<path fill="#352D2B" d="M300.3,323.6c0,6.5-5.7,8.5-12.8,8.5s-12.8-2-12.8-8.5c0-6.5,5.7-9.5,12.8-9.5S300.3,317.1,300.3,323.6z"
				/>
			<path fill="#352D2B" d="M297,344.8c0,4.8-4.3,6.3-9.5,6.3c-5.3,0-9.5-1.5-9.5-6.3c0-4.8,4.3-7.1,9.5-7.1
				C292.8,337.7,297,339.9,297,344.8z"/>
			<path fill="#352D2B" d="M295.4,333.9c0,4-3.5,5.2-7.9,5.2c-4.3,0-7.9-1.2-7.9-5.2c0-4,3.5-5.9,7.9-5.9
				C291.9,328,295.4,329.9,295.4,333.9z"/>
		</g>
	</g>
	<path fill="url(#New_Pattern_Swatch_1)" d="M378,105.8c16,0,18,0,25,0s3-0.9,15,0c12,0.9,10,1.7,18,3.5c1.4,0.3,2.5,0.5,3.4,0.7
		V87.5H328.6v20c4.9-1,11.9-2.1,20.4-2.5C366,104.1,362,105.8,378,105.8z"/>
	<path fill="url(#New_Pattern_Swatch_1)" d="M416,136.4c-13,1.7-11,1.7-19,1.7s-17,0-20,0s-4,0-11,0s-4,0.9-16,0
		c-12-0.9-14-1.7-18-1.7c-1.6,0-2.5,0-3.4,0v20.8h110.9v-20C432.1,136.2,422.8,135.5,416,136.4z"/>
	<path fill="#F5BB3B" d="M436,109.3c-8-1.7-6-2.6-18-3.5c-12-0.9-8,0-15,0s-9,0-25,0s-12-1.7-29-0.9c-8.5,0.4-15.6,1.5-20.4,2.5
		v28.9c0.9,0,1.8,0,3.4,0c4,0,6,0.9,18,1.7c12,0.9,9,0,16,0s8,0,11,0s12,0,20,0s6,0,19-1.7c6.8-0.9,16.1-0.1,23.4,0.8V110
		C438.5,109.8,437.4,109.6,436,109.3z"/>
	<g>
		<g>
			<path fill="#352D2B" d="M358.4,121.8c-0.2,0.2-0.4,0.2-0.6,0.4c-0.2,0.2-0.3,0.4-0.4,0.7c0,0.1-0.2,0.4-0.2,0.6
				c0,0.3,0.2,0.4,0.4,0.6c0.3,0.3,0.5,0.5,0.8,0.8c0.4,0.3,0.9,0.7,1.4,0.5c0.3-0.2,0.5-0.4,0.9-0.5c0.8-0.1,1.7,0.3,2.5,0.3
				c0.6,0,1.3-0.2,1.6-0.8c0.3-0.6,0.4-1.3,0.4-2c0-0.2,0-0.4,0-0.6c0-0.2,0.1-0.3,0.1-0.5c0-0.5-0.7-0.9-1.1-1.2
				c-0.3-0.1-0.5-0.3-0.7-0.4c-0.2-0.1-0.3-0.3-0.5-0.4c-0.2-0.1-0.6-0.2-0.9-0.3c-0.4-0.1-0.9,0-1.3,0.1c-0.2,0.1-0.5,0.2-0.7,0.3
				c-0.2,0.1-0.4,0.1-0.6,0.3c-0.2,0.2-0.3,0.7-0.3,1c0,0.2,0,0.3-0.1,0.5c-0.1,0.2-0.4,0.3-0.6,0.5"/>
		</g>
		<g>
			<path fill="#352D2B" d="M371.9,120.1c-0.3,0.2-0.6,0.3-0.9,0.5c-0.4,0.2-0.6,0.4-0.9,0.8c-0.4,0.4-0.7,0.7-0.4,1.4
				c0.2,0.4,0.6,0.6,0.8,0.9c0.2,0.3,0.4,0.7,0.8,1c0.3,0.3,0.7,0.4,1.1,0.5c0.5,0.1,1,0.3,1.5,0.2c0.4,0,0.8-0.2,1.3-0.2
				c0.3,0,0.6,0,0.9,0c0.5,0,0.9-0.1,1.4-0.4c0.4-0.2,0.7-0.5,1.1-0.9c0.2-0.2,0.4-0.4,0.5-0.7c0.1-0.3,0-0.6,0-0.9
				c0-0.3-0.1-0.5-0.2-0.8c-0.2-0.4-0.4-0.8-0.6-1.2c-0.2-0.3-0.2-0.6-0.5-0.7c-0.7-0.3-1.5-0.6-2.2-0.9c-0.4-0.2-0.9-0.5-1.3-0.3
				c-0.5,0.1-0.9,0.7-1.3,1.1c-0.2,0.2-0.7,0.5-0.8,0.8"/>
		</g>
		<g>
			<path fill="#352D2B" d="M385.7,119.4c-0.6,0.4-1.2,1.1-1.7,1.7c-0.4,0.5-0.5,1-0.4,1.7c0.1,0.4,0.1,1,0.3,1.3
				c0.1,0.2,0.3,0.2,0.6,0.3c0.5,0.2,0.9,0.4,1.4,0.5c0.3,0.1,0.6,0.2,0.8,0.1c0.2,0,0.5-0.1,0.7-0.1c0.5,0,1,0.2,1.5,0.3
				c0.7,0.1,1.6,0.1,2.4,0.1c1.1-0.1,1.3-1.3,1.6-2.2c0.1-0.4,0.1-0.7,0.4-1c0.2-0.3,0.4-0.7,0.3-1.1c-0.1-0.6-0.8-1-1.2-1.3
				c-0.5-0.3-0.9-0.6-1.5-0.7c-0.5-0.1-1.1,0-1.6-0.1c-0.5-0.1-0.9-0.3-1.3-0.4c-0.9-0.2-1.5,0.4-2,1"/>
		</g>
		<g>
			<path fill="#352D2B" d="M402,119.3c-0.4,0.2-0.8,0.3-1.1,0.6c-0.4,0.4-0.5,0.8-0.6,1.3c-0.1,0.3,0,0.6-0.1,0.9
				c-0.1,0.2-0.1,0.5-0.1,0.8c0,0.3,0.2,0.5,0.5,0.7c0.3,0.2,0.7,0.4,1,0.6c0.4,0.3,0.9,0.3,1.4,0.3c0.7,0,1.8,0.2,2.4-0.2
				c0.3-0.2,0.8-0.4,1.1-0.7c0.4-0.4,0.5-0.9,0.6-1.5c0.1-0.6-0.5-1.3-1-1.6c-0.2-0.2-0.5-0.3-0.8-0.4c-0.2-0.2-0.4-0.2-0.7-0.3
				c-0.3,0-0.5-0.1-0.8-0.2c-0.3,0-0.5,0-0.7-0.1c-0.2-0.1-0.3-0.3-0.6-0.4c-0.3,0-0.5,0-0.8,0"/>
		</g>
		<g>
			<path fill="#352D2B" d="M412.9,120.2c-0.1,0.2-0.3,0.3-0.5,0.4c-0.3,0.2-0.6,0.5-0.8,0.9c-0.4,0.7,0.3,1.6,0.8,1.9
				c0.4,0.2,1.1,0.4,1.6,0.3c0.5-0.1,0.9-0.2,1.4-0.4c0.3-0.1,0.7-0.2,1-0.4c0.4-0.3,0.5-1.1,0.3-1.5c-0.3-0.6-0.7-1-1.3-1.3
				c-0.6-0.3-1.3-0.6-1.9-0.4c-0.5,0.1-0.8,0.7-0.7,1.2"/>
		</g>
		<g>
			<path fill="#352D2B" d="M424.1,118.3c-0.7,0.5-1.6,0.7-2.2,1.3c-0.6,0.5-1.1,1.1-1.2,1.9c-0.1,0.6,0,1.1,0.4,1.6
				c0.5,0.6,1.2,1.2,1.8,1.7c0.7,0.5,1.4,0.5,2.3,0.5c1.1,0,2.2,0,3.3-0.2c0.4-0.1,0.7-0.1,1,0c0.4,0.1,0.6,0.1,0.9,0
				c0.5-0.2,0.9-0.4,1.3-0.7c0.6-0.3,1.2-0.7,1.4-1.3c0.2-0.5,0.3-1,0.1-1.5c-0.2-0.5-0.6-1-1-1.4c-0.8-0.6-1.7-1.2-2.6-1.7
				c-0.5-0.2-1.1-0.4-1.7-0.6c-0.7-0.3-1.5-0.2-2.3-0.2c-0.4,0-0.8-0.1-1.2,0.1C424.4,117.9,424.3,118.1,424.1,118.3
				c-0.2,0-0.3,0.1-0.4,0.2"/>
		</g>
		<g>
			<path fill="#352D2B" d="M350,120.6c-0.7,0-1.3,0.1-1.9,0.4c-0.1,0.1-0.4,0.2-0.5,0.3c-0.2,0.2-0.2,0.8-0.2,1.1c0,0.2,0,0.5,0,0.8
				c0.1,0.3,0.3,0.5,0.6,0.7c0.8,0.6,1.6,1,2.6,0.8c0.5-0.1,1-0.2,1.6-0.4c0.3-0.1,0.5-0.1,0.8-0.2c0.2,0,0.3,0,0.5-0.1
				c0.6-0.5,0-1.6-0.4-2c-0.2-0.3-0.4-0.5-0.6-0.8c-0.1-0.2-0.3-0.4-0.5-0.5c-0.3-0.1-0.7,0-1,0C350.5,120.7,350.3,120.7,350,120.6"
				/>
		</g>
		<g>
			<path fill="#352D2B" d="M343.4,121.1c-0.7-0.8-1.4-1.9-2.5-2c-0.9-0.1-1.9,0-2.7,0.3c-0.5,0.1-1,0.3-1.5,0.6
				c-0.5,0.2-0.8,0.6-1.3,0.9c-0.3,0.2-0.8,0.4-0.9,0.7c-0.2,0.5,0.5,1,0.8,1.3c0.5,0.5,1.1,1,1.7,1.3c0.3,0.2,0.5,0.5,0.9,0.7
				c0.3,0.2,0.7,0.3,1.1,0.3c0.6,0.1,1.1,0.2,1.7,0.1c0.7-0.2,1.5-0.6,2.2-0.9c0.4-0.2,0.7-0.4,0.9-0.8c0.3-0.5,0.3-1,0.3-1.5
				c0-0.2,0-0.5,0-0.7c-0.1-0.4-0.4-0.3-0.7-0.6"/>
		</g>
	</g>
	<g>
		<path fill="#D75216" d="M341.4,247.8c-0.2,0-0.5-0.2-0.7-0.2c-0.2-0.1-0.5,0-0.8,0c-0.8,0-1.5,0-2.3,0c-0.4,0-0.8,0-1.2,0
			c-0.4,0.1-0.8,0.1-1.3,0.1c-0.4,0-0.8,0.1-1.2,0.1c-0.5,0-0.9,0-1.4,0c-1.1,0-2.2,0-3.3,0c-0.8,0-1.7-0.1-2.5,0
			c-1,0.1-2.1,0.2-3.1,0.5c-0.3,0.1-0.5,0.1-0.8,0.1c-0.2,0.1-0.5,0.2-0.7,0.2c-0.6,0.2-1.1,0.4-1.6,0.6c-0.2,0.1-0.3,0.2-0.5,0.2
			c-0.2,0.1-0.4,0.1-0.5,0.1c-0.3,0.1-0.5,0.1-0.8,0.2c-0.3,0-0.5,0.1-0.8,0.2c-0.9,0.2-1.9,0.3-2.8,0.3c-0.4,0-0.9-0.1-1.3,0
			c-0.5,0.1-1,0.2-1.6,0.3c-0.5,0.1-1.1,0.2-1.6,0.2c-0.3,0-0.9,0.1-1.1-0.2c0-0.1-0.1-0.3-0.1-0.4c0-0.1,0-0.2,0-0.4
			c0-0.4,0.2-0.7,0.3-1c0.2-0.8,0.7-1.5,0.9-2.3c0.2-0.8,0.5-1.5,0.8-2.2c0.3-0.7,0.5-1.4,0.8-2.1c0.2-0.4,0.3-0.7,0.5-1.1
			c0.1-0.3,0.1-0.6,0.2-0.9c0.1-0.7-0.1-1.4,0.1-2.1c0.1-0.6,0.2-1.1,0.3-1.7c0.2-0.7,0.2-1.4,0.6-1.9c0.2-0.3,0.4-0.6,0.7-0.9
			c0.1-0.1,0.3-0.1,0.4-0.2c0.2-0.1,0.2-0.3,0.2-0.5c0-0.2-0.1-0.4-0.1-0.6c0-0.1,0-0.3,0-0.4c0-0.1-0.1-0.2-0.1-0.3
			c0-0.3,0-0.6,0-0.9c0-0.3,0-0.6,0-1c0-0.3,0-0.5,0.1-0.7c0-0.3,0-0.6,0-0.9c0-0.4,0-0.7-0.1-1.1c-0.1-0.5,0-1.1-0.1-1.6
			c-0.1-0.6-0.1-1.1,0-1.7c0-0.7,0-1.3-0.1-2c-0.1-0.6,0-1.2-0.1-1.8c-0.1-0.6-0.2-1.2-0.2-1.8c0-0.5,0.1-1-0.1-1.5
			c-0.1-0.4-0.1-0.9-0.2-1.3c-0.3-1.1-0.6-2.1-0.8-3.2c-0.1-0.6-0.2-1.1-0.2-1.7c0-0.2-0.1-0.6,0.1-0.8c0.2-0.3,0.7-0.3,1-0.3
			c0.4,0,0.6,0.1,0.9,0.3c0.4,0.3,0.9,0.4,1.4,0.5c0.4,0.2,0.8,0.2,1.3,0.3c0.6,0.1,1.2,0.1,1.7,0.3c0.4,0.1,0.8,0.3,1.2,0.5
			c0.4,0.1,0.7,0.4,1.1,0.5c0.2,0,0.4,0,0.6,0.1c0.3,0,0.6,0.1,0.9,0.1c0.7,0,1.3,0,2-0.1c0.5,0,1-0.2,1.5-0.2c0.3,0,0.6,0,1,0
			c0.4,0,0.9-0.1,1.3-0.1c0.8,0,1.6,0,2.3,0.2c0.8,0.2,1.6,0.4,2.4,0.4c0.7,0,1.5,0,2.2,0c0.8-0.1,1.7-0.1,2.5-0.1
			c0.7,0,1.4,0,2.1,0c0.3,0,0.6,0.1,0.9,0.1c0.4,0,0.8,0,1.2,0c0.6,0,1.2-0.1,1.8-0.1c0.5-0.1,1.1,0,1.6-0.1
			c1.3-0.1,2.4-0.5,3.7-0.8c0.5-0.1,1.1-0.3,1.6-0.4c0.5-0.1,1.1,0,1.6-0.1c0.7-0.1,1.5,0,2.2,0c0.4,0,0.4,0.1,0.5,0.5
			c0,0.3,0,0.6-0.1,0.9c-0.1,0.3-0.1,0.7-0.3,1c-0.2,0.5-0.5,0.9-0.7,1.4c-0.1,0.3-0.3,0.6-0.4,0.9c-0.1,0.3-0.2,0.6-0.3,0.9
			c-0.2,0.7-0.3,1.3-0.4,2c-0.2,1.6-0.5,3.1-0.9,4.6c-0.1,0.5-0.3,1.1-0.5,1.7c-0.1,0.4-0.1,0.9-0.2,1.3c0,0.3-0.1,0.6-0.1,1
			c0,0.4,0,0.8,0,1.2c0,0.3,0,0.7,0,1c0,0.2,0,0.4,0.1,0.6c0,0.5,0,1.1,0,1.6c0.1,0.9,0.2,1.8,0.3,2.7c0.1,0.6,0.1,1.2,0.1,1.9
			c0,0.4,0.1,0.8,0.2,1.2c0,0.2,0,0.4,0,0.5c0,0.4,0.1,0.7,0.2,1c0.2,1.1,0.3,2.2,0.5,3.3c0.1,0.4,0.1,0.8,0.2,1.2
			c0.1,0.3,0.2,0.7,0.3,1c0.1,0.2,0.1,0.5,0.1,0.7c0,0.1,0,0.3-0.1,0.4c0,0.1-0.1,0.2-0.1,0.3c0,0.1,0.3,0.4,0.4,0.5
			c0.3,0.2,0.5,0.4,0.7,0.6c0.2,0.3,0.3,0.6,0.5,0.9c0.2,0.3,0.4,0.7,0.5,1.1c0.3,0.8,1,2.1,0.1,2.9c-0.5,0.4-1.5,0.2-2.1,0.1
			c-0.8-0.2-1.5-0.5-2.3-0.8c-0.4-0.2-0.8-0.4-1.2-0.5c-0.5-0.1-1-0.2-1.5-0.3c-0.5-0.1-0.9-0.1-1.4-0.1c-0.6,0-1.2,0-1.9-0.2
			c-0.5-0.1-1.1-0.3-1.6-0.4c-0.5-0.1-0.9-0.4-1.4-0.5c-0.3-0.1-0.5-0.2-0.8-0.3c-0.3-0.1-0.5-0.1-0.7-0.2"/>
		<g>
			
				<rect x="323.2" y="219.5" transform="matrix(0.7071 0.7071 -0.7071 0.7071 260.0667 -168.482)" fill="none" stroke="#624C42" stroke-width="0.4089" stroke-miterlimit="10" width="20.4" height="20.4"/>
			
				<rect x="326.2" y="222.4" transform="matrix(0.7071 0.7071 -0.7071 0.7071 260.0667 -168.482)" fill="none" stroke="#624C42" stroke-width="0.2897" stroke-miterlimit="10" width="14.5" height="14.5"/>
			
				<rect x="329" y="225.3" transform="matrix(0.7071 0.7071 -0.7071 0.7071 260.0667 -168.482)" fill="none" stroke="#624C42" stroke-width="0.1774" stroke-miterlimit="10" width="8.9" height="8.9"/>
		</g>
	</g>
	<g>
		<path fill="#352D2B" d="M201.8,117.1h0.6c8.8-8.6,17.8-4.3,21.3-2c0.1-11.7-0.1-22.8-0.1-31.9c0,0-8.7-2.3-22.3-2.3
			c-13.6,0-20.7,2.3-20.7,2.3c0,9.1-0.2,20.2-0.1,31.9C184,112.8,193,108.5,201.8,117.1z"/>
		<path d="M223.7,115.1c-3.5-2.3-12.5-6.5-21.3,2h-0.6c-8.8-8.6-17.8-4.3-21.3-2c0,1.4,0,2.8,0,4.3h43.1
			C223.7,117.9,223.7,116.5,223.7,115.1z"/>
		<path fill="#352D2B" d="M205.7,119.4l0.7,32h-8.7l0.7-32h-17.9c0.2,20.1,1.3,41.1,5.3,55.2c4.5,15.8,11.5,18.4,16.3,18.4
			c4.8,0,11.7-2.4,16.2-18.1c4.1-14.1,5.2-35.3,5.4-55.5H205.7z"/>
		<polygon points="206.5,151.3 205.7,119.4 198.5,119.4 197.7,151.3 		"/>
		<path d="M217.8,167.5c0,0-7,6.5-15.7,6.5c-8.7,0-15.7-6.5-15.7-6.5s7-6.5,15.7-6.5C210.8,161,217.8,167.5,217.8,167.5z"/>
	</g>
	<g>
		<defs>
			<path id="SVGID_11_" d="M231.2,268.8c-0.3-14.9-8.6-18.8-18-24.1c-2.4-1.3-3.9-2.6-5-3.7c-2.6-2.8-1.8-4.9-1.5-5.5l-4.6-0.2h-2.8
				l-4.6,0.2c0.3,0.6,1,2.7-1.5,5.5c-1,1.1-2.6,2.4-5,3.7c-9.4,5.3-17.7,9.1-18,24.1c-0.3,14.1,5.7,28.5,23,30.3
				c1,0.1,2,0.2,3.1,0.2h8.9c1.1,0,2.1-0.1,3.1-0.2C225.5,297.3,231.5,282.9,231.2,268.8z"/>
		</defs>
		<use xlink:href="#SVGID_11_"  overflow="visible" fill="#7C655B"/>
		<clipPath id="SVGID_12_">
			<use xlink:href="#SVGID_11_"  overflow="visible"/>
		</clipPath>
		<g clip-path="url(#SVGID_12_)">
			<g>
				<path fill="#8E7A73" d="M223.2,240.1c-9.5,2.2-20.7,0.5-30.3,0c-9.8-0.5-19.5-1.7-29.2-2.9c-1-0.1-0.9,1.4,0,1.5
					c10.4,1.3,20.7,2.5,31.1,3c9.2,0.5,19.7,1.9,28.8-0.2C224.5,241.4,224.1,239.9,223.2,240.1L223.2,240.1z"/>
			</g>
		</g>
		<g clip-path="url(#SVGID_12_)">
			<g>
				<path fill="#8E7A73" d="M164.3,248.6c20.2,2,40.6-0.6,60.8-1.1c1,0,1-1.5,0-1.5c-20.2,0.5-40.6,3.1-60.8,1.1
					C163.4,247,163.4,248.5,164.3,248.6L164.3,248.6z"/>
			</g>
		</g>
		<g clip-path="url(#SVGID_12_)">
			<g>
				<path fill="#8E7A73" d="M230.2,252.6c-13.8,2.1-27.9,1.4-41.8,1.3c-14.1-0.1-28.2-0.5-42.2-1.3c-1-0.1-1,1.4,0,1.5
					c14.1,0.7,28.2,1.2,42.2,1.3c14,0.1,28.3,0.8,42.2-1.3C231.5,253.9,231.1,252.5,230.2,252.6L230.2,252.6z"/>
			</g>
		</g>
		<g clip-path="url(#SVGID_12_)">
			<g>
				<path fill="#8E7A73" d="M147.1,256.7c6.7,1.3,13.8,1.5,20.6,2.2c7.8,0.8,15.6,1.6,23.4,2.3c14.8,1.3,29.9,3.3,44.8,3.6
					c1,0,1-1.5,0-1.5c-14.3-0.3-28.7-2.2-42.9-3.4c-7.1-0.6-14.3-1.3-21.4-2.1c-8-0.8-16.2-1.1-24.1-2.6
					C146.5,255,146.1,256.5,147.1,256.7L147.1,256.7z"/>
			</g>
		</g>
		<g clip-path="url(#SVGID_12_)">
			<g>
				<path fill="#8E7A73" d="M235,267.7c-12.8,0-25.6,0.7-38.5,1c-14.4,0.3-28.9-0.1-43.3,0.3c-1,0-1,1.5,0,1.5
					c13.8-0.4,27.6-0.1,41.4-0.3c13.5-0.2,26.9-1,40.4-1C235.9,269.2,235.9,267.7,235,267.7L235,267.7z"/>
			</g>
		</g>
		<g clip-path="url(#SVGID_12_)">
			<g>
				<path fill="#8E7A73" d="M158.4,273.3c26.4,2.7,53.1,4.2,79.6,5.2c1,0,1-1.5,0-1.5c-26.5-1-53.2-2.6-79.6-5.2
					C157.5,271.7,157.5,273.2,158.4,273.3L158.4,273.3z"/>
			</g>
		</g>
		<g clip-path="url(#SVGID_12_)">
			<g>
				<path fill="#8E7A73" d="M231.5,279.9c-22.4,2.1-45,0.7-67.4,0.7c-1,0-1,1.5,0,1.5c22.4,0,45,1.4,67.4-0.7
					C232.4,281.3,232.4,279.8,231.5,279.9L231.5,279.9z"/>
			</g>
		</g>
		<g clip-path="url(#SVGID_12_)">
			<g>
				<path fill="#8E7A73" d="M229.3,287.6c-23.7,0.1-47,2.5-70.6,0.7c-1-0.1-1,1.4,0,1.5c23.7,1.8,47-0.6,70.6-0.7
					C230.3,289.1,230.3,287.6,229.3,287.6L229.3,287.6z"/>
			</g>
		</g>
		<g clip-path="url(#SVGID_12_)">
			<g>
				<path fill="#8E7A73" d="M225.8,293.1c-3.3,1.6-8.9,0.5-12.4,0.5c-5.1-0.1-10.1-0.2-15.2-0.2c-10.3-0.1-20.5,0-30.8,0
					c-1,0-1,1.5,0,1.5c10.9,0,21.8-0.1,32.7,0c5.7,0,11.3,0.2,17,0.2c2.9,0,6.8,0.6,9.5-0.7C227.5,294,226.7,292.7,225.8,293.1
					L225.8,293.1z"/>
			</g>
		</g>
	</g>
	<path d="M438.7,257c0,0-8.4-6.1-6.3-12.4s7.5-2.2,11.3-6.1c3.9-3.9-1.2-7.2-1.2-7.2l-6,1.4c0,0,6,2.8,1.8,3.9
		c-4.2,1.1-8.4,1.4-10.9,4.9c-2.5,3.5,0.4,10.9,2.8,15.8c2.5,4.9,0,10.9,3.5,15.8c3.5,4.9,6.3,4.6,5.6,11.6
		c-0.7,7-4.9,12.3-4.9,12.3H475c0,0-1.8-24.3-18-29.6c0,0-1.4-2.8,1.1-4.9c2.5-2.1,4.6-3.9,4.6-3.9s-3.5-1.8-8.8-1.1
		c-5.3,0.7-5.3,0.7-5.3,0.7S445.7,254.9,438.7,257z"/>
	<path fill="#7C655B" d="M449.8,259.9c0,0,5.8-1.9,10.1-0.8c0,0-2.7,0.8-4.5,3.7c-1.8,2.9,0.2,4.8-1.8,5.9s-3.4,2.1-3.4,3.5
		s-3,2.4-3,2.4s-1.4-4.2-0.5-7.4S449.9,263.4,449.8,259.9z"/>
	<path fill="#7C655B" d="M457.8,270.4c0,0-2.2,11.5-6.3,16l13.2,6.6c0,0,3.7-5.1,5.1-9.1C469.8,283.9,466.1,272.4,457.8,270.4z"/>
	<path fill="#7C655B" d="M441,259.7c0,0,4-0.5,4.3,3.3C445.3,262.9,441.7,262.9,441,259.7z"/>
	<path fill="#E7D1BC" d="M437,268c0,0-11.7,1.7-15.8-7.6c0,0,8,6.8,15.5,4.4C436.7,264.9,438,265.5,437,268z"/>
	<path fill="#F5BB3B" d="M382,270.5c0,0-7.9-4-8.7-9.1l-1.1,0.3c0,0-1,6.7,2.7,11.8"/>
	<path fill="#F5BB3B" d="M376.2,269.2c0,0-8.7,1.6-12.4-2l-0.7,1c0,0,3.2,6,9.3,7.8"/>
	<g>
		<circle fill="#D75216" cx="371" cy="279.3" r="8.7"/>
		<circle fill="#D74D46" cx="385.2" cy="274.2" r="8.7"/>
		<circle fill="#E9663A" cx="396.7" cy="280.6" r="8.7"/>
		<circle fill="#352D2B" cx="364.4" cy="277.4" r="0.8"/>
		<circle fill="#352D2B" cx="386.5" cy="268.6" r="0.8"/>
		<circle fill="#352D2B" cx="401.7" cy="277.1" r="0.8"/>
	</g>
	<path fill="#E7D1BC" d="M419,280.7h-70C349,280.7,383.7,317.3,419,280.7z"/>
</g>
<g id="Layer_2">
</g>
</svg>
