<?xml version="1.0" encoding="utf-8"?>
<!-- Generator: Adobe Illustrator 18.0.0, SVG Export Plug-In . SVG Version: 6.00 Build 0)  -->
<!DOCTYPE svg PUBLIC "-//W3C//DTD SVG 1.1//EN" "http://www.w3.org/Graphics/SVG/1.1/DTD/svg11.dtd">
<svg version="1.1" id="Layer_1" xmlns="http://www.w3.org/2000/svg" xmlns:xlink="http://www.w3.org/1999/xlink" x="0px" y="0px"
	 viewBox="0 0 768 417" enable-background="new 0 0 768 417" xml:space="preserve">
<linearGradient id="SVGID_1_" gradientUnits="userSpaceOnUse" x1="384" y1="150.2653" x2="384" y2="12.2327">
	<stop  offset="0" style="stop-color:#FFFFFF"/>
	<stop  offset="1" style="stop-color:#DBF3F8"/>
</linearGradient>
<path fill="url(#SVGID_1_)" d="M414.4,82c-1-7.1,15.2-9.1,14.2-24.4s-11.2-18.3-20.3-21.3c-8.5-2.8-6.5-15.2-22.3-17l0-0.2
	c-0.7,0-1.4,0-2.1,0.1c-0.7,0-1.3-0.1-2.1-0.1l0,0.2c-15.8,1.8-13.8,14.2-22.3,17c-9.1,3-19.3,6.1-20.3,21.3s15.2,17.3,14.2,24.4
	c-1,7.1-11.2,16.2-11.2,16.2V216h18.2h46.7h18.2V98.3C425.6,98.3,415.4,89.1,414.4,82z"/>
<path fill="#397C58" d="M359.4,254.9c-0.6-45.7-4.9-91-5.3-136.7c-0.3-32.5,4.7-63.8,5.3-96.1c0,0-0.8-0.7-2-0.7
	c-1.1,0-2,0.7-3.9,0.5c-2-0.2-2.7-1.4-5.2-1.4c-2.5,0-2.7,1.7-4.5,1.7c-1.8,0-2.8-1-4.8-1.4c-2-0.5-2.5,1-5.3,1
	c-2.8,0-3.1-0.7-4.2-0.7c-1.1,0-2.1,1.2-2.1,1.2c0,77.7,0,155.5,0,233.2"/>
<linearGradient id="SVGID_2_" gradientUnits="userSpaceOnUse" x1="333.9615" y1="152.6667" x2="333.9615" y2="13.9599">
	<stop  offset="0" style="stop-color:#006837"/>
	<stop  offset="1" style="stop-color:#397C58"/>
</linearGradient>
<path fill="url(#SVGID_2_)" d="M335.7,242.1c-1.4,0-2.1,0-3.5,0c-0.2-71.7-0.1-143.3,0-214.9c1.4,0,2.1,0,3.5,0
	C335.3,98.9,335.3,170.4,335.7,242.1z"/>
<linearGradient id="SVGID_3_" gradientUnits="userSpaceOnUse" x1="341.9954" y1="152.6667" x2="341.9954" y2="13.9599">
	<stop  offset="0" style="stop-color:#006837"/>
	<stop  offset="1" style="stop-color:#397C58"/>
</linearGradient>
<path fill="url(#SVGID_3_)" d="M344.1,242.1c-1.4,0-2.1,0-3.5,0c-0.8-72-0.8-143,0-214.9c1.4,0,2.1,0,3.5,0
	c-0.3,29.3-1.1,58.4-1.1,87.7C343,157.3,343.5,199.7,344.1,242.1z"/>
<linearGradient id="SVGID_4_" gradientUnits="userSpaceOnUse" x1="350.8803" y1="152.6667" x2="350.8803" y2="13.9599">
	<stop  offset="0" style="stop-color:#006837"/>
	<stop  offset="1" style="stop-color:#397C58"/>
</linearGradient>
<path fill="url(#SVGID_4_)" d="M354.3,242.1c-1.4,0-2.1,0-3.4,0c-0.9-42.4-3.3-84.8-3.4-127.3c-0.1-29.4,2.9-58.4,3.5-87.7
	c1.4,0,2.1,0,3.5,0c-0.8,29.4-4.6,58.2-4.5,87.7C350,157.3,353.1,199.7,354.3,242.1z"/>
<path fill="#006837" d="M354.1,117.1c0,0,2.9,2.7,1.4,7.3s-24.4,11.2-28.2,11.8c-3.8,0.6-4.5-4.1,0-5c4.5-1,15.4-4.2,20.2-6.7
	C352.2,121.9,353.8,121.3,354.1,117.1z"/>
<g id="floor">
	<defs>
		<rect id="SVGID_5_" y="285.9" width="768" height="131.1"/>
	</defs>
	<clipPath id="SVGID_6_">
		<use xlink:href="#SVGID_5_"  overflow="visible"/>
	</clipPath>
	
		<radialGradient id="SVGID_7_" cx="384" cy="285.8932" r="271.9031" gradientTransform="matrix(1 0 0 0.3 0 200.1252)" gradientUnits="userSpaceOnUse">
		<stop  offset="0" style="stop-color:#736357"/>
		<stop  offset="0.8587" style="stop-color:#736357;stop-opacity:0.1413"/>
		<stop  offset="1" style="stop-color:#736357;stop-opacity:0"/>
	</radialGradient>
	<ellipse clip-path="url(#SVGID_6_)" fill="url(#SVGID_7_)" cx="384" cy="285.9" rx="366.5" ry="116.4"/>
</g>
<path fill="#998675" d="M544.2,295.8h-29.1l-6.7-8.5h-1.3l6.7,8.5h-26.6l-5.1-8.5H481l5.1,8.5h-25l-3.7-8.5h-1.1l3.7,8.5h-25.8
	l-2.2-8.5h-1l2.2,8.5h-23.6l-0.9-8.5h-1l0.9,8.5h-24.1v-8.5h-1v8.5h-24.1l0.9-8.5h-1l-0.9,8.5h-23.6l2.2-8.5h-1l-2.2,8.5H308
	l3.7-8.5h-1.1l-3.7,8.5h-25l5.1-8.5h-1.2l-5.1,8.5h-26.6l6.7-8.5h-1.3l-6.7,8.5h-29.1l8.4-8.5h-1.4l-8.4,8.5h-34
	c0.3,0.3,0.7,0.7,1,1h32l-13.2,13.4c0.3,0.2,0.6,0.3,0.9,0.5l13.7-13.9h29.3l-14.8,18.7h-18.7c0.7,0.3,1.5,0.7,2.2,1h15.7l-3.8,4.8
	c0.3,0.1,0.7,0.2,1,0.4l4.1-5.1h30.5l-7.9,13.2c0.3,0.1,0.7,0.2,1,0.3l8.1-13.5H298l-8.3,19.4c0.3,0.1,0.7,0.1,1,0.2l8.4-19.5h29.3
	l-5.5,21h-23c2.3,0.3,4.6,0.7,7,1h15.8l-0.5,1.8c0.3,0,0.7,0.1,1,0.1l0.5-1.9h30.3l-0.4,6c0.3,0,0.7,0,1,0l0.5-6.1h28.7v9.2
	c0.3,0,0.7,0,1,0v-9.2h28.7l0.4,5.8c0.3,0,0.7,0,1-0.1l-0.4-5.8h30.3l0.4,1.4c0.3,0,0.7-0.1,1-0.1l-0.3-1.3h10.5
	c2.4-0.3,4.7-0.7,7-1h-17.7l-5.5-21h29.3l8,18.7c0.3-0.1,0.7-0.1,1-0.2l-7.9-18.5h28.5l7.3,12.3c0.3-0.1,0.7-0.2,1-0.3l-7.2-12h30.5
	l2.8,3.6c0.3-0.1,0.7-0.3,1-0.4l-2.5-3.2h10.3c0.8-0.3,1.5-0.7,2.2-1h-13.4l-14.8-18.7h29.3l11.8,12c0.3-0.2,0.6-0.3,0.9-0.5
	l-11.3-11.5h26.7c0.3-0.3,0.7-0.7,1-1h-28.6l-8.4-8.5h-1.4L544.2,295.8z M334.6,296.8h23.7l-2,18.7h-26.7L334.6,296.8z M268.9,315.5
	h-30.3l14.8-18.7h26.8L268.9,315.5z M298.4,315.5h-28.3l11.2-18.7h25.2L298.4,315.5z M299.5,315.5l8-18.7h26l-4.9,18.7H299.5z
	 M354,337.5h-30.1l5.5-21h26.8L354,337.5z M383.5,337.5H355l2.2-21h26.3V337.5z M383.5,315.5h-26.2l2-18.7h24.2V315.5z M433.4,296.8
	l4.9,18.7h-26.7l-2-18.7H433.4z M384.5,296.8h24.2l2,18.7h-26.2V296.8z M384.5,337.5v-21h26.3l2.2,21H384.5z M444.2,337.5H414
	l-2.2-21h26.8L444.2,337.5z M439.4,315.5l-4.9-18.7h26l8,18.7H439.4z M469.6,315.5l-8-18.7h25.2l11.2,18.7H469.6z M529.4,315.5
	h-30.3l-11.2-18.7h26.8L529.4,315.5z"/>
<g>
	<path d="M338.1,249.6h-67.9c-3.3,0-6-2.7-6-6v-51c0-3.3,2.7-6,6-6h67.9c3.3,0,6,2.7,6,6v51C344.1,246.9,341.4,249.6,338.1,249.6z"
		/>
	<path d="M497.8,249.6h-67.9c-3.3,0-6-2.7-6-6v-51c0-3.3,2.7-6,6-6h67.9c3.3,0,6,2.7,6,6v51C503.8,246.9,501.1,249.6,497.8,249.6z"
		/>
	<path d="M417.9,249.6h-67.9c-3.3,0-6-2.7-6-6v-51c0-3.3,2.7-6,6-6h67.9c3.3,0,6,2.7,6,6v51C423.9,246.9,421.2,249.6,417.9,249.6z"
		/>
</g>
<g id="plates">
	<g>
		<circle fill="#FFFFFF" stroke="#7D4A67" stroke-width="1.1243" stroke-miterlimit="10" cx="186.5" cy="65.4" r="18.3"/>
		<circle fill="#FFFFFF" stroke="#7D4A67" stroke-width="0.6321" stroke-miterlimit="10" cx="186.5" cy="65.4" r="17.2"/>
		<polygon fill="#7D4A67" points="186.5,57.7 189.9,50.5 189.8,58.5 196,53.4 192.4,60.6 200.2,58.7 193.9,63.7 201.7,65.4 
			193.9,67 200.2,72 192.4,70.1 196,77.3 189.8,72.2 189.9,80.2 186.5,73 183.1,80.2 183.2,72.2 177,77.3 180.5,70.1 172.7,72 
			179.1,67 171.2,65.4 179.1,63.7 172.7,58.7 180.5,60.6 177,53.4 183.2,58.5 183.1,50.5 		"/>
		<polygon fill="#FFFFFF" stroke="#7D4A67" stroke-width="0.7496" stroke-miterlimit="10" points="186.5,57 193.1,50.9 192.4,59.8 
			201.3,61.2 193.9,66.3 198.4,74.1 189.8,71.5 186.5,79.8 183.2,71.5 174.6,74.1 179.1,66.3 171.6,61.2 180.5,59.8 179.9,50.9 		
			"/>
	</g>
	<g>
		<circle fill="#FFFFFF" stroke="#C06C5F" stroke-width="1.1243" stroke-miterlimit="10" cx="186.6" cy="115.7" r="18.3"/>
		<circle fill="#FFFFFF" stroke="#7F3732" stroke-width="0.6321" stroke-miterlimit="10" cx="186.6" cy="115.7" r="17.2"/>
		<g>
			<path fill="#D7A574" d="M186.6,122.9c-0.1,0-0.2,0-0.3,0c-0.3,0-0.5-0.3-0.5-0.6c0-0.3,0.3-0.5,0.5-0.5c0,0,0,0,0,0
				c0.3,0,0.7,0,1,0c0.3,0,0.6,0.2,0.6,0.5c0,0.3-0.2,0.6-0.5,0.6C187.2,122.9,186.9,122.9,186.6,122.9z M184.2,122.5
				c-0.1,0-0.1,0-0.2,0c-0.4-0.1-0.7-0.3-1.1-0.5c-0.3-0.2-0.4-0.5-0.2-0.8c0.2-0.3,0.5-0.4,0.8-0.2c0.3,0.2,0.6,0.3,0.9,0.4
				c0.3,0.1,0.4,0.4,0.3,0.7C184.7,122.4,184.4,122.5,184.2,122.5z M189.5,122.3c-0.2,0-0.4-0.1-0.5-0.3c-0.1-0.3,0-0.6,0.3-0.7
				c0.3-0.1,0.6-0.3,0.9-0.5c0.2-0.2,0.6-0.1,0.8,0.1c0.2,0.2,0.1,0.6-0.1,0.8c-0.3,0.2-0.7,0.4-1,0.6
				C189.6,122.3,189.5,122.3,189.5,122.3z M181.6,120.7c-0.2,0-0.3-0.1-0.4-0.2c-0.3-0.3-0.5-0.6-0.7-0.9c-0.2-0.3-0.1-0.6,0.2-0.8
				c0.3-0.2,0.6-0.1,0.8,0.2c0.2,0.3,0.4,0.5,0.6,0.8c0.2,0.2,0.2,0.6,0,0.8C181.8,120.6,181.7,120.7,181.6,120.7z M191.9,120.3
				c-0.1,0-0.2,0-0.3-0.1c-0.2-0.2-0.3-0.5-0.1-0.8c0.2-0.3,0.4-0.5,0.5-0.8c0.1-0.3,0.5-0.4,0.7-0.2c0.3,0.1,0.4,0.5,0.2,0.7
				c-0.2,0.3-0.4,0.7-0.6,1C192.3,120.2,192.1,120.3,191.9,120.3z M180.1,117.9c-0.2,0-0.5-0.2-0.5-0.4c-0.1-0.4-0.2-0.8-0.2-1.1
				c0-0.3,0.2-0.6,0.5-0.6c0.3,0,0.6,0.2,0.6,0.5c0,0.3,0.1,0.7,0.2,1c0.1,0.3-0.1,0.6-0.4,0.7C180.2,117.9,180.1,117.9,180.1,117.9
				z M193.2,117.3C193.2,117.3,193.1,117.3,193.2,117.3c-0.4-0.1-0.6-0.3-0.5-0.6c0.1-0.3,0.1-0.7,0.1-1c0-0.3,0.2-0.6,0.5-0.6
				c0.3,0,0.5,0.2,0.5,0.5h-0.5l0.5,0c0,0.4,0,0.8-0.1,1.2C193.7,117.1,193.5,117.3,193.2,117.3z M180.1,114.7c0,0-0.1,0-0.1,0
				c-0.3-0.1-0.5-0.4-0.4-0.7c0.1-0.4,0.2-0.7,0.4-1.1c0.1-0.3,0.4-0.4,0.7-0.3c0.3,0.1,0.4,0.4,0.3,0.7c-0.1,0.3-0.2,0.6-0.3,0.9
				C180.6,114.5,180.3,114.7,180.1,114.7z M192.9,114.1c-0.2,0-0.4-0.1-0.5-0.4c-0.1-0.3-0.2-0.6-0.4-0.9c-0.1-0.3,0-0.6,0.2-0.7
				c0.3-0.1,0.6,0,0.7,0.2c0.2,0.3,0.3,0.7,0.5,1.1c0.1,0.3-0.1,0.6-0.3,0.7C193,114.1,193,114.1,192.9,114.1z M181.6,111.8
				c-0.1,0-0.3,0-0.4-0.1c-0.2-0.2-0.2-0.5,0-0.8c0.3-0.3,0.5-0.6,0.8-0.8c0.2-0.2,0.6-0.2,0.8,0.1c0.2,0.2,0.2,0.6-0.1,0.8
				c-0.3,0.2-0.5,0.4-0.7,0.7C181.9,111.8,181.7,111.8,181.6,111.8z M191.2,111.4c-0.1,0-0.3-0.1-0.4-0.2c-0.2-0.2-0.5-0.4-0.8-0.6
				c-0.3-0.2-0.3-0.5-0.1-0.8c0.2-0.3,0.5-0.3,0.8-0.1c0.3,0.2,0.6,0.5,0.9,0.7c0.2,0.2,0.2,0.6,0,0.8
				C191.5,111.4,191.3,111.4,191.2,111.4z M184.2,110c-0.2,0-0.4-0.1-0.5-0.4c-0.1-0.3,0-0.6,0.3-0.7c0.4-0.1,0.7-0.2,1.1-0.3
				c0.3-0.1,0.6,0.1,0.6,0.4c0.1,0.3-0.1,0.6-0.4,0.6c-0.3,0.1-0.6,0.2-0.9,0.3C184.3,110,184.3,110,184.2,110z M188.4,109.8
				c-0.1,0-0.1,0-0.2,0c-0.3-0.1-0.6-0.2-1-0.2c-0.3,0-0.5-0.3-0.5-0.6c0-0.3,0.3-0.5,0.6-0.5c0.4,0,0.8,0.1,1.1,0.2
				c0.3,0.1,0.5,0.4,0.4,0.7C188.9,109.7,188.7,109.8,188.4,109.8z"/>
		</g>
		<g>
			<circle fill="#D7A574" cx="186.6" cy="115.7" r="2.4"/>
		</g>
		<g>
			<path fill="#D7A574" d="M186.6,120.2c-0.1,0-0.1,0-0.2,0c-0.2,0-0.3-0.2-0.3-0.4c0-0.2,0.2-0.3,0.3-0.3c0,0,0,0,0,0
				c0.1,0,0.1,0,0.2,0c0.2,0,0.3,0,0.5,0c0.2,0,0.4,0.1,0.4,0.3c0,0.2-0.1,0.4-0.3,0.4C187,120.2,186.8,120.2,186.6,120.2z
				 M185.1,120c0,0-0.1,0-0.1,0c-0.2-0.1-0.5-0.2-0.7-0.3c-0.2-0.1-0.2-0.3-0.1-0.5c0.1-0.2,0.3-0.2,0.5-0.1
				c0.2,0.1,0.4,0.2,0.6,0.3c0.2,0.1,0.3,0.3,0.2,0.4C185.4,119.9,185.2,120,185.1,120z M188.4,119.8c-0.1,0-0.3-0.1-0.3-0.2
				c-0.1-0.2,0-0.4,0.2-0.5c0.2-0.1,0.4-0.2,0.5-0.3c0.2-0.1,0.4-0.1,0.5,0.1c0.1,0.2,0.1,0.4-0.1,0.5c-0.2,0.1-0.4,0.3-0.6,0.4
				C188.5,119.8,188.4,119.8,188.4,119.8z M183.5,118.8c-0.1,0-0.2,0-0.3-0.1c-0.2-0.2-0.3-0.4-0.4-0.6c-0.1-0.2-0.1-0.4,0.1-0.5
				c0.2-0.1,0.4-0.1,0.5,0.1c0.1,0.2,0.2,0.3,0.4,0.5c0.1,0.1,0.1,0.4,0,0.5C183.6,118.8,183.5,118.8,183.5,118.8z M189.9,118.6
				c-0.1,0-0.1,0-0.2-0.1c-0.2-0.1-0.2-0.3-0.1-0.5c0.1-0.2,0.2-0.3,0.3-0.5c0.1-0.2,0.3-0.2,0.5-0.1c0.2,0.1,0.2,0.3,0.1,0.5
				c-0.1,0.2-0.2,0.4-0.4,0.6C190.1,118.5,190,118.6,189.9,118.6z M182.5,117.1c-0.2,0-0.3-0.1-0.3-0.3c-0.1-0.2-0.1-0.5-0.1-0.7
				c0-0.2,0.1-0.4,0.3-0.4c0.2,0,0.4,0.1,0.4,0.3c0,0.2,0.1,0.4,0.1,0.6C182.9,116.8,182.8,117,182.5,117.1
				C182.6,117.1,182.5,117.1,182.5,117.1z M190.7,116.7C190.7,116.7,190.7,116.7,190.7,116.7c-0.2,0-0.4-0.2-0.3-0.4
				c0-0.2,0-0.4,0-0.6c0-0.2,0.2-0.4,0.3-0.4c0.2,0,0.3,0.1,0.3,0.3h-0.3l0.3,0c0,0.3,0,0.5-0.1,0.7
				C191,116.6,190.9,116.7,190.7,116.7z M182.5,115C182.5,115,182.5,115,182.5,115c-0.3-0.1-0.4-0.2-0.3-0.4
				c0.1-0.2,0.1-0.5,0.2-0.7c0.1-0.2,0.3-0.3,0.5-0.2c0.2,0.1,0.3,0.3,0.2,0.5c-0.1,0.2-0.1,0.4-0.2,0.6
				C182.8,114.9,182.7,115,182.5,115z M190.6,114.7c-0.1,0-0.3-0.1-0.3-0.2c-0.1-0.2-0.1-0.4-0.2-0.6c-0.1-0.2,0-0.4,0.1-0.5
				c0.2-0.1,0.4,0,0.5,0.1c0.1,0.2,0.2,0.4,0.3,0.7c0.1,0.2,0,0.4-0.2,0.4C190.6,114.7,190.6,114.7,190.6,114.7z M183.4,113.3
				c-0.1,0-0.2,0-0.2-0.1c-0.1-0.1-0.2-0.3,0-0.5c0.2-0.2,0.3-0.4,0.5-0.5c0.1-0.1,0.4-0.1,0.5,0c0.1,0.1,0.1,0.4,0,0.5
				c-0.2,0.1-0.3,0.3-0.4,0.4C183.6,113.2,183.5,113.3,183.4,113.3z M189.5,113c-0.1,0-0.2,0-0.2-0.1c-0.1-0.1-0.3-0.3-0.5-0.4
				c-0.2-0.1-0.2-0.3-0.1-0.5c0.1-0.2,0.3-0.2,0.5-0.1c0.2,0.1,0.4,0.3,0.6,0.5c0.1,0.1,0.1,0.3,0,0.5
				C189.7,113,189.6,113,189.5,113z M185.1,112.1c-0.1,0-0.3-0.1-0.3-0.2c-0.1-0.2,0-0.4,0.2-0.4c0.2-0.1,0.5-0.2,0.7-0.2
				c0.2,0,0.4,0.1,0.4,0.3c0,0.2-0.1,0.4-0.3,0.4c-0.2,0-0.4,0.1-0.6,0.2C185.2,112.1,185.1,112.1,185.1,112.1z M187.7,112
				C187.7,112,187.7,112,187.7,112c-0.3-0.1-0.5-0.1-0.7-0.1c-0.2,0-0.3-0.2-0.3-0.4c0-0.2,0.2-0.3,0.4-0.3c0.2,0,0.5,0.1,0.7,0.1
				c0.2,0.1,0.3,0.2,0.2,0.4C188,111.9,187.9,112,187.7,112z"/>
		</g>
		<g>
			<path fill="#8A3E35" d="M186.6,106.9c0,0-0.1,0-0.1,0c-0.1,0-0.3-0.1-0.2-0.3c0-0.1,0.1-0.3,0.3-0.3c0,0,0,0,0,0
				c0.2,0,0.3,0,0.5,0c0.1,0,0.3,0.1,0.3,0.2c0,0.1-0.1,0.3-0.2,0.3C186.9,106.9,186.7,106.9,186.6,106.9z M185.5,106.7
				C185.4,106.7,185.4,106.7,185.5,106.7c-0.3-0.1-0.4-0.2-0.6-0.3c-0.1-0.1-0.2-0.2-0.1-0.4c0.1-0.1,0.2-0.2,0.4-0.1
				c0.1,0.1,0.3,0.1,0.4,0.2c0.1,0.1,0.2,0.2,0.2,0.3C185.7,106.7,185.6,106.7,185.5,106.7z M187.9,106.6c-0.1,0-0.2-0.1-0.2-0.1
				c-0.1-0.1,0-0.3,0.1-0.3c0.1-0.1,0.3-0.1,0.4-0.2c0.1-0.1,0.3-0.1,0.4,0.1c0.1,0.1,0.1,0.3-0.1,0.4c-0.2,0.1-0.3,0.2-0.5,0.3
				C188,106.6,188,106.6,187.9,106.6z M184.2,105.9c-0.1,0-0.1,0-0.2-0.1c-0.1-0.1-0.2-0.3-0.3-0.4c-0.1-0.1,0-0.3,0.1-0.4
				c0.1-0.1,0.3,0,0.4,0.1c0.1,0.1,0.2,0.3,0.3,0.4c0.1,0.1,0.1,0.3,0,0.4C184.3,105.8,184.3,105.9,184.2,105.9z M189.1,105.7
				c-0.1,0-0.1,0-0.2-0.1c-0.1-0.1-0.1-0.2-0.1-0.4c0.1-0.1,0.2-0.3,0.3-0.4c0.1-0.1,0.2-0.2,0.4-0.1c0.1,0.1,0.2,0.2,0.1,0.4
				c-0.1,0.2-0.2,0.3-0.3,0.5C189.3,105.6,189.2,105.7,189.1,105.7z M183.5,104.5c-0.1,0-0.2-0.1-0.3-0.2c0-0.2-0.1-0.4-0.1-0.5
				c0-0.1,0.1-0.3,0.2-0.3c0.1,0,0.3,0.1,0.3,0.2c0,0.2,0,0.3,0.1,0.5C183.8,104.3,183.7,104.5,183.5,104.5
				C183.6,104.5,183.5,104.5,183.5,104.5z M189.7,104.3C189.7,104.3,189.7,104.3,189.7,104.3c-0.2,0-0.3-0.2-0.3-0.3
				c0-0.2,0-0.3,0-0.5c0-0.1,0.1-0.3,0.3-0.3c0.1,0,0.3,0.1,0.3,0.3h-0.3l0.3,0c0,0.2,0,0.4,0,0.6
				C190,104.2,189.8,104.3,189.7,104.3z M183.5,103C183.5,103,183.5,103,183.5,103c-0.2,0-0.3-0.2-0.3-0.3c0-0.2,0.1-0.4,0.2-0.5
				c0.1-0.1,0.2-0.2,0.3-0.1c0.1,0.1,0.2,0.2,0.1,0.3c-0.1,0.1-0.1,0.3-0.1,0.4C183.7,102.9,183.6,103,183.5,103z M189.6,102.7
				c-0.1,0-0.2-0.1-0.2-0.2c-0.1-0.1-0.1-0.3-0.2-0.4c-0.1-0.1,0-0.3,0.1-0.4c0.1-0.1,0.3,0,0.4,0.1c0.1,0.2,0.2,0.3,0.2,0.5
				C189.9,102.5,189.8,102.7,189.6,102.7C189.6,102.7,189.6,102.7,189.6,102.7z M184.2,101.7c-0.1,0-0.1,0-0.2-0.1
				c-0.1-0.1-0.1-0.3,0-0.4c0.1-0.1,0.3-0.3,0.4-0.4c0.1-0.1,0.3-0.1,0.4,0c0.1,0.1,0.1,0.3,0,0.4c-0.1,0.1-0.2,0.2-0.3,0.3
				C184.4,101.6,184.3,101.7,184.2,101.7z M188.8,101.5c-0.1,0-0.1,0-0.2-0.1c-0.1-0.1-0.2-0.2-0.4-0.3c-0.1-0.1-0.1-0.2-0.1-0.4
				c0.1-0.1,0.2-0.1,0.4-0.1c0.2,0.1,0.3,0.2,0.4,0.3c0.1,0.1,0.1,0.3,0,0.4C188.9,101.4,188.8,101.5,188.8,101.5z M185.5,100.8
				c-0.1,0-0.2-0.1-0.2-0.2c-0.1-0.1,0-0.3,0.2-0.3c0.2-0.1,0.3-0.1,0.5-0.2c0.1,0,0.3,0.1,0.3,0.2c0,0.1-0.1,0.3-0.2,0.3
				C185.8,100.7,185.7,100.7,185.5,100.8C185.5,100.8,185.5,100.8,185.5,100.8z M187.5,100.7C187.4,100.7,187.4,100.7,187.5,100.7
				c-0.2-0.1-0.4-0.1-0.5-0.1c-0.1,0-0.2-0.1-0.2-0.3c0-0.1,0.1-0.2,0.3-0.2c0.2,0,0.4,0.1,0.5,0.1c0.1,0,0.2,0.2,0.2,0.3
				C187.7,100.6,187.6,100.7,187.5,100.7z"/>
		</g>
		<g>
			<circle fill="#8A3E35" cx="186.6" cy="103.5" r="1.1"/>
		</g>
		<g>
			<path fill="#8A3E35" d="M186.6,105.6C186.6,105.6,186.5,105.6,186.6,105.6c-0.2,0-0.2-0.1-0.2-0.2c0-0.1,0.1-0.2,0.2-0.2
				c0,0,0,0,0,0c0,0,0.1,0,0.1,0c0.1,0,0.1,0,0.2,0c0.1,0,0.2,0.1,0.2,0.1c0,0.1-0.1,0.2-0.1,0.2
				C186.8,105.6,186.7,105.6,186.6,105.6z M185.9,105.5C185.9,105.5,185.9,105.5,185.9,105.5c-0.2-0.1-0.3-0.1-0.4-0.2
				c-0.1,0-0.1-0.1-0.1-0.2c0-0.1,0.1-0.1,0.2-0.1c0.1,0,0.2,0.1,0.3,0.1c0.1,0,0.1,0.1,0.1,0.2C186,105.5,186,105.5,185.9,105.5z
				 M187.4,105.5c-0.1,0-0.1,0-0.1-0.1c0-0.1,0-0.2,0.1-0.2c0.1,0,0.2-0.1,0.3-0.1c0.1-0.1,0.2,0,0.2,0c0.1,0.1,0,0.2,0,0.2
				C187.7,105.3,187.6,105.4,187.4,105.5C187.5,105.4,187.5,105.5,187.4,105.5z M185.1,105c0,0-0.1,0-0.1-0.1
				c-0.1-0.1-0.1-0.2-0.2-0.3c0-0.1,0-0.2,0.1-0.2c0.1,0,0.2,0,0.2,0.1c0.1,0.1,0.1,0.2,0.2,0.2c0.1,0.1,0.1,0.2,0,0.2
				C185.2,105,185.1,105,185.1,105z M188.2,104.9C188.1,104.9,188.1,104.8,188.2,104.9c-0.2-0.1-0.2-0.2-0.1-0.3
				c0.1-0.1,0.1-0.2,0.2-0.2c0-0.1,0.1-0.1,0.2-0.1c0.1,0,0.1,0.1,0.1,0.2c-0.1,0.1-0.1,0.2-0.2,0.3
				C188.3,104.8,188.2,104.9,188.2,104.9z M184.7,104.1c-0.1,0-0.1,0-0.2-0.1c0-0.1,0-0.2-0.1-0.3c0-0.1,0.1-0.2,0.1-0.2
				c0.1,0,0.2,0.1,0.2,0.1c0,0.1,0,0.2,0,0.3C184.8,104,184.8,104.1,184.7,104.1C184.7,104.1,184.7,104.1,184.7,104.1z M188.5,104
				C188.5,104,188.5,104,188.5,104c-0.1,0-0.2-0.1-0.2-0.2c0-0.1,0-0.2,0-0.3c0-0.1,0.1-0.2,0.2-0.2c0.1,0,0.2,0.1,0.2,0.2h-0.2
				l0.2,0c0,0.1,0,0.2,0,0.4C188.7,103.9,188.6,104,188.5,104z M184.7,103.2C184.7,103.2,184.6,103.2,184.7,103.2
				c-0.1,0-0.2-0.1-0.2-0.2c0-0.1,0.1-0.2,0.1-0.3c0-0.1,0.1-0.1,0.2-0.1c0.1,0,0.1,0.1,0.1,0.2c0,0.1-0.1,0.2-0.1,0.3
				C184.8,103.1,184.7,103.2,184.7,103.2z M188.5,103c-0.1,0-0.1,0-0.2-0.1c0-0.1-0.1-0.2-0.1-0.3c0-0.1,0-0.2,0.1-0.2
				c0.1,0,0.2,0,0.2,0.1c0.1,0.1,0.1,0.2,0.1,0.3C188.7,102.9,188.6,103,188.5,103C188.5,103,188.5,103,188.5,103z M185.1,102.4
				c0,0-0.1,0-0.1,0c-0.1-0.1-0.1-0.2,0-0.2c0.1-0.1,0.2-0.2,0.2-0.2c0.1-0.1,0.2,0,0.2,0c0.1,0.1,0,0.2,0,0.2
				c-0.1,0.1-0.1,0.1-0.2,0.2C185.2,102.3,185.1,102.4,185.1,102.4z M188,102.2c0,0-0.1,0-0.1,0c-0.1-0.1-0.1-0.1-0.2-0.2
				c-0.1-0.1-0.1-0.2,0-0.2c0.1-0.1,0.2-0.1,0.2,0c0.1,0.1,0.2,0.1,0.3,0.2c0.1,0.1,0.1,0.2,0,0.2C188,102.2,188,102.2,188,102.2z
				 M185.9,101.8c-0.1,0-0.1,0-0.2-0.1c0-0.1,0-0.2,0.1-0.2c0.1,0,0.2-0.1,0.3-0.1c0.1,0,0.2,0,0.2,0.1c0,0.1,0,0.2-0.1,0.2
				C186.1,101.7,186,101.8,185.9,101.8C185.9,101.8,185.9,101.8,185.9,101.8z M187.1,101.8C187.1,101.8,187.1,101.8,187.1,101.8
				c-0.1,0-0.2-0.1-0.3-0.1c-0.1,0-0.2-0.1-0.1-0.2c0-0.1,0.1-0.2,0.2-0.1c0.1,0,0.2,0,0.3,0.1c0.1,0,0.1,0.1,0.1,0.2
				C187.3,101.7,187.2,101.8,187.1,101.8z"/>
		</g>
		<g>
			<path fill="#C06C5F" d="M194.8,110c0,0-0.1,0-0.1,0c-0.1,0-0.3-0.1-0.2-0.3c0-0.1,0.1-0.3,0.3-0.3c0,0,0,0,0,0c0.2,0,0.3,0,0.5,0
				c0.1,0,0.3,0.1,0.3,0.2c0,0.1-0.1,0.3-0.2,0.3C195.1,110,194.9,110,194.8,110z M193.7,109.8C193.7,109.8,193.6,109.8,193.7,109.8
				c-0.3-0.1-0.4-0.2-0.6-0.3c-0.1-0.1-0.2-0.2-0.1-0.4c0.1-0.1,0.2-0.2,0.4-0.1c0.1,0.1,0.3,0.1,0.4,0.2c0.1,0.1,0.2,0.2,0.2,0.3
				C193.9,109.8,193.8,109.8,193.7,109.8z M196.2,109.7c-0.1,0-0.2-0.1-0.2-0.1c-0.1-0.1,0-0.3,0.1-0.3c0.1-0.1,0.3-0.1,0.4-0.2
				c0.1-0.1,0.3-0.1,0.4,0.1c0.1,0.1,0.1,0.3-0.1,0.4c-0.2,0.1-0.3,0.2-0.5,0.3C196.2,109.7,196.2,109.7,196.2,109.7z M192.4,109
				c-0.1,0-0.1,0-0.2-0.1c-0.1-0.1-0.2-0.3-0.3-0.4c-0.1-0.1,0-0.3,0.1-0.4c0.1-0.1,0.3,0,0.4,0.1c0.1,0.1,0.2,0.3,0.3,0.4
				c0.1,0.1,0.1,0.3,0,0.4C192.6,108.9,192.5,109,192.4,109z M197.3,108.8c-0.1,0-0.1,0-0.2-0.1c-0.1-0.1-0.1-0.2-0.1-0.4
				c0.1-0.1,0.2-0.3,0.3-0.4c0.1-0.1,0.2-0.2,0.4-0.1c0.1,0.1,0.2,0.2,0.1,0.4c-0.1,0.2-0.2,0.3-0.3,0.5
				C197.5,108.7,197.4,108.8,197.3,108.8z M191.7,107.6c-0.1,0-0.2-0.1-0.3-0.2c0-0.2-0.1-0.4-0.1-0.5c0-0.1,0.1-0.3,0.2-0.3
				c0.1,0,0.3,0.1,0.3,0.2c0,0.2,0,0.3,0.1,0.5C192,107.4,191.9,107.6,191.7,107.6C191.8,107.6,191.8,107.6,191.7,107.6z
				 M197.9,107.4C197.9,107.4,197.9,107.4,197.9,107.4c-0.2,0-0.3-0.2-0.3-0.3c0-0.2,0-0.3,0-0.5c0-0.1,0.1-0.3,0.3-0.3
				c0.1,0,0.3,0.1,0.3,0.3H198l0.3,0c0,0.2,0,0.4,0,0.6C198.2,107.3,198.1,107.4,197.9,107.4z M191.7,106.1
				C191.7,106.1,191.7,106.1,191.7,106.1c-0.2,0-0.3-0.2-0.3-0.3c0-0.2,0.1-0.4,0.2-0.5c0.1-0.1,0.2-0.2,0.3-0.1
				c0.1,0.1,0.2,0.2,0.1,0.3c-0.1,0.1-0.1,0.3-0.1,0.4C192,106,191.9,106.1,191.7,106.1z M197.8,105.8c-0.1,0-0.2-0.1-0.2-0.2
				c-0.1-0.1-0.1-0.3-0.2-0.4c-0.1-0.1,0-0.3,0.1-0.4c0.1-0.1,0.3,0,0.4,0.1c0.1,0.2,0.2,0.3,0.2,0.5
				C198.1,105.6,198,105.8,197.8,105.8C197.9,105.8,197.8,105.8,197.8,105.8z M192.4,104.8c-0.1,0-0.1,0-0.2-0.1
				c-0.1-0.1-0.1-0.3,0-0.4c0.1-0.1,0.3-0.3,0.4-0.4c0.1-0.1,0.3-0.1,0.4,0c0.1,0.1,0.1,0.3,0,0.4c-0.1,0.1-0.2,0.2-0.3,0.3
				C192.6,104.7,192.5,104.8,192.4,104.8z M197,104.6c-0.1,0-0.1,0-0.2-0.1c-0.1-0.1-0.2-0.2-0.4-0.3c-0.1-0.1-0.1-0.2-0.1-0.4
				c0.1-0.1,0.2-0.1,0.4-0.1c0.2,0.1,0.3,0.2,0.4,0.3c0.1,0.1,0.1,0.3,0,0.4C197.1,104.5,197.1,104.6,197,104.6z M193.7,103.9
				c-0.1,0-0.2-0.1-0.2-0.2c-0.1-0.1,0-0.3,0.2-0.3c0.2-0.1,0.3-0.1,0.5-0.2c0.1,0,0.3,0.1,0.3,0.2c0,0.1-0.1,0.3-0.2,0.3
				C194.1,103.8,193.9,103.8,193.7,103.9C193.7,103.9,193.7,103.9,193.7,103.9z M195.7,103.8C195.7,103.8,195.6,103.8,195.7,103.8
				c-0.2-0.1-0.4-0.1-0.5-0.1c-0.1,0-0.2-0.1-0.2-0.3c0-0.1,0.1-0.2,0.3-0.2c0.2,0,0.4,0.1,0.5,0.1c0.1,0,0.2,0.2,0.2,0.3
				C195.9,103.7,195.8,103.8,195.7,103.8z"/>
		</g>
		<g>
			<circle fill="#C06C5F" cx="194.8" cy="106.6" r="1.1"/>
		</g>
		<g>
			<path fill="#C06C5F" d="M194.8,108.7C194.8,108.7,194.8,108.7,194.8,108.7c-0.2,0-0.2-0.1-0.2-0.2c0-0.1,0.1-0.2,0.2-0.2
				c0,0,0,0,0,0c0,0,0.1,0,0.1,0c0.1,0,0.1,0,0.2,0c0.1,0,0.2,0.1,0.2,0.1c0,0.1-0.1,0.2-0.1,0.2C195,108.7,194.9,108.7,194.8,108.7
				z M194.1,108.6C194.1,108.6,194.1,108.6,194.1,108.6c-0.2-0.1-0.3-0.1-0.4-0.2c-0.1,0-0.1-0.1-0.1-0.2c0-0.1,0.1-0.1,0.2-0.1
				c0.1,0,0.2,0.1,0.3,0.1c0.1,0,0.1,0.1,0.1,0.2C194.2,108.6,194.2,108.6,194.1,108.6z M195.7,108.6c-0.1,0-0.1,0-0.1-0.1
				c0-0.1,0-0.2,0.1-0.2c0.1,0,0.2-0.1,0.3-0.1c0.1-0.1,0.2,0,0.2,0c0.1,0.1,0,0.2,0,0.2C195.9,108.4,195.8,108.5,195.7,108.6
				C195.7,108.5,195.7,108.6,195.7,108.6z M193.3,108.1c0,0-0.1,0-0.1-0.1c-0.1-0.1-0.1-0.2-0.2-0.3c0-0.1,0-0.2,0.1-0.2
				c0.1,0,0.2,0,0.2,0.1c0.1,0.1,0.1,0.2,0.2,0.2c0.1,0.1,0.1,0.2,0,0.2C193.4,108.1,193.4,108.1,193.3,108.1z M196.4,108
				C196.4,108,196.3,107.9,196.4,108c-0.2-0.1-0.2-0.2-0.1-0.3c0.1-0.1,0.1-0.2,0.2-0.2c0-0.1,0.1-0.1,0.2-0.1
				c0.1,0,0.1,0.1,0.1,0.2c-0.1,0.1-0.1,0.2-0.2,0.3C196.5,107.9,196.4,108,196.4,108z M192.9,107.2c-0.1,0-0.1,0-0.2-0.1
				c0-0.1,0-0.2-0.1-0.3c0-0.1,0.1-0.2,0.1-0.2c0.1,0,0.2,0.1,0.2,0.1c0,0.1,0,0.2,0,0.3C193.1,107.1,193,107.2,192.9,107.2
				C192.9,107.2,192.9,107.2,192.9,107.2z M196.8,107.1C196.8,107.1,196.8,107.1,196.8,107.1c-0.1,0-0.2-0.1-0.2-0.2
				c0-0.1,0-0.2,0-0.3c0-0.1,0.1-0.2,0.2-0.2c0.1,0,0.2,0.1,0.2,0.2h-0.2l0.2,0c0,0.1,0,0.2,0,0.4
				C196.9,107,196.8,107.1,196.8,107.1z M192.9,106.3C192.9,106.3,192.9,106.3,192.9,106.3c-0.1,0-0.2-0.1-0.2-0.2
				c0-0.1,0.1-0.2,0.1-0.3c0-0.1,0.1-0.1,0.2-0.1c0.1,0,0.1,0.1,0.1,0.2c0,0.1-0.1,0.2-0.1,0.3C193,106.2,193,106.3,192.9,106.3z
				 M196.7,106.1c-0.1,0-0.1,0-0.2-0.1c0-0.1-0.1-0.2-0.1-0.3c0-0.1,0-0.2,0.1-0.2c0.1,0,0.2,0,0.2,0.1c0.1,0.1,0.1,0.2,0.1,0.3
				C196.9,106,196.8,106.1,196.7,106.1C196.7,106.1,196.7,106.1,196.7,106.1z M193.3,105.5c0,0-0.1,0-0.1,0c-0.1-0.1-0.1-0.2,0-0.2
				c0.1-0.1,0.2-0.2,0.2-0.2c0.1-0.1,0.2,0,0.2,0c0.1,0.1,0,0.2,0,0.2c-0.1,0.1-0.1,0.1-0.2,0.2
				C193.4,105.4,193.4,105.5,193.3,105.5z M196.2,105.3c0,0-0.1,0-0.1,0c-0.1-0.1-0.1-0.1-0.2-0.2c-0.1-0.1-0.1-0.2,0-0.2
				c0.1-0.1,0.2-0.1,0.2,0c0.1,0.1,0.2,0.1,0.3,0.2c0.1,0.1,0.1,0.2,0,0.2C196.3,105.3,196.2,105.3,196.2,105.3z M194.1,104.9
				c-0.1,0-0.1,0-0.2-0.1c0-0.1,0-0.2,0.1-0.2c0.1,0,0.2-0.1,0.3-0.1c0.1,0,0.2,0,0.2,0.1c0,0.1,0,0.2-0.1,0.2
				C194.3,104.8,194.3,104.9,194.1,104.9C194.1,104.9,194.1,104.9,194.1,104.9z M195.4,104.9C195.3,104.9,195.3,104.9,195.4,104.9
				c-0.1,0-0.2-0.1-0.3-0.1c-0.1,0-0.2-0.1-0.1-0.2c0-0.1,0.1-0.2,0.2-0.1c0.1,0,0.2,0,0.3,0.1c0.1,0,0.1,0.1,0.1,0.2
				C195.5,104.8,195.4,104.9,195.4,104.9z"/>
		</g>
		<g>
			<path fill="#8A3E35" d="M198.4,118.7c0,0-0.1,0-0.1,0c-0.1,0-0.3-0.1-0.2-0.3c0-0.1,0.1-0.3,0.3-0.3c0,0,0,0,0,0
				c0.2,0,0.3,0,0.5,0c0.1,0,0.3,0.1,0.3,0.2c0,0.1-0.1,0.3-0.2,0.3C198.6,118.7,198.5,118.7,198.4,118.7z M197.2,118.5
				C197.2,118.5,197.2,118.5,197.2,118.5c-0.3-0.1-0.4-0.2-0.6-0.3c-0.1-0.1-0.2-0.2-0.1-0.4c0.1-0.1,0.2-0.2,0.4-0.1
				c0.1,0.1,0.3,0.1,0.4,0.2c0.1,0.1,0.2,0.2,0.2,0.3C197.4,118.5,197.3,118.5,197.2,118.5z M199.7,118.4c-0.1,0-0.2-0.1-0.2-0.1
				c-0.1-0.1,0-0.3,0.1-0.3c0.1-0.1,0.3-0.1,0.4-0.2c0.1-0.1,0.3-0.1,0.4,0.1c0.1,0.1,0.1,0.3-0.1,0.4c-0.2,0.1-0.3,0.2-0.5,0.3
				C199.8,118.4,199.7,118.4,199.7,118.4z M196,117.7c-0.1,0-0.1,0-0.2-0.1c-0.1-0.1-0.2-0.3-0.3-0.4c-0.1-0.1,0-0.3,0.1-0.4
				c0.1-0.1,0.3,0,0.4,0.1c0.1,0.1,0.2,0.3,0.3,0.4c0.1,0.1,0.1,0.3,0,0.4C196.1,117.6,196,117.7,196,117.7z M200.9,117.5
				c-0.1,0-0.1,0-0.2-0.1c-0.1-0.1-0.1-0.2-0.1-0.4c0.1-0.1,0.2-0.3,0.3-0.4c0.1-0.1,0.2-0.2,0.4-0.1c0.1,0.1,0.2,0.2,0.1,0.4
				c-0.1,0.2-0.2,0.3-0.3,0.5C201,117.4,201,117.5,200.9,117.5z M195.3,116.3c-0.1,0-0.2-0.1-0.3-0.2c0-0.2-0.1-0.4-0.1-0.5
				c0-0.1,0.1-0.3,0.2-0.3c0.1,0,0.3,0.1,0.3,0.2c0,0.2,0,0.3,0.1,0.5C195.6,116.1,195.5,116.3,195.3,116.3
				C195.3,116.3,195.3,116.3,195.3,116.3z M201.5,116.1C201.5,116.1,201.4,116.1,201.5,116.1c-0.2,0-0.3-0.2-0.3-0.3
				c0-0.2,0-0.3,0-0.5c0-0.1,0.1-0.3,0.3-0.3c0.1,0,0.3,0.1,0.3,0.3h-0.3l0.3,0c0,0.2,0,0.4,0,0.6
				C201.7,116,201.6,116.1,201.5,116.1z M195.3,114.8C195.3,114.8,195.2,114.8,195.3,114.8c-0.2,0-0.3-0.2-0.3-0.3
				c0-0.2,0.1-0.4,0.2-0.5c0.1-0.1,0.2-0.2,0.3-0.1c0.1,0.1,0.2,0.2,0.1,0.3c-0.1,0.1-0.1,0.3-0.1,0.4
				C195.5,114.7,195.4,114.8,195.3,114.8z M201.3,114.5c-0.1,0-0.2-0.1-0.2-0.2c-0.1-0.1-0.1-0.3-0.2-0.4c-0.1-0.1,0-0.3,0.1-0.4
				c0.1-0.1,0.3,0,0.4,0.1c0.1,0.2,0.2,0.3,0.2,0.5C201.6,114.3,201.6,114.5,201.3,114.5C201.4,114.5,201.4,114.5,201.3,114.5z
				 M196,113.5c-0.1,0-0.1,0-0.2-0.1c-0.1-0.1-0.1-0.3,0-0.4c0.1-0.1,0.3-0.3,0.4-0.4c0.1-0.1,0.3-0.1,0.4,0c0.1,0.1,0.1,0.3,0,0.4
				c-0.1,0.1-0.2,0.2-0.3,0.3C196.1,113.4,196,113.5,196,113.5z M200.5,113.3c-0.1,0-0.1,0-0.2-0.1c-0.1-0.1-0.2-0.2-0.4-0.3
				c-0.1-0.1-0.1-0.2-0.1-0.4c0.1-0.1,0.2-0.1,0.4-0.1c0.2,0.1,0.3,0.2,0.4,0.3c0.1,0.1,0.1,0.3,0,0.4
				C200.7,113.2,200.6,113.3,200.5,113.3z M197.2,112.6c-0.1,0-0.2-0.1-0.2-0.2c-0.1-0.1,0-0.3,0.2-0.3c0.2-0.1,0.3-0.1,0.5-0.2
				c0.1,0,0.3,0.1,0.3,0.2c0,0.1-0.1,0.3-0.2,0.3C197.6,112.5,197.5,112.5,197.2,112.6C197.3,112.6,197.3,112.6,197.2,112.6z
				 M199.2,112.5C199.2,112.5,199.2,112.5,199.2,112.5c-0.2-0.1-0.4-0.1-0.5-0.1c-0.1,0-0.2-0.1-0.2-0.3c0-0.1,0.1-0.2,0.3-0.2
				c0.2,0,0.4,0.1,0.5,0.1c0.1,0,0.2,0.2,0.2,0.3C199.4,112.4,199.3,112.5,199.2,112.5z"/>
		</g>
		<g>
			<circle fill="#8A3E35" cx="198.4" cy="115.3" r="1.1"/>
		</g>
		<g>
			<path fill="#8A3E35" d="M198.4,117.4C198.3,117.4,198.3,117.4,198.4,117.4c-0.2,0-0.2-0.1-0.2-0.2c0-0.1,0.1-0.2,0.2-0.2
				c0,0,0,0,0,0c0,0,0.1,0,0.1,0c0.1,0,0.1,0,0.2,0c0.1,0,0.2,0.1,0.2,0.1c0,0.1-0.1,0.2-0.1,0.2
				C198.5,117.4,198.4,117.4,198.4,117.4z M197.6,117.3C197.6,117.3,197.6,117.3,197.6,117.3c-0.2-0.1-0.3-0.1-0.4-0.2
				c-0.1,0-0.1-0.1-0.1-0.2c0-0.1,0.1-0.1,0.2-0.1c0.1,0,0.2,0.1,0.3,0.1c0.1,0,0.1,0.1,0.1,0.2
				C197.8,117.3,197.7,117.3,197.6,117.3z M199.2,117.3c-0.1,0-0.1,0-0.1-0.1c0-0.1,0-0.2,0.1-0.2c0.1,0,0.2-0.1,0.3-0.1
				c0.1-0.1,0.2,0,0.2,0c0.1,0.1,0,0.2,0,0.2C199.5,117.1,199.4,117.2,199.2,117.3C199.2,117.3,199.2,117.3,199.2,117.3z
				 M196.9,116.8c0,0-0.1,0-0.1-0.1c-0.1-0.1-0.1-0.2-0.2-0.3c0-0.1,0-0.2,0.1-0.2c0.1,0,0.2,0,0.2,0.1c0.1,0.1,0.1,0.2,0.2,0.2
				c0.1,0.1,0.1,0.2,0,0.2C196.9,116.8,196.9,116.8,196.9,116.8z M199.9,116.7C199.9,116.7,199.9,116.6,199.9,116.7
				c-0.2-0.1-0.2-0.2-0.1-0.3c0.1-0.1,0.1-0.2,0.2-0.2c0-0.1,0.1-0.1,0.2-0.1c0.1,0,0.1,0.1,0.1,0.2c-0.1,0.1-0.1,0.2-0.2,0.3
				C200,116.6,200,116.7,199.9,116.7z M196.4,115.9c-0.1,0-0.1,0-0.2-0.1c0-0.1,0-0.2-0.1-0.3c0-0.1,0.1-0.2,0.1-0.2
				c0.1,0,0.2,0.1,0.2,0.1c0,0.1,0,0.2,0,0.3C196.6,115.8,196.6,115.9,196.4,115.9C196.5,115.9,196.4,115.9,196.4,115.9z
				 M200.3,115.8C200.3,115.8,200.3,115.8,200.3,115.8c-0.1,0-0.2-0.1-0.2-0.2c0-0.1,0-0.2,0-0.3c0-0.1,0.1-0.2,0.2-0.2
				c0.1,0,0.2,0.1,0.2,0.2h-0.2l0.2,0c0,0.1,0,0.2,0,0.4C200.5,115.7,200.4,115.8,200.3,115.8z M196.4,115
				C196.4,115,196.4,115,196.4,115c-0.1,0-0.2-0.1-0.2-0.2c0-0.1,0.1-0.2,0.1-0.3c0-0.1,0.1-0.1,0.2-0.1c0.1,0,0.1,0.1,0.1,0.2
				c0,0.1-0.1,0.2-0.1,0.3C196.6,114.9,196.5,115,196.4,115z M200.2,114.8c-0.1,0-0.1,0-0.2-0.1c0-0.1-0.1-0.2-0.1-0.3
				c0-0.1,0-0.2,0.1-0.2c0.1,0,0.2,0,0.2,0.1c0.1,0.1,0.1,0.2,0.1,0.3C200.4,114.7,200.4,114.8,200.2,114.8
				C200.3,114.8,200.2,114.8,200.2,114.8z M196.9,114.2c0,0-0.1,0-0.1,0c-0.1-0.1-0.1-0.2,0-0.2c0.1-0.1,0.2-0.2,0.2-0.2
				c0.1-0.1,0.2,0,0.2,0c0.1,0.1,0,0.2,0,0.2c-0.1,0.1-0.1,0.1-0.2,0.2C197,114.1,196.9,114.2,196.9,114.2z M199.7,114
				c0,0-0.1,0-0.1,0c-0.1-0.1-0.1-0.1-0.2-0.2c-0.1-0.1-0.1-0.2,0-0.2c0.1-0.1,0.2-0.1,0.2,0c0.1,0.1,0.2,0.1,0.3,0.2
				c0.1,0.1,0.1,0.2,0,0.2C199.8,114,199.8,114,199.7,114z M197.6,113.6c-0.1,0-0.1,0-0.2-0.1c0-0.1,0-0.2,0.1-0.2
				c0.1,0,0.2-0.1,0.3-0.1c0.1,0,0.2,0,0.2,0.1c0,0.1,0,0.2-0.1,0.2C197.9,113.5,197.8,113.6,197.6,113.6
				C197.7,113.6,197.7,113.6,197.6,113.6z M198.9,113.6C198.9,113.6,198.9,113.6,198.9,113.6c-0.1,0-0.2-0.1-0.3-0.1
				c-0.1,0-0.2-0.1-0.1-0.2c0-0.1,0.1-0.2,0.2-0.1c0.1,0,0.2,0,0.3,0.1c0.1,0,0.1,0.1,0.1,0.2C199,113.5,199,113.6,198.9,113.6z"/>
		</g>
		<g>
			<path fill="#8A3E35" d="M174.7,118.7c0,0-0.1,0-0.1,0c-0.1,0-0.3-0.1-0.2-0.3c0-0.1,0.1-0.3,0.3-0.3c0,0,0,0,0,0
				c0.2,0,0.3,0,0.5,0c0.1,0,0.3,0.1,0.3,0.2c0,0.1-0.1,0.3-0.2,0.3C175,118.7,174.9,118.7,174.7,118.7z M173.6,118.5
				C173.6,118.5,173.6,118.5,173.6,118.5c-0.3-0.1-0.4-0.2-0.6-0.3c-0.1-0.1-0.2-0.2-0.1-0.4c0.1-0.1,0.2-0.2,0.4-0.1
				c0.1,0.1,0.3,0.1,0.4,0.2c0.1,0.1,0.2,0.2,0.2,0.3C173.8,118.5,173.7,118.5,173.6,118.5z M176.1,118.4c-0.1,0-0.2-0.1-0.2-0.1
				c-0.1-0.1,0-0.3,0.1-0.3c0.1-0.1,0.3-0.1,0.4-0.2c0.1-0.1,0.3-0.1,0.4,0.1s0.1,0.3-0.1,0.4c-0.2,0.1-0.3,0.2-0.5,0.3
				C176.2,118.4,176.1,118.4,176.1,118.4z M172.4,117.7c-0.1,0-0.1,0-0.2-0.1c-0.1-0.1-0.2-0.3-0.3-0.4c-0.1-0.1,0-0.3,0.1-0.4
				c0.1-0.1,0.3,0,0.4,0.1c0.1,0.1,0.2,0.3,0.3,0.4c0.1,0.1,0.1,0.3,0,0.4C172.5,117.6,172.4,117.7,172.4,117.7z M177.3,117.5
				c-0.1,0-0.1,0-0.2-0.1c-0.1-0.1-0.1-0.2-0.1-0.4c0.1-0.1,0.2-0.3,0.3-0.4c0.1-0.1,0.2-0.2,0.4-0.1c0.1,0.1,0.2,0.2,0.1,0.4
				c-0.1,0.2-0.2,0.3-0.3,0.5C177.4,117.4,177.4,117.5,177.3,117.5z M171.7,116.3c-0.1,0-0.2-0.1-0.3-0.2c0-0.2-0.1-0.4-0.1-0.5
				c0-0.1,0.1-0.3,0.2-0.3c0.1,0,0.3,0.1,0.3,0.2c0,0.2,0,0.3,0.1,0.5C172,116.1,171.9,116.3,171.7,116.3
				C171.7,116.3,171.7,116.3,171.7,116.3z M177.9,116.1C177.9,116.1,177.8,116.1,177.9,116.1c-0.2,0-0.3-0.2-0.3-0.3
				c0-0.2,0-0.3,0-0.5c0-0.1,0.1-0.3,0.3-0.3c0.1,0,0.3,0.1,0.3,0.3h-0.3l0.3,0c0,0.2,0,0.4,0,0.6C178.1,116,178,116.1,177.9,116.1z
				 M171.7,114.8C171.7,114.8,171.6,114.8,171.7,114.8c-0.2,0-0.3-0.2-0.3-0.3c0-0.2,0.1-0.4,0.2-0.5c0.1-0.1,0.2-0.2,0.3-0.1
				c0.1,0.1,0.2,0.2,0.1,0.3c-0.1,0.1-0.1,0.3-0.1,0.4C171.9,114.7,171.8,114.8,171.7,114.8z M177.7,114.5c-0.1,0-0.2-0.1-0.2-0.2
				c-0.1-0.1-0.1-0.3-0.2-0.4c-0.1-0.1,0-0.3,0.1-0.4c0.1-0.1,0.3,0,0.4,0.1c0.1,0.2,0.2,0.3,0.2,0.5
				C178,114.3,178,114.5,177.7,114.5C177.8,114.5,177.8,114.5,177.7,114.5z M172.4,113.5c-0.1,0-0.1,0-0.2-0.1
				c-0.1-0.1-0.1-0.3,0-0.4c0.1-0.1,0.3-0.3,0.4-0.4c0.1-0.1,0.3-0.1,0.4,0c0.1,0.1,0.1,0.3,0,0.4c-0.1,0.1-0.2,0.2-0.3,0.3
				C172.5,113.4,172.4,113.5,172.4,113.5z M176.9,113.3c-0.1,0-0.1,0-0.2-0.1c-0.1-0.1-0.2-0.2-0.4-0.3c-0.1-0.1-0.1-0.2-0.1-0.4
				c0.1-0.1,0.2-0.1,0.4-0.1c0.2,0.1,0.3,0.2,0.4,0.3c0.1,0.1,0.1,0.3,0,0.4C177.1,113.2,177,113.3,176.9,113.3z M173.6,112.6
				c-0.1,0-0.2-0.1-0.2-0.2c-0.1-0.1,0-0.3,0.2-0.3c0.2-0.1,0.3-0.1,0.5-0.2c0.1,0,0.3,0.1,0.3,0.2c0,0.1-0.1,0.3-0.2,0.3
				C174,112.5,173.9,112.5,173.6,112.6C173.7,112.6,173.6,112.6,173.6,112.6z M175.6,112.5C175.6,112.5,175.6,112.5,175.6,112.5
				c-0.2-0.1-0.4-0.1-0.5-0.1c-0.1,0-0.2-0.1-0.2-0.3c0-0.1,0.1-0.2,0.3-0.2c0.2,0,0.4,0.1,0.5,0.1c0.1,0,0.2,0.2,0.2,0.3
				C175.8,112.4,175.7,112.5,175.6,112.5z"/>
		</g>
		<g>
			<circle fill="#8A3E35" cx="174.7" cy="115.3" r="1.1"/>
		</g>
		<g>
			<path fill="#8A3E35" d="M174.8,117.4C174.7,117.4,174.7,117.4,174.8,117.4c-0.2,0-0.2-0.1-0.2-0.2c0-0.1,0.1-0.2,0.2-0.2
				c0,0,0,0,0,0c0,0,0.1,0,0.1,0c0.1,0,0.1,0,0.2,0c0.1,0,0.2,0.1,0.2,0.1c0,0.1-0.1,0.2-0.1,0.2
				C174.9,117.4,174.8,117.4,174.8,117.4z M174,117.3C174,117.3,174,117.3,174,117.3c-0.2-0.1-0.3-0.1-0.4-0.2
				c-0.1,0-0.1-0.1-0.1-0.2c0-0.1,0.1-0.1,0.2-0.1c0.1,0,0.2,0.1,0.3,0.1c0.1,0,0.1,0.1,0.1,0.2C174.2,117.3,174.1,117.3,174,117.3z
				 M175.6,117.3c-0.1,0-0.1,0-0.1-0.1c0-0.1,0-0.2,0.1-0.2c0.1,0,0.2-0.1,0.3-0.1c0.1-0.1,0.2,0,0.2,0c0.1,0.1,0,0.2,0,0.2
				C175.9,117.1,175.8,117.2,175.6,117.3C175.6,117.3,175.6,117.3,175.6,117.3z M173.3,116.8c0,0-0.1,0-0.1-0.1
				c-0.1-0.1-0.1-0.2-0.2-0.3c0-0.1,0-0.2,0.1-0.2c0.1,0,0.2,0,0.2,0.1c0.1,0.1,0.1,0.2,0.2,0.2c0.1,0.1,0.1,0.2,0,0.2
				C173.3,116.8,173.3,116.8,173.3,116.8z M176.3,116.7C176.3,116.7,176.3,116.6,176.3,116.7c-0.2-0.1-0.2-0.2-0.1-0.3
				c0.1-0.1,0.1-0.2,0.2-0.2c0-0.1,0.1-0.1,0.2-0.1c0.1,0,0.1,0.1,0.1,0.2c-0.1,0.1-0.1,0.2-0.2,0.3
				C176.4,116.6,176.4,116.7,176.3,116.7z M172.8,115.9c-0.1,0-0.1,0-0.2-0.1c0-0.1,0-0.2-0.1-0.3c0-0.1,0.1-0.2,0.1-0.2
				c0.1,0,0.2,0.1,0.2,0.1c0,0.1,0,0.2,0,0.3C173,115.8,172.9,115.9,172.8,115.9C172.8,115.9,172.8,115.9,172.8,115.9z M176.7,115.8
				C176.7,115.8,176.7,115.8,176.7,115.8c-0.1,0-0.2-0.1-0.2-0.2c0-0.1,0-0.2,0-0.3c0-0.1,0.1-0.2,0.2-0.2c0.1,0,0.2,0.1,0.2,0.2
				h-0.2l0.2,0c0,0.1,0,0.2,0,0.4C176.9,115.7,176.8,115.8,176.7,115.8z M172.8,115C172.8,115,172.8,115,172.8,115
				c-0.1,0-0.2-0.1-0.2-0.2c0-0.1,0.1-0.2,0.1-0.3c0-0.1,0.1-0.1,0.2-0.1c0.1,0,0.1,0.1,0.1,0.2c0,0.1-0.1,0.2-0.1,0.3
				C173,114.9,172.9,115,172.8,115z M176.6,114.8c-0.1,0-0.1,0-0.2-0.1c0-0.1-0.1-0.2-0.1-0.3c0-0.1,0-0.2,0.1-0.2
				c0.1,0,0.2,0,0.2,0.1c0.1,0.1,0.1,0.2,0.1,0.3C176.8,114.7,176.8,114.8,176.6,114.8C176.7,114.8,176.6,114.8,176.6,114.8z
				 M173.3,114.2c0,0-0.1,0-0.1,0c-0.1-0.1-0.1-0.2,0-0.2c0.1-0.1,0.2-0.2,0.2-0.2c0.1-0.1,0.2,0,0.2,0c0.1,0.1,0,0.2,0,0.2
				c-0.1,0.1-0.1,0.1-0.2,0.2C173.4,114.1,173.3,114.2,173.3,114.2z M176.1,114c0,0-0.1,0-0.1,0c-0.1-0.1-0.1-0.1-0.2-0.2
				c-0.1-0.1-0.1-0.2,0-0.2c0.1-0.1,0.2-0.1,0.2,0c0.1,0.1,0.2,0.1,0.3,0.2c0.1,0.1,0.1,0.2,0,0.2C176.2,114,176.2,114,176.1,114z
				 M174,113.6c-0.1,0-0.1,0-0.2-0.1c0-0.1,0-0.2,0.1-0.2c0.1,0,0.2-0.1,0.3-0.1c0.1,0,0.2,0,0.2,0.1c0,0.1,0,0.2-0.1,0.2
				C174.3,113.5,174.2,113.6,174,113.6C174.1,113.6,174.1,113.6,174,113.6z M175.3,113.6C175.3,113.6,175.3,113.6,175.3,113.6
				c-0.1,0-0.2-0.1-0.3-0.1c-0.1,0-0.2-0.1-0.1-0.2c0-0.1,0.1-0.2,0.2-0.1c0.1,0,0.2,0,0.3,0.1c0.1,0,0.1,0.1,0.1,0.2
				C175.4,113.5,175.4,113.6,175.3,113.6z"/>
		</g>
		<g>
			<path fill="#C06C5F" d="M194.8,127.7c0,0-0.1,0-0.1,0c-0.1,0-0.3-0.1-0.2-0.3c0-0.1,0.1-0.3,0.3-0.3c0,0,0,0,0,0
				c0.2,0,0.3,0,0.5,0c0.1,0,0.3,0.1,0.3,0.2c0,0.1-0.1,0.3-0.2,0.3C195.1,127.7,194.9,127.7,194.8,127.7z M193.7,127.5
				C193.7,127.5,193.6,127.5,193.7,127.5c-0.3-0.1-0.4-0.2-0.6-0.3c-0.1-0.1-0.2-0.2-0.1-0.4c0.1-0.1,0.2-0.2,0.4-0.1
				c0.1,0.1,0.3,0.1,0.4,0.2c0.1,0.1,0.2,0.2,0.2,0.3C193.9,127.5,193.8,127.5,193.7,127.5z M196.2,127.4c-0.1,0-0.2-0.1-0.2-0.1
				c-0.1-0.1,0-0.3,0.1-0.3c0.1-0.1,0.3-0.1,0.4-0.2c0.1-0.1,0.3-0.1,0.4,0.1c0.1,0.1,0.1,0.3-0.1,0.4c-0.2,0.1-0.3,0.2-0.5,0.3
				C196.2,127.4,196.2,127.4,196.2,127.4z M192.4,126.7c-0.1,0-0.1,0-0.2-0.1c-0.1-0.1-0.2-0.3-0.3-0.4c-0.1-0.1,0-0.3,0.1-0.4
				c0.1-0.1,0.3,0,0.4,0.1c0.1,0.1,0.2,0.3,0.3,0.4c0.1,0.1,0.1,0.3,0,0.4C192.6,126.6,192.5,126.7,192.4,126.7z M197.3,126.5
				c-0.1,0-0.1,0-0.2-0.1c-0.1-0.1-0.1-0.2-0.1-0.4c0.1-0.1,0.2-0.3,0.3-0.4c0.1-0.1,0.2-0.2,0.4-0.1c0.1,0.1,0.2,0.2,0.1,0.4
				c-0.1,0.2-0.2,0.3-0.3,0.5C197.5,126.4,197.4,126.5,197.3,126.5z M191.7,125.3c-0.1,0-0.2-0.1-0.3-0.2c0-0.2-0.1-0.4-0.1-0.5
				c0-0.1,0.1-0.3,0.2-0.3c0.1,0,0.3,0.1,0.3,0.2c0,0.2,0,0.3,0.1,0.5C192,125.1,191.9,125.3,191.7,125.3
				C191.8,125.3,191.8,125.3,191.7,125.3z M197.9,125.1C197.9,125.1,197.9,125.1,197.9,125.1c-0.2,0-0.3-0.2-0.3-0.3
				c0-0.2,0-0.3,0-0.5c0-0.1,0.1-0.3,0.3-0.3c0.1,0,0.3,0.1,0.3,0.3H198l0.3,0c0,0.2,0,0.4,0,0.6C198.2,125,198.1,125.1,197.9,125.1
				z M191.7,123.8C191.7,123.8,191.7,123.8,191.7,123.8c-0.2,0-0.3-0.2-0.3-0.3c0-0.2,0.1-0.4,0.2-0.5c0.1-0.1,0.2-0.2,0.3-0.1
				c0.1,0.1,0.2,0.2,0.1,0.3c-0.1,0.1-0.1,0.3-0.1,0.4C192,123.7,191.9,123.8,191.7,123.8z M197.8,123.5c-0.1,0-0.2-0.1-0.2-0.2
				c-0.1-0.1-0.1-0.3-0.2-0.4c-0.1-0.1,0-0.3,0.1-0.4c0.1-0.1,0.3,0,0.4,0.1c0.1,0.2,0.2,0.3,0.2,0.5
				C198.1,123.3,198,123.5,197.8,123.5C197.9,123.5,197.8,123.5,197.8,123.5z M192.4,122.5c-0.1,0-0.1,0-0.2-0.1
				c-0.1-0.1-0.1-0.3,0-0.4c0.1-0.1,0.3-0.3,0.4-0.4c0.1-0.1,0.3-0.1,0.4,0c0.1,0.1,0.1,0.3,0,0.4c-0.1,0.1-0.2,0.2-0.3,0.3
				C192.6,122.4,192.5,122.5,192.4,122.5z M197,122.3c-0.1,0-0.1,0-0.2-0.1c-0.1-0.1-0.2-0.2-0.4-0.3c-0.1-0.1-0.1-0.2-0.1-0.4
				c0.1-0.1,0.2-0.1,0.4-0.1c0.2,0.1,0.3,0.2,0.4,0.3c0.1,0.1,0.1,0.3,0,0.4C197.1,122.2,197.1,122.3,197,122.3z M193.7,121.6
				c-0.1,0-0.2-0.1-0.2-0.2c-0.1-0.1,0-0.3,0.2-0.3c0.2-0.1,0.3-0.1,0.5-0.2c0.1,0,0.3,0.1,0.3,0.2c0,0.1-0.1,0.3-0.2,0.3
				C194.1,121.5,193.9,121.5,193.7,121.6C193.7,121.6,193.7,121.6,193.7,121.6z M195.7,121.5C195.7,121.5,195.6,121.5,195.7,121.5
				c-0.2-0.1-0.4-0.1-0.5-0.1c-0.1,0-0.2-0.1-0.2-0.3c0-0.1,0.1-0.2,0.3-0.2c0.2,0,0.4,0.1,0.5,0.1c0.1,0,0.2,0.2,0.2,0.3
				C195.9,121.4,195.8,121.5,195.7,121.5z"/>
		</g>
		<g>
			<circle fill="#C06C5F" cx="194.8" cy="124.3" r="1.1"/>
		</g>
		<g>
			<path fill="#C06C5F" d="M194.8,126.4C194.8,126.4,194.8,126.4,194.8,126.4c-0.2,0-0.2-0.1-0.2-0.2c0-0.1,0.1-0.2,0.2-0.2
				c0,0,0,0,0,0c0,0,0.1,0,0.1,0c0.1,0,0.1,0,0.2,0c0.1,0,0.2,0.1,0.2,0.1c0,0.1-0.1,0.2-0.1,0.2C195,126.4,194.9,126.4,194.8,126.4
				z M194.1,126.3C194.1,126.3,194.1,126.3,194.1,126.3c-0.2-0.1-0.3-0.1-0.4-0.2c-0.1,0-0.1-0.1-0.1-0.2c0-0.1,0.1-0.1,0.2-0.1
				c0.1,0,0.2,0.1,0.3,0.1c0.1,0,0.1,0.1,0.1,0.2C194.2,126.3,194.2,126.3,194.1,126.3z M195.7,126.3c-0.1,0-0.1,0-0.1-0.1
				c0-0.1,0-0.2,0.1-0.2c0.1,0,0.2-0.1,0.3-0.1c0.1-0.1,0.2,0,0.2,0c0.1,0.1,0,0.2,0,0.2C195.9,126.1,195.8,126.2,195.7,126.3
				C195.7,126.2,195.7,126.3,195.7,126.3z M193.3,125.8c0,0-0.1,0-0.1-0.1c-0.1-0.1-0.1-0.2-0.2-0.3c0-0.1,0-0.2,0.1-0.2
				c0.1,0,0.2,0,0.2,0.1c0.1,0.1,0.1,0.2,0.2,0.2c0.1,0.1,0.1,0.2,0,0.2C193.4,125.8,193.4,125.8,193.3,125.8z M196.4,125.7
				C196.4,125.7,196.3,125.6,196.4,125.7c-0.2-0.1-0.2-0.2-0.1-0.3c0.1-0.1,0.1-0.2,0.2-0.2c0-0.1,0.1-0.1,0.2-0.1
				c0.1,0,0.1,0.1,0.1,0.2c-0.1,0.1-0.1,0.2-0.2,0.3C196.5,125.6,196.4,125.7,196.4,125.7z M192.9,124.9c-0.1,0-0.1,0-0.2-0.1
				c0-0.1,0-0.2-0.1-0.3c0-0.1,0.1-0.2,0.1-0.2c0.1,0,0.2,0.1,0.2,0.1c0,0.1,0,0.2,0,0.3C193.1,124.8,193,124.9,192.9,124.9
				C192.9,124.9,192.9,124.9,192.9,124.9z M196.8,124.8C196.8,124.8,196.8,124.8,196.8,124.8c-0.1,0-0.2-0.1-0.2-0.2
				c0-0.1,0-0.2,0-0.3c0-0.1,0.1-0.2,0.2-0.2c0.1,0,0.2,0.1,0.2,0.2h-0.2l0.2,0c0,0.1,0,0.2,0,0.4
				C196.9,124.7,196.8,124.8,196.8,124.8z M192.9,124C192.9,124,192.9,124,192.9,124c-0.1,0-0.2-0.1-0.2-0.2c0-0.1,0.1-0.2,0.1-0.3
				c0-0.1,0.1-0.1,0.2-0.1c0.1,0,0.1,0.1,0.1,0.2c0,0.1-0.1,0.2-0.1,0.3C193,123.9,193,124,192.9,124z M196.7,123.8
				c-0.1,0-0.1,0-0.2-0.1c0-0.1-0.1-0.2-0.1-0.3c0-0.1,0-0.2,0.1-0.2c0.1,0,0.2,0,0.2,0.1c0.1,0.1,0.1,0.2,0.1,0.3
				C196.9,123.7,196.8,123.8,196.7,123.8C196.7,123.8,196.7,123.8,196.7,123.8z M193.3,123.2c0,0-0.1,0-0.1,0
				c-0.1-0.1-0.1-0.2,0-0.2c0.1-0.1,0.2-0.2,0.2-0.2c0.1-0.1,0.2,0,0.2,0c0.1,0.1,0,0.2,0,0.2c-0.1,0.1-0.1,0.1-0.2,0.2
				C193.4,123.1,193.4,123.2,193.3,123.2z M196.2,123c0,0-0.1,0-0.1,0c-0.1-0.1-0.1-0.1-0.2-0.2c-0.1-0.1-0.1-0.2,0-0.2
				c0.1-0.1,0.2-0.1,0.2,0c0.1,0.1,0.2,0.1,0.3,0.2c0.1,0.1,0.1,0.2,0,0.2C196.3,123,196.2,123,196.2,123z M194.1,122.6
				c-0.1,0-0.1,0-0.2-0.1c0-0.1,0-0.2,0.1-0.2c0.1,0,0.2-0.1,0.3-0.1c0.1,0,0.2,0,0.2,0.1c0,0.1,0,0.2-0.1,0.2
				C194.3,122.5,194.3,122.6,194.1,122.6C194.1,122.6,194.1,122.6,194.1,122.6z M195.4,122.6C195.3,122.6,195.3,122.6,195.4,122.6
				c-0.1,0-0.2-0.1-0.3-0.1c-0.1,0-0.2-0.1-0.1-0.2c0-0.1,0.1-0.2,0.2-0.1c0.1,0,0.2,0,0.3,0.1c0.1,0,0.1,0.1,0.1,0.2
				C195.5,122.5,195.4,122.6,195.4,122.6z"/>
		</g>
		<g>
			<path fill="#C06C5F" d="M177.8,110c0,0-0.1,0-0.1,0c-0.1,0-0.3-0.1-0.2-0.3c0-0.1,0.1-0.3,0.3-0.3c0,0,0,0,0,0c0.2,0,0.3,0,0.5,0
				c0.1,0,0.3,0.1,0.3,0.2c0,0.1-0.1,0.3-0.2,0.3C178.1,110,178,110,177.8,110z M176.7,109.8C176.7,109.8,176.7,109.8,176.7,109.8
				c-0.3-0.1-0.4-0.2-0.6-0.3c-0.1-0.1-0.2-0.2-0.1-0.4c0.1-0.1,0.2-0.2,0.4-0.1c0.1,0.1,0.3,0.1,0.4,0.2c0.1,0.1,0.2,0.2,0.2,0.3
				C176.9,109.8,176.8,109.8,176.7,109.8z M179.2,109.7c-0.1,0-0.2-0.1-0.2-0.1c-0.1-0.1,0-0.3,0.1-0.3c0.1-0.1,0.3-0.1,0.4-0.2
				c0.1-0.1,0.3-0.1,0.4,0.1c0.1,0.1,0.1,0.3-0.1,0.4c-0.2,0.1-0.3,0.2-0.5,0.3C179.3,109.7,179.2,109.7,179.2,109.7z M175.5,109
				c-0.1,0-0.1,0-0.2-0.1c-0.1-0.1-0.2-0.3-0.3-0.4c-0.1-0.1,0-0.3,0.1-0.4c0.1-0.1,0.3,0,0.4,0.1c0.1,0.1,0.2,0.3,0.3,0.4
				c0.1,0.1,0.1,0.3,0,0.4C175.6,108.9,175.5,109,175.5,109z M180.4,108.8c-0.1,0-0.1,0-0.2-0.1c-0.1-0.1-0.1-0.2-0.1-0.4
				c0.1-0.1,0.2-0.3,0.3-0.4c0.1-0.1,0.2-0.2,0.4-0.1c0.1,0.1,0.2,0.2,0.1,0.4c-0.1,0.2-0.2,0.3-0.3,0.5
				C180.5,108.7,180.5,108.8,180.4,108.8z M174.8,107.6c-0.1,0-0.2-0.1-0.3-0.2c0-0.2-0.1-0.4-0.1-0.5c0-0.1,0.1-0.3,0.2-0.3
				c0.1,0,0.3,0.1,0.3,0.2c0,0.2,0,0.3,0.1,0.5C175.1,107.4,175,107.6,174.8,107.6C174.8,107.6,174.8,107.6,174.8,107.6z M181,107.4
				C181,107.4,180.9,107.4,181,107.4c-0.2,0-0.3-0.2-0.3-0.3c0-0.2,0-0.3,0-0.5c0-0.1,0.1-0.3,0.3-0.3c0.1,0,0.3,0.1,0.3,0.3H181
				l0.3,0c0,0.2,0,0.4,0,0.6C181.2,107.3,181.1,107.4,181,107.4z M174.8,106.1C174.8,106.1,174.7,106.1,174.8,106.1
				c-0.2,0-0.3-0.2-0.3-0.3c0-0.2,0.1-0.4,0.2-0.5c0.1-0.1,0.2-0.2,0.3-0.1c0.1,0.1,0.2,0.2,0.1,0.3c-0.1,0.1-0.1,0.3-0.1,0.4
				C175,106,174.9,106.1,174.8,106.1z M180.8,105.8c-0.1,0-0.2-0.1-0.2-0.2c-0.1-0.1-0.1-0.3-0.2-0.4c-0.1-0.1,0-0.3,0.1-0.4
				c0.1-0.1,0.3,0,0.4,0.1c0.1,0.2,0.2,0.3,0.2,0.5C181.1,105.6,181.1,105.8,180.8,105.8C180.9,105.8,180.9,105.8,180.8,105.8z
				 M175.5,104.8c-0.1,0-0.1,0-0.2-0.1c-0.1-0.1-0.1-0.3,0-0.4c0.1-0.1,0.3-0.3,0.4-0.4c0.1-0.1,0.3-0.1,0.4,0
				c0.1,0.1,0.1,0.3,0,0.4c-0.1,0.1-0.2,0.2-0.3,0.3C175.6,104.7,175.5,104.8,175.5,104.8z M180,104.6c-0.1,0-0.1,0-0.2-0.1
				c-0.1-0.1-0.2-0.2-0.4-0.3c-0.1-0.1-0.1-0.2-0.1-0.4c0.1-0.1,0.2-0.1,0.4-0.1c0.2,0.1,0.3,0.2,0.4,0.3c0.1,0.1,0.1,0.3,0,0.4
				C180.2,104.5,180.1,104.6,180,104.6z M176.7,103.9c-0.1,0-0.2-0.1-0.2-0.2c-0.1-0.1,0-0.3,0.2-0.3c0.2-0.1,0.3-0.1,0.5-0.2
				c0.1,0,0.3,0.1,0.3,0.2c0,0.1-0.1,0.3-0.2,0.3C177.1,103.8,177,103.8,176.7,103.9C176.8,103.9,176.7,103.9,176.7,103.9z
				 M178.7,103.8C178.7,103.8,178.7,103.8,178.7,103.8c-0.2-0.1-0.4-0.1-0.5-0.1c-0.1,0-0.2-0.1-0.2-0.3c0-0.1,0.1-0.2,0.3-0.2
				c0.2,0,0.4,0.1,0.5,0.1c0.1,0,0.2,0.2,0.2,0.3C178.9,103.7,178.8,103.8,178.7,103.8z"/>
		</g>
		<g>
			<circle fill="#C06C5F" cx="177.8" cy="106.6" r="1.1"/>
		</g>
		<g>
			<path fill="#C06C5F" d="M177.8,108.7C177.8,108.7,177.8,108.7,177.8,108.7c-0.2,0-0.2-0.1-0.2-0.2c0-0.1,0.1-0.2,0.2-0.2
				c0,0,0,0,0,0c0,0,0.1,0,0.1,0c0.1,0,0.1,0,0.2,0c0.1,0,0.2,0.1,0.2,0.1c0,0.1-0.1,0.2-0.1,0.2C178,108.7,177.9,108.7,177.8,108.7
				z M177.1,108.6C177.1,108.6,177.1,108.6,177.1,108.6c-0.2-0.1-0.3-0.1-0.4-0.2c-0.1,0-0.1-0.1-0.1-0.2c0-0.1,0.1-0.1,0.2-0.1
				c0.1,0,0.2,0.1,0.3,0.1c0.1,0,0.1,0.1,0.1,0.2C177.3,108.6,177.2,108.6,177.1,108.6z M178.7,108.6c-0.1,0-0.1,0-0.1-0.1
				c0-0.1,0-0.2,0.1-0.2c0.1,0,0.2-0.1,0.3-0.1c0.1-0.1,0.2,0,0.2,0c0.1,0.1,0,0.2,0,0.2C179,108.4,178.9,108.5,178.7,108.6
				C178.7,108.5,178.7,108.6,178.7,108.6z M176.4,108.1c0,0-0.1,0-0.1-0.1c-0.1-0.1-0.1-0.2-0.2-0.3c0-0.1,0-0.2,0.1-0.2
				c0.1,0,0.2,0,0.2,0.1c0.1,0.1,0.1,0.2,0.2,0.2c0.1,0.1,0.1,0.2,0,0.2C176.4,108.1,176.4,108.1,176.4,108.1z M179.4,108
				C179.4,108,179.4,107.9,179.4,108c-0.2-0.1-0.2-0.2-0.1-0.3c0.1-0.1,0.1-0.2,0.2-0.2c0-0.1,0.1-0.1,0.2-0.1
				c0.1,0,0.1,0.1,0.1,0.2c-0.1,0.1-0.1,0.2-0.2,0.3C179.5,107.9,179.5,108,179.4,108z M175.9,107.2c-0.1,0-0.1,0-0.2-0.1
				c0-0.1,0-0.2-0.1-0.3c0-0.1,0.1-0.2,0.1-0.2c0.1,0,0.2,0.1,0.2,0.1c0,0.1,0,0.2,0,0.3C176.1,107.1,176,107.2,175.9,107.2
				C175.9,107.2,175.9,107.2,175.9,107.2z M179.8,107.1C179.8,107.1,179.8,107.1,179.8,107.1c-0.1,0-0.2-0.1-0.2-0.2
				c0-0.1,0-0.2,0-0.3c0-0.1,0.1-0.2,0.2-0.2c0.1,0,0.2,0.1,0.2,0.2h-0.2l0.2,0c0,0.1,0,0.2,0,0.4C180,107,179.9,107.1,179.8,107.1z
				 M175.9,106.3C175.9,106.3,175.9,106.3,175.9,106.3c-0.1,0-0.2-0.1-0.2-0.2c0-0.1,0.1-0.2,0.1-0.3c0-0.1,0.1-0.1,0.2-0.1
				c0.1,0,0.1,0.1,0.1,0.2c0,0.1-0.1,0.2-0.1,0.3C176.1,106.2,176,106.3,175.9,106.3z M179.7,106.1c-0.1,0-0.1,0-0.2-0.1
				c0-0.1-0.1-0.2-0.1-0.3c0-0.1,0-0.2,0.1-0.2c0.1,0,0.2,0,0.2,0.1c0.1,0.1,0.1,0.2,0.1,0.3C179.9,106,179.9,106.1,179.7,106.1
				C179.8,106.1,179.7,106.1,179.7,106.1z M176.4,105.5c0,0-0.1,0-0.1,0c-0.1-0.1-0.1-0.2,0-0.2c0.1-0.1,0.2-0.2,0.2-0.2
				c0.1-0.1,0.2,0,0.2,0c0.1,0.1,0,0.2,0,0.2c-0.1,0.1-0.1,0.1-0.2,0.2C176.4,105.4,176.4,105.5,176.4,105.5z M179.2,105.3
				c0,0-0.1,0-0.1,0c-0.1-0.1-0.1-0.1-0.2-0.2c-0.1-0.1-0.1-0.2,0-0.2c0.1-0.1,0.2-0.1,0.2,0c0.1,0.1,0.2,0.1,0.3,0.2
				c0.1,0.1,0.1,0.2,0,0.2C179.3,105.3,179.3,105.3,179.2,105.3z M177.1,104.9c-0.1,0-0.1,0-0.2-0.1c0-0.1,0-0.2,0.1-0.2
				c0.1,0,0.2-0.1,0.3-0.1c0.1,0,0.2,0,0.2,0.1c0,0.1,0,0.2-0.1,0.2C177.4,104.8,177.3,104.9,177.1,104.9
				C177.2,104.9,177.2,104.9,177.1,104.9z M178.4,104.9C178.4,104.9,178.4,104.9,178.4,104.9c-0.1,0-0.2-0.1-0.3-0.1
				c-0.1,0-0.2-0.1-0.1-0.2c0-0.1,0.1-0.2,0.2-0.1c0.1,0,0.2,0,0.3,0.1c0.1,0,0.1,0.1,0.1,0.2C178.5,104.8,178.5,104.9,178.4,104.9z
				"/>
		</g>
		<g>
			<path fill="#C06C5F" d="M177.8,127.7c0,0-0.1,0-0.1,0c-0.1,0-0.3-0.1-0.2-0.3c0-0.1,0.1-0.3,0.3-0.3c0,0,0,0,0,0
				c0.2,0,0.3,0,0.5,0c0.1,0,0.3,0.1,0.3,0.2c0,0.1-0.1,0.3-0.2,0.3C178.1,127.7,178,127.7,177.8,127.7z M176.7,127.5
				C176.7,127.5,176.7,127.5,176.7,127.5c-0.3-0.1-0.4-0.2-0.6-0.3c-0.1-0.1-0.2-0.2-0.1-0.4c0.1-0.1,0.2-0.2,0.4-0.1
				c0.1,0.1,0.3,0.1,0.4,0.2c0.1,0.1,0.2,0.2,0.2,0.3C176.9,127.5,176.8,127.5,176.7,127.5z M179.2,127.4c-0.1,0-0.2-0.1-0.2-0.1
				c-0.1-0.1,0-0.3,0.1-0.3c0.1-0.1,0.3-0.1,0.4-0.2c0.1-0.1,0.3-0.1,0.4,0.1c0.1,0.1,0.1,0.3-0.1,0.4c-0.2,0.1-0.3,0.2-0.5,0.3
				C179.3,127.4,179.2,127.4,179.2,127.4z M175.5,126.7c-0.1,0-0.1,0-0.2-0.1c-0.1-0.1-0.2-0.3-0.3-0.4c-0.1-0.1,0-0.3,0.1-0.4
				c0.1-0.1,0.3,0,0.4,0.1c0.1,0.1,0.2,0.3,0.3,0.4c0.1,0.1,0.1,0.3,0,0.4C175.6,126.6,175.5,126.7,175.5,126.7z M180.4,126.5
				c-0.1,0-0.1,0-0.2-0.1c-0.1-0.1-0.1-0.2-0.1-0.4c0.1-0.1,0.2-0.3,0.3-0.4c0.1-0.1,0.2-0.2,0.4-0.1c0.1,0.1,0.2,0.2,0.1,0.4
				c-0.1,0.2-0.2,0.3-0.3,0.5C180.5,126.4,180.5,126.5,180.4,126.5z M174.8,125.3c-0.1,0-0.2-0.1-0.3-0.2c0-0.2-0.1-0.4-0.1-0.5
				c0-0.1,0.1-0.3,0.2-0.3c0.1,0,0.3,0.1,0.3,0.2c0,0.2,0,0.3,0.1,0.5C175.1,125.1,175,125.3,174.8,125.3
				C174.8,125.3,174.8,125.3,174.8,125.3z M181,125.1C181,125.1,180.9,125.1,181,125.1c-0.2,0-0.3-0.2-0.3-0.3c0-0.2,0-0.3,0-0.5
				c0-0.1,0.1-0.3,0.3-0.3c0.1,0,0.3,0.1,0.3,0.3H181l0.3,0c0,0.2,0,0.4,0,0.6C181.2,125,181.1,125.1,181,125.1z M174.8,123.8
				C174.8,123.8,174.7,123.8,174.8,123.8c-0.2,0-0.3-0.2-0.3-0.3c0-0.2,0.1-0.4,0.2-0.5c0.1-0.1,0.2-0.2,0.3-0.1
				c0.1,0.1,0.2,0.2,0.1,0.3c-0.1,0.1-0.1,0.3-0.1,0.4C175,123.7,174.9,123.8,174.8,123.8z M180.8,123.5c-0.1,0-0.2-0.1-0.2-0.2
				c-0.1-0.1-0.1-0.3-0.2-0.4c-0.1-0.1,0-0.3,0.1-0.4c0.1-0.1,0.3,0,0.4,0.1c0.1,0.2,0.2,0.3,0.2,0.5
				C181.1,123.3,181.1,123.5,180.8,123.5C180.9,123.5,180.9,123.5,180.8,123.5z M175.5,122.5c-0.1,0-0.1,0-0.2-0.1
				c-0.1-0.1-0.1-0.3,0-0.4c0.1-0.1,0.3-0.3,0.4-0.4c0.1-0.1,0.3-0.1,0.4,0c0.1,0.1,0.1,0.3,0,0.4c-0.1,0.1-0.2,0.2-0.3,0.3
				C175.6,122.4,175.5,122.5,175.5,122.5z M180,122.3c-0.1,0-0.1,0-0.2-0.1c-0.1-0.1-0.2-0.2-0.4-0.3c-0.1-0.1-0.1-0.2-0.1-0.4
				c0.1-0.1,0.2-0.1,0.4-0.1c0.2,0.1,0.3,0.2,0.4,0.3c0.1,0.1,0.1,0.3,0,0.4C180.2,122.2,180.1,122.3,180,122.3z M176.7,121.6
				c-0.1,0-0.2-0.1-0.2-0.2c-0.1-0.1,0-0.3,0.2-0.3c0.2-0.1,0.3-0.1,0.5-0.2c0.1,0,0.3,0.1,0.3,0.2c0,0.1-0.1,0.3-0.2,0.3
				C177.1,121.5,177,121.5,176.7,121.6C176.8,121.6,176.7,121.6,176.7,121.6z M178.7,121.5C178.7,121.5,178.7,121.5,178.7,121.5
				c-0.2-0.1-0.4-0.1-0.5-0.1c-0.1,0-0.2-0.1-0.2-0.3c0-0.1,0.1-0.2,0.3-0.2c0.2,0,0.4,0.1,0.5,0.1c0.1,0,0.2,0.2,0.2,0.3
				C178.9,121.4,178.8,121.5,178.7,121.5z"/>
		</g>
		<g>
			<circle fill="#C06C5F" cx="177.8" cy="124.3" r="1.1"/>
		</g>
		<g>
			<path fill="#C06C5F" d="M177.8,126.4C177.8,126.4,177.8,126.4,177.8,126.4c-0.2,0-0.2-0.1-0.2-0.2c0-0.1,0.1-0.2,0.2-0.2
				c0,0,0,0,0,0c0,0,0.1,0,0.1,0c0.1,0,0.1,0,0.2,0c0.1,0,0.2,0.1,0.2,0.1c0,0.1-0.1,0.2-0.1,0.2C178,126.4,177.9,126.4,177.8,126.4
				z M177.1,126.3C177.1,126.3,177.1,126.3,177.1,126.3c-0.2-0.1-0.3-0.1-0.4-0.2c-0.1,0-0.1-0.1-0.1-0.2c0-0.1,0.1-0.1,0.2-0.1
				c0.1,0,0.2,0.1,0.3,0.1c0.1,0,0.1,0.1,0.1,0.2C177.3,126.3,177.2,126.3,177.1,126.3z M178.7,126.3c-0.1,0-0.1,0-0.1-0.1
				c0-0.1,0-0.2,0.1-0.2c0.1,0,0.2-0.1,0.3-0.1c0.1-0.1,0.2,0,0.2,0c0.1,0.1,0,0.2,0,0.2C179,126.1,178.9,126.2,178.7,126.3
				C178.7,126.2,178.7,126.3,178.7,126.3z M176.4,125.8c0,0-0.1,0-0.1-0.1c-0.1-0.1-0.1-0.2-0.2-0.3c0-0.1,0-0.2,0.1-0.2
				c0.1,0,0.2,0,0.2,0.1c0.1,0.1,0.1,0.2,0.2,0.2c0.1,0.1,0.1,0.2,0,0.2C176.4,125.8,176.4,125.8,176.4,125.8z M179.4,125.7
				C179.4,125.7,179.4,125.6,179.4,125.7c-0.2-0.1-0.2-0.2-0.1-0.3c0.1-0.1,0.1-0.2,0.2-0.2c0-0.1,0.1-0.1,0.2-0.1
				c0.1,0,0.1,0.1,0.1,0.2c-0.1,0.1-0.1,0.2-0.2,0.3C179.5,125.6,179.5,125.7,179.4,125.7z M175.9,124.9c-0.1,0-0.1,0-0.2-0.1
				c0-0.1,0-0.2-0.1-0.3c0-0.1,0.1-0.2,0.1-0.2c0.1,0,0.2,0.1,0.2,0.1c0,0.1,0,0.2,0,0.3C176.1,124.8,176,124.9,175.9,124.9
				C175.9,124.9,175.9,124.9,175.9,124.9z M179.8,124.8C179.8,124.8,179.8,124.8,179.8,124.8c-0.1,0-0.2-0.1-0.2-0.2
				c0-0.1,0-0.2,0-0.3c0-0.1,0.1-0.2,0.2-0.2c0.1,0,0.2,0.1,0.2,0.2h-0.2l0.2,0c0,0.1,0,0.2,0,0.4
				C180,124.7,179.9,124.8,179.8,124.8z M175.9,124C175.9,124,175.9,124,175.9,124c-0.1,0-0.2-0.1-0.2-0.2c0-0.1,0.1-0.2,0.1-0.3
				c0-0.1,0.1-0.1,0.2-0.1c0.1,0,0.1,0.1,0.1,0.2c0,0.1-0.1,0.2-0.1,0.3C176.1,123.9,176,124,175.9,124z M179.7,123.8
				c-0.1,0-0.1,0-0.2-0.1c0-0.1-0.1-0.2-0.1-0.3c0-0.1,0-0.2,0.1-0.2c0.1,0,0.2,0,0.2,0.1c0.1,0.1,0.1,0.2,0.1,0.3
				C179.9,123.7,179.9,123.8,179.7,123.8C179.8,123.8,179.7,123.8,179.7,123.8z M176.4,123.2c0,0-0.1,0-0.1,0
				c-0.1-0.1-0.1-0.2,0-0.2c0.1-0.1,0.2-0.2,0.2-0.2c0.1-0.1,0.2,0,0.2,0c0.1,0.1,0,0.2,0,0.2c-0.1,0.1-0.1,0.1-0.2,0.2
				C176.4,123.1,176.4,123.2,176.4,123.2z M179.2,123c0,0-0.1,0-0.1,0c-0.1-0.1-0.1-0.1-0.2-0.2c-0.1-0.1-0.1-0.2,0-0.2
				c0.1-0.1,0.2-0.1,0.2,0c0.1,0.1,0.2,0.1,0.3,0.2c0.1,0.1,0.1,0.2,0,0.2C179.3,123,179.3,123,179.2,123z M177.1,122.6
				c-0.1,0-0.1,0-0.2-0.1c0-0.1,0-0.2,0.1-0.2c0.1,0,0.2-0.1,0.3-0.1c0.1,0,0.2,0,0.2,0.1c0,0.1,0,0.2-0.1,0.2
				C177.4,122.5,177.3,122.6,177.1,122.6C177.2,122.6,177.2,122.6,177.1,122.6z M178.4,122.6C178.4,122.6,178.4,122.6,178.4,122.6
				c-0.1,0-0.2-0.1-0.3-0.1c-0.1,0-0.2-0.1-0.1-0.2c0-0.1,0.1-0.2,0.2-0.1c0.1,0,0.2,0,0.3,0.1c0.1,0,0.1,0.1,0.1,0.2
				C178.5,122.5,178.5,122.6,178.4,122.6z"/>
		</g>
		<g>
			<path fill="#8A3E35" d="M186.6,131.4c0,0-0.1,0-0.1,0c-0.1,0-0.3-0.1-0.2-0.3c0-0.1,0.1-0.3,0.3-0.3c0,0,0,0,0,0
				c0.2,0,0.3,0,0.5,0c0.1,0,0.3,0.1,0.3,0.2c0,0.1-0.1,0.3-0.2,0.3C186.9,131.4,186.7,131.4,186.6,131.4z M185.5,131.2
				C185.4,131.2,185.4,131.2,185.5,131.2c-0.3-0.1-0.4-0.2-0.6-0.3c-0.1-0.1-0.2-0.2-0.1-0.4c0.1-0.1,0.2-0.2,0.4-0.1
				c0.1,0.1,0.3,0.1,0.4,0.2c0.1,0.1,0.2,0.2,0.2,0.3C185.7,131.1,185.6,131.2,185.5,131.2z M187.9,131.1c-0.1,0-0.2-0.1-0.2-0.1
				c-0.1-0.1,0-0.3,0.1-0.3c0.1-0.1,0.3-0.1,0.4-0.2c0.1-0.1,0.3-0.1,0.4,0.1s0.1,0.3-0.1,0.4c-0.2,0.1-0.3,0.2-0.5,0.3
				C188,131.1,188,131.1,187.9,131.1z M184.2,130.3c-0.1,0-0.1,0-0.2-0.1c-0.1-0.1-0.2-0.3-0.3-0.4c-0.1-0.1,0-0.3,0.1-0.4
				c0.1-0.1,0.3,0,0.4,0.1c0.1,0.1,0.2,0.3,0.3,0.4c0.1,0.1,0.1,0.3,0,0.4C184.3,130.3,184.3,130.3,184.2,130.3z M189.1,130.1
				c-0.1,0-0.1,0-0.2-0.1c-0.1-0.1-0.1-0.2-0.1-0.4c0.1-0.1,0.2-0.3,0.3-0.4c0.1-0.1,0.2-0.2,0.4-0.1c0.1,0.1,0.2,0.2,0.1,0.4
				c-0.1,0.2-0.2,0.3-0.3,0.5C189.3,130.1,189.2,130.1,189.1,130.1z M183.5,129c-0.1,0-0.2-0.1-0.3-0.2c0-0.2-0.1-0.4-0.1-0.5
				c0-0.1,0.1-0.3,0.2-0.3c0.1,0,0.3,0.1,0.3,0.2c0,0.2,0,0.3,0.1,0.5C183.8,128.8,183.7,129,183.5,129
				C183.6,129,183.5,129,183.5,129z M189.7,128.8C189.7,128.8,189.7,128.8,189.7,128.8c-0.2,0-0.3-0.2-0.3-0.3c0-0.2,0-0.3,0-0.5
				c0-0.1,0.1-0.3,0.3-0.3c0.1,0,0.3,0.1,0.3,0.3h-0.3l0.3,0c0,0.2,0,0.4,0,0.6C190,128.7,189.8,128.8,189.7,128.8z M183.5,127.5
				C183.5,127.5,183.5,127.5,183.5,127.5c-0.2,0-0.3-0.2-0.3-0.3c0-0.2,0.1-0.4,0.2-0.5c0.1-0.1,0.2-0.2,0.3-0.1
				c0.1,0.1,0.2,0.2,0.1,0.3c-0.1,0.1-0.1,0.3-0.1,0.4C183.7,127.4,183.6,127.5,183.5,127.5z M189.6,127.2c-0.1,0-0.2-0.1-0.2-0.2
				c-0.1-0.1-0.1-0.3-0.2-0.4c-0.1-0.1,0-0.3,0.1-0.4c0.1-0.1,0.3,0,0.4,0.1c0.1,0.2,0.2,0.3,0.2,0.5
				C189.9,127,189.8,127.2,189.6,127.2C189.6,127.2,189.6,127.2,189.6,127.2z M184.2,126.2c-0.1,0-0.1,0-0.2-0.1
				c-0.1-0.1-0.1-0.3,0-0.4c0.1-0.1,0.3-0.3,0.4-0.4c0.1-0.1,0.3-0.1,0.4,0c0.1,0.1,0.1,0.3,0,0.4c-0.1,0.1-0.2,0.2-0.3,0.3
				C184.4,126.1,184.3,126.2,184.2,126.2z M188.8,126c-0.1,0-0.1,0-0.2-0.1c-0.1-0.1-0.2-0.2-0.4-0.3c-0.1-0.1-0.1-0.2-0.1-0.4
				c0.1-0.1,0.2-0.1,0.4-0.1c0.2,0.1,0.3,0.2,0.4,0.3c0.1,0.1,0.1,0.3,0,0.4C188.9,125.9,188.8,126,188.8,126z M185.5,125.3
				c-0.1,0-0.2-0.1-0.2-0.2c-0.1-0.1,0-0.3,0.2-0.3c0.2-0.1,0.3-0.1,0.5-0.2c0.1,0,0.3,0.1,0.3,0.2c0,0.1-0.1,0.3-0.2,0.3
				C185.8,125.2,185.7,125.2,185.5,125.3C185.5,125.3,185.5,125.3,185.5,125.3z M187.5,125.2C187.4,125.2,187.4,125.2,187.5,125.2
				c-0.2-0.1-0.4-0.1-0.5-0.1c-0.1,0-0.2-0.1-0.2-0.3c0-0.1,0.1-0.2,0.3-0.2c0.2,0,0.4,0.1,0.5,0.1c0.1,0,0.2,0.2,0.2,0.3
				C187.7,125.1,187.6,125.2,187.5,125.2z"/>
		</g>
		<g>
			<circle fill="#8A3E35" cx="186.6" cy="128" r="1.1"/>
		</g>
		<g>
			<path fill="#8A3E35" d="M186.6,130.1C186.6,130.1,186.5,130.1,186.6,130.1c-0.2,0-0.2-0.1-0.2-0.2c0-0.1,0.1-0.2,0.2-0.2
				c0,0,0,0,0,0c0,0,0.1,0,0.1,0c0.1,0,0.1,0,0.2,0c0.1,0,0.2,0.1,0.2,0.1c0,0.1-0.1,0.2-0.1,0.2
				C186.8,130.1,186.7,130.1,186.6,130.1z M185.9,130C185.9,130,185.9,130,185.9,130c-0.2-0.1-0.3-0.1-0.4-0.2
				c-0.1,0-0.1-0.1-0.1-0.2c0-0.1,0.1-0.1,0.2-0.1c0.1,0,0.2,0.1,0.3,0.1c0.1,0,0.1,0.1,0.1,0.2C186,130,186,130,185.9,130z
				 M187.4,129.9c-0.1,0-0.1,0-0.1-0.1c0-0.1,0-0.2,0.1-0.2c0.1,0,0.2-0.1,0.3-0.1c0.1-0.1,0.2,0,0.2,0c0.1,0.1,0,0.2,0,0.2
				C187.7,129.8,187.6,129.9,187.4,129.9C187.5,129.9,187.5,129.9,187.4,129.9z M185.1,129.5c0,0-0.1,0-0.1-0.1
				c-0.1-0.1-0.1-0.2-0.2-0.3c0-0.1,0-0.2,0.1-0.2c0.1,0,0.2,0,0.2,0.1c0.1,0.1,0.1,0.2,0.2,0.2c0.1,0.1,0.1,0.2,0,0.2
				C185.2,129.5,185.1,129.5,185.1,129.5z M188.2,129.3C188.1,129.3,188.1,129.3,188.2,129.3c-0.2-0.1-0.2-0.2-0.1-0.3
				c0.1-0.1,0.1-0.2,0.2-0.2c0-0.1,0.1-0.1,0.2-0.1c0.1,0,0.1,0.1,0.1,0.2c-0.1,0.1-0.1,0.2-0.2,0.3
				C188.3,129.3,188.2,129.3,188.2,129.3z M184.7,128.6c-0.1,0-0.1,0-0.2-0.1c0-0.1,0-0.2-0.1-0.3c0-0.1,0.1-0.2,0.1-0.2
				c0.1,0,0.2,0.1,0.2,0.1c0,0.1,0,0.2,0,0.3C184.8,128.5,184.8,128.6,184.7,128.6C184.7,128.6,184.7,128.6,184.7,128.6z
				 M188.5,128.5C188.5,128.5,188.5,128.5,188.5,128.5c-0.1,0-0.2-0.1-0.2-0.2c0-0.1,0-0.2,0-0.3c0-0.1,0.1-0.2,0.2-0.2
				c0.1,0,0.2,0.1,0.2,0.2h-0.2l0.2,0c0,0.1,0,0.2,0,0.4C188.7,128.4,188.6,128.5,188.5,128.5z M184.7,127.7
				C184.7,127.7,184.6,127.7,184.7,127.7c-0.1,0-0.2-0.1-0.2-0.2c0-0.1,0.1-0.2,0.1-0.3c0-0.1,0.1-0.1,0.2-0.1
				c0.1,0,0.1,0.1,0.1,0.2c0,0.1-0.1,0.2-0.1,0.3C184.8,127.6,184.7,127.7,184.7,127.7z M188.5,127.5c-0.1,0-0.1,0-0.2-0.1
				c0-0.1-0.1-0.2-0.1-0.3c0-0.1,0-0.2,0.1-0.2c0.1,0,0.2,0,0.2,0.1c0.1,0.1,0.1,0.2,0.1,0.3C188.7,127.4,188.6,127.5,188.5,127.5
				C188.5,127.5,188.5,127.5,188.5,127.5z M185.1,126.8c0,0-0.1,0-0.1,0c-0.1-0.1-0.1-0.2,0-0.2c0.1-0.1,0.2-0.2,0.2-0.2
				c0.1-0.1,0.2,0,0.2,0c0.1,0.1,0,0.2,0,0.2c-0.1,0.1-0.1,0.1-0.2,0.2C185.2,126.8,185.1,126.8,185.1,126.8z M188,126.7
				c0,0-0.1,0-0.1,0c-0.1-0.1-0.1-0.1-0.2-0.2c-0.1-0.1-0.1-0.2,0-0.2c0.1-0.1,0.2-0.1,0.2,0c0.1,0.1,0.2,0.1,0.3,0.2
				c0.1,0.1,0.1,0.2,0,0.2C188,126.7,188,126.7,188,126.7z M185.9,126.3c-0.1,0-0.1,0-0.2-0.1c0-0.1,0-0.2,0.1-0.2
				c0.1,0,0.2-0.1,0.3-0.1c0.1,0,0.2,0,0.2,0.1c0,0.1,0,0.2-0.1,0.2C186.1,126.2,186,126.3,185.9,126.3
				C185.9,126.3,185.9,126.3,185.9,126.3z M187.1,126.2C187.1,126.2,187.1,126.2,187.1,126.2c-0.1,0-0.2-0.1-0.3-0.1
				c-0.1,0-0.2-0.1-0.1-0.2c0-0.1,0.1-0.2,0.2-0.1c0.1,0,0.2,0,0.3,0.1c0.1,0,0.1,0.1,0.1,0.2C187.3,126.2,187.2,126.2,187.1,126.2z
				"/>
		</g>
	</g>
	<g>
		<circle fill="#FFFFFF" stroke="#397C58" stroke-width="1.1243" stroke-miterlimit="10" cx="186.8" cy="166.1" r="18.3"/>
		<path fill="#397C58" d="M187.9,156.3c0.1-1.2,1.6-1.3,1.5-3c-0.1-1.7-1.7-2.7-1.7-2.7c1.3,0,1.5-1.8,1.5-1.8l-2.2-0.3l-0.3,0
			l-0.3,0l-2.2,0.3c0,0,0.2,1.8,1.5,1.8c0,0-1.6,1-1.7,2.7c-0.1,1.7,1.4,1.8,1.5,3c0.1,1.2-0.5,1.6-0.1,2.1c0.4,0.5,0.4,0.5,0.4,0.5
			s0.2,0.4,0.5,0.7c0.1,0.1,0.2,0.1,0.3,0.2c0.1,0,0.2-0.1,0.3-0.2c0.3-0.3,0.5-0.7,0.5-0.7s0,0,0.4-0.5
			C188.5,157.9,187.8,157.5,187.9,156.3z"/>
		<path fill="#397C58" d="M174.2,157.1c0,0-0.2,1.9,1,3c1.3,1.1,2.3,0,3.3,0.7c1,0.7,0.9,1.4,1.6,1.4c0.7,0,0.7,0,0.7,0
			s0.5,0.1,0.9,0c0.1,0,0.2-0.1,0.3-0.1c0-0.1,0-0.2,0-0.3c0-0.4-0.2-0.9-0.2-0.9s0,0-0.1-0.7c-0.1-0.7-0.8-0.4-1.7-1.3
			c-0.9-0.8,0-2.1-1.4-3.1c-1.4-1-3.1-0.3-3.1-0.3c0.8-1-0.4-2.3-0.4-2.3l-1.6,1.6l-0.2,0.2l-0.1,0.2l-1.2,1.9
			C171.8,157.2,173.3,158.1,174.2,157.1z"/>
		<path fill="#397C58" d="M177.5,169.1c1.2-0.4,1.7,0.2,2.1-0.4c0.4-0.6,0.4-0.6,0.4-0.6s0.4-0.3,0.6-0.7c0.1-0.1,0.1-0.2,0.1-0.3
			c-0.1-0.1-0.1-0.2-0.2-0.2c-0.4-0.3-0.8-0.4-0.8-0.4s0,0-0.6-0.3c-0.6-0.3-0.8,0.4-2.1,0.6c-1.2,0.2-1.7-1.3-3.3-0.8
			c-1.6,0.5-2.2,2.2-2.2,2.2c-0.3-1.3-2.1-1.1-2.1-1.1l0.2,2.2l0,0.3l0.1,0.3l0.8,2.1c0,0,1.7-0.6,1.4-1.9c0,0,1.3,1.3,3,1
			C176.6,171,176.3,169.5,177.5,169.1z"/>
		<path fill="#397C58" d="M184.4,173.2c-0.2-0.7-0.2-0.7-0.2-0.7s0-0.5-0.2-0.9c0-0.1-0.1-0.2-0.2-0.3c-0.1,0-0.2,0-0.3,0
			c-0.4,0.1-0.8,0.4-0.8,0.4s0,0-0.6,0.3c-0.6,0.3-0.2,0.9-0.8,2c-0.6,1.1-2,0.5-2.7,2.1c-0.7,1.6,0.4,3.1,0.4,3.1
			c-1.2-0.6-2.1,0.9-2.1,0.9l1.9,1.2l0.2,0.1l0.3,0.1l2.1,0.7c0,0,0.6-1.7-0.6-2.2c0,0,1.9-0.2,2.7-1.7c0.8-1.5-0.5-2.2-0.1-3.4
			C183.9,174,184.6,173.9,184.4,173.2z"/>
		<path fill="#397C58" d="M194.1,179.4c0,0,1-1.6,0.4-3.1c-0.7-1.6-2-1-2.7-2.1c-0.6-1.1-0.2-1.7-0.8-2c-0.6-0.3-0.6-0.3-0.6-0.3
			s-0.4-0.3-0.8-0.4c-0.1,0-0.2,0-0.3,0c-0.1,0.1-0.1,0.2-0.2,0.3c-0.2,0.4-0.2,0.9-0.2,0.9s0,0-0.2,0.7c-0.2,0.7,0.5,0.7,1,1.9
			c0.5,1.2-0.9,1.9,0,3.4c0.8,1.5,2.7,1.7,2.7,1.7c-1.2,0.6-0.6,2.2-0.6,2.2l2.1-0.7l0.3-0.1l0.2-0.1l1.9-1.2
			C196.2,180.3,195.3,178.8,194.1,179.4z"/>
		<path fill="#397C58" d="M201.8,168.5c0,0-0.6-1.8-2.2-2.2c-1.6-0.5-2,1-3.3,0.8c-1.2-0.2-1.4-0.9-2.1-0.6
			c-0.6,0.3-0.6,0.3-0.6,0.3s-0.5,0.1-0.8,0.4c-0.1,0.1-0.2,0.1-0.2,0.2c0,0.1,0.1,0.2,0.1,0.3c0.2,0.4,0.6,0.7,0.6,0.7s0,0,0.4,0.6
			c0.4,0.6,0.9,0,2.1,0.4c1.2,0.4,0.9,1.9,2.6,2.1c1.7,0.3,3-1,3-1c-0.3,1.3,1.4,1.9,1.4,1.9l0.8-2.1l0.1-0.3l0-0.3l0.2-2.2
			C203.9,167.4,202.1,167.2,201.8,168.5z"/>
		<path fill="#397C58" d="M191.8,162.3c0.4,0.1,0.9,0,0.9,0s0,0,0.7,0c0.7,0,0.6-0.7,1.6-1.4c1-0.7,2,0.4,3.3-0.7c1.3-1.1,1-3,1-3
			c0.8,1,2.3,0.1,2.3,0.1l-1.2-1.9l-0.1-0.2l-0.2-0.2l-1.6-1.6c0,0-1.3,1.2-0.4,2.3c0,0-1.8-0.6-3.1,0.3c-1.4,1-0.5,2.2-1.4,3.1
			c-0.9,0.8-1.6,0.6-1.7,1.3c-0.1,0.7-0.1,0.7-0.1,0.7s-0.2,0.4-0.2,0.9c0,0.1,0,0.2,0,0.3C191.6,162.3,191.7,162.3,191.8,162.3z"/>
		<polygon fill="none" stroke="#397C58" stroke-width="0.6672" stroke-miterlimit="10" points="187,163 189.7,160.5 189.4,164.2 
			193,164.7 190,166.8 191.8,169.9 188.3,168.9 187,172.3 185.6,168.9 182.1,169.9 184,166.8 181,164.7 184.6,164.2 184.3,160.5 		
			"/>
		<polygon fill="#006837" points="186.9,164.3 188.6,162.7 188.4,165 190.7,165.3 188.8,166.6 189.9,168.6 187.8,167.9 186.9,170.1 
			186.1,167.9 183.9,168.6 185,166.6 183.2,165.3 185.4,165 185.2,162.7 		"/>
	</g>
</g>
<g>
	<path fill="#7F3732" d="M217.9,321.7l27.7-32.9h31.1l0-0.1c1.6,0.2,4.6,0.2,10.2,0.3c6.1,0.1,15.2,0.1,26.8,0.1
		c19.6,0.1,46.9,0.1,81.2,0.2c54.3,0.1,109.3,0.1,117.1,0.1l36.8,32.3H217.9z"/>
	<path fill="#C06C5F" d="M276.7,291.2c0.8,0.1,1.7,0.1,2.6,0.1c1.7,0,4.3,0.1,7.6,0.1c6.2,0.1,15.2,0.1,26.8,0.1
		c19.6,0.1,47,0.1,81.2,0.2c52.5,0.1,105.6,0.1,116.2,0.1l31.1,27.3h-319l23.5-27.9L276.7,291.2L276.7,291.2 M276.7,286.2h-32.3
		l-31.9,37.9h343L513,286.8C513,286.8,276.1,286.8,276.7,286.2L276.7,286.2z"/>
</g>
<linearGradient id="SVGID_8_" gradientUnits="userSpaceOnUse" x1="382.3834" y1="262.6667" x2="382.3834" y2="232.6371">
	<stop  offset="0" style="stop-color:#000000"/>
	<stop  offset="1" style="stop-color:#212121"/>
</linearGradient>
<path fill="url(#SVGID_8_)" d="M493.7,268.3H271c-6.1,0-11.1-5-11.1-11.1v-5.7c0-6.1,5-11.1,11.1-11.1h222.7c6.1,0,11.1,5,11.1,11.1
	v5.7C504.9,263.3,499.9,268.3,493.7,268.3z"/>
<g>
	<circle cx="265" cy="235.7" r="21.7"/>
	<circle cx="501.9" cy="235.3" r="21.7"/>
	<circle fill="#353535" cx="265" cy="235.7" r="6.2"/>
	<circle fill="#353535" cx="501.4" cy="235.7" r="6.2"/>
	<polygon fill="#484542" points="517,303.4 487.8,303.4 485.3,295.7 519.5,295.7 	"/>
	<path d="M518.4,298.2h-32c-3.9,0-7.1-3.2-7.1-7.1v-27.2c0-3.9,3.2-7.1,7.1-7.1h32c3.9,0,7.1,3.2,7.1,7.1v27.2
		C525.4,295,522.3,298.2,518.4,298.2z"/>
	<polygon fill="#484542" points="280.2,303.4 251,303.4 248.5,295.7 282.7,295.7 	"/>
	<path d="M281.6,298.2h-32c-3.9,0-7.1-3.2-7.1-7.1v-27.2c0-3.9,3.2-7.1,7.1-7.1h32c3.9,0,7.1,3.2,7.1,7.1v27.2
		C288.7,295,285.5,298.2,281.6,298.2z"/>
	<path d="M471.3,298.2H296.9c-4.8,0-8.7-3.9-8.7-8.7v-19.6c0-4.8,3.9-8.7,8.7-8.7h174.4c4.8,0,8.7,3.9,8.7,8.7v19.6
		C480,294.2,476.1,298.2,471.3,298.2z"/>
</g>
<path fill="#534741" d="M214.2,250h-56c-2.8,0-5-2.3-5-5v-5.7c0-2.8,2.3-5,5-5h56c2.8,0,5,2.3,5,5v5.7
	C219.2,247.8,217,250,214.2,250z"/>
<g>
	<line fill="none" stroke="#998675" stroke-miterlimit="10" x1="162.5" y1="235.9" x2="162.5" y2="245.8"/>
	<line fill="none" stroke="#998675" stroke-miterlimit="10" x1="167.3" y1="235.9" x2="167.3" y2="245.8"/>
	<line fill="none" stroke="#998675" stroke-miterlimit="10" x1="172" y1="235.9" x2="172" y2="245.8"/>
	<line fill="none" stroke="#998675" stroke-miterlimit="10" x1="176.7" y1="235.9" x2="176.7" y2="245.8"/>
	<line fill="none" stroke="#998675" stroke-miterlimit="10" x1="181.5" y1="235.9" x2="181.5" y2="245.8"/>
	<line fill="none" stroke="#998675" stroke-miterlimit="10" x1="186.2" y1="235.9" x2="186.2" y2="245.8"/>
	<line fill="none" stroke="#998675" stroke-miterlimit="10" x1="190.9" y1="235.9" x2="190.9" y2="245.8"/>
	<line fill="none" stroke="#998675" stroke-miterlimit="10" x1="195.7" y1="235.9" x2="195.7" y2="245.8"/>
	<line fill="none" stroke="#998675" stroke-miterlimit="10" x1="200.4" y1="235.9" x2="200.4" y2="245.8"/>
	<line fill="none" stroke="#998675" stroke-miterlimit="10" x1="209.9" y1="235.9" x2="209.9" y2="245.8"/>
	<line fill="none" stroke="#998675" stroke-miterlimit="10" x1="214.6" y1="235.9" x2="214.6" y2="245.8"/>
	<line fill="none" stroke="#998675" stroke-miterlimit="10" x1="205.1" y1="235.9" x2="205.1" y2="245.8"/>
	<line fill="none" stroke="#998675" stroke-miterlimit="10" x1="157.8" y1="235.9" x2="157.8" y2="245.8"/>
</g>
<g>
	<path fill="#484542" d="M570.7,206.1c0,0-0.9,1.8,0.8,3.1c1.7,1.3,2.5,4.3,1.6,6.7c-0.9,2.5-1.5,4-6.5,4.1c-5,0.2-7.4-0.9-9-2.8
		c-1.6-2-1.8-5.5-1.2-6.6c0.6-1.1,2.5-1.3,2.9-3.6c0.4-2.2-0.5-2.3-1.2-3.2c-0.7-0.9,2.1-1.9,2.1-1.9s0-0.8,1-1.2
		c1-0.4,1.6-1.7,1.7-2.8s0.5-1.7,1.4-1.7c0.9-0.1,2.9-0.2,3.1,0.9c0.2,1.2,0.2,2.5,1,2.8c0.8,0.4,1.1,1.1,1.1,1.5c0,0.4,0,0.7,1,0.9
		s1.6,0.7,1.6,1.6C572.2,204.7,571,204.3,570.7,206.1z"/>
	<path fill="#484542" d="M568.9,206.3c0,0,4.2-2.1,7.8-2.2c3.6-0.1,3.9,1.8,3.9,3.4c0,1.6-1.2,3.1-2.8,4.8c-1.6,1.7-2.1,2.3-2.2,3.5
		c-0.1,1.2,0.6,2,0.1,2s-1.2-1.5-1.2-1.5l-2.8,0.5l0.9-4.1c0,0,1,1.1,2.8-0.2c1.7-1.3,4.8-4.1,3.8-5.9c-1-1.8-3.2-0.4-4.3,0.2
		c-1.1,0.6-1.4-0.2-2.2,0.5c-0.8,0.6-1.7,1.6-1.8,2.2C570.6,210,568.9,206.3,568.9,206.3z"/>
	<path fill="#484542" d="M558.2,209.7c0,0-3.7,1.3-4.2-0.4c-0.5-1.7-0.9-3.2-0.9-4.5c0.1-1.3-0.3-1.3-1.4-1.3c-1.1,0-2.7-0.2-3.1,0
		c-0.4,0.2,2.1,0.9,2.5,1.8s0.5,3.2,0.6,4.8c0.1,1.6,0.2,4,5.3,3.8"/>
	<path fill="#484542" d="M558,217.5c0,0,0.4,1.4-0.1,2.6c-0.5,1.2-0.5,1.8,0.6,1.5s-0.2-2.8,1.8-3.2"/>
	<path fill="#484542" d="M571.8,217.5c0,0-0.4,1.4,0.1,2.6c0.5,1.2,0.5,1.8-0.6,1.5c-1-0.3,0.2-2.8-1.8-3.2"/>
</g>
<g>
	<g>
		<path fill="#998675" d="M513.7,94.3c-0.6-4.1,8.8-5.3,8.2-14.1s-6.5-10.6-11.7-12.3c-4.9-1.6-3.7-8.8-12.9-9.8l0-0.1
			c-0.4,0-0.8,0-1.2,0c-0.4,0-0.8,0-1.2,0l0,0.1c-9.1,1.1-8,8.2-12.9,9.8c-5.3,1.8-11.1,3.5-11.7,12.3s8.8,10,8.2,14.1
			c-0.6,4.1-6.5,9.4-6.5,9.4v68h10.5h27h10.5v-68C520.2,103.7,514.3,98.4,513.7,94.3z"/>
		<rect x="492.8" y="167.8" fill="#D7A574" width="6.2" height="3.9"/>
		<path fill="#63231B" d="M476.7,164.8c1.8,2.1,9.8,3.6,19.3,3.6c9.5,0,17.4-1.6,19.3-3.6H476.7z"/>
		<path fill="#D7A574" d="M515.1,165.6h-38.3c-0.4,0-0.7-0.3-0.7-0.7v0c0-0.4,0.3-0.7,0.7-0.7h38.3c0.4,0,0.7,0.3,0.7,0.7v0
			C515.8,165.3,515.5,165.6,515.1,165.6z"/>
		<path fill="#DADADA" d="M504.1,136.9h-15.4c0,0,2,1.2,1.7,4.2c-0.3,3-5.7,8.1-5.4,14.4s5.4,8.7,5.4,8.7H503c0,0,4.5-6.3,2.1-13.2
			c-2.4-6.9-6.9-6.9-3.9-9.9C504.2,138.1,504.1,136.9,504.1,136.9z"/>
		<path fill="#DADADA" d="M491,144c0,0-0.8-4.8-6.4-2.9s-4.6,6.1-3.5,8.6c1.1,2.5,3.8,5.4,4.1,6.9c0.3,1.4,1.9-3.7,1.9-3.7
			s-5.9-4.1-4-7.3s4.9-3.2,6.2-0.5"/>
	</g>
	<g>
		<path fill="#998675" d="M289.4,94.3c-0.6-4.1,8.8-5.3,8.2-14.1s-6.5-10.6-11.7-12.3c-4.9-1.6-3.7-8.8-12.9-9.8l0-0.1
			c-0.4,0-0.8,0-1.2,0c-0.4,0-0.8,0-1.2,0l0,0.1c-9.1,1.1-8,8.2-12.9,9.8c-5.3,1.8-11.1,3.5-11.7,12.3c-0.6,8.8,8.8,10,8.2,14.1
			c-0.6,4.1-6.5,9.4-6.5,9.4v68h10.5h27h10.5v-68C295.9,103.7,290,98.4,289.4,94.3z"/>
		<rect x="268.9" y="167.8" fill="#D7A574" width="6.2" height="3.9"/>
		<path fill="#63231B" d="M252.8,164.8c1.8,2.1,9.8,3.6,19.3,3.6s17.4-1.6,19.3-3.6H252.8z"/>
		<path fill="#D7A574" d="M291.2,165.6h-38.3c-0.4,0-0.7-0.3-0.7-0.7v0c0-0.4,0.3-0.7,0.7-0.7h38.3c0.4,0,0.7,0.3,0.7,0.7v0
			C291.9,165.3,291.6,165.6,291.2,165.6z"/>
		<path fill="#DADADA" d="M263.7,136.9H279c0,0-2,1.2-1.7,4.2c0.3,3,5.7,8.1,5.4,14.4c-0.3,6.3-5.4,8.7-5.4,8.7h-12.6
			c0,0-4.5-6.3-2.1-13.2c2.4-6.9,6.9-6.9,3.9-9.9C263.5,138.1,263.7,136.9,263.7,136.9z"/>
		<path fill="#DADADA" d="M276.8,144c0,0,0.8-4.8,6.4-2.9c5.6,1.9,4.6,6.1,3.5,8.6s-3.8,5.4-4.1,6.9c-0.3,1.4-1.9-3.7-1.9-3.7
			s5.9-4.1,4-7.3s-4.9-3.2-6.2-0.5"/>
	</g>
</g>
<g>
	<linearGradient id="SVGID_9_" gradientUnits="userSpaceOnUse" x1="565.7995" y1="89.2459" x2="565.7995" y2="55.629">
		<stop  offset="0" style="stop-color:#DADADA"/>
		<stop  offset="1" style="stop-color:#B6B6B6"/>
	</linearGradient>
	<polygon fill="url(#SVGID_9_)" points="554.4,49.5 566,46.8 577.3,50.1 576.5,77.9 554.3,78 	"/>
	<rect x="569.2" y="60" fill="#F9F5DF" width="2.4" height="12.8"/>
	<rect x="559.6" y="60" fill="#F9F5DF" width="2.4" height="12.8"/>
	<linearGradient id="SVGID_10_" gradientUnits="userSpaceOnUse" x1="565.6466" y1="29.5" x2="565.6466" y2="0.7402">
		<stop  offset="0" style="stop-color:#484542"/>
		<stop  offset="0.8961" style="stop-color:#484542;stop-opacity:0.1039"/>
		<stop  offset="1" style="stop-color:#484542;stop-opacity:0"/>
	</linearGradient>
	<rect x="565.1" y="0" fill="url(#SVGID_10_)" width="1.2" height="35.6"/>
	<polygon fill="#484542" points="555.4,86.2 553.2,84.2 553.2,47.8 555.4,47.8 	"/>
	<polygon fill="#484542" points="576,86.2 578.2,84.2 578.2,47.8 576,47.8 	"/>
	<rect x="554.9" y="77.2" fill="#484542" width="22.3" height="2.2"/>
	<polygon fill="#484542" points="554.4,48 554.4,50.2 565.6,47.8 565.6,45.5 	"/>
	<polygon fill="#484542" points="576.7,48 565.6,45.5 565.6,47.8 576.7,50.2 	"/>
	<rect x="559" y="72.4" fill="#484542" width="3.6" height="5.9"/>
	<rect x="568.7" y="72.4" fill="#484542" width="3.6" height="5.9"/>
	<path fill="#484542" d="M555,48.8c-1,0-2-0.2-2.7-0.7c-0.6-0.5-1-1.1-1.1-2c-0.1-2.2,1.1-3,1.9-3.3c1.4-0.6,3.2-0.3,4,0.6
		c0.6,0.6,0.7,1.4,0.4,2c-0.4,0.8-1.3,1.4-2.4,1.4c-1.2,0-1.5-0.6-1.6-0.9c-0.2-0.4,0-0.9,0.3-1.2c0.2-0.2,0.5-0.2,0.7,0
		c0.2,0.2,0.2,0.5,0,0.7c0,0-0.1,0.1-0.1,0.1c0,0.1,0.3,0.2,0.7,0.2c0.7,0,1.3-0.3,1.5-0.8c0.1-0.3,0.1-0.6-0.2-1
		c-0.5-0.5-1.8-0.8-2.9-0.3c-0.9,0.4-1.4,1.2-1.3,2.4c0,0.5,0.2,0.9,0.6,1.2c1.3,0.9,4.4,0.3,5.5,0c0.3-0.1,0.5,0.1,0.6,0.3
		c0.1,0.3-0.1,0.5-0.3,0.6C558.5,48.3,556.7,48.8,555,48.8z"/>
	<path fill="#484542" d="M552.5,78.9c-0.7,0-1.4-0.1-1.9-0.5c-0.5-0.3-0.7-0.8-0.7-1.4c-0.1-1.5,0.8-2.1,1.3-2.3
		c1-0.4,2.2-0.2,2.8,0.4c0.4,0.4,0.5,0.9,0.3,1.4c-0.3,0.6-0.9,1-1.7,1h0c-0.8,0-1.1-0.4-1.1-0.6c-0.1-0.3,0-0.6,0.2-0.8
		c0.1-0.1,0.4-0.1,0.5,0c0.1,0.1,0.1,0.4,0,0.5c0,0,0,0,0,0.1c0,0.1,0.2,0.2,0.5,0.2h0c0.5,0,0.9-0.2,1-0.6c0.1-0.2,0-0.5-0.2-0.7
		c-0.3-0.4-1.3-0.5-2-0.2c-0.6,0.3-1,0.8-0.9,1.7c0,0.4,0.2,0.7,0.4,0.9c0.9,0.7,3.1,0.2,3.9,0c0.2-0.1,0.4,0,0.4,0.2
		c0.1,0.2,0,0.4-0.2,0.4C555,78.6,553.7,78.9,552.5,78.9z"/>
	<path fill="#484542" d="M578.9,78.9c-1.2,0-2.5-0.4-2.6-0.4c-0.2-0.1-0.3-0.2-0.2-0.4c0.1-0.2,0.3-0.3,0.4-0.2
		c0.8,0.2,2.9,0.7,3.9,0c0.3-0.2,0.4-0.5,0.4-0.9c0-0.8-0.3-1.4-0.9-1.7c-0.7-0.3-1.7-0.1-2,0.2c-0.2,0.2-0.3,0.5-0.2,0.7
		c0.1,0.3,0.6,0.6,1,0.6h0c0.3,0,0.5-0.1,0.5-0.2c0,0,0-0.1,0-0.1c-0.1-0.1-0.2-0.3,0-0.5c0.1-0.1,0.3-0.2,0.5,0
		c0.3,0.2,0.3,0.6,0.2,0.8c-0.1,0.2-0.3,0.6-1.1,0.6h0c-0.7,0-1.4-0.4-1.7-1c-0.2-0.5-0.1-1,0.3-1.4c0.6-0.6,1.8-0.8,2.8-0.4
		c0.5,0.2,1.4,0.8,1.3,2.3c0,0.6-0.3,1.1-0.7,1.4C580.2,78.8,579.5,78.9,578.9,78.9z"/>
	<path fill="#484542" d="M576.8,48.8c-1.8,0-3.5-0.5-3.6-0.6c-0.3-0.1-0.4-0.4-0.3-0.6c0.1-0.3,0.4-0.4,0.6-0.3c1.1,0.3,4.2,1,5.5,0
		c0.4-0.3,0.6-0.7,0.6-1.2c0.1-1.2-0.4-2-1.3-2.4c-1-0.4-2.4-0.2-2.9,0.3c-0.3,0.3-0.4,0.6-0.2,1c0.2,0.5,0.8,0.8,1.5,0.8
		c0.5,0,0.7-0.1,0.7-0.2c0,0,0-0.1-0.1-0.1c-0.2-0.2-0.2-0.5,0-0.7c0.2-0.2,0.5-0.2,0.7,0c0.4,0.3,0.5,0.8,0.3,1.2
		c-0.1,0.3-0.5,0.9-1.6,0.9c-1.1,0-2-0.6-2.4-1.4c-0.3-0.7-0.2-1.4,0.4-2c0.8-0.9,2.6-1.1,4-0.6c0.8,0.3,2,1.2,1.9,3.3
		c-0.1,0.9-0.4,1.5-1.1,2C578.8,48.6,577.8,48.8,576.8,48.8z"/>
	<path fill="#484542" d="M556.7,48.8c-0.2,0-0.4-0.1-0.5-0.3c-0.1-0.3,0.1-0.5,0.3-0.6c2-0.6,2.3-2.1,2.6-4.1
		c0.1-0.7,0.3-1.5,0.5-2.2c1-3.1,5.4-3.6,5.6-3.6c0.1,0,0.3,0,0.4,0.1c0.1,0.1,0.2,0.2,0.2,0.4v8.4c0,0.3-0.2,0.5-0.5,0.5
		s-0.5-0.2-0.5-0.5v-7.8c-1.1,0.2-3.6,0.9-4.2,2.8c-0.2,0.7-0.3,1.4-0.5,2.1c-0.4,2.1-0.7,4.1-3.3,4.9
		C556.8,48.8,556.8,48.8,556.7,48.8z"/>
	<path fill="#484542" d="M574.2,48.8c0,0-0.1,0-0.2,0c-2.6-0.8-2.9-2.8-3.3-4.9c-0.1-0.7-0.3-1.4-0.5-2.1c-0.6-1.9-3.1-2.6-4.2-2.8
		v7.8c0,0.3-0.2,0.5-0.5,0.5s-0.5-0.2-0.5-0.5v-8.4c0-0.1,0.1-0.3,0.2-0.4s0.2-0.1,0.4-0.1c0.2,0,4.7,0.4,5.6,3.6
		c0.2,0.8,0.4,1.5,0.5,2.2c0.4,2,0.6,3.5,2.6,4.1c0.3,0.1,0.4,0.4,0.3,0.6C574.6,48.6,574.4,48.8,574.2,48.8z"/>
	<polygon fill="#484542" points="568.4,38.9 562.6,38.9 563.2,31.7 567.8,31.7 	"/>
	<path fill="#484542" d="M566.5,24.7h-3.4c0,0-1.4-3.3-4.6-3.8c0,0,3.3-0.3,5,1.3c0,0-0.5-2.4-3.3-3.1c0.1-0.1,4.3,0.1,5.7,3"/>
	<path fill="#484542" d="M565,24.7h3.4c0,0,1.4-3.3,4.6-3.8c0,0-3.3-0.3-5,1.3c0,0,0.5-2.4,3.3-3.1c-0.1-0.1-4.3,0.1-5.7,3"/>
</g>
<g>
	<g>
		<path fill="#397C58" d="M264.3,161.3c-0.1,0-0.3,0-0.4-0.2c-0.1-0.1-0.1-0.2-0.1-0.3c0-0.1,0-0.3,0.1-0.4c0.2-0.2,0.5-0.2,0.7,0
			c0.1,0.1,0.1,0.2,0.1,0.4s-0.1,0.3-0.1,0.3C264.5,161.3,264.4,161.3,264.3,161.3z"/>
	</g>
	<g>
		<path fill="#397C58" d="M277,160.8c0-0.3,0.2-0.5,0.5-0.5l0,0c0.3,0,0.5,0.2,0.5,0.5l0,0c0,0.3-0.2,0.5-0.5,0.5l0,0
			C277.2,161.3,277,161.1,277,160.8z M275.1,160.8c0-0.3,0.2-0.5,0.5-0.5l0,0c0.3,0,0.5,0.2,0.5,0.5l0,0c0,0.3-0.2,0.5-0.5,0.5l0,0
			C275.3,161.3,275.1,161.1,275.1,160.8z M273.2,160.8c0-0.3,0.2-0.5,0.5-0.5l0,0c0.3,0,0.5,0.2,0.5,0.5l0,0c0,0.3-0.2,0.5-0.5,0.5
			l0,0C273.4,161.3,273.2,161.1,273.2,160.8z M271.3,160.8c0-0.3,0.2-0.5,0.5-0.5l0,0c0.3,0,0.5,0.2,0.5,0.5l0,0
			c0,0.3-0.2,0.5-0.5,0.5l0,0C271.5,161.3,271.3,161.1,271.3,160.8z M269.4,160.8c0-0.3,0.2-0.5,0.5-0.5l0,0c0.3,0,0.5,0.2,0.5,0.5
			l0,0c0,0.3-0.2,0.5-0.5,0.5l0,0C269.7,161.3,269.4,161.1,269.4,160.8z M267.5,160.8c0-0.3,0.2-0.5,0.5-0.5l0,0
			c0.3,0,0.5,0.2,0.5,0.5l0,0c0,0.3-0.2,0.5-0.5,0.5l0,0C267.8,161.3,267.5,161.1,267.5,160.8z M265.7,160.8c0-0.3,0.2-0.5,0.5-0.5
			l0,0c0.3,0,0.5,0.2,0.5,0.5l0,0c0,0.3-0.2,0.5-0.5,0.5l0,0C265.9,161.3,265.7,161.1,265.7,160.8z"/>
	</g>
	<g>
		<path fill="#397C58" d="M279.4,161.3c-0.1,0-0.3,0-0.3-0.2c-0.1-0.1-0.2-0.2-0.2-0.3s0.1-0.3,0.2-0.4c0.2-0.2,0.5-0.2,0.7,0
			c0.1,0.1,0.1,0.2,0.1,0.4s-0.1,0.3-0.1,0.4C279.6,161.3,279.5,161.3,279.4,161.3z"/>
	</g>
</g>
<g>
	<g>
		<path fill="#397C58" d="M263.3,158.6c-0.1,0-0.3-0.1-0.4-0.1c-0.1-0.1-0.1-0.2-0.1-0.4s0-0.3,0.1-0.4c0.2-0.2,0.5-0.2,0.7,0
			c0.1,0.1,0.1,0.2,0.1,0.4c0,0.1-0.1,0.3-0.1,0.4C263.6,158.5,263.4,158.6,263.3,158.6z"/>
	</g>
	<g>
		<path fill="#397C58" d="M277.9,158c0-0.3,0.2-0.5,0.5-0.5l0,0c0.3,0,0.5,0.2,0.5,0.5l0,0c0,0.3-0.2,0.5-0.5,0.5l0,0
			C278.1,158.6,277.9,158.3,277.9,158z M276,158c0-0.3,0.2-0.5,0.5-0.5l0,0c0.3,0,0.5,0.2,0.5,0.5l0,0c0,0.3-0.2,0.5-0.5,0.5l0,0
			C276.2,158.6,276,158.3,276,158z M274.1,158c0-0.3,0.2-0.5,0.5-0.5l0,0c0.3,0,0.5,0.2,0.5,0.5l0,0c0,0.3-0.2,0.5-0.5,0.5l0,0
			C274.4,158.6,274.1,158.3,274.1,158z M272.2,158c0-0.3,0.2-0.5,0.5-0.5l0,0c0.3,0,0.5,0.2,0.5,0.5l0,0c0,0.3-0.2,0.5-0.5,0.5l0,0
			C272.5,158.6,272.2,158.3,272.2,158z M270.4,158c0-0.3,0.2-0.5,0.5-0.5l0,0c0.3,0,0.5,0.2,0.5,0.5l0,0c0,0.3-0.2,0.5-0.5,0.5l0,0
			C270.6,158.6,270.4,158.3,270.4,158z M268.5,158c0-0.3,0.2-0.5,0.5-0.5l0,0c0.3,0,0.5,0.2,0.5,0.5l0,0c0,0.3-0.2,0.5-0.5,0.5l0,0
			C268.7,158.6,268.5,158.3,268.5,158z M266.6,158c0-0.3,0.2-0.5,0.5-0.5l0,0c0.3,0,0.5,0.2,0.5,0.5l0,0c0,0.3-0.2,0.5-0.5,0.5l0,0
			C266.8,158.6,266.6,158.3,266.6,158z M264.7,158c0-0.3,0.2-0.5,0.5-0.5l0,0c0.3,0,0.5,0.2,0.5,0.5l0,0c0,0.3-0.2,0.5-0.5,0.5l0,0
			C264.9,158.6,264.7,158.3,264.7,158z"/>
	</g>
	<g>
		<path fill="#397C58" d="M280.3,158.6c-0.1,0-0.3-0.1-0.4-0.1c-0.1-0.1-0.1-0.2-0.1-0.4s0-0.3,0.1-0.4c0.2-0.2,0.5-0.2,0.7,0
			c0.1,0.1,0.2,0.2,0.2,0.4c0,0.1-0.1,0.3-0.2,0.4C280.6,158.5,280.4,158.6,280.3,158.6z"/>
	</g>
</g>
<g>
	<g>
		<path fill="#397C58" d="M268.3,141.5c-0.1,0-0.3-0.1-0.4-0.1c-0.1-0.1-0.1-0.2-0.1-0.4c0-0.1,0-0.2,0.1-0.4c0.2-0.2,0.5-0.2,0.7,0
			c0.1,0.1,0.1,0.2,0.1,0.4c0,0.1-0.1,0.3-0.2,0.4C268.6,141.4,268.4,141.5,268.3,141.5z"/>
	</g>
	<g>
		<path fill="#397C58" d="M273.2,141c0-0.3,0.2-0.5,0.5-0.5l0,0c0.3,0,0.5,0.2,0.5,0.5l0,0c0,0.3-0.2,0.5-0.5,0.5l0,0
			C273.5,141.5,273.2,141.2,273.2,141z M271.4,141c0-0.3,0.2-0.5,0.5-0.5l0,0c0.3,0,0.5,0.2,0.5,0.5l0,0c0,0.3-0.2,0.5-0.5,0.5l0,0
			C271.7,141.5,271.4,141.2,271.4,141z M269.6,141c0-0.3,0.2-0.5,0.5-0.5l0,0c0.3,0,0.5,0.2,0.5,0.5l0,0c0,0.3-0.2,0.5-0.5,0.5l0,0
			C269.8,141.5,269.6,141.2,269.6,141z"/>
	</g>
	<g>
		<path fill="#397C58" d="M275.6,141.5c-0.1,0-0.3-0.1-0.4-0.2c-0.1-0.1-0.1-0.2-0.1-0.3c0-0.1,0.1-0.3,0.1-0.4
			c0.2-0.2,0.5-0.2,0.7,0c0.1,0.1,0.1,0.2,0.1,0.4c0,0.1-0.1,0.3-0.1,0.3C275.8,141.4,275.7,141.5,275.6,141.5z"/>
	</g>
</g>
<g>
	<g>
		<path fill="#397C58" d="M488.3,161.3c-0.1,0-0.3,0-0.4-0.1c-0.1-0.1-0.1-0.2-0.1-0.4s0-0.3,0.1-0.4c0.2-0.2,0.5-0.2,0.7,0
			c0.1,0.1,0.2,0.2,0.2,0.4s-0.1,0.3-0.2,0.4C488.5,161.3,488.4,161.3,488.3,161.3z"/>
	</g>
	<g>
		<path fill="#397C58" d="M501,160.8c0-0.3,0.2-0.5,0.5-0.5l0,0c0.3,0,0.5,0.2,0.5,0.5l0,0c0,0.3-0.2,0.5-0.5,0.5l0,0
			C501.2,161.3,501,161.1,501,160.8z M499.1,160.8c0-0.3,0.2-0.5,0.5-0.5l0,0c0.3,0,0.5,0.2,0.5,0.5l0,0c0,0.3-0.2,0.5-0.5,0.5l0,0
			C499.3,161.3,499.1,161.1,499.1,160.8z M497.2,160.8c0-0.3,0.2-0.5,0.5-0.5l0,0c0.3,0,0.5,0.2,0.5,0.5l0,0c0,0.3-0.2,0.5-0.5,0.5
			l0,0C497.4,161.3,497.2,161.1,497.2,160.8z M495.3,160.8c0-0.3,0.2-0.5,0.5-0.5l0,0c0.3,0,0.5,0.2,0.5,0.5l0,0
			c0,0.3-0.2,0.5-0.5,0.5l0,0C495.5,161.3,495.3,161.1,495.3,160.8z M493.4,160.8c0-0.3,0.2-0.5,0.5-0.5l0,0c0.3,0,0.5,0.2,0.5,0.5
			l0,0c0,0.3-0.2,0.5-0.5,0.5l0,0C493.7,161.3,493.4,161.1,493.4,160.8z M491.5,160.8c0-0.3,0.2-0.5,0.5-0.5l0,0
			c0.3,0,0.5,0.2,0.5,0.5l0,0c0,0.3-0.2,0.5-0.5,0.5l0,0C491.8,161.3,491.5,161.1,491.5,160.8z M489.7,160.8c0-0.3,0.2-0.5,0.5-0.5
			l0,0c0.3,0,0.5,0.2,0.5,0.5l0,0c0,0.3-0.2,0.5-0.5,0.5l0,0C489.9,161.3,489.7,161.1,489.7,160.8z"/>
	</g>
	<g>
		<path fill="#397C58" d="M503.4,161.3c-0.1,0-0.3,0-0.4-0.1c-0.1-0.1-0.1-0.2-0.1-0.4s0-0.3,0.1-0.4c0.2-0.2,0.5-0.2,0.7,0
			c0.1,0.1,0.2,0.2,0.2,0.4s-0.1,0.3-0.2,0.4C503.6,161.3,503.5,161.3,503.4,161.3z"/>
	</g>
</g>
<g>
	<g>
		<path fill="#397C58" d="M487.3,158.6c-0.1,0-0.3-0.1-0.4-0.1c-0.1-0.1-0.1-0.2-0.1-0.4c0-0.1,0-0.3,0.1-0.4c0.2-0.2,0.5-0.2,0.7,0
			c0.1,0.1,0.2,0.2,0.2,0.4c0,0.1-0.1,0.2-0.2,0.4C487.5,158.5,487.4,158.6,487.3,158.6z"/>
	</g>
	<g>
		<path fill="#397C58" d="M501.9,158c0-0.3,0.2-0.5,0.5-0.5l0,0c0.3,0,0.5,0.2,0.5,0.5l0,0c0,0.3-0.2,0.5-0.5,0.5l0,0
			C502.1,158.6,501.9,158.3,501.9,158z M500,158c0-0.3,0.2-0.5,0.5-0.5l0,0c0.3,0,0.5,0.2,0.5,0.5l0,0c0,0.3-0.2,0.5-0.5,0.5l0,0
			C500.2,158.6,500,158.3,500,158z M498.1,158c0-0.3,0.2-0.5,0.5-0.5l0,0c0.3,0,0.5,0.2,0.5,0.5l0,0c0,0.3-0.2,0.5-0.5,0.5l0,0
			C498.4,158.6,498.1,158.3,498.1,158z M496.2,158c0-0.3,0.2-0.5,0.5-0.5l0,0c0.3,0,0.5,0.2,0.5,0.5l0,0c0,0.3-0.2,0.5-0.5,0.5l0,0
			C496.5,158.6,496.2,158.3,496.2,158z M494.4,158c0-0.3,0.2-0.5,0.5-0.5l0,0c0.3,0,0.5,0.2,0.5,0.5l0,0c0,0.3-0.2,0.5-0.5,0.5l0,0
			C494.6,158.6,494.4,158.3,494.4,158z M492.5,158c0-0.3,0.2-0.5,0.5-0.5l0,0c0.3,0,0.5,0.2,0.5,0.5l0,0c0,0.3-0.2,0.5-0.5,0.5l0,0
			C492.7,158.6,492.5,158.3,492.5,158z M490.6,158c0-0.3,0.2-0.5,0.5-0.5l0,0c0.3,0,0.5,0.2,0.5,0.5l0,0c0,0.3-0.2,0.5-0.5,0.5l0,0
			C490.8,158.6,490.6,158.3,490.6,158z M488.7,158c0-0.3,0.2-0.5,0.5-0.5l0,0c0.3,0,0.5,0.2,0.5,0.5l0,0c0,0.3-0.2,0.5-0.5,0.5l0,0
			C488.9,158.6,488.7,158.3,488.7,158z"/>
	</g>
	<g>
		<path fill="#397C58" d="M504.3,158.6c-0.1,0-0.3-0.1-0.3-0.1c-0.1-0.1-0.2-0.2-0.2-0.4c0-0.1,0-0.3,0.1-0.4c0.2-0.2,0.5-0.2,0.7,0
			c0.1,0.1,0.1,0.2,0.1,0.4c0,0.1,0,0.2-0.1,0.4C504.6,158.5,504.4,158.6,504.3,158.6z"/>
	</g>
</g>
<g>
	<g>
		<path fill="#397C58" d="M492.3,141.5c-0.1,0-0.3-0.1-0.4-0.2c-0.1-0.1-0.1-0.2-0.1-0.3c0-0.1,0-0.2,0.1-0.4c0.2-0.2,0.5-0.2,0.7,0
			c0.1,0.1,0.1,0.2,0.1,0.4c0,0.1,0,0.3-0.1,0.4C492.6,141.4,492.4,141.5,492.3,141.5z"/>
	</g>
	<g>
		<path fill="#397C58" d="M497.2,141c0-0.3,0.2-0.5,0.5-0.5l0,0c0.3,0,0.5,0.2,0.5,0.5l0,0c0,0.3-0.2,0.5-0.5,0.5l0,0
			C497.5,141.5,497.2,141.2,497.2,141z M495.4,141c0-0.3,0.2-0.5,0.5-0.5l0,0c0.3,0,0.5,0.2,0.5,0.5l0,0c0,0.3-0.2,0.5-0.5,0.5l0,0
			C495.7,141.5,495.4,141.2,495.4,141z M493.6,141c0-0.3,0.2-0.5,0.5-0.5l0,0c0.3,0,0.5,0.2,0.5,0.5l0,0c0,0.3-0.2,0.5-0.5,0.5l0,0
			C493.8,141.5,493.6,141.2,493.6,141z"/>
	</g>
	<g>
		<path fill="#397C58" d="M499.6,141.5c-0.1,0-0.2-0.1-0.3-0.1c-0.1-0.1-0.2-0.2-0.2-0.4c0-0.1,0-0.2,0.1-0.4c0.2-0.2,0.5-0.2,0.7,0
			c0.1,0.1,0.1,0.2,0.1,0.4c0,0.1,0,0.3-0.1,0.4C499.8,141.4,499.7,141.5,499.6,141.5z"/>
	</g>
</g>
<g>
	<g>
		<path fill="#E2E2E2" d="M574.9,224.7v79.8h1.1v-32.1c0,0,1.3-1.2,1.5-2.1s-2-1.2-1.8-3.2s1.5-2.4,2.6-2.8c1.1-0.4,0.8-2,2.9-2.2
			l0,0c0.1,0,0.2,0,0.3,0c0.1,0,0.2,0,0.3,0l0,0c2.1,0.2,1.8,1.8,2.9,2.2c1.2,0.4,2.5,0.8,2.6,2.8c0.1,2-2,2.2-1.8,3.2
			c0.1,0.9,1.5,2.1,1.5,2.1v32.1h0.9v-79.8H574.9z"/>
		<path fill="#E2E2E2" d="M542.7,224.7v79.8h1v-32.1c0,0,1.3-1.2,1.5-2.1c0.1-0.9-2-1.2-1.8-3.2c0.1-2,1.5-2.4,2.6-2.8
			c1.1-0.4,0.8-2,2.9-2.2l0,0c0.1,0,0.2,0,0.3,0c0.1,0,0.2,0,0.3,0l0,0c2.1,0.2,1.8,1.8,2.9,2.2c1.2,0.4,2.5,0.8,2.6,2.8
			s-2,2.2-1.8,3.2s1.5,2.1,1.5,2.1v32.1h1v-79.8H542.7z"/>
		<path fill="#E2E2E2" d="M558.7,224.7v79.8h1.1v-32.1c0,0,1.3-1.2,1.5-2.1c0.1-0.9-2-1.2-1.8-3.2s1.5-2.4,2.6-2.8
			c1.1-0.4,0.8-2,2.9-2.2l0,0c0.1,0,0.2,0,0.3,0c0.1,0,0.2,0,0.3,0l0,0c2.1,0.2,1.8,1.8,2.9,2.2c1.2,0.4,2.5,0.8,2.6,2.8
			s-2,2.2-1.8,3.2c0.1,0.9,1.5,2.1,1.5,2.1v32.1h1v-79.8H558.7z"/>
		<rect x="555.5" y="224.7" fill="#FFFFFF" width="3.2" height="79.8"/>
		<rect x="571.7" y="224.7" fill="#FFFFFF" width="3.2" height="79.8"/>
		<rect x="587.7" y="224.7" fill="#FFFFFF" width="3" height="79.8"/>
		<rect x="539.8" y="224.7" fill="#FFFFFF" width="2.9" height="79.8"/>
	</g>
	<rect x="534.6" y="221.5" fill="#FFFFFF" width="61.3" height="5.6"/>
</g>
<g>
	<polygon fill="#534741" points="582.9,254.5 581.3,251.1 579.7,254.5 581.3,258 	"/>
	<polygon fill="#534741" points="582.9,244.7 581.3,241.2 579.7,244.7 581.3,248.2 	"/>
	<polygon fill="#534741" points="582.9,234.9 581.3,231.4 579.7,234.9 581.3,238.4 	"/>
</g>
<g>
	<polygon fill="#534741" points="566.6,254.5 565,251.1 563.4,254.5 565,258 	"/>
	<polygon fill="#534741" points="566.6,244.7 565,241.2 563.4,244.7 565,248.2 	"/>
	<polygon fill="#534741" points="566.6,234.9 565,231.4 563.4,234.9 565,238.4 	"/>
</g>
<g>
	<polygon fill="#534741" points="550.8,254.5 549.2,251.1 547.6,254.5 549.2,258 	"/>
	<polygon fill="#534741" points="550.8,244.7 549.2,241.2 547.6,244.7 549.2,248.2 	"/>
	<polygon fill="#534741" points="550.8,234.9 549.2,231.4 547.6,234.9 549.2,238.4 	"/>
</g>
<g>
	<defs>
		<path id="SVGID_11_" d="M219.3,260.3v-13.3h-66v3.5c-0.1,0.3-0.1,0.6-0.1,0.9v30.6v3.2V297h8.7v-7.3h48.8v7.3h8.7v-14.8h-0.1
			L219.3,260.3L219.3,260.3z"/>
	</defs>
	<use xlink:href="#SVGID_11_"  overflow="visible" fill="#CCC3BA"/>
	<clipPath id="SVGID_12_">
		<use xlink:href="#SVGID_11_"  overflow="visible"/>
	</clipPath>
	<g clip-path="url(#SVGID_12_)">
		<g>
			<g>
				<path fill="#E0D4C6" d="M158.8,245.9c-1,7.2-0.3,14.5,1.3,21.5c2.1,9.2,4,18.3,5.1,27.7c0.1,0.6,1,0.6,0.9,0
					c-0.9-7.5-2.1-14.8-3.7-22.2c-2-8.9-4-17.6-2.7-26.8C159.8,245.6,158.9,245.3,158.8,245.9L158.8,245.9z"/>
			</g>
		</g>
		<g>
			<g>
				<path fill="#E0D4C6" d="M169.4,243c-0.4,3.6-1.7,7-1.7,10.6c-0.1,4.4-0.1,8.6,0.5,13c1.2,9.4,4.5,18.1,2.1,27.6
					c-0.1,0.6,0.7,0.8,0.9,0.2c2.1-8.3,0.1-16.2-1.5-24.5c-1-4.9-1.4-9.7-1.1-14.7c0.2-4.2,1.4-8.1,1.8-12.3
					C170.3,242.4,169.4,242.4,169.4,243L169.4,243z"/>
			</g>
		</g>
		<g>
			<g>
				<path fill="#E0D4C6" d="M176.1,292.6c2.4-4.9,0.9-13.2-0.1-18.4c-1.9-10.3,2.5-19,3-29.1c0-0.6-0.9-0.6-0.9,0
					c-0.4,8.4-3.9,16-3.6,24.5c0.1,3.7,1.2,7.3,1.3,10.9c0.2,3.4,1,8.4-0.5,11.6C175,292.6,175.8,293.1,176.1,292.6L176.1,292.6z"/>
			</g>
		</g>
		<g>
			<g>
				<path fill="#E0D4C6" d="M180.3,291.5c1.1-3.6,1-8.1,0.4-11.7c-0.6-3.3-0.9-6.1,0-9.4c0.5-1.6,1.2-3.2,1.8-4.7
					c0.6-1.4-0.2-2-0.1-0.2c0.3,4.2,0,7.8,1.4,11.8c1.2,3.4,1.3,6.9,0.8,10.4c-0.3,1.8-1.4,3.7-1.3,5.5c0,0.6,0.9,0.6,0.9,0
					c-0.1-2,1.2-4.6,1.4-6.7c0.4-2.5,0.1-4.8-0.4-7.3c-0.6-2.9-1.8-5.2-1.8-8.2c0-2.5,0-4.9-0.3-7.4c-0.1-0.5-0.7-0.6-0.9-0.1
					c-1.3,4-3.3,7.8-3.1,12.1c0.2,5.3,2,10.4,0.3,15.7C179.3,291.8,180.2,292,180.3,291.5L180.3,291.5z"/>
			</g>
		</g>
		<g>
			<g>
				<path fill="#E0D4C6" d="M188,290.7c0.9-3.4,1.8-6.6,2.2-10.1c0.4-3.7-0.6-7.1-1-10.7c-0.5-4-2.2-7.7-2.5-11.8
					c-0.4-5.1,0-10.2,0.2-15.3c0-0.6-0.9-0.6-0.9,0c-0.2,8.1-0.6,15.7,1.3,23.6c0.9,3.9,1.9,7.4,2.2,11.4c0.3,4.3-1.2,8.6-2.2,12.7
					C187,291.1,187.9,291.3,188,290.7L188,290.7z"/>
			</g>
		</g>
		<g>
			<g>
				<path fill="#E0D4C6" d="M189.1,244.5c0.1,7.3,2.4,14.3,2.5,21.4c0,0.5,0.7,0.6,0.9,0.1c1.1-3,0.9-6.5,1.4-9.6
					c0.6-3.7,1.7-7.6,2.8-11.2c0.2-0.6-0.7-0.8-0.9-0.2c-1,3.2-1.7,6.6-2.5,9.8c-0.9,3.5-0.4,7.6-1.7,11c0.3,0,0.6,0.1,0.9,0.1
					c-0.1-7.2-2.4-14.2-2.5-21.4C190,243.9,189.1,243.9,189.1,244.5L189.1,244.5z"/>
			</g>
		</g>
		<g>
			<g>
				<path fill="#E0D4C6" d="M198.1,244.3c0,4.2-1.3,8.3-1.8,12.5c-0.5,3.6-0.8,7.3-1.1,11c-0.6,8.1,0.2,15.3,1.4,23.3
					c0.1,0.6,1,0.3,0.9-0.2c-1.2-7.8-1.8-15.1-1.3-23c0.5-7.8,2.9-15.7,3-23.5C199,243.7,198.1,243.7,198.1,244.3L198.1,244.3z"/>
			</g>
		</g>
		<g>
			<g>
				<path fill="#E0D4C6" d="M203.3,291.6c-0.4-7.3-0.6-14.1,0.1-21.5c0.8-8.1,1.2-15.6,0.8-23.7c0-0.6-0.9-0.6-0.9,0
					c0.4,7.5,0.3,14.3-0.6,21.8c-0.9,8-0.8,15.5-0.3,23.5C202.5,292.2,203.4,292.2,203.3,291.6L203.3,291.6z"/>
			</g>
		</g>
		<g>
			<g>
				<path fill="#E0D4C6" d="M206.7,245.9c2.4,7.4,1.8,17.1,0.6,24.7c-0.6,3.8-0.7,7.7-0.9,11.6c-0.2,2.8-0.5,6.2,0.4,9
					c0.2,0.5,1.1,0.3,0.9-0.2c-1.1-3.3-0.5-7.3-0.3-10.6c0.2-4.3,0.7-8.5,1.3-12.8c0.8-6.8,1-15.3-1.1-21.8
					C207.4,245.1,206.5,245.3,206.7,245.9L206.7,245.9z"/>
			</g>
		</g>
		<g>
			<g>
				<path fill="#E0D4C6" d="M209.4,291.4c1.1-2.7,1.1-5.6,2.4-8.3c1-2.2,2.8-3.9,4.1-6c2.3-3.5,3.8-7.8,4.9-11.8
					c0.1-0.6-0.7-0.8-0.9-0.2c-1.4,5.2-3.6,9.6-6.7,14c-2.8,4-3.1,7.7-4.7,12.1C208.3,291.7,209.2,291.9,209.4,291.4L209.4,291.4z"
					/>
			</g>
		</g>
		<g>
			<g>
				<path fill="#E0D4C6" d="M211,245.1c0.9,3.8,2.5,7,2.8,11c0.3,3.2-0.3,6.4-0.2,9.6c0,0.5,0.6,0.6,0.8,0.2c3-4.8,6.1-9.6,8.6-14.7
					c0.2-0.5-0.5-1-0.8-0.5c-2.4,5.1-5.5,9.9-8.6,14.7c0.3,0.1,0.6,0.2,0.8,0.2c-0.1-3.7,0.4-7.3,0.1-11c-0.3-3.6-1.9-6.5-2.7-9.9
					C211.8,244.3,210.9,244.6,211,245.1L211,245.1z"/>
			</g>
		</g>
		<g>
			<g>
				<path fill="#E0D4C6" d="M221.1,278.5c-5.3,6.1-8.5,12.2-9.1,20.3c0,0.6,0.9,0.6,0.9,0c0.6-7.8,3.7-13.8,8.8-19.7
					C222.1,278.7,221.5,278,221.1,278.5L221.1,278.5z"/>
			</g>
		</g>
		<g>
			<g>
				<path fill="#E0D4C6" d="M151,251.2c0.4,9.8,6.1,18.1,6.7,27.9c0.2,2.7,0.1,5.4,0.1,8.1c0,2.7,1,1.8,0.1-0.2
					c-2.3-4.8-5.3-9-7.4-13.9c-0.2-0.5-1-0.1-0.8,0.5c1.3,2.9,2.4,5.7,4.1,8.4c1.7,2.6,3.4,4.9,3.9,8.1c0.1,0.5,0.9,0.4,0.9-0.1
					c0.2-6.4,0.5-12.8-1.3-18.9c-1.9-6.7-5-12.6-5.3-19.8C151.9,250.6,151,250.6,151,251.2L151,251.2z"/>
			</g>
		</g>
		<g>
			<g>
				<path fill="#E0D4C6" d="M157.5,298.4c-0.2-5.9-3.7-10.6-7-15.3c-0.3-0.5-1.1,0-0.8,0.5c3.2,4.5,6.7,9.1,6.9,14.8
					C156.6,299,157.5,299,157.5,298.4L157.5,298.4z"/>
			</g>
		</g>
	</g>
</g>
<g>
	<polygon fill="#534741" points="167.3,264.2 160.9,267.2 167.3,270.2 173.8,267.2 	"/>
	<polygon fill="#534741" points="186.2,264.2 179.8,267.2 186.2,270.2 192.6,267.2 	"/>
	<polygon fill="#534741" points="205,264.2 198.6,267.2 205,270.2 211.5,267.2 	"/>
</g>
</svg>
