<?xml version="1.0" encoding="utf-8"?>
<!-- Generator: Adobe Illustrator 18.0.0, SVG Export Plug-In . SVG Version: 6.00 Build 0)  -->
<!DOCTYPE svg PUBLIC "-//W3C//DTD SVG 1.1//EN" "http://www.w3.org/Graphics/SVG/1.1/DTD/svg11.dtd">
<svg version="1.1" xmlns="http://www.w3.org/2000/svg" xmlns:xlink="http://www.w3.org/1999/xlink" x="0px" y="0px"
	 viewBox="0 0 768 417" enable-background="new 0 0 768 417" xml:space="preserve">
<g id="Layer_1">
	<g>
		<g>
			<path fill="#E7E3DE" d="M246.3,214.8v64.4h102v-64.4H246.3z M251.3,219.7h92.2v54.6h-92.2V219.7z"/>
			<path fill="#E7E3DE" d="M256.2,223.8v46.2h82.6v-46.2H256.2z M258.2,225.3h78.8v43.1h-78.8V225.3z"/>
		</g>
		<g>
			<path fill="#E7E3DE" d="M419.7,214.8v64.4h102v-64.4H419.7z M424.6,219.7h92.2v54.6h-92.2V219.7z"/>
			<path fill="#E7E3DE" d="M429.6,223.8v46.2h82.6v-46.2H429.6z M431.5,225.3h78.8v43.1h-78.8V225.3z"/>
		</g>
	</g>
	<linearGradient id="SVGID_1_" gradientUnits="userSpaceOnUse" x1="148" y1="196.7301" x2="620" y2="196.7301">
		<stop  offset="0" style="stop-color:#E7E3DE;stop-opacity:0"/>
		<stop  offset="0.5" style="stop-color:#E7E3DE"/>
		<stop  offset="0.9464" style="stop-color:#E7E3DE;stop-opacity:0.1072"/>
		<stop  offset="1" style="stop-color:#E7E3DE;stop-opacity:0"/>
	</linearGradient>
	<rect x="148" y="193" fill="url(#SVGID_1_)" width="472" height="7.5"/>
	<linearGradient id="SVGID_2_" gradientUnits="userSpaceOnUse" x1="148" y1="207.0055" x2="620" y2="207.0055">
		<stop  offset="0" style="stop-color:#E7E3DE;stop-opacity:0"/>
		<stop  offset="0.5" style="stop-color:#E7E3DE"/>
		<stop  offset="0.9464" style="stop-color:#E7E3DE;stop-opacity:0.1072"/>
		<stop  offset="1" style="stop-color:#E7E3DE;stop-opacity:0"/>
	</linearGradient>
	<rect x="148" y="205.6" fill="url(#SVGID_2_)" width="472" height="2.9"/>
	<g>
		<defs>
			<path id="SVGID_3_" d="M646,285.9c41.1,25.6,82.2,51.2,123.3,76.8H768c-40.9-25.6-81.9-51.2-122.8-76.8c-5.5,0-10.9,0-16.4,0
				c38.3,25.6,76.7,51.2,115,76.8h-1.3c-38.2-25.6-76.4-51.2-114.6-76.8c-5.5,0-10.9,0-16.4,0c35.6,25.6,71.2,51.2,106.8,76.8H717
				c-35.5-25.6-71-51.2-106.4-76.8c-5.5,0-10.9,0-16.4,0c32.9,25.6,65.8,51.2,98.6,76.8h-1.3c-32.7-25.6-65.5-51.2-98.2-76.8
				c-5.5,0-10.9,0-16.4,0c30.1,25.6,60.3,51.2,90.4,76.8h-1.3c-30-25.6-60-51.2-90-76.8c-5.5,0-10.9,0-16.4,0
				c27.4,25.6,54.8,51.2,82.2,76.8h-1.3c-27.3-25.6-54.6-51.2-81.8-76.8c-5.5,0-10.9,0-16.4,0c24.7,25.6,49.4,51.2,74,76.8h-1.3
				c-24.5-25.6-49.1-51.2-73.6-76.8c-5.5,0-10.9,0-16.4,0c21.9,25.6,43.9,51.2,65.8,76.8h-1.3c-21.8-25.6-43.6-51.2-65.4-76.8
				c-5.5,0-10.9,0-16.4,0c19.2,25.6,38.4,51.2,57.6,76.8h-1.3c-19.1-25.6-38.1-51.2-57.2-76.8c-5.5,0-10.9,0-16.4,0
				c16.5,25.6,32.9,51.2,49.4,76.8h-1.3c-16.3-25.6-32.7-51.2-49-76.8c-5.5,0-10.9,0-16.4,0c13.7,25.6,27.5,51.2,41.2,76.8h-1.3
				c-13.6-25.6-27.2-51.2-40.8-76.8c-5.5,0-10.9,0-16.4,0c11,25.6,22,51.2,33,76.8h-1.3c-10.9-25.6-21.7-51.2-32.6-76.8
				c-5.5,0-10.9,0-16.4,0c8.3,25.6,16.5,51.2,24.8,76.8h-1.3c-8.1-25.6-16.3-51.2-24.4-76.8c-5.5,0-10.9,0-16.4,0
				c5.5,25.6,11.1,51.2,16.6,76.8H437c-5.4-25.6-10.8-51.2-16.2-76.8c-5.5,0-10.9,0-16.4,0c2.8,25.6,5.6,51.2,8.4,76.8h-1.3
				c-2.7-25.6-5.3-51.2-8-76.8c-5.5,0-10.9,0-16.4,0c0.1,25.6,0.1,51.2,0.2,76.8H386c0.1-25.6,0.1-51.2,0.2-76.8
				c-5.5,0-10.9,0-16.4,0c-2.7,25.6-5.3,51.2-8,76.8h-1.3c2.8-25.6,5.6-51.2,8.4-76.8c-5.5,0-10.9,0-16.4,0
				c-5.4,25.6-10.8,51.2-16.2,76.8h-1.3c5.5-25.6,11.1-51.2,16.6-76.8c-5.5,0-10.9,0-16.4,0c-8.1,25.6-16.3,51.2-24.4,76.8h-1.3
				c8.3-25.6,16.5-51.2,24.8-76.8c-5.5,0-10.9,0-16.4,0c-10.9,25.6-21.7,51.2-32.6,76.8h-1.3c11-25.6,22-51.2,33-76.8
				c-5.5,0-10.9,0-16.4,0c-13.6,25.6-27.2,51.2-40.8,76.8h-1.3c13.7-25.6,27.5-51.2,41.2-76.8c-5.5,0-10.9,0-16.4,0
				c-16.3,25.6-32.7,51.2-49,76.8h-1.3c16.5-25.6,32.9-51.2,49.4-76.8c-5.5,0-10.9,0-16.4,0c-19.1,25.6-38.1,51.2-57.2,76.8h-1.3
				c19.2-25.6,38.4-51.2,57.6-76.8c-5.5,0-10.9,0-16.4,0c-21.8,25.6-43.6,51.2-65.4,76.8h-1.3c21.9-25.6,43.9-51.2,65.8-76.8
				c-5.5,0-10.9,0-16.4,0c-24.5,25.6-49.1,51.2-73.6,76.8h-1.3c24.7-25.6,49.4-51.2,74-76.8c-5.5,0-10.9,0-16.4,0
				c-27.3,25.6-54.6,51.2-81.8,76.8h-1.3c27.4-25.6,54.8-51.2,82.2-76.8c-5.5,0-10.9,0-16.4,0c-30,25.6-60,51.2-90,76.8H106
				c30.1-25.6,60.3-51.2,90.4-76.8c-5.5,0-10.9,0-16.4,0c-32.7,25.6-65.5,51.2-98.2,76.8h-1.3c32.9-25.6,65.8-51.2,98.6-76.8
				c-5.5,0-10.9,0-16.4,0c-35.5,25.6-71,51.2-106.4,76.8H55c35.6-25.6,71.2-51.2,106.8-76.8c-5.5,0-10.9,0-16.4,0
				c-38.2,25.6-76.4,51.2-114.6,76.8h-1.3c38.3-25.6,76.7-51.2,115-76.8c-5.5,0-10.9,0-16.4,0c-40.9,25.6-81.9,51.2-122.8,76.8H4.1
				c41.1-25.6,82.2-51.2,123.3-76.8c-5.5,0-127.4,0-127.4,0V417h768v-35.3V286C768,286,650.1,285.9,646,285.9z"/>
		</defs>
		<clipPath id="SVGID_4_">
			<use xlink:href="#SVGID_3_"  overflow="visible"/>
		</clipPath>
		<g id="floor" clip-path="url(#SVGID_4_)">
			<defs>
				<rect id="SVGID_5_" y="285.9" width="768" height="131.1"/>
			</defs>
			<clipPath id="SVGID_6_">
				<use xlink:href="#SVGID_5_"  overflow="visible"/>
			</clipPath>
			
				<radialGradient id="SVGID_7_" cx="384" cy="285.8932" r="271.9031" gradientTransform="matrix(1 0 0 0.3 0 200.1252)" gradientUnits="userSpaceOnUse">
				<stop  offset="0" style="stop-color:#E7E3DE"/>
				<stop  offset="0.8662" style="stop-color:#E7E3DE;stop-opacity:0.1072"/>
				<stop  offset="0.9702" style="stop-color:#E7E3DE;stop-opacity:0"/>
			</radialGradient>
			<ellipse clip-path="url(#SVGID_6_)" fill="url(#SVGID_7_)" cx="384" cy="285.9" rx="366.5" ry="116.4"/>
		</g>
	</g>
	<g>
		<rect x="349" y="24.6" fill="#808080" width="70" height="3.8"/>
		<rect x="351.9" y="47.2" fill="#808080" width="63.6" height="3.8"/>
		<rect x="364.9" y="70.2" fill="#808080" width="38.3" height="3.8"/>
		<g>
			<g>
				<path fill="#E7E3DE" d="M365.9,71.5c-0.3-2.7-1.5-11.8-1.5-11.8c-0.2-1.1-0.4-0.8-0.4-0.7c-0.1-0.1-0.2-0.4-0.4,0.7
					c0,0-1.1,9-1.5,11.8c-0.2,1.3,0.5,2.4,1.2,3.2c0.3,0.3,0.5,0.5,0.7,0.7c0.2-0.2,0.5-0.4,0.7-0.7C365.4,73.9,366,72.8,365.9,71.5
					z"/>
				<circle fill="#E7E3DE" cx="363.9" cy="55.3" r="2.2"/>
			</g>
			<g>
				<path fill="#E7E3DE" d="M373.9,71.5c-0.3-2.7-1.5-11.8-1.5-11.8c-0.2-1.1-0.4-0.8-0.4-0.7c-0.1-0.1-0.2-0.4-0.4,0.7
					c0,0-1.1,9-1.5,11.8c-0.2,1.3,0.5,2.4,1.2,3.2c0.3,0.3,0.5,0.5,0.7,0.7c0.2-0.2,0.5-0.4,0.7-0.7C373.4,73.9,374,72.8,373.9,71.5
					z"/>
				<circle fill="#E7E3DE" cx="372" cy="55.3" r="2.2"/>
			</g>
			<g>
				<path fill="#E7E3DE" d="M381.9,71.5c-0.3-2.7-1.5-11.8-1.5-11.8c-0.2-1.1-0.4-0.8-0.4-0.7c-0.1-0.1-0.2-0.4-0.4,0.7
					c0,0-1.1,9-1.5,11.8c-0.2,1.3,0.5,2.4,1.2,3.2c0.3,0.3,0.5,0.5,0.7,0.7c0.2-0.2,0.5-0.4,0.7-0.7
					C381.4,73.9,382.1,72.8,381.9,71.5z"/>
				<circle fill="#E7E3DE" cx="380" cy="55.3" r="2.2"/>
			</g>
			<g>
				<path fill="#E7E3DE" d="M389.9,71.5c-0.3-2.7-1.5-11.8-1.5-11.8c-0.2-1.1-0.4-0.8-0.4-0.7c-0.1-0.1-0.2-0.4-0.4,0.7
					c0,0-1.1,9-1.5,11.8c-0.2,1.3,0.5,2.4,1.2,3.2c0.3,0.3,0.5,0.5,0.7,0.7c0.2-0.2,0.5-0.4,0.7-0.7
					C389.4,73.9,390.1,72.8,389.9,71.5z"/>
				<circle fill="#E7E3DE" cx="388" cy="55.3" r="2.2"/>
			</g>
			<g>
				<path fill="#E7E3DE" d="M397.9,71.5c-0.3-2.7-1.5-11.8-1.5-11.8c-0.2-1.1-0.4-0.8-0.4-0.7c-0.1-0.1-0.2-0.4-0.4,0.7
					c0,0-1.1,9-1.5,11.8c-0.2,1.3,0.5,2.4,1.2,3.2c0.3,0.3,0.5,0.5,0.7,0.7c0.2-0.2,0.5-0.4,0.7-0.7
					C397.5,73.9,398.1,72.8,397.9,71.5z"/>
				<circle fill="#E7E3DE" cx="396" cy="55.3" r="2.2"/>
			</g>
			<g>
				<path fill="#E7E3DE" d="M406,71.5c-0.3-2.7-1.5-11.8-1.5-11.8c-0.2-1.1-0.4-0.8-0.4-0.7c-0.1-0.1-0.2-0.4-0.4,0.7
					c0,0-1.1,9-1.5,11.8c-0.2,1.3,0.5,2.4,1.2,3.2c0.3,0.3,0.5,0.5,0.7,0.7c0.2-0.2,0.5-0.4,0.7-0.7C405.5,73.9,406.1,72.8,406,71.5
					z"/>
				<circle fill="#E7E3DE" cx="404.1" cy="55.3" r="2.2"/>
			</g>
		</g>
		<g>
			<g>
				<path fill="#E7E3DE" d="M369.9,94.7c-0.3-2.7-1.5-11.8-1.5-11.8c-0.2-1.1-0.4-0.8-0.4-0.7c-0.1-0.1-0.2-0.4-0.4,0.7
					c0,0-1.1,9-1.5,11.8c-0.2,1.3,0.5,2.4,1.2,3.2c0.3,0.3,0.5,0.5,0.7,0.7c0.2-0.2,0.5-0.4,0.7-0.7C369.4,97.1,370,96,369.9,94.7z"
					/>
				<circle fill="#E7E3DE" cx="368" cy="78.6" r="2.2"/>
			</g>
			<g>
				<path fill="#E7E3DE" d="M377.9,94.7c-0.3-2.7-1.5-11.8-1.5-11.8c-0.2-1.1-0.4-0.8-0.4-0.7c-0.1-0.1-0.2-0.4-0.4,0.7
					c0,0-1.1,9-1.5,11.8c-0.2,1.3,0.5,2.4,1.2,3.2c0.3,0.3,0.5,0.5,0.7,0.7c0.2-0.2,0.5-0.4,0.7-0.7C377.4,97.1,378.1,96,377.9,94.7
					z"/>
				<circle fill="#E7E3DE" cx="376" cy="78.6" r="2.2"/>
			</g>
			<g>
				<path fill="#E7E3DE" d="M385.9,94.7c-0.3-2.7-1.5-11.8-1.5-11.8c-0.2-1.1-0.4-0.8-0.4-0.7c-0.1-0.1-0.2-0.4-0.4,0.7
					c0,0-1.1,9-1.5,11.8c-0.2,1.3,0.5,2.4,1.2,3.2c0.3,0.3,0.5,0.5,0.7,0.7c0.2-0.2,0.5-0.4,0.7-0.7C385.4,97.1,386.1,96,385.9,94.7
					z"/>
				<circle fill="#E7E3DE" cx="384" cy="78.6" r="2.2"/>
			</g>
			<g>
				<path fill="#E7E3DE" d="M393.9,94.7c-0.3-2.7-1.5-11.8-1.5-11.8c-0.2-1.1-0.4-0.8-0.4-0.7c-0.1-0.1-0.2-0.4-0.4,0.7
					c0,0-1.1,9-1.5,11.8c-0.2,1.3,0.5,2.4,1.2,3.2c0.3,0.3,0.5,0.5,0.7,0.7c0.2-0.2,0.5-0.4,0.7-0.7C393.5,97.1,394.1,96,393.9,94.7
					z"/>
				<circle fill="#E7E3DE" cx="392" cy="78.6" r="2.2"/>
			</g>
			<g>
				<path fill="#E7E3DE" d="M401.9,94.7c-0.3-2.7-1.5-11.8-1.5-11.8c-0.2-1.1-0.4-0.8-0.4-0.7c-0.1-0.1-0.2-0.4-0.4,0.7
					c0,0-1.1,9-1.5,11.8c-0.2,1.3,0.5,2.4,1.2,3.2c0.3,0.3,0.5,0.5,0.7,0.7c0.2-0.2,0.5-0.4,0.7-0.7C401.5,97.1,402.1,96,401.9,94.7
					z"/>
				<circle fill="#E7E3DE" cx="400" cy="78.6" r="2.2"/>
			</g>
		</g>
		<g>
			<g>
				<path fill="#E7E3DE" d="M353.8,48.4c-0.3-2.7-1.5-11.8-1.5-11.8c-0.2-1.1-0.4-0.8-0.4-0.7c-0.1-0.1-0.2-0.4-0.4,0.7
					c0,0-1.1,9-1.5,11.8c-0.2,1.3,0.5,2.4,1.2,3.2c0.3,0.3,0.5,0.5,0.7,0.7c0.2-0.2,0.5-0.4,0.7-0.7C353.4,50.8,354,49.7,353.8,48.4
					z"/>
				<circle fill="#E7E3DE" cx="351.9" cy="32.2" r="2.2"/>
			</g>
			<g>
				<path fill="#E7E3DE" d="M361.8,48.4c-0.3-2.7-1.5-11.8-1.5-11.8c-0.2-1.1-0.4-0.8-0.4-0.7c-0.1-0.1-0.2-0.4-0.4,0.7
					c0,0-1.1,9-1.5,11.8c-0.2,1.3,0.5,2.4,1.2,3.2c0.3,0.3,0.5,0.5,0.7,0.7c0.2-0.2,0.5-0.4,0.7-0.7C361.4,50.8,362,49.7,361.8,48.4
					z"/>
				<circle fill="#E7E3DE" cx="359.9" cy="32.2" r="2.2"/>
			</g>
			<g>
				<path fill="#E7E3DE" d="M369.9,48.4c-0.3-2.7-1.5-11.8-1.5-11.8c-0.2-1.1-0.4-0.8-0.4-0.7c-0.1-0.1-0.2-0.4-0.4,0.7
					c0,0-1.1,9-1.5,11.8c-0.2,1.3,0.5,2.4,1.2,3.2c0.3,0.3,0.5,0.5,0.7,0.7c0.2-0.2,0.5-0.4,0.7-0.7C369.4,50.8,370,49.7,369.9,48.4
					z"/>
				<circle fill="#E7E3DE" cx="368" cy="32.2" r="2.2"/>
			</g>
			<g>
				<path fill="#E7E3DE" d="M377.9,48.4c-0.3-2.7-1.5-11.8-1.5-11.8c-0.2-1.1-0.4-0.8-0.4-0.7c-0.1-0.1-0.2-0.4-0.4,0.7
					c0,0-1.1,9-1.5,11.8c-0.2,1.3,0.5,2.4,1.2,3.2c0.3,0.3,0.5,0.5,0.7,0.7c0.2-0.2,0.5-0.4,0.7-0.7
					C377.4,50.8,378.1,49.7,377.9,48.4z"/>
				<circle fill="#E7E3DE" cx="376" cy="32.2" r="2.2"/>
			</g>
			<g>
				<path fill="#E7E3DE" d="M385.9,48.4c-0.3-2.7-1.5-11.8-1.5-11.8c-0.2-1.1-0.4-0.8-0.4-0.7c-0.1-0.1-0.2-0.4-0.4,0.7
					c0,0-1.1,9-1.5,11.8c-0.2,1.3,0.5,2.4,1.2,3.2c0.3,0.3,0.5,0.5,0.7,0.7c0.2-0.2,0.5-0.4,0.7-0.7
					C385.4,50.8,386.1,49.7,385.9,48.4z"/>
				<circle fill="#E7E3DE" cx="384" cy="32.2" r="2.2"/>
			</g>
			<g>
				<path fill="#E7E3DE" d="M393.9,48.4c-0.3-2.7-1.5-11.8-1.5-11.8c-0.2-1.1-0.4-0.8-0.4-0.7c-0.1-0.1-0.2-0.4-0.4,0.7
					c0,0-1.1,9-1.5,11.8c-0.2,1.3,0.5,2.4,1.2,3.2c0.3,0.3,0.5,0.5,0.7,0.7c0.2-0.2,0.5-0.4,0.7-0.7
					C393.5,50.8,394.1,49.7,393.9,48.4z"/>
				<circle fill="#E7E3DE" cx="392" cy="32.2" r="2.2"/>
			</g>
			<g>
				<path fill="#E7E3DE" d="M401.9,48.4c-0.3-2.7-1.5-11.8-1.5-11.8c-0.2-1.1-0.4-0.8-0.4-0.7c-0.1-0.1-0.2-0.4-0.4,0.7
					c0,0-1.1,9-1.5,11.8c-0.2,1.3,0.5,2.4,1.2,3.2c0.3,0.3,0.5,0.5,0.7,0.7c0.2-0.2,0.5-0.4,0.7-0.7
					C401.5,50.8,402.1,49.7,401.9,48.4z"/>
				<circle fill="#E7E3DE" cx="400" cy="32.2" r="2.2"/>
			</g>
			<g>
				<path fill="#E7E3DE" d="M410,48.4c-0.3-2.7-1.5-11.8-1.5-11.8c-0.2-1.1-0.4-0.8-0.4-0.7c-0.1-0.1-0.2-0.4-0.4,0.7
					c0,0-1.1,9-1.5,11.8c-0.2,1.3,0.5,2.4,1.2,3.2c0.3,0.3,0.5,0.5,0.7,0.7c0.2-0.2,0.5-0.4,0.7-0.7C409.5,50.8,410.1,49.7,410,48.4
					z"/>
				<circle fill="#E7E3DE" cx="408.1" cy="32.2" r="2.2"/>
			</g>
			<g>
				<path fill="#E7E3DE" d="M418,48.4c-0.3-2.7-1.5-11.8-1.5-11.8c-0.2-1.1-0.4-0.8-0.4-0.7c-0.1-0.1-0.2-0.4-0.4,0.7
					c0,0-1.1,9-1.5,11.8c-0.2,1.3,0.5,2.4,1.2,3.2c0.3,0.3,0.5,0.5,0.7,0.7c0.2-0.2,0.5-0.4,0.7-0.7C417.5,50.8,418.2,49.7,418,48.4
					z"/>
				<circle fill="#E7E3DE" cx="416.1" cy="32.2" r="2.2"/>
			</g>
		</g>
		<linearGradient id="SVGID_8_" gradientUnits="userSpaceOnUse" x1="384" y1="23.1401" x2="384" y2="0.5455">
			<stop  offset="0" style="stop-color:#808080"/>
			<stop  offset="0.8961" style="stop-color:#808080;stop-opacity:0.1039"/>
			<stop  offset="1" style="stop-color:#808080;stop-opacity:0"/>
		</linearGradient>
		<rect x="382.6" y="0" fill="url(#SVGID_8_)" width="2.8" height="28"/>
	</g>
	<g>
		<rect x="357.5" y="249" fill="#E8C2C1" width="57" height="34.5"/>
		<path fill="#F4D9D9" d="M498.1,253.4c0,0-4.8-11-2.7-16.8c2.1-5.8,1-7.2-1.7-11.3c-2.7-4.1-4.8-17.1-4.8-24s2.7-18.2-5.5-18.2
			c-8.2,0-37,4.1-50-1.4s-20.9-7.9-27.1-7.9c-6.2,0-13.7,1.7-24,1.4c-10.3-0.3-14-2.1-22.3-2.1s-19.5,8.9-30.2,10.3
			c-10.6,1.4-28.8,0.7-33.9,0.3c-5.1-0.3-16.1-0.3-18.2,2.7c-2.1,3.1,0.3,29.1-1.7,32.6c-2.1,3.4-8.6,10.3-8.6,12.7
			s5.5,5.1,4.5,13.4c-1,8.2-2.7,12-2.7,12h229.6L498.1,253.4z"/>
		<path fill="#7C655B" d="M501.4,318.4c-0.3-2.3,0-5.9,1.1-9.6c1.1-3.7,3.2-8.5,2.1-12.2c-1.1-3.7-1.6-5.9-1.6-5.9s-1.9,3.7-7.8,3.7
			c-5.9,0-9.1-1.4-14.2-1.1c-5.1,0.3-8.9,1.7-14.8,1.7c-5.9,0-15.6-1.7-22.8-1.7s-14.8,2.5-21.5,2c-6.7-0.6-15.6-2-20.4-2
			s-7.3,1.1-11.3,1.1c-2.3,0-9,0-12.3,0c-4,0-6.4-1.1-11.3-1.1s-13.7,1.4-20.4,2c-6.7,0.6-14.2-2-21.5-2s-16.9,1.7-22.8,1.7
			s-9.7-1.4-14.8-1.7c-5.1-0.3-8.3,1.1-14.2,1.1s-7.8-3.7-7.8-3.7s-0.5,2.3-1.6,5.9c-1.1,3.7,1.1,8.5,2.1,12.2
			c1.1,3.7,1.3,7.4,1.1,9.6c-0.3,2.3-3.5,2.5-3.5,6.5s3.5,5.4,6.2,2.5c2.7-2.8,3-9,2.7-15c-0.3-5.9,0.3-9.9,0.3-9.9s5.1-4.2,9.9-4.8
			s8.3,1.4,13.7,2.3c5.4,0.8,7.8,0.3,12.4,0c4.6-0.3,11-1.7,19.6-2c8.6-0.3,14,2.5,19.6,2.5s12.4-2.3,16.9-2.3
			c4.6,0,7.3,1.4,9.1,1.4c0.5,0,1.8,0,3.5,0c2,0,4.6,0.1,7,0.1c2.4,0,5-0.1,7-0.1c1.7,0,3,0,3.5,0c1.9,0,4.6-1.4,9.1-1.4
			s11.3,2.3,16.9,2.3s11-2.8,19.6-2.5c8.6,0.3,15,1.7,19.6,2c4.6,0.3,7,0.8,12.4,0c5.4-0.8,8.9-2.8,13.7-2.3s9.9,4.8,9.9,4.8
			s0.5,4,0.3,9.9c-0.3,5.9,0,12.2,2.7,15c2.7,2.8,6.2,1.4,6.2-2.5S501.7,320.7,501.4,318.4z"/>
		<linearGradient id="SVGID_9_" gradientUnits="userSpaceOnUse" x1="384" y1="285.5" x2="384" y2="270.3178">
			<stop  offset="0" style="stop-color:#F4D9D9"/>
			<stop  offset="1" style="stop-color:#E8C2C1"/>
		</linearGradient>
		<path fill="url(#SVGID_9_)" d="M504.5,273.7H403.7h-39.4H263.5c0,0-2,5.1-1.4,9.6c0.6,4.5,2.3,10.5,10.2,11.6
			c6.3,0.9,81.6,0.9,111.8,0.9c30.2,0,105.4,0,111.8-0.9c7.9-1.1,9.6-7.1,10.2-11.6S504.5,273.7,504.5,273.7z"/>
		<path fill="#7C655B" d="M505.6,229.1c-1.1-4.2-3-3.4-6.6-5.9c-3.6-2.5-5.5-3.7-5.8-9.6c-0.3-5.9,0.5-20.4-1.1-27.1
			s-7.1-5.9-10.7-5.7c-4.5,0.3-15.5,1.6-24,1.7c-11.3,0.1-15.5-1.1-20.1-2c-4.7-0.8-21.1-8.2-25-9c-3.8-0.8-7.4-0.6-11.5,0.3
			c-4.1,0.8-6,1.7-8.2,1.7c-1.8,0-6.9,0.1-8.7,0.1c-1.8,0-6.9-0.1-8.7-0.1c-2.2,0-4.1-0.8-8.2-1.7c-4.1-0.8-7.7-1.1-11.5-0.3
			c-3.8,0.8-20.3,8.2-25,9c-4.7,0.8-8.8,2.1-20.1,2c-8.5-0.1-19.6-1.4-24-1.7c-3.6-0.2-9-1.1-10.7,5.7c-1.6,6.8-0.8,21.2-1.1,27.1
			c-0.3,5.9-2.2,7.1-5.8,9.6s-5.5,1.7-6.6,5.9c-0.7,2.9-0.5,4.5,3.3,5.4c3.8,0.8,4.4,3.4,3.3,7.6c-1.1,4.2-2.2,8.2-2.2,8.2l6.3-0.3
			c0,0,3.4-8.4,2.1-14.3c-1-4.3-1.8-6.1-1.8-6.1s6.6-5.4,7.4-11.3c0.8-5.9-0.5-26.4,0-28.3c0.6-2.1,0.5-4.8,6.3-4.8
			c5.8,0,21.7,1.4,30.2,1.4c8.5,0,19.7-3.1,26.3-6.2c6.6-3.1,14.5-5.1,18.4-5.1c3.8,0,6.9,2.3,13.2,2.3c4,0,6.8,0,8.3,0
			c0.9,0,1.3,0,1.3,0c1.5,0,4.3,0,8.3,0c6.3,0,9.3-2.3,13.2-2.3c3.8,0,11.8,2,18.4,5.1c6.6,3.1,17.8,6.2,26.3,6.2
			c8.5,0,24.4-1.4,30.2-1.4c5.8,0,5.7,2.7,6.3,4.8c0.5,1.8-0.8,22.3,0,28.3c0.8,5.9,7.4,11.3,7.4,11.3s-0.8,1.8-1.8,6.1
			c-1.4,5.9,2.1,14.3,2.1,14.3l6.3,0.3c0,0-1.1-4-2.2-8.2s-0.5-6.8,3.3-7.6C506.2,233.6,506.4,231.9,505.6,229.1z"/>
		<g>
			<path fill="none" stroke="#E8C2C1" stroke-width="0.8483" stroke-miterlimit="10" d="M284.8,186.6c0,0,9.1,12.2,7.4,27.2
				c-1.7,15-6.8,35.1-6.8,35.1"/>
			<path fill="none" stroke="#E8C2C1" stroke-width="0.8483" stroke-miterlimit="10" d="M483.3,186.6c0,0-9.2,12.2-7.5,27.2
				c1.7,15,6.8,35.1,6.8,35.1"/>
		</g>
		<g>
			<circle fill="#E8C2C1" cx="383.6" cy="198.2" r="2"/>
			<circle fill="#E8C2C1" cx="373.9" cy="214.1" r="2"/>
			<circle fill="#E8C2C1" cx="364.3" cy="229.9" r="2"/>
		</g>
		<g>
			<circle fill="#E8C2C1" cx="361.7" cy="198.2" r="2"/>
			<circle fill="#E8C2C1" cx="352" cy="214.1" r="2"/>
			<circle fill="#E8C2C1" cx="342.4" cy="229.9" r="2"/>
		</g>
		<g>
			<circle fill="#E8C2C1" cx="339.8" cy="198.2" r="2"/>
			<circle fill="#E8C2C1" cx="330.2" cy="214.1" r="2"/>
			<circle fill="#E8C2C1" cx="320.5" cy="229.9" r="2"/>
		</g>
		<g>
			<circle fill="#E8C2C1" cx="318.8" cy="198.2" r="2"/>
			<circle fill="#E8C2C1" cx="309.2" cy="214.1" r="2"/>
		</g>
		<g>
			<circle fill="#E8C2C1" cx="405.5" cy="198.2" r="2"/>
			<circle fill="#E8C2C1" cx="395.8" cy="214.1" r="2"/>
			<circle fill="#E8C2C1" cx="386.2" cy="229.9" r="2"/>
		</g>
		<g>
			<circle fill="#E8C2C1" cx="427.3" cy="198.2" r="2"/>
			<circle fill="#E8C2C1" cx="417.7" cy="214.1" r="2"/>
			<circle fill="#E8C2C1" cx="408.1" cy="229.9" r="2"/>
		</g>
		<g>
			<circle fill="#E8C2C1" cx="449.2" cy="198.2" r="2"/>
			<circle fill="#E8C2C1" cx="439.6" cy="214.1" r="2"/>
			<circle fill="#E8C2C1" cx="430" cy="229.9" r="2"/>
		</g>
		<g>
			<circle fill="#E8C2C1" cx="458.8" cy="214.1" r="2"/>
			<circle fill="#E8C2C1" cx="449.2" cy="229.9" r="2"/>
		</g>
		<g>
			<linearGradient id="SVGID_10_" gradientUnits="userSpaceOnUse" x1="322.4956" y1="259.5" x2="322.4956" y2="234.182">
				<stop  offset="0" style="stop-color:#F4D9D9"/>
				<stop  offset="1" style="stop-color:#E8C2C1"/>
			</linearGradient>
			<path fill="url(#SVGID_10_)" d="M383.8,268.1c0,0,0,6.8-7.1,7.1c-7.1,0.3-105.5,0-108.6,0s-6.5-1.1-7.1-5.7
				c-0.6-4.5,1.4-14.1,2.8-16.4c1.4-2.3,1.1-2.5,4.2-2.8c3.1-0.3,12.4-0.6,18.1-2.5c5.7-2,9.9-9.6,12.4-9.9c2.5-0.3,64.5,0,71,0
				c6.5,0,14.4,0.6,14.4,7.4S383.8,268.1,383.8,268.1z"/>
			<linearGradient id="SVGID_11_" gradientUnits="userSpaceOnUse" x1="445.5044" y1="259.5" x2="445.5044" y2="234.182">
				<stop  offset="0" style="stop-color:#F4D9D9"/>
				<stop  offset="1" style="stop-color:#E8C2C1"/>
			</linearGradient>
			<path fill="url(#SVGID_11_)" d="M384.2,268.1c0,0,0,6.8,7.1,7.1c7.1,0.3,105.5,0,108.6,0s6.5-1.1,7.1-5.7
				c0.6-4.5-1.4-14.1-2.8-16.4c-1.4-2.3-1.1-2.5-4.2-2.8c-3.1-0.3-12.4-0.6-18.1-2.5c-5.7-2-9.9-9.6-12.4-9.9c-2.5-0.3-64.5,0-71,0
				c-6.5,0-14.4,0.6-14.4,7.4S384.2,268.1,384.2,268.1z"/>
		</g>
	</g>
	<path fill="#F9F8F5" d="M327.2,245.6c-0.2,0.1-0.6-0.1-0.8-0.1c-0.3,0-0.6,0.1-0.9,0.1c-0.9,0.2-1.7,0.3-2.6,0.5
		c-0.5,0.1-0.9,0.1-1.4,0.3c-0.5,0.1-0.9,0.3-1.4,0.4c-0.5,0.1-0.9,0.3-1.4,0.3c-0.5,0.1-1.1,0.2-1.6,0.3c-1.2,0.2-2.5,0.4-3.7,0.7
		c-0.9,0.2-1.9,0.3-2.8,0.6c-1.1,0.4-2.3,0.7-3.3,1.2c-0.3,0.1-0.6,0.2-0.9,0.3c-0.3,0.1-0.5,0.3-0.7,0.4c-0.6,0.3-1.1,0.7-1.7,1
		c-0.2,0.1-0.3,0.3-0.5,0.4c-0.2,0.1-0.4,0.2-0.6,0.3c-0.3,0.2-0.6,0.2-0.9,0.4c-0.3,0.1-0.6,0.3-0.9,0.4c-1,0.4-2,0.7-3.1,0.9
		c-0.5,0.1-1,0.1-1.5,0.3c-0.6,0.2-1.1,0.4-1.7,0.6c-0.6,0.2-1.1,0.4-1.7,0.5c-0.3,0.1-1,0.3-1.3,0c-0.1-0.1-0.1-0.3-0.2-0.4
		c0-0.1-0.1-0.3-0.1-0.4c0-0.4,0.1-0.8,0.1-1.2c0.1-0.9,0.4-1.9,0.5-2.8c0.1-0.9,0.2-1.8,0.4-2.6c0.2-0.8,0.3-1.7,0.5-2.5
		c0.1-0.4,0.2-0.9,0.3-1.3c0-0.3,0-0.7,0-1c0-0.8-0.4-1.6-0.4-2.4c0-0.7,0-1.3,0-1.9c0-0.8-0.1-1.6,0.3-2.3c0.2-0.4,0.3-0.8,0.6-1.1
		c0.1-0.1,0.3-0.2,0.4-0.4c0.1-0.2,0.1-0.4,0.1-0.6c0-0.3-0.2-0.5-0.2-0.7c0-0.2,0-0.3-0.1-0.5c0-0.1-0.1-0.2-0.2-0.4
		c-0.1-0.3-0.1-0.6-0.2-1c-0.1-0.4-0.1-0.7-0.2-1.1c-0.1-0.3,0-0.5,0-0.8c0-0.3-0.1-0.7-0.2-1c-0.1-0.4-0.2-0.8-0.3-1.2
		c-0.2-0.6-0.2-1.2-0.4-1.8c-0.2-0.6-0.3-1.2-0.4-1.8c-0.1-0.7-0.3-1.5-0.5-2.2c-0.2-0.7-0.3-1.3-0.5-2c-0.2-0.7-0.4-1.3-0.6-2
		c-0.1-0.6-0.1-1.1-0.4-1.7c-0.2-0.5-0.3-1-0.5-1.4c-0.6-1.1-1.1-2.2-1.6-3.4c-0.2-0.6-0.4-1.2-0.5-1.9c0-0.3-0.2-0.6-0.1-0.9
		c0.1-0.3,0.7-0.5,1-0.6c0.4-0.1,0.7,0,1.1,0.1c0.5,0.2,1.1,0.2,1.7,0.3c0.5,0.1,1,0.1,1.5,0.1c0.7,0,1.3-0.1,2-0.1
		c0.5,0.1,1,0.2,1.5,0.3c0.5,0.1,0.9,0.3,1.4,0.3c0.2,0,0.5,0,0.7-0.1c0.4-0.1,0.7,0,1.1-0.1c0.7-0.1,1.5-0.3,2.2-0.5
		c0.6-0.1,1.1-0.4,1.7-0.6c0.4-0.1,0.7-0.1,1.1-0.2c0.5-0.1,0.9-0.3,1.4-0.4c0.9-0.2,1.7-0.4,2.6-0.3c0.9,0,1.8,0.1,2.8,0
		c0.8-0.1,1.6-0.3,2.4-0.5c0.9-0.3,1.9-0.4,2.8-0.6c0.8-0.1,1.6-0.4,2.4-0.4c0.3,0,0.7,0,1,0c0.5,0,0.9-0.1,1.3-0.2
		c0.7-0.1,1.3-0.3,2-0.5c0.6-0.2,1.2-0.3,1.8-0.4c1.4-0.4,2.6-1.1,3.9-1.7c0.6-0.2,1.1-0.6,1.7-0.7c0.6-0.2,1.2-0.2,1.8-0.4
		c0.8-0.3,1.7-0.3,2.5-0.5c0.4-0.1,0.5,0,0.6,0.4c0.1,0.3,0.1,0.7,0.1,1c0,0.4,0,0.8-0.1,1.2c-0.2,0.6-0.4,1.2-0.5,1.7
		c-0.1,0.4-0.2,0.7-0.3,1.1c-0.1,0.3-0.1,0.7-0.1,1c-0.1,0.8-0.1,1.6-0.1,2.4c0.1,1.8,0.1,3.6,0,5.4c-0.1,0.6-0.2,1.3-0.2,1.9
		c0,0.5,0,1,0.1,1.5c0,0.4,0,0.7,0.1,1.1c0.1,0.4,0.2,0.9,0.2,1.3c0.1,0.4,0.1,0.7,0.2,1.1c0.1,0.2,0.1,0.4,0.2,0.7
		c0.2,0.6,0.2,1.2,0.4,1.8c0.2,1,0.6,2,0.9,2.9c0.2,0.7,0.3,1.4,0.5,2.1c0.1,0.4,0.3,0.9,0.4,1.3c0,0.2,0.1,0.4,0.1,0.6
		c0.1,0.4,0.2,0.7,0.4,1.1c0.5,1.2,0.8,2.5,1.3,3.6c0.2,0.4,0.3,0.9,0.5,1.3c0.2,0.4,0.3,0.7,0.5,1.1c0.1,0.3,0.2,0.5,0.2,0.8
		c0,0.2,0,0.3,0,0.5c0,0.1-0.1,0.3,0,0.4c0.1,0.1,0.5,0.3,0.6,0.4c0.3,0.2,0.6,0.3,0.9,0.6c0.3,0.3,0.5,0.6,0.7,0.9
		c0.3,0.3,0.6,0.7,0.8,1.1c0.5,0.9,1.6,2.2,0.7,3.2c-0.5,0.6-1.6,0.6-2.3,0.5c-0.9-0.1-1.8-0.3-2.7-0.4c-0.5-0.1-0.9-0.3-1.4-0.3
		c-0.6,0-1.2,0-1.8,0c-0.5,0-1.1,0-1.6,0.1c-0.7,0.1-1.4,0.3-2.1,0.2c-0.6,0-1.2-0.1-1.8-0.1c-0.6,0-1.1-0.3-1.7-0.3
		c-0.3,0-0.6-0.1-0.9-0.2c-0.3,0-0.5,0-0.8-0.1"/>
	<path fill="#F9F8F5" d="M441.6,245.6c0.2,0.1,0.6-0.1,0.8-0.1c0.3,0,0.6,0.1,0.9,0.1c0.9,0.2,1.7,0.3,2.6,0.5
		c0.5,0.1,0.9,0.1,1.4,0.3c0.5,0.1,0.9,0.3,1.4,0.4c0.5,0.1,0.9,0.3,1.4,0.3c0.5,0.1,1.1,0.2,1.6,0.3c1.2,0.2,2.5,0.4,3.7,0.7
		c0.9,0.2,1.9,0.3,2.8,0.6c1.1,0.4,2.3,0.7,3.3,1.2c0.3,0.1,0.6,0.2,0.9,0.3c0.3,0.1,0.5,0.3,0.7,0.4c0.6,0.3,1.1,0.7,1.7,1
		c0.2,0.1,0.3,0.3,0.5,0.4c0.2,0.1,0.4,0.2,0.6,0.3c0.3,0.2,0.6,0.2,0.9,0.4c0.3,0.1,0.6,0.3,0.9,0.4c1,0.4,2,0.7,3.1,0.9
		c0.5,0.1,1,0.1,1.5,0.3c0.6,0.2,1.1,0.4,1.7,0.6c0.6,0.2,1.1,0.4,1.7,0.5c0.3,0.1,1,0.3,1.3,0c0.1-0.1,0.1-0.3,0.2-0.4
		c0-0.1,0.1-0.3,0.1-0.4c0-0.4-0.1-0.8-0.1-1.2c-0.1-0.9-0.4-1.9-0.5-2.8c-0.1-0.9-0.2-1.8-0.4-2.6c-0.2-0.8-0.3-1.7-0.5-2.5
		c-0.1-0.4-0.2-0.9-0.3-1.3c0-0.3,0-0.7,0-1c0-0.8,0.4-1.6,0.4-2.4c0-0.7,0-1.3,0-1.9c0-0.8,0.1-1.6-0.3-2.3
		c-0.2-0.4-0.3-0.8-0.6-1.1c-0.1-0.1-0.3-0.2-0.4-0.4c-0.1-0.2-0.1-0.4-0.1-0.6c0-0.3,0.2-0.5,0.2-0.7c0-0.2,0-0.3,0.1-0.5
		c0-0.1,0.1-0.2,0.2-0.4c0.1-0.3,0.1-0.6,0.2-1c0.1-0.4,0.1-0.7,0.2-1.1c0.1-0.3,0-0.5,0-0.8c0-0.3,0.1-0.7,0.2-1
		c0.1-0.4,0.2-0.8,0.3-1.2c0.2-0.6,0.2-1.2,0.4-1.8c0.2-0.6,0.3-1.2,0.4-1.8c0.1-0.7,0.3-1.5,0.5-2.2c0.2-0.7,0.3-1.3,0.5-2
		c0.2-0.7,0.4-1.3,0.6-2c0.1-0.6,0.1-1.1,0.4-1.7c0.2-0.5,0.3-1,0.5-1.4c0.6-1.1,1.1-2.2,1.6-3.4c0.2-0.6,0.4-1.2,0.5-1.9
		c0-0.3,0.2-0.6,0.1-0.9c-0.1-0.3-0.7-0.5-1-0.6c-0.4-0.1-0.7,0-1.1,0.1c-0.5,0.2-1.1,0.2-1.7,0.3c-0.5,0.1-1,0.1-1.5,0.1
		c-0.7,0-1.3-0.1-2-0.1c-0.5,0.1-1,0.2-1.5,0.3c-0.5,0.1-0.9,0.3-1.4,0.3c-0.2,0-0.5,0-0.7-0.1c-0.4-0.1-0.7,0-1.1-0.1
		c-0.7-0.1-1.5-0.3-2.2-0.5c-0.6-0.1-1.1-0.4-1.7-0.6c-0.4-0.1-0.7-0.1-1.1-0.2c-0.5-0.1-0.9-0.3-1.4-0.4c-0.9-0.2-1.7-0.4-2.6-0.3
		c-0.9,0-1.8,0.1-2.8,0c-0.8-0.1-1.6-0.3-2.4-0.5c-0.9-0.3-1.9-0.4-2.8-0.6c-0.8-0.1-1.6-0.4-2.4-0.4c-0.3,0-0.7,0-1,0
		c-0.5,0-0.9-0.1-1.3-0.2c-0.7-0.1-1.3-0.3-2-0.5c-0.6-0.2-1.2-0.3-1.8-0.4c-1.4-0.4-2.6-1.1-3.9-1.7c-0.6-0.2-1.1-0.6-1.7-0.7
		c-0.6-0.2-1.2-0.2-1.8-0.4c-0.8-0.3-1.7-0.3-2.5-0.5c-0.4-0.1-0.5,0-0.6,0.4c-0.1,0.3-0.1,0.7-0.1,1c0,0.4,0,0.8,0.1,1.2
		c0.2,0.6,0.4,1.2,0.5,1.7c0.1,0.4,0.2,0.7,0.3,1.1c0.1,0.3,0.1,0.7,0.1,1c0.1,0.8,0.1,1.6,0.1,2.4c-0.1,1.8-0.1,3.6,0,5.4
		c0.1,0.6,0.2,1.3,0.2,1.9c0,0.5,0,1-0.1,1.5c0,0.4,0,0.7-0.1,1.1c-0.1,0.4-0.2,0.9-0.2,1.3c-0.1,0.4-0.1,0.7-0.2,1.1
		c-0.1,0.2-0.1,0.4-0.2,0.7c-0.2,0.6-0.2,1.2-0.4,1.8c-0.2,1-0.6,2-0.9,2.9c-0.2,0.7-0.3,1.4-0.5,2.1c-0.1,0.4-0.3,0.9-0.4,1.3
		c0,0.2-0.1,0.4-0.1,0.6c-0.1,0.4-0.2,0.7-0.4,1.1c-0.5,1.2-0.8,2.5-1.3,3.6c-0.2,0.4-0.3,0.9-0.5,1.3c-0.2,0.4-0.3,0.7-0.5,1.1
		c-0.1,0.3-0.2,0.5-0.2,0.8c0,0.2,0,0.3,0,0.5c0,0.1,0.1,0.3,0,0.4c-0.1,0.1-0.5,0.3-0.6,0.4c-0.3,0.2-0.6,0.3-0.9,0.6
		c-0.3,0.3-0.5,0.6-0.7,0.9c-0.3,0.3-0.6,0.7-0.8,1.1c-0.5,0.9-1.6,2.2-0.7,3.2c0.5,0.6,1.6,0.6,2.3,0.5c0.9-0.1,1.8-0.3,2.7-0.4
		c0.5-0.1,0.9-0.3,1.4-0.3c0.6,0,1.2,0,1.8,0c0.5,0,1.1,0,1.6,0.1c0.7,0.1,1.4,0.3,2.1,0.2c0.6,0,1.2-0.1,1.8-0.1
		c0.6,0,1.1-0.3,1.7-0.3c0.3,0,0.6-0.1,0.9-0.2c0.3,0,0.5,0,0.8-0.1"/>
	<g>
		<g>
			<linearGradient id="SVGID_12_" gradientUnits="userSpaceOnUse" x1="528.6667" y1="247.0237" x2="630.6667" y2="247.0237">
				<stop  offset="0" style="stop-color:#E7E3DE"/>
				<stop  offset="0.831" style="stop-color:#E7E3DE;stop-opacity:0"/>
			</linearGradient>
			<path fill="url(#SVGID_12_)" d="M528.7,214.8v64.4h102v-64.4H528.7z M625.7,274.3h-92.2v-54.6h92.2V274.3z"/>
			<linearGradient id="SVGID_13_" gradientUnits="userSpaceOnUse" x1="538.1367" y1="246.8356" x2="611.2306" y2="246.8356">
				<stop  offset="0" style="stop-color:#E7E3DE"/>
				<stop  offset="0.831" style="stop-color:#E7E3DE;stop-opacity:0"/>
			</linearGradient>
			<path fill="url(#SVGID_13_)" d="M538.1,223.8v46.2h73.1v-46.2H538.1z M609.3,268.4h-69.2v-43.1h69.2V268.4z"/>
		</g>
		<g>
			
				<linearGradient id="SVGID_14_" gradientUnits="userSpaceOnUse" x1="220.3333" y1="247.0237" x2="322.3333" y2="247.0237" gradientTransform="matrix(-1 0 0 1 459.6667 0)">
				<stop  offset="0" style="stop-color:#E7E3DE"/>
				<stop  offset="0.831" style="stop-color:#E7E3DE;stop-opacity:0"/>
			</linearGradient>
			<path fill="url(#SVGID_14_)" d="M137.3,214.8v64.4h102v-64.4H137.3z M142.3,219.7h92.2v54.6h-92.2V219.7z"/>
			
				<linearGradient id="SVGID_15_" gradientUnits="userSpaceOnUse" x1="229.8033" y1="246.8356" x2="302.8972" y2="246.8356" gradientTransform="matrix(-1 0 0 1 459.6667 0)">
				<stop  offset="0" style="stop-color:#E7E3DE"/>
				<stop  offset="0.831" style="stop-color:#E7E3DE;stop-opacity:0"/>
			</linearGradient>
			<path fill="url(#SVGID_15_)" d="M156.8,223.8v46.2h73.1v-46.2H156.8z M158.7,225.3h69.2v43.1h-69.2V225.3z"/>
		</g>
	</g>
	<path fill="#B7CBD5" d="M328.5,224c-0.4,0.6-0.7,0.9-1,0.9c-0.2,0-0.3,0-0.4-0.1c0.7-0.6,0.9-1.4,0.8-2.5c0-0.3-0.1-0.7-0.3-1.1
		c-0.5-1.6-2-2.2-4.5-2c0,0.1,0.4,0.3,1.1,0.4c0.7,0.1,1.3,0.4,1.7,0.8c0.2,0.3,0.4,0.6,0.4,0.9c0,0.2,0,0.5,0,0.8
		c-0.3,0.1-0.5,0.2-0.8,0.2c-0.7,0.1-1.5,0-2.2-0.3c0.1,0.8,0,1.3-0.4,1.4c-1,0.1-1.9-0.3-2.6-1.2c-0.1,0-0.2,0-0.3,0
		c-1.3,0.2-2.5,1-3.7,2.5c0-2.4,1-4.3,3-5.7c1.3-0.9,2.6-1.5,3.9-1.6c0.6-0.1,1.3-0.1,1.9,0c1.9,0.3,3.1,1.3,3.6,2.9
		c0.1,0.4,0.2,0.8,0.3,1.2C329.1,222.5,328.9,223.3,328.5,224z M312.5,210c0.8,0.3,1.2,1.1,1.4,2.5c0.1-0.3,0.3-0.5,0.6-0.6
		c0.4,0.2,0.6,0.7,0.8,1.5c0,0.1,0,0.3,0,0.5c0,1.1-0.2,2.5-0.6,4.2c-0.3,1.3-0.4,2.2-0.4,2.7c0,0.2,0.1,0.3,0.1,0.4
		c0.4-0.1,0.8-1.6,1.2-4.5c0.5-3.1,1.5-4.8,3.2-5c0.2,0.2,0.3,0.5,0.4,0.9c0,0.3,0,0.6,0,1c0.4-0.6,1-1,1.8-1.1c0.2,0,0.3,0,0.5,0
		c1,0,1.8,0.4,2.3,1.3c0.2,0.3,0.3,0.6,0.3,0.9c0.1,0.5-0.1,1-0.4,1.5c-0.4-0.7-1.1-1.1-2.2-1.2l-0.4,0.1c-2.7,0.4-4.7,3.2-6.1,8.3
		l-1.9,0.3c-2.7-4.6-5.4-6.7-8.1-6.5l-0.4,0.1c-1,0.4-1.6,1-1.8,1.7c-0.4-0.4-0.7-0.8-0.8-1.3c0-0.3,0-0.6,0.1-1
		c0.2-0.9,0.9-1.6,1.9-1.8c0.2-0.1,0.4-0.1,0.5-0.1c0.8-0.1,1.5,0.1,2.1,0.6c-0.2-0.4-0.2-0.7-0.3-1c-0.1-0.4,0-0.7,0.2-0.9
		c1.6-0.2,3.1,1.1,4.3,4c1.1,2.6,1.9,4,2.3,4c0-0.1,0-0.3,0-0.4c-0.1-0.6-0.4-1.4-1-2.6c-0.8-1.5-1.4-2.8-1.6-3.9
		c0-0.2-0.1-0.3-0.1-0.5c-0.1-0.8,0-1.3,0.4-1.6c0.3,0,0.5,0.2,0.7,0.4c-0.2-1.4,0.1-2.4,0.7-2.8L312.5,210z M324,229
		c-0.4,1.9-1.5,2.9-3.3,3.2c-1.3,0.1-2.4-0.2-3.3-1.1c-0.9-0.9-1.5-2.1-1.8-3.8c0.8,1.4,1.6,2.4,2.4,2.9c0.8,0.5,1.7,0.6,2.7,0.5
		l0.2,0c0.5-0.1,0.8-0.3,1.1-0.6c-0.2,0-0.3-0.1-0.5-0.2c-0.4-0.3-0.6-0.6-0.6-1.1c-0.1-0.4,0-0.8,0.3-1.2c0.3-0.4,0.6-0.6,1.1-0.6
		c0.4-0.1,0.8,0.1,1.1,0.3c0.3,0.3,0.5,0.6,0.5,0.9c0,0,0,0.1,0,0.1C324,228.6,324.1,228.8,324,229z M314.6,227.3
		c1.4,4,3.7,5.8,7,5.5l0,0c0.2,1.3-0.4,2-1.7,2.1c-0.2,0-0.5,0-0.7,0l0.8,0.8c-0.3,0.2-0.7,0.3-1,0.4c-0.8,0.1-1.5-0.2-2.2-1
		c0,0.5-0.3,1.1-0.9,1.7c-0.7-0.5-1.2-1-1.3-1.5c-0.5,0.9-1.1,1.4-1.9,1.5c-0.3,0-0.7,0-1.1-0.1l0.5-1c-0.3,0.1-0.5,0.1-0.7,0.1
		c-1.3,0.2-2-0.4-2.2-1.6l0,0C312.5,233.9,314.3,231.5,314.6,227.3z M315.5,241.6c-0.3-0.2-0.4-0.5-0.5-0.9c0-0.4,0-0.7,0.3-1
		c0.2-0.3,0.5-0.4,0.8-0.5c0.4,0,0.7,0,1,0.2c0.3,0.2,0.4,0.5,0.5,0.9c0,0.4,0,0.7-0.3,1c-0.2,0.3-0.5,0.4-0.9,0.5
		C316.1,241.9,315.8,241.8,315.5,241.6z M313.8,226.5c-0.2-0.2-0.3-0.4-0.4-0.6c0-0.3,0-0.5,0.2-0.7c0.2-0.2,0.4-0.3,0.6-0.4
		c0.3,0,0.5,0,0.7,0.2c0.2,0.2,0.3,0.4,0.4,0.7s0,0.5-0.2,0.7c-0.2,0.2-0.4,0.3-0.7,0.4C314.3,226.7,314,226.7,313.8,226.5z
		 M315.6,238.6c-0.2-0.1-0.2-0.3-0.3-0.5c0-0.2,0-0.3,0.1-0.5c0.1-0.2,0.3-0.2,0.4-0.3c0.2,0,0.4,0,0.5,0.1c0.2,0.1,0.2,0.3,0.3,0.4
		c0,0.2,0,0.4-0.1,0.5c-0.1,0.2-0.3,0.2-0.5,0.3C315.9,238.7,315.7,238.7,315.6,238.6z M306,231.3c-0.1-0.2-0.1-0.4-0.2-0.7l0-0.1
		c0-0.4,0.1-0.7,0.3-1c0.2-0.3,0.5-0.5,1-0.6c0.4-0.1,0.8,0,1.2,0.3c0.4,0.3,0.6,0.6,0.6,1.1c0.1,0.4-0.1,0.8-0.3,1.2
		c-0.1,0.2-0.2,0.3-0.4,0.4c0.4,0.2,0.8,0.3,1.2,0.3l0.2,0c1.1-0.1,1.9-0.5,2.5-1.2c0.6-0.7,1.2-1.9,1.5-3.4
		c0.2,1.7-0.1,3.1-0.7,4.2c-0.7,1.1-1.6,1.7-2.9,1.9C308.1,233.8,306.8,233,306,231.3z M300.4,227.6c-0.6-0.5-0.9-1.3-1.1-2.3
		c0-0.4-0.1-0.8-0.1-1.2c0-1.7,0.9-2.9,2.7-3.7c0.6-0.3,1.2-0.4,1.9-0.5c1.3-0.2,2.7,0,4.2,0.6c2.3,0.8,3.7,2.4,4.4,4.7
		c-1.6-1.2-3-1.7-4.2-1.5c-0.1,0-0.2,0-0.3,0.1c-0.5,1.1-1.2,1.7-2.2,1.8c-0.4,0-0.6-0.4-0.7-1.3c-0.6,0.5-1.3,0.8-2,0.9
		c-0.3,0-0.5,0-0.8,0c-0.1-0.3-0.2-0.5-0.2-0.7c0-0.4,0-0.7,0.2-1c0.3-0.5,0.8-0.9,1.4-1.2s1-0.5,1-0.7c-2.4,0.4-3.7,1.5-3.8,3.1
		c0,0.4,0,0.8,0,1.1c0.1,1,0.6,1.8,1.4,2.2c-0.1,0.1-0.2,0.2-0.4,0.3C301.3,228.3,300.9,228.1,300.4,227.6z"/>
	<path fill="#B7CBD5" d="M438.6,221.7c0-0.4,0.1-0.8,0.3-1.2c0.5-1.6,1.6-2.6,3.6-2.9c0.6-0.1,1.3-0.1,1.9,0
		c1.3,0.2,2.6,0.7,3.9,1.6c2,1.4,3,3.3,3,5.7c-1.2-1.5-2.4-2.4-3.7-2.5c-0.1,0-0.2,0-0.3,0c-0.7,0.9-1.6,1.3-2.6,1.2
		c-0.4-0.1-0.5-0.6-0.4-1.4c-0.7,0.3-1.5,0.4-2.2,0.3c-0.3,0-0.5-0.1-0.8-0.2c0-0.3,0-0.5,0-0.8c0-0.4,0.2-0.7,0.4-0.9
		c0.4-0.4,0.9-0.7,1.7-0.8c0.7-0.1,1.1-0.2,1.1-0.4c-2.5-0.2-4,0.5-4.5,2c-0.1,0.4-0.2,0.7-0.3,1.1c-0.1,1,0.1,1.9,0.8,2.5
		c-0.1,0.1-0.3,0.2-0.4,0.1c-0.3,0-0.6-0.3-1-0.9C438.6,223.6,438.5,222.7,438.6,221.7z M455.4,210.3c0.7,0.4,0.9,1.4,0.7,2.8
		c0.2-0.2,0.4-0.4,0.7-0.4c0.3,0.3,0.5,0.8,0.4,1.6c0,0.1,0,0.3-0.1,0.5c-0.3,1.1-0.8,2.3-1.6,3.9c-0.6,1.1-1,2-1,2.6
		c0,0.2,0,0.3,0,0.4c0.4,0,1.2-1.4,2.3-4c1.2-2.9,2.7-4.2,4.3-4c0.2,0.2,0.2,0.5,0.2,0.9c0,0.3-0.1,0.6-0.3,1
		c0.6-0.5,1.3-0.7,2.1-0.6c0.2,0,0.3,0.1,0.5,0.1c1,0.3,1.6,0.9,1.9,1.8c0.1,0.3,0.1,0.7,0.1,1c-0.1,0.5-0.3,1-0.8,1.3
		c-0.2-0.8-0.8-1.3-1.8-1.7l-0.4-0.1c-2.7-0.3-5.4,1.9-8.1,6.5l-1.9-0.3c-1.4-5.1-3.5-7.9-6.1-8.3l-0.4-0.1
		c-1.1,0.1-1.8,0.5-2.2,1.2c-0.3-0.5-0.5-1-0.4-1.5c0-0.3,0.2-0.6,0.3-0.9c0.5-0.8,1.2-1.3,2.3-1.3c0.2,0,0.4,0,0.5,0
		c0.8,0.1,1.4,0.5,1.8,1.1c-0.1-0.4-0.1-0.7,0-1c0.1-0.4,0.2-0.7,0.4-0.9c1.6,0.2,2.7,1.9,3.2,5c0.4,2.8,0.8,4.3,1.2,4.5
		c0.1-0.1,0.1-0.2,0.1-0.4c0.1-0.6,0-1.5-0.4-2.7c-0.4-1.7-0.6-3.1-0.6-4.2c0-0.2,0-0.3,0-0.5c0.1-0.8,0.4-1.3,0.8-1.5
		c0.3,0.1,0.5,0.3,0.6,0.6c0.2-1.4,0.7-2.3,1.4-2.5L455.4,210.3z M443.5,228.5C443.5,228.5,443.5,228.4,443.5,228.5
		c0.1-0.5,0.2-0.8,0.5-1c0.3-0.3,0.7-0.4,1.1-0.3c0.4,0.1,0.8,0.3,1.1,0.6c0.3,0.4,0.4,0.8,0.3,1.2c-0.1,0.4-0.3,0.8-0.6,1.1
		c-0.1,0.1-0.3,0.2-0.5,0.2c0.3,0.3,0.7,0.5,1.1,0.6l0.2,0c1.1,0.1,2,0,2.7-0.5c0.8-0.5,1.6-1.5,2.4-2.9c-0.3,1.7-0.9,3-1.8,3.8
		c-0.9,0.9-2,1.2-3.3,1.1c-1.8-0.2-3-1.3-3.3-3.2C443.5,229,443.5,228.8,443.5,228.5z M458.3,234.7L458.3,234.7
		c-0.2,1.3-0.9,1.8-2.2,1.7c-0.2,0-0.5-0.1-0.7-0.1l0.5,1c-0.4,0.1-0.8,0.2-1.1,0.1c-0.8-0.1-1.4-0.6-1.9-1.5
		c-0.1,0.5-0.5,1-1.3,1.5c-0.6-0.7-0.9-1.3-0.9-1.7c-0.7,0.8-1.4,1.1-2.2,1c-0.3,0-0.7-0.2-1-0.4l0.8-0.8c-0.3,0-0.5,0-0.7,0
		c-1.3-0.2-1.9-0.9-1.7-2.1l0,0c3.3,0.3,5.6-1.5,7-5.5C453.3,231.8,455,234.1,458.3,234.7z M451.1,242.1c-0.4,0-0.6-0.2-0.9-0.5
		c-0.2-0.3-0.3-0.6-0.3-1c0-0.4,0.2-0.6,0.5-0.9c0.3-0.2,0.6-0.3,1-0.2c0.3,0,0.6,0.2,0.8,0.5c0.2,0.3,0.3,0.6,0.3,1
		c0,0.4-0.2,0.6-0.5,0.9C451.7,242.1,451.4,242.1,451.1,242.1z M453,226.9c-0.3,0-0.5-0.2-0.7-0.4c-0.2-0.2-0.2-0.4-0.2-0.7
		c0-0.3,0.2-0.5,0.4-0.7c0.2-0.2,0.5-0.2,0.7-0.2c0.3,0,0.5,0.2,0.6,0.4c0.2,0.2,0.2,0.5,0.2,0.7c0,0.3-0.2,0.5-0.4,0.6
		C453.5,226.9,453.3,227,453,226.9z M451.5,238.9c-0.2,0-0.3-0.1-0.5-0.3c-0.1-0.2-0.2-0.3-0.1-0.5c0-0.2,0.1-0.3,0.3-0.4
		c0.2-0.1,0.3-0.2,0.5-0.1c0.2,0,0.3,0.1,0.4,0.3c0.1,0.2,0.2,0.3,0.1,0.5c0,0.2-0.1,0.3-0.3,0.5C451.8,238.9,451.6,239,451.5,238.9
		z M457.6,233.8c-1.3-0.2-2.3-0.8-2.9-1.9c-0.7-1.1-0.9-2.4-0.7-4.2c0.4,1.6,0.9,2.7,1.5,3.4c0.6,0.6,1.4,1,2.5,1.2l0.2,0
		c0.5,0,0.9,0,1.2-0.3c-0.1-0.1-0.3-0.2-0.4-0.4c-0.3-0.4-0.4-0.7-0.3-1.2c0.1-0.4,0.3-0.8,0.6-1.1c0.4-0.3,0.8-0.4,1.2-0.3
		c0.4,0.1,0.8,0.3,1,0.6c0.2,0.3,0.3,0.7,0.3,1l0,0.1c0,0.3-0.1,0.5-0.2,0.7C460.7,233.3,459.4,234,457.6,233.8z M466,228.5
		c-0.2,0-0.3-0.1-0.4-0.3c0.8-0.4,1.3-1.2,1.4-2.2c0-0.3,0.1-0.7,0-1.1c-0.1-1.6-1.4-2.7-3.8-3.1c0,0.1,0.3,0.4,1,0.7
		c0.7,0.3,1.2,0.7,1.4,1.2c0.2,0.3,0.2,0.6,0.2,1c0,0.2-0.1,0.5-0.2,0.7c-0.3,0-0.6,0-0.8,0c-0.7-0.1-1.4-0.4-2-0.9
		c-0.1,0.8-0.3,1.3-0.7,1.3c-1-0.1-1.8-0.7-2.2-1.8c-0.1,0-0.2,0-0.3-0.1c-1.3-0.2-2.7,0.3-4.2,1.5c0.6-2.3,2.1-3.9,4.4-4.7
		c1.5-0.6,2.9-0.7,4.2-0.6c0.6,0.1,1.3,0.3,1.9,0.5c1.8,0.8,2.7,2,2.7,3.7c0,0.4,0,0.9-0.1,1.2c-0.1,1-0.5,1.8-1.1,2.3
		C466.7,228.3,466.3,228.5,466,228.5z"/>
	<g>
		<path fill="#626262" d="M573.8,306.4c-2.3-1.1-2,0.9-4-1.1c-2-2-4.3-10,0-19.4s11.7-19.7,10.3-29.2c-1.4-9.4-1.7-14.3-1.7-14.3
			h-25.3h-0.5h-25.3c0,0-0.3,4.9-1.7,14.3c-1.4,9.4,6,19.7,10.3,29.2s2,17.4,0,19.4c-2,2-1.7,0-4,1.1c-2.3,1.1-0.3,4.3,2,4.6
			c2.3,0.3,6.9-2.6,7.1-13.1c0.3-10.6-5.4-24.3-9.1-30.9c-3.7-6.6-1.1-13.1,1.1-14.9c2.3-1.7,6.6,0.3,12.3,1.1
			c3.9,0.6,6.3-1.4,7.5-2.6c1.2,1.3,3.6,3.2,7.5,2.6c5.7-0.9,10-2.9,12.3-1.1c2.3,1.7,4.9,8.3,1.1,14.9c-3.7,6.6-9.4,20.3-9.1,30.9
			c0.3,10.6,4.9,13.4,7.1,13.1C574.1,310.7,576.1,307.6,573.8,306.4z"/>
		<path fill="#7C655B" d="M582.3,242.4h-58.8c-0.9,0-4.6-0.8-4.6-1.7l0,0c0-0.9,0.8-1.7,1.7-1.7h64.6c0.9,0,1.7,0.8,1.7,1.7l0,0
			C586.9,241.7,583.2,242.4,582.3,242.4z"/>
		<path fill="#7C655B" d="M579,244.9h-52.3c-0.8,0-4.3-0.7-4.3-1.6l0,0c0-0.9,0.7-1.6,1.6-1.6h57.7c0.9,0,1.6,0.7,1.6,1.6l0,0
			C583.4,244.2,579.9,244.9,579,244.9z"/>
	</g>
	<g>
		<circle fill="#72A1AF" cx="563.3" cy="206.4" r="1.1"/>
		<path fill="#72A1AF" d="M578.4,216.2c-1.1-1.9-3-2.6-5.4-2c-1.5,0.4-2.7,2-3.5,3.4v-6.2h0.5c0,0-1.1-3.2-6.6-3.5l0,0
			c-0.1,0-0.2,0-0.4,0c-0.1,0-0.2,0-0.4,0l0,0c-5.5,0.3-6.6,3.5-6.6,3.5h0.8c0,0.2,0.1,0.5-0.1,0.7c-0.2,0.3-2.2,1-2.2,1
			s1.7,0.7,2,1.2c0.3,0.5,0.4,18.9,0.4,22.3c-0.1,0-0.1,0-0.2,0c-2,0.2-1.9,2.3-1.9,2.3s0.1,0,0.4,0c2.4,0,15.8,0,16,0
			c0.2,0,0.4,0,0.4,0s0.1-2.1-1.9-2.3c0.6-3.5,5.2-11,7.5-14.3C579.2,219.4,579.6,218.2,578.4,216.2z M569.4,234.3v-14.9
			c0.5-1.2,2.1-4,3.7-4.4c2.1-0.5,3.5,0,4.5,1.6c0.9,1.5,0.7,2.4-1.2,5.2C576.4,221.9,571.3,229.3,569.4,234.3z"/>
	</g>
	<g>
		<path fill="#72A1AF" d="M526.8,231c0,4.1,3.4,7.5,7.5,7.5c4.1,0,7.5-3.3,7.5-7.5H526.8z"/>
		<polygon fill="#72A1AF" points="541.1,239 527.6,239 526.6,238.2 542,238.2 		"/>
	</g>
	<path fill="#72A1AF" d="M541.8,232.6c-1.1,0-2,0.9-2,2c0,1.1,0.9,2,2,2s2-0.9,2-2C543.8,233.5,542.9,232.6,541.8,232.6z
		 M541.8,235.8c-0.7,0-1.2-0.5-1.2-1.2c0-0.7,0.5-1.2,1.2-1.2s1.2,0.5,1.2,1.2C543,235.2,542.4,235.8,541.8,235.8z"/>
	<linearGradient id="SVGID_16_" gradientUnits="userSpaceOnUse" x1="553.7591" y1="202.9353" x2="553.7591" y2="181.8939">
		<stop  offset="0" style="stop-color:#E7E3DE"/>
		<stop  offset="0.8928" style="stop-color:#E7E3DE;stop-opacity:0.1072"/>
		<stop  offset="1" style="stop-color:#E7E3DE;stop-opacity:0"/>
	</linearGradient>
	<path opacity="0.53" fill="url(#SVGID_16_)" d="M553.7,168.5c0,0-13.5,10.3-7.7,20.5c5.8,10.3,10.7,9,6.8,13.3
		c-3.9,4.3,2.4,8.1,2.4,8.1s-3.2-3.9,0-6.4c3.2-2.6,10.5-5.6,6.8-11.1s-4.3-9.8,0.6-13.9"/>
	<g>
		<path fill="#E7E3DE" d="M237,272.8c1.2-3.3,5.5-9.3,4.5-14.3s-2.5-6.5-2.7-9c-0.2-2.5,1-42.2,1-42.2h-7.4h-67h-7.4
			c0,0,1.2,39.7,1,42.2s-1.7,4-2.7,9s3.3,11,4.5,14.3c1.2,3.3-0.5,10.8-1.2,12.3c-0.7,1.5-1.7,4.2,0.3,4.2s2.5-0.5,4-6.5
			s-0.3-11.2-0.7-16.3c-0.3-5.2,0.7-10,2.8-11.8c2.2-1.8,4.5-1,9.3-0.5s6.3,4.2,11.2,7.2c4.8,3,11.8,1.8,11.8,1.8h0.7
			c0,0,7,1.2,11.8-1.8c4.8-3,6.3-6.7,11.2-7.2c4.8-0.5,7.2-1.3,9.3,0.5c2.2,1.8,3.2,6.7,2.8,11.8c-0.3,5.2-2.2,10.3-0.7,16.3
			s2,6.5,4,6.5s1-2.7,0.3-4.2C237.5,283.7,235.9,276.2,237,272.8z"/>
		<g>
			<circle fill="#626262" cx="175.5" cy="219.6" r="3.3"/>
			<circle fill="#626262" cx="222.5" cy="219.6" r="3.3"/>
		</g>
		<g>
			<circle fill="#626262" cx="175.5" cy="242.5" r="3.3"/>
			<circle fill="#626262" cx="222.5" cy="242.5" r="3.3"/>
		</g>
		<circle fill="#626262" cx="199" cy="261.7" r="3.3"/>
		<path fill="#626262" d="M200.6,216.2c0,0.9-0.7,1.6-1.6,1.6s-1.6-0.7-1.6-1.6c0-0.9,0.7-3.6,1.6-3.6S200.6,215.4,200.6,216.2z"/>
		<path fill="#626262" d="M200.6,238.2c0,0.9-0.7,1.6-1.6,1.6s-1.6-0.7-1.6-1.6s0.7-3.6,1.6-3.6S200.6,237.3,200.6,238.2z"/>
		<g>
			<path fill="none" stroke="#626262" stroke-miterlimit="10" d="M164,207.5v45.2c0,0,0,2.3,1.5,3"/>
			<path fill="none" stroke="#626262" stroke-miterlimit="10" d="M234.1,207.5v45.2c0,0,0,2.3-1.5,3"/>
		</g>
		<line fill="none" stroke="#626262" stroke-width="1.0088" stroke-miterlimit="10" x1="164.1" y1="231.3" x2="234" y2="231.3"/>
		<g>
			<path fill="#7C655B" d="M243.4,205.4h-88.8c-0.9,0-4.6-0.8-4.6-1.7l0,0c0-0.9,0.8-1.7,1.7-1.7h94.5c0.9,0,1.7,0.8,1.7,1.7l0,0
				C248,204.6,244.3,205.4,243.4,205.4z"/>
			<path fill="#7C655B" d="M240.2,207.8h-82.2c-0.8,0-4.3-0.7-4.3-1.6v0c0-0.9,0.7-1.6,1.6-1.6h87.7c0.9,0,1.6,0.7,1.6,1.6v0
				C244.5,207.1,241,207.8,240.2,207.8z"/>
		</g>
	</g>
	<g>
		<path fill="#97BC7E" d="M206,170.7c0,0,6.9-4.2,8.3-4.8c1.5-0.6,1.7-0.6,1.7-0.6s-5.6,3.2-8.1,5.6s-3.8,4.4-3.8,4.4l3.4-0.2
			l-3.4,1.7l-13.5-0.1c0,0-0.3-2-2.8-2c-2.5,0-5.7,1.9-5.7,1.9s1.3-2.4,3-2.8c1.7-0.5,3.8-0.5,3.8-0.5s-4-1.3-6.1-3.4
			c-2.2-2.2-4.3-5.3-4.3-5.3s4,1.5,4.8,2.2c0.8,0.8,1.9,2.1,1.9,2.1l-2.2-4.4l0.5-3.6l2.3,1.5c0,0-0.9-4.2-0.5-5.6
			c0.4-1.4,0.4-1.4,0.4-1.4s-0.3,2.7,1.3,4c1.6,1.3,2.9,0.9,2.9,0.9l2.6-3.9c0,0-0.1-3.3-0.4-3.8c-0.3-0.5-0.3-0.5-0.3-0.5l1.6,2
			l1.4,3.2l2.6,1.4l-0.3-4.4l1.1,0.5l-0.2,4.8l0.1,0.5l0.1,0.7c0,0,0.5-3.4,1.3-4c0.8-0.7,1.2-0.7,1.2-0.7s-1.5,2.5-1.3,4.9
			c0.2,2.4,0.2,2.4,0.2,2.4l2.6-2.3l4.4,1.9l2-4.4c0,0,0.4,2.2,0.3,3.9c-0.1,1.7-2.2,7.2-2.2,7.2l2.8-3.4l0.3,0.5L206,170.7z"/>
		<path fill="#FFB9D9" d="M215,161.2c0,0,0.1,1.7-1,3.2c-1.1,1.5-1.5,2.4-2.6,2.4c-1.1,0-1.9,0.1-2.4-0.1s-0.8-0.9-0.8-0.9
			s-0.7,0.6-1.9,0.6s-2.2-0.7-2.2-1.5c0-0.8,0-1.8,0-1.8s-1.7,0.3-2.5-0.4c-0.8-0.7-1.5-3.2-1.5-4.2c-0.1-1,0.2-1-0.1-1
			c-0.3,0-1,0.4-1.6-0.5s-0.8-2-0.8-2l-1.7,1.5c0,0,2.7,1.4,2.7,4c0,2.6-0.9,3.4-2.1,3.4c-1.2,0.1-2.4,0.1-2.8-1.7s-1-3.3-0.6-4.4
			c0.4-1.1,0.9-1.9,0.9-1.9s-1.3-1.8-0.7-3.5s1-2,1-2l0.9,0.9l1-1c0,0,0.1,1.3,0.3,1.1c0.2-0.1,1-1.1,1-1.1l0.4,2.2
			c0,0,1.4-2.2,2-2.4v0.6h0.9l0.1,0.3l0.9-0.1l0.3-0.1l0.3,0.7l0.8-0.3l0.1,0.7l-0.1,1.6c0,0,1.3-1.3,1.7-1.3s0.8,0.8,1,0.8
			s1.3,0.1,1.3,0.1s0.2,1.3,0.4,1.3c0.2,0,1.3-0.4,1.3,0s0.1,0.8,0,1.2c-0.1,0.4,0.5,0.5,0.5,0.5s-1.5,2.3-2.8,3l-0.1,1.1l1.1-0.5
			l0.9,0.7h0.5l0.3,1.1c0,0,1.1-1.6,1.9-1.8c0.8-0.2,0.8-0.2,0.8-0.2l-0.3,0.4l1.9,0.3l0.7,1.2L215,161.2z"/>
		<path fill="#FFB9D9" d="M206.3,165.8c0,0-3.8,0.8-4.4,1.7c-0.6,0.9-1.4,2.7-0.8,3.7c0.6,1,2,1.7,3.8,1s3.1-3.4,2.9-3.4
			c-0.2,0-1,0-1,0l-0.1-1l-0.5-0.3l-0.1-0.7L206.3,165.8z"/>
		<path fill="#FFB9D9" d="M197.1,164.8c0.7,0.5,1.5,2.2,1.5,3.5c0,1.3-0.6,2-1.6,2.3c-1,0.3-2.3-0.2-2.8-0.9
			c-0.5-0.7-0.8-1.5-0.8-2.4c0-0.9,0.4-1.9,0.4-1.9l0.3,0.3c0,0,0.1-0.5,0.7-0.6c0.6-0.1,1.2-0.1,1.2-0.1l-0.1-0.3L197.1,164.8z"/>
		<path fill="#FFB9D9" d="M191.7,168.6c0,0.1-0.1,0.1-0.2,0.1c-0.6,0.5-1.3,0.8-1.9,0.8c-0.6,0,1.1,0.1,1.2,1.4s0.4,3.1-0.9,4
			s-1.7,1-2.6,0.6c-0.9-0.4-2.4-1-2.7-1.5c-0.3-0.5-0.3-1.6-0.3-1.6l1.3-1.1c0,0,0.1-0.9,0.3-0.9c0.2,0,2.1-0.9,2.6-0.9
			c0,0-2.2-0.5-3-1.3s-0.9-1.3-0.9-1.3s1.5,0.2,1.5,0c0-0.2-0.7-1.7-0.4-2.1s0.9-0.5,0.9-0.5s-0.7-1.1-0.1-1.2c0.6-0.1,1-0.3,1-0.3
			s-1.1-2.8-1.3-3.6c-0.2-0.8-0.2-0.8-0.2-0.8l0.7,0.1l0.4-1.1c0,0-0.8-1.6-0.9-2.5c-0.1-0.9-0.1-1.3-0.1-1.3h0.9l0.8-0.8l1.2-0.1
			l0.3-0.6c0,0,1.4,0.6,2.2,1.8c0.9,1.2,1.5,2.5,1.1,3.4c-0.4,0.9-1.1,1.7-1.1,1.7s0.4,1.5-0.1,2.6s-0.5,1.1-0.5,1.1
			s1.1,1.6,1.2,3.2C192.2,167.6,192.6,167.5,191.7,168.6z"/>
		<path fill="#FFB9D9" d="M183.3,166.9c-1.4,0.4-2.6-0.1-3.2-0.8s-1.6-3.2-1.6-3.2l1.3-0.1c0,0-0.1-1,0.1-1c0.2,0,0.9,0,0.9,0V161
			c0,0,2.2,0.7,2.9,3C184.4,166.3,183.3,166.9,183.3,166.9z"/>
		<path fill="#FFB9D9" d="M184.3,161.2c-0.8,0.3-2.9-0.4-3.4-1.9s0.5-3.8,0.5-3.8l1.3,0.6l0.5-0.1l0.4-0.5c0,0,1.5,1.7,1.8,3.2
			S184.3,161.2,184.3,161.2z"/>
	</g>
	<g>
		<path fill="#E7E3DE" d="M205,172.8l-9.9,3.5l-4.3,0.1l2.1,5.7c0,0-6.2,19.7-5.7,19.7c0.6,0,20.5,0,20.5,0l-6.4-20.4L205,172.8z"/>
		<path fill="#E7E3DE" d="M192.1,177.2c0,0-6.9-1.2-8.7,2.8c-1.8,4,6.1,16.1,6.1,16.1l0.8-2.2c0,0-6.8-9-5.6-13
			c1.2-4,8.3-1.9,8.3-1.9"/>
	</g>
	<g>
		<circle fill="#E7E3DE" cx="552.4" cy="82" r="21.3"/>
		<g>
			<g>
				<path fill="#808080" d="M552.6,69C552.6,69,552.6,69,552.6,69c0,0.1-0.1,0-0.4,0c-0.2,0-0.3,0-0.4,0c0,0,0,0,0-0.1v-0.2
					c0,0,0-0.1,0-0.1h0c0.1,0,0.1,0,0.1-0.1c0-0.1-0.2-1.4-0.3-1.9h0c-0.1,0.5-0.4,1.7-0.4,1.9c0,0.1,0,0.2,0.1,0.2h0.1c0,0,0,0,0,0
					V69c0,0,0,0.1,0,0.1c0,0-0.1,0-0.3,0c-0.2,0-0.3,0-0.3,0c0,0,0,0,0-0.1v-0.2c0,0,0-0.1,0-0.1h0.1c0,0,0.1-0.1,0.2-0.3
					c0.1-0.4,0.3-1,0.5-2.2c-0.1-0.6-0.5-2.5-0.5-2.7c0-0.1-0.1-0.1-0.1-0.1h-0.1c0,0,0,0,0-0.1v-0.2c0,0,0-0.1,0-0.1
					c0,0,0.1,0,0.4,0c0.3,0,0.4,0,0.4,0c0,0,0,0,0,0.1v0.2c0,0,0,0.1,0,0.1h-0.1c0,0-0.1,0.1-0.1,0.2c0,0.1,0.2,1.5,0.3,1.7h0
					c0.1-0.5,0.3-1.5,0.3-1.7c0-0.1,0-0.2-0.1-0.2H552c0,0,0,0,0-0.1v-0.2c0,0,0-0.1,0-0.1c0,0,0.1,0,0.3,0c0.1,0,0.2,0,0.3,0
					c0,0,0,0,0,0.1v0.2c0,0.1,0,0.1,0,0.1h-0.1c-0.1,0-0.1,0-0.2,0.1c-0.1,0.2-0.3,1.1-0.5,2.1c0.2,0.9,0.4,2.3,0.5,2.7
					c0,0.2,0.1,0.2,0.1,0.2h0.1c0,0,0,0,0,0.1V69z"/>
				<path fill="#808080" d="M553,65.6c0-0.2,0-1.7,0-1.8c0-0.2,0-0.3-0.1-0.3h-0.1c0,0,0,0,0,0v-0.2c0,0,0,0,0,0c0,0,0.2,0,0.4,0
					c0.3,0,0.3,0,0.4,0c0,0,0,0,0,0.1v0.2c0,0,0,0.1,0,0.1h-0.1c-0.1,0-0.1,0.1-0.1,0.2c0,0.1,0,1.9,0,2v0.6c0,0.1,0,2,0,2.1
					c0,0.3,0,0.3,0.1,0.3h0.1c0,0,0,0,0,0.1V69c0,0,0,0,0,0c0,0-0.1,0-0.4,0c-0.3,0-0.4,0-0.4,0c0,0,0,0,0-0.1v-0.2c0,0,0,0,0,0h0.1
					c0.1,0,0.1,0,0.1-0.2c0-0.1,0-1.9,0-2.3V65.6z"/>
				<path fill="#808080" d="M554.1,65.6c0-0.2,0-1.7,0-1.8c0-0.2,0-0.3-0.1-0.3h-0.1c0,0,0,0,0,0v-0.2c0,0,0,0,0,0c0,0,0.2,0,0.4,0
					c0.3,0,0.3,0,0.4,0c0,0,0,0,0,0.1v0.2c0,0,0,0.1,0,0.1h-0.1c-0.1,0-0.1,0.1-0.1,0.2c0,0.1,0,1.9,0,2v0.6c0,0.1,0,2,0,2.1
					c0,0.3,0,0.3,0.1,0.3h0.1c0,0,0,0,0,0.1V69c0,0,0,0,0,0c0,0-0.1,0-0.4,0c-0.3,0-0.4,0-0.4,0c0,0,0,0,0-0.1v-0.2c0,0,0,0,0,0h0.1
					c0.1,0,0.1,0,0.1-0.2c0-0.1,0-1.9,0-2.3V65.6z"/>
			</g>
			<g>
				<path fill="#808080" d="M569.4,81.1c0.2,0,1.7,0,1.8,0c0.2,0,0.3,0,0.3-0.1v-0.1c0,0,0,0,0,0h0.2c0,0,0,0,0,0c0,0,0,0.2,0,0.4
					c0,0.3,0,0.3,0,0.4c0,0,0,0-0.1,0h-0.2c0,0-0.1,0-0.1,0v-0.1c0-0.1-0.1-0.1-0.2-0.1c-0.1,0-1.9,0-2,0h-0.6c-0.1,0-2,0-2.1,0
					c-0.3,0-0.3,0-0.3,0.1v0.1c0,0,0,0-0.1,0H566c0,0,0,0,0,0c0,0,0-0.1,0-0.4c0-0.3,0-0.4,0-0.4c0,0,0,0,0.1,0h0.2c0,0,0,0,0,0V81
					c0,0.1,0,0.1,0.2,0.1c0.1,0,1.9,0,2.3,0H569.4z"/>
				<path fill="#808080" d="M569.4,82.2c0.2,0,1.7,0,1.8,0c0.2,0,0.3,0,0.3-0.1V82c0,0,0,0,0,0h0.2c0,0,0,0,0,0c0,0,0,0.2,0,0.4
					c0,0.3,0,0.3,0,0.4c0,0,0,0-0.1,0h-0.2c0,0-0.1,0-0.1,0v-0.1c0-0.1-0.1-0.1-0.2-0.1c-0.1,0-1.9,0-2,0h-0.6c-0.1,0-2,0-2.1,0
					c-0.3,0-0.3,0-0.3,0.1v0.1c0,0,0,0-0.1,0H566c0,0,0,0,0,0c0,0,0-0.1,0-0.4c0-0.3,0-0.4,0-0.4c0,0,0,0,0.1,0h0.2c0,0,0,0,0,0V82
					c0,0.1,0,0.1,0.2,0.1c0.1,0,1.9,0,2.3,0H569.4z"/>
				<path fill="#808080" d="M569.4,83.3c0.2,0,1.7,0,1.8,0c0.2,0,0.3,0,0.3-0.1v-0.1c0,0,0,0,0,0h0.2c0,0,0,0,0,0c0,0,0,0.2,0,0.4
					c0,0.3,0,0.3,0,0.4c0,0,0,0-0.1,0h-0.2c0,0-0.1,0-0.1,0v-0.1c0-0.1-0.1-0.1-0.2-0.1c-0.1,0-1.9,0-2,0h-0.6c-0.1,0-2,0-2.1,0
					c-0.3,0-0.3,0-0.3,0.1v0.1c0,0,0,0-0.1,0H566c0,0,0,0,0,0c0,0,0-0.1,0-0.4c0-0.3,0-0.4,0-0.4c0,0,0,0,0.1,0h0.2c0,0,0,0,0,0v0.1
					c0,0.1,0,0.1,0.2,0.1c0.1,0,1.9,0,2.3,0H569.4z"/>
			</g>
			<g>
				<path fill="#808080" d="M536.5,84c-0.2,0-1.7,0-1.8,0c-0.2,0-0.3,0-0.3,0.1v0.1c0,0,0,0,0,0h-0.2c0,0,0,0,0,0c0,0,0-0.2,0-0.4
					c0-0.3,0-0.3,0-0.4c0,0,0,0,0.1,0h0.2c0,0,0.1,0,0.1,0v0.1c0,0.1,0.1,0.1,0.2,0.1c0.1,0,1.9,0,2,0h0.6c0.1,0,2,0,2.1,0
					c0.3,0,0.3,0,0.3-0.1v-0.1c0,0,0,0,0.1,0h0.2c0,0,0,0,0,0c0,0,0,0.1,0,0.4c0,0.3,0,0.4,0,0.4c0,0,0,0-0.1,0h-0.2c0,0,0,0,0,0
					v-0.1c0-0.1,0-0.1-0.2-0.1c-0.1,0-1.9,0-2.3,0H536.5z"/>
				<path fill="#808080" d="M539.8,81.5C539.9,81.5,539.9,81.5,539.8,81.5c0.1,0,0,0.1,0,0.4c0,0.2,0,0.3,0,0.4c0,0,0,0-0.1,0h-0.2
					c0,0-0.1,0-0.1,0v0c0-0.1,0-0.1-0.1-0.1c-0.1,0-1.4,0.2-1.9,0.3v0c0.5,0.1,1.7,0.4,1.9,0.4c0.1,0,0.2,0,0.2-0.1v-0.1
					c0,0,0,0,0,0h0.2c0,0,0.1,0,0.1,0c0,0,0,0.1,0,0.3c0,0.2,0,0.3,0,0.3c0,0,0,0-0.1,0h-0.2c0,0-0.1,0-0.1,0v-0.1
					c0,0-0.1-0.1-0.3-0.2c-0.4-0.1-1-0.3-2.2-0.5c-0.6,0.1-2.5,0.5-2.7,0.5c-0.1,0-0.1,0.1-0.1,0.1v0.1c0,0,0,0-0.1,0h-0.2
					c0,0-0.1,0-0.1,0c0,0,0-0.1,0-0.4c0-0.3,0-0.4,0-0.4c0,0,0,0,0.1,0h0.2c0,0,0.1,0,0.1,0v0.1c0,0,0.1,0.1,0.2,0.1
					c0.1,0,1.5-0.2,1.7-0.3v0c-0.5-0.1-1.5-0.3-1.7-0.3c-0.1,0-0.2,0-0.2,0.1v0.1c0,0,0,0-0.1,0h-0.2c0,0-0.1,0-0.1,0
					c0,0,0-0.1,0-0.3c0-0.1,0-0.2,0-0.3c0,0,0,0,0.1,0h0.2c0.1,0,0.1,0,0.1,0v0.1c0,0.1,0,0.1,0.1,0.2c0.2,0.1,1.1,0.3,2.1,0.5
					c0.9-0.2,2.3-0.4,2.7-0.5c0.2,0,0.2-0.1,0.2-0.1v-0.1c0,0,0,0,0.1,0H539.8z"/>
			</g>
			<g>
				<path fill="#808080" d="M541.7,75.2C541.8,75.2,541.8,75.3,541.7,75.2c0,0.1,0,0.1-0.2,0.4c-0.1,0.2-0.2,0.3-0.2,0.3
					c0,0,0,0-0.1,0l-0.2-0.1c0,0,0,0,0,0l0,0c0,0,0-0.1-0.1-0.1c-0.1-0.1-1.3-0.5-1.8-0.8l0,0c0.4,0.4,1.2,1.2,1.4,1.3
					c0.1,0.1,0.2,0.1,0.2,0.1l0-0.1c0,0,0,0,0.1,0l0.2,0.1c0,0,0.1,0,0.1,0.1c0,0-0.1,0.1-0.2,0.3c-0.1,0.1-0.1,0.2-0.1,0.2
					c0,0,0,0-0.1,0l-0.2-0.1c0,0,0,0,0,0l0-0.1c0,0,0-0.2-0.1-0.3c-0.2-0.3-0.7-0.8-1.5-1.6c-0.6-0.2-2.4-1-2.5-1
					c-0.1,0-0.1,0-0.2,0l0,0.1c0,0,0,0-0.1,0l-0.2-0.1c0,0-0.1,0,0,0c0,0,0.1-0.1,0.2-0.3c0.1-0.2,0.2-0.3,0.2-0.3c0,0,0,0,0.1,0
					l0.2,0.1c0,0,0.1,0,0,0.1l0,0.1c0,0,0,0.1,0.1,0.2c0.1,0.1,1.4,0.6,1.6,0.7l0,0c-0.4-0.4-1.1-1.1-1.3-1.2c-0.1,0-0.2-0.1-0.2,0
					l0,0.1c0,0,0,0-0.1,0l-0.2-0.1c0,0,0,0,0,0c0,0,0.1-0.1,0.2-0.3c0.1-0.1,0.1-0.2,0.1-0.2c0,0,0,0,0.1,0l0.2,0.1
					c0,0,0.1,0,0.1,0.1l0,0.1c0,0.1,0,0.1,0,0.2c0.1,0.2,0.8,0.8,1.5,1.6c0.8,0.3,2.2,0.9,2.6,1c0.2,0.1,0.2,0,0.2,0l0-0.1
					c0,0,0,0,0.1,0L541.7,75.2z"/>
			</g>
			<g>
				<path fill="#808080" d="M546.2,70.4C546.3,70.4,546.3,70.4,546.2,70.4c0,0.1-0.1,0.1-0.3,0.3c-0.2,0.1-0.3,0.2-0.3,0.2
					c0,0,0,0-0.1-0.1l-0.1-0.2c0,0,0,0,0-0.1l0,0c0,0,0-0.1,0-0.2c-0.1-0.1-0.9-1-1.3-1.4l0,0c0.2,0.5,0.6,1.6,0.7,1.7
					c0.1,0.1,0.1,0.2,0.2,0.1l0.1,0c0,0,0,0,0,0l0.1,0.2c0,0,0,0.1,0,0.1c0,0-0.1,0-0.3,0.2c-0.1,0.1-0.2,0.2-0.2,0.2
					c0,0,0,0-0.1-0.1l-0.1-0.2c0,0,0,0,0-0.1l0.1,0c0,0,0.1-0.1,0-0.3c-0.1-0.4-0.3-1-0.7-2.1c-0.5-0.5-1.8-1.8-1.9-1.9
					c-0.1-0.1-0.1,0-0.2,0l-0.1,0c0,0,0,0,0,0l-0.1-0.2c0,0,0-0.1,0-0.1c0,0,0.1-0.1,0.4-0.2c0.2-0.1,0.3-0.2,0.3-0.2
					c0,0,0,0,0.1,0.1l0.1,0.2c0,0,0,0.1,0,0.1l-0.1,0c0,0,0,0.1,0,0.2c0.1,0.1,1,1.1,1.2,1.3l0,0c-0.2-0.5-0.6-1.4-0.7-1.6
					c0-0.1-0.1-0.2-0.2-0.1l-0.1,0c0,0,0,0-0.1-0.1l-0.1-0.2c0,0,0,0,0-0.1c0,0,0.1-0.1,0.3-0.2c0.1-0.1,0.2-0.1,0.2-0.2
					c0,0,0,0,0.1,0.1l0.1,0.2c0,0,0,0.1,0,0.1l-0.1,0c-0.1,0-0.1,0.1-0.1,0.2c0,0.2,0.4,1.1,0.7,2c0.6,0.6,1.6,1.7,2,2
					c0.1,0.1,0.2,0.1,0.2,0.1l0.1,0c0,0,0,0,0,0L546.2,70.4z"/>
				<path fill="#808080" d="M544.6,67.3c-0.1-0.2-0.9-1.4-1-1.5c-0.1-0.2-0.2-0.2-0.2-0.2l-0.1,0.1c0,0,0,0,0,0l-0.1-0.2
					c0,0,0,0,0-0.1c0,0,0.2-0.1,0.4-0.2c0.2-0.1,0.3-0.2,0.3-0.2c0,0,0,0,0.1,0.1l0.1,0.2c0,0,0,0.1,0,0.1l-0.1,0
					c-0.1,0,0,0.1,0,0.2c0,0.1,1,1.6,1.1,1.7l0.3,0.5c0,0.1,1.1,1.6,1.1,1.7c0.1,0.2,0.2,0.2,0.2,0.2l0.1-0.1c0,0,0,0,0,0l0.1,0.2
					c0,0,0,0,0,0.1c0,0-0.1,0.1-0.3,0.2c-0.2,0.1-0.3,0.2-0.3,0.2c0,0,0,0-0.1,0l-0.1-0.2c0,0,0,0,0-0.1l0.1,0c0,0,0.1-0.1,0-0.2
					c-0.1-0.1-1-1.6-1.3-2L544.6,67.3z"/>
			</g>
			<g>
				<path fill="#808080" d="M566.8,73.2c0.2-0.1,1.4-0.9,1.5-0.9c0.2-0.1,0.2-0.2,0.2-0.2l-0.1-0.1c0,0,0,0,0,0l0.2-0.1
					c0,0,0,0,0.1,0c0,0,0.1,0.2,0.2,0.4c0.1,0.2,0.2,0.3,0.2,0.3c0,0,0,0-0.1,0.1l-0.2,0.1c0,0-0.1,0-0.1,0l0-0.1
					c0-0.1-0.1-0.1-0.2,0c-0.1,0-1.6,1-1.7,1l-0.5,0.3c-0.1,0-1.7,1-1.8,1.1c-0.2,0.1-0.2,0.2-0.2,0.2l0.1,0.1c0,0,0,0,0,0l-0.2,0.1
					c0,0,0,0-0.1,0c0,0,0-0.1-0.2-0.3c-0.1-0.2-0.2-0.3-0.2-0.3c0,0,0,0,0-0.1l0.2-0.1c0,0,0,0,0.1,0l0,0.1c0,0,0.1,0.1,0.2,0
					c0.1-0.1,1.6-1,2-1.2L566.8,73.2z"/>
				<path fill="#808080" d="M567.4,74.1c0.2-0.1,1.4-0.9,1.5-0.9c0.2-0.1,0.2-0.2,0.2-0.2l-0.1-0.1c0,0,0,0,0,0l0.2-0.1
					c0,0,0,0,0.1,0c0,0,0.1,0.2,0.2,0.4c0.1,0.2,0.2,0.3,0.2,0.3c0,0,0,0-0.1,0.1l-0.2,0.1c0,0-0.1,0-0.1,0l0-0.1
					c0-0.1-0.1-0.1-0.2,0c-0.1,0-1.6,1-1.7,1l-0.5,0.3c-0.1,0-1.7,1-1.8,1.1c-0.2,0.1-0.2,0.2-0.2,0.2l0.1,0.1c0,0,0,0,0,0l-0.2,0.1
					c0,0,0,0-0.1,0c0,0,0-0.1-0.2-0.3c-0.1-0.2-0.2-0.3-0.2-0.3c0,0,0,0,0-0.1l0.2-0.1c0,0,0,0,0.1,0l0,0.1c0,0,0.1,0.1,0.2,0
					c0.1-0.1,1.6-1,2-1.2L567.4,74.1z"/>
			</g>
			<g>
				<path fill="#808080" d="M561,67.5c0.1-0.2,0.8-1.5,0.8-1.6c0.1-0.2,0.1-0.3,0.1-0.3l-0.1-0.1c0,0,0,0,0-0.1l0.1-0.2c0,0,0,0,0,0
					c0,0,0.1,0.1,0.4,0.2c0.2,0.1,0.3,0.1,0.3,0.2c0,0,0,0,0,0.1l-0.1,0.2c0,0,0,0,0,0l-0.1,0c-0.1,0-0.1,0-0.2,0.1
					c0,0.1-0.9,1.7-1,1.8l-0.3,0.6c0,0.1-0.9,1.7-1,1.8c-0.1,0.2-0.1,0.3-0.1,0.3l0.1,0.1c0,0,0,0,0,0.1l-0.1,0.2c0,0,0,0,0,0
					c0,0-0.1-0.1-0.3-0.2c-0.2-0.1-0.3-0.2-0.4-0.2c0,0,0,0,0-0.1l0.1-0.2c0,0,0,0,0,0l0.1,0c0,0,0.1,0,0.2-0.1
					c0.1-0.1,0.9-1.7,1.1-2L561,67.5z"/>
			</g>
			<g>
				<path fill="#808080" d="M553.1,101C553.1,101.1,553.1,101.1,553.1,101c0,0.1-0.2,0-0.3,0c-0.2,0-0.3,0-0.3,0c0,0,0,0,0-0.1v-0.2
					c0,0,0-0.1,0-0.1h0.1c0,0,0.1-0.1,0.2-0.4c0.1-0.6,0.2-1.5,0.3-2.2c0.1-0.4,0.4-2.6,0.4-2.9c0-0.1,0-0.1,0.1-0.1
					c0,0,0,0.1,0.1,0.2c0.1,0.6,0.3,2.6,0.4,3.2c0.1,0.6,0.2,1.8,0.2,2c0,0.2,0.1,0.3,0.1,0.3h0.1c0,0,0,0,0,0.1v0.2
					c0,0,0,0.1,0,0.1c0,0-0.1,0-0.4,0c-0.3,0-0.4,0-0.4,0c0,0,0,0,0-0.1v-0.2c0,0,0-0.1,0-0.1h0.1c0.1,0,0.1-0.1,0.1-0.2
					c0-0.1,0-0.2,0-0.3c0-0.3-0.1-1.3-0.2-1.7l-0.2-1.8h0c-0.1,0.5-0.2,1.6-0.2,1.9c0,0.4-0.1,1.1-0.2,1.5c0,0.2,0,0.4,0,0.5
					c0,0.1,0,0.3,0.1,0.3h0.1c0,0,0,0,0,0.1V101z"/>
				<path fill="#808080" d="M552.2,98.7c0,0.2,0,1.7,0,1.8c0,0.2,0,0.3,0.1,0.3h0.1c0,0,0,0,0,0v0.2c0,0,0,0,0,0c0,0-0.2,0-0.4,0
					c-0.3,0-0.3,0-0.4,0c0,0,0,0,0-0.1v-0.2c0,0,0-0.1,0-0.1h0.1c0.1,0,0.1-0.1,0.1-0.2c0-0.1,0-1.9,0-2v-0.6c0-0.1,0-2,0-2.1
					c0-0.3,0-0.3-0.1-0.3h-0.1c0,0,0,0,0-0.1v-0.2c0,0,0,0,0,0c0,0,0.1,0,0.4,0c0.3,0,0.4,0,0.4,0c0,0,0,0,0,0.1v0.2c0,0,0,0,0,0
					h-0.1c-0.1,0-0.1,0-0.1,0.2c0,0.1,0,1.9,0,2.3V98.7z"/>
			</g>
			<g>
				<path fill="#808080" d="M543.7,98.8C543.7,98.9,543.6,98.9,543.7,98.8c-0.1,0-0.1-0.1-0.3-0.2c-0.2-0.1-0.3-0.2-0.3-0.2
					c0,0,0,0,0-0.1l0.1-0.2c0,0,0,0,0,0l0,0c0,0,0.1,0,0.4-0.2c0.4-0.4,1-1.1,1.5-1.6c0.3-0.3,1.8-2,2-2.1c0.1-0.1,0.1-0.1,0.1-0.1
					c0,0,0,0.1-0.1,0.2c-0.3,0.6-1.2,2.4-1.5,2.9c-0.3,0.5-0.8,1.6-0.9,1.8c-0.1,0.2-0.1,0.3-0.1,0.3l0.1,0c0,0,0,0,0,0.1l-0.1,0.2
					c0,0,0,0,0,0c0,0-0.1-0.1-0.3-0.3c-0.2-0.2-0.3-0.2-0.4-0.2c0,0,0,0,0-0.1l0.1-0.2c0,0,0-0.1,0.1,0l0.1,0.1c0.1,0,0.1,0,0.2-0.1
					c0-0.1,0.1-0.1,0.2-0.2c0.2-0.3,0.6-1.1,0.8-1.5l0.9-1.6l0,0c-0.4,0.4-1.1,1.2-1.3,1.4c-0.3,0.3-0.7,0.8-1,1.1
					c-0.1,0.2-0.2,0.3-0.3,0.4c-0.1,0.1-0.1,0.2-0.1,0.3l0.1,0c0,0,0,0,0,0.1L543.7,98.8z"/>
				<path fill="#808080" d="M544.3,96.4c-0.1,0.2-0.9,1.4-1,1.5c-0.1,0.2-0.1,0.2-0.1,0.3l0.1,0.1c0,0,0,0,0,0.1l-0.1,0.2
					c0,0,0,0,0,0c0,0-0.1-0.1-0.3-0.3c-0.2-0.1-0.3-0.2-0.3-0.2c0,0,0,0,0-0.1l0.1-0.2c0,0,0,0,0,0l0.1,0c0.1,0,0.1,0,0.2-0.1
					c0-0.1,1.1-1.6,1.1-1.6l0.4-0.5c0-0.1,1.1-1.6,1.2-1.7c0.1-0.2,0.1-0.3,0.1-0.3l-0.1-0.1c0,0,0,0,0-0.1l0.1-0.2c0,0,0,0,0,0
					c0,0,0.1,0.1,0.3,0.2c0.2,0.2,0.3,0.2,0.4,0.2c0,0,0,0,0,0.1l-0.1,0.2c0,0,0,0,0,0l-0.1,0c0,0-0.1,0-0.2,0.1
					c-0.1,0.1-1.1,1.6-1.3,1.9L544.3,96.4z"/>
				<path fill="#808080" d="M543.4,95.8c-0.1,0.2-0.9,1.4-1,1.5c-0.1,0.2-0.1,0.2-0.1,0.3l0.1,0.1c0,0,0,0,0,0.1l-0.1,0.2
					c0,0,0,0,0,0c0,0-0.1-0.1-0.3-0.3c-0.2-0.1-0.3-0.2-0.3-0.2c0,0,0,0,0-0.1l0.1-0.2c0,0,0,0,0,0l0.1,0c0.1,0,0.1,0,0.2-0.1
					c0-0.1,1.1-1.6,1.1-1.6l0.4-0.5c0-0.1,1.1-1.6,1.2-1.7c0.1-0.2,0.1-0.3,0.1-0.3l-0.1-0.1c0,0,0,0,0-0.1l0.1-0.2c0,0,0,0,0,0
					c0,0,0.1,0.1,0.3,0.2c0.2,0.2,0.3,0.2,0.4,0.2c0,0,0,0,0,0.1l-0.1,0.2c0,0,0,0,0,0l-0.1,0c0,0-0.1,0-0.2,0.1
					c-0.1,0.1-1.1,1.6-1.3,1.9L543.4,95.8z"/>
			</g>
			<g>
				<path fill="#808080" d="M537.5,93.2C537.5,93.2,537.5,93.2,537.5,93.2c-0.1,0-0.1-0.1-0.2-0.2c-0.1-0.2-0.2-0.2-0.2-0.3
					c0,0,0,0,0-0.1l0.2-0.1c0,0,0,0,0.1,0l0,0c0,0,0.1,0.1,0.5-0.1c0.5-0.2,1.4-0.7,2-1c0.4-0.2,2.4-1.3,2.6-1.4
					c0.1,0,0.1-0.1,0.1,0c0,0-0.1,0.1-0.1,0.2c-0.5,0.5-1.9,1.8-2.4,2.2c-0.4,0.4-1.3,1.2-1.5,1.4c-0.1,0.1-0.2,0.2-0.2,0.2l0,0.1
					c0,0,0,0-0.1,0.1l-0.2,0.1c0,0,0,0-0.1,0c0,0,0-0.1-0.2-0.4c-0.2-0.2-0.2-0.3-0.3-0.3c0,0,0,0,0-0.1l0.2-0.1c0,0,0.1,0,0.1,0
					l0.1,0.1c0,0,0.1,0,0.2,0c0.1,0,0.1-0.1,0.2-0.2c0.2-0.2,1-0.8,1.3-1.2l1.4-1.2l0,0c-0.5,0.3-1.4,0.8-1.7,0.9
					c-0.4,0.2-1,0.5-1.3,0.7c-0.2,0.1-0.3,0.2-0.4,0.2c-0.1,0.1-0.2,0.2-0.2,0.2l0,0.1c0,0,0,0-0.1,0.1L537.5,93.2z"/>
				<path fill="#808080" d="M538.9,91.1c-0.2,0.1-1.4,1-1.4,1.1c-0.2,0.1-0.2,0.2-0.2,0.2l0.1,0.1c0,0,0,0,0,0l-0.2,0.1
					c0,0,0,0-0.1,0c0,0-0.1-0.1-0.2-0.4c-0.2-0.2-0.2-0.3-0.2-0.3c0,0,0,0,0-0.1l0.2-0.1c0,0,0.1,0,0.1,0l0,0.1c0,0.1,0.1,0,0.2,0
					c0.1,0,1.5-1.1,1.6-1.2l0.5-0.4c0.1,0,1.6-1.2,1.7-1.2c0.2-0.1,0.2-0.2,0.2-0.2l-0.1-0.1c0,0,0,0,0-0.1l0.2-0.1c0,0,0,0,0.1,0
					c0,0,0.1,0.1,0.2,0.3c0.2,0.2,0.2,0.3,0.3,0.3c0,0,0,0,0,0.1l-0.2,0.1c0,0,0,0-0.1,0l0-0.1c0,0-0.1-0.1-0.2,0
					c-0.1,0.1-1.5,1.1-1.9,1.4L538.9,91.1z"/>
				<path fill="#808080" d="M538.2,90.2c-0.2,0.1-1.4,1-1.4,1.1c-0.2,0.1-0.2,0.2-0.2,0.2l0.1,0.1c0,0,0,0,0,0l-0.2,0.1
					c0,0,0,0-0.1,0c0,0-0.1-0.1-0.2-0.4c-0.2-0.2-0.2-0.3-0.2-0.3c0,0,0,0,0-0.1l0.2-0.1c0,0,0.1,0,0.1,0l0,0.1c0,0.1,0.1,0,0.2,0
					c0.1,0,1.5-1.1,1.6-1.2l0.5-0.4c0.1,0,1.6-1.2,1.7-1.2c0.2-0.1,0.2-0.2,0.2-0.2l-0.1-0.1c0,0,0,0,0-0.1l0.2-0.1c0,0,0,0,0.1,0
					c0,0,0.1,0.1,0.2,0.3c0.2,0.2,0.2,0.3,0.3,0.3c0,0,0,0,0,0.1l-0.2,0.1c0,0,0,0-0.1,0l0-0.1c0,0-0.1-0.1-0.2,0
					c-0.1,0.1-1.5,1.1-1.9,1.4L538.2,90.2z"/>
				<path fill="#808080" d="M537.6,89.3c-0.2,0.1-1.4,1-1.4,1.1c-0.2,0.1-0.2,0.2-0.2,0.2l0.1,0.1c0,0,0,0,0,0l-0.2,0.1
					c0,0,0,0-0.1,0c0,0-0.1-0.1-0.2-0.4c-0.2-0.2-0.2-0.3-0.2-0.3c0,0,0,0,0-0.1l0.2-0.1c0,0,0.1,0,0.1,0l0,0.1c0,0.1,0.1,0,0.2,0
					c0.1,0,1.5-1.1,1.6-1.2l0.5-0.4c0.1,0,1.6-1.2,1.7-1.2c0.2-0.1,0.2-0.2,0.2-0.2l-0.1-0.1c0,0,0,0,0-0.1l0.2-0.1c0,0,0,0,0.1,0
					c0,0,0.1,0.1,0.2,0.3c0.2,0.2,0.2,0.3,0.3,0.3c0,0,0,0,0,0.1l-0.2,0.1c0,0,0,0-0.1,0l0-0.1c0,0-0.1-0.1-0.2,0
					c-0.1,0.1-1.5,1.1-1.9,1.4L537.6,89.3z"/>
			</g>
			<g>
				<path fill="#808080" d="M562.1,98.4C562.1,98.5,562.1,98.5,562.1,98.4c0,0.1-0.1,0.1-0.3,0.2c-0.2,0.1-0.2,0.2-0.3,0.2
					c0,0,0,0-0.1-0.1l-0.1-0.2c0,0,0,0,0-0.1l0.1,0c0,0,0.1-0.1-0.1-0.5c-0.2-0.5-0.6-1.4-0.9-2c-0.2-0.4-1.1-2.4-1.2-2.7
					c0-0.1,0-0.1,0-0.1c0,0,0.1,0.1,0.2,0.1c0.4,0.5,1.7,2.1,2,2.5c0.4,0.4,1.1,1.4,1.3,1.6c0.1,0.1,0.2,0.2,0.2,0.2l0.1,0
					c0,0,0,0,0.1,0.1l0.1,0.2c0,0,0,0,0,0.1c0,0-0.1,0-0.4,0.2c-0.2,0.1-0.3,0.2-0.3,0.2c0,0,0,0-0.1,0l-0.1-0.2c0,0,0-0.1,0-0.1
					l0.1-0.1c0.1,0,0-0.1,0-0.2c0-0.1-0.1-0.1-0.2-0.2c-0.2-0.2-0.8-1-1.1-1.4l-1.1-1.4l0,0c0.2,0.5,0.7,1.4,0.8,1.7
					c0.2,0.4,0.5,1,0.6,1.3c0.1,0.2,0.2,0.3,0.2,0.4c0.1,0.1,0.2,0.2,0.2,0.2l0.1,0c0,0,0,0,0.1,0.1L562.1,98.4z"/>
			</g>
			<g>
				<path fill="#808080" d="M567.8,89c0.2,0.1,1.4,0.9,1.5,0.9c0.2,0.1,0.3,0.1,0.3,0.1l0.1-0.1c0,0,0,0,0.1,0L570,90c0,0,0,0,0,0
					c0,0-0.1,0.1-0.2,0.3c-0.1,0.2-0.2,0.3-0.2,0.3c0,0,0,0-0.1,0l-0.2-0.1c0,0,0,0,0,0l0-0.1c0-0.1,0-0.1-0.1-0.2
					c-0.1,0-1.6-1-1.7-1l-0.5-0.3c-0.1,0-1.7-1-1.8-1.1c-0.2-0.1-0.3-0.1-0.3-0.1l-0.1,0.1c0,0,0,0-0.1,0l-0.2-0.1c0,0,0,0,0,0
					c0,0,0.1-0.1,0.2-0.3c0.1-0.2,0.2-0.3,0.2-0.4c0,0,0,0,0.1,0l0.2,0.1c0,0,0,0,0,0l0,0.1c0,0,0,0.1,0.1,0.2c0.1,0.1,1.6,1,2,1.2
					L567.8,89z"/>
				<path fill="#808080" d="M568.8,91.9C568.9,91.9,568.9,91.9,568.8,91.9c0,0.1-0.1,0.2-0.1,0.3c-0.1,0.2-0.1,0.3-0.1,0.3
					c0,0,0,0-0.1,0l-0.2-0.1c0,0,0,0,0,0l0-0.1c0,0,0-0.1-0.3-0.4c-0.4-0.4-1.2-1-1.7-1.4c-0.3-0.3-2.1-1.7-2.3-1.8
					c-0.1-0.1-0.1-0.1-0.1-0.1c0,0,0.1,0,0.2,0.1c0.6,0.3,2.4,1.1,3,1.3c0.5,0.2,1.6,0.7,1.8,0.8c0.2,0.1,0.3,0.1,0.3,0l0-0.1
					c0,0,0,0,0.1,0l0.2,0.1c0,0,0,0,0,0c0,0-0.1,0.1-0.2,0.3c-0.1,0.2-0.2,0.3-0.2,0.4c0,0,0,0-0.1,0l-0.2-0.1c0,0-0.1,0-0.1-0.1
					l0.1-0.1c0-0.1,0-0.1-0.1-0.2c-0.1,0-0.1-0.1-0.2-0.1c-0.3-0.1-1.2-0.6-1.6-0.8l-1.7-0.8l0,0c0.4,0.3,1.2,1,1.5,1.2
					c0.3,0.2,0.9,0.7,1.2,0.9c0.2,0.1,0.3,0.2,0.4,0.3c0.1,0.1,0.2,0.1,0.3,0l0-0.1c0,0,0,0,0.1,0L568.8,91.9z"/>
			</g>
		</g>
		<path fill="#808080" d="M553.7,82.7l-6-3.9c0,0,0.4-0.8-0.8-1.1c-1.1-0.3-1.5-0.4-2.1-0.7c-0.5-0.3-1.8-0.9-1.8-0.9
			s1.8,1.3,2.3,2.1c0.5,0.8,1.2,1.2,2,1l5.8,3.8"/>
		<path fill="#808080" d="M563.1,80.1L548.3,84c0,0-0.8-0.4-1.3,0c-0.6,0.3-0.7,0.9-0.7,0.9s0.6,0.4,1.3,0.3c0.7,0,0.7-0.6,0.7-0.6
			l15-4.1c0,0,1,0.5,1.8,0c0.7-0.4,1.5-0.8,2.3-1.2c0.9-0.4,1.3-0.6,1.3-0.6s-2.4,0.4-3.4,0.4S563.1,79.5,563.1,80.1z"/>
	</g>
</g>
<g id="Layer_2">
</g>
</svg>
