<?xml version="1.0" encoding="utf-8"?>
<!-- Generator: Adobe Illustrator 18.0.0, SVG Export Plug-In . SVG Version: 6.00 Build 0)  -->
<!DOCTYPE svg PUBLIC "-//W3C//DTD SVG 1.1//EN" "http://www.w3.org/Graphics/SVG/1.1/DTD/svg11.dtd">
<svg version="1.1" id="Layer_1" xmlns="http://www.w3.org/2000/svg" xmlns:xlink="http://www.w3.org/1999/xlink" x="0px" y="0px"
	 viewBox="0 0 768 417" enable-background="new 0 0 768 417" xml:space="preserve">
<g>
	<linearGradient id="SVGID_1_" gradientUnits="userSpaceOnUse" x1="383.5" y1="64" x2="383.5" y2="182.0678">
		<stop  offset="0" style="stop-color:#DCDCDC"/>
		<stop  offset="1" style="stop-color:#BEBEBE"/>
	</linearGradient>
	<rect x="305" y="42" fill="url(#SVGID_1_)" width="157" height="94"/>
	<rect x="454.7" y="45.6" fill="#9E9E9E" width="12.8" height="87.9"/>
	<rect x="300.5" y="45.6" fill="#9E9E9E" width="12.8" height="87.9"/>
	<rect x="313" y="36.3" fill="#9E9E9E" width="141.9" height="12.8"/>
	<rect x="313" y="130" fill="#9E9E9E" width="141.9" height="12.8"/>
	<g>
		<rect x="307.2" y="38.5" fill="#235468" width="152" height="7.5"/>
		<g>
			
				<rect x="321.3" y="39.7" transform="matrix(0.7071 0.7071 -0.7071 0.7071 124.7361 -216.6395)" fill="#3C708B" width="5.1" height="5.1"/>
			
				<rect x="338.5" y="39.7" transform="matrix(0.7071 0.7071 -0.7071 0.7071 129.7676 -228.7865)" fill="#3C708B" width="5.1" height="5.1"/>
			
				<rect x="355.7" y="39.7" transform="matrix(0.7071 0.7071 -0.7071 0.7071 134.7991 -240.9336)" fill="#3C708B" width="5.1" height="5.1"/>
			
				<rect x="372.8" y="39.7" transform="matrix(0.7071 0.7071 -0.7071 0.7071 139.8306 -253.0807)" fill="#3C708B" width="5.1" height="5.1"/>
			
				<rect x="390" y="39.7" transform="matrix(0.7071 0.7071 -0.7071 0.7071 144.8621 -265.2278)" fill="#3C708B" width="5.1" height="5.1"/>
			
				<rect x="407.2" y="39.7" transform="matrix(0.7071 0.7071 -0.7071 0.7071 149.8936 -277.3749)" fill="#3C708B" width="5.1" height="5.1"/>
			
				<rect x="424.4" y="39.7" transform="matrix(0.7071 0.7071 -0.7071 0.7071 154.925 -289.522)" fill="#3C708B" width="5.1" height="5.1"/>
			
				<rect x="441.6" y="39.7" transform="matrix(0.7071 0.7071 -0.7071 0.7071 159.9565 -301.669)" fill="#3C708B" width="5.1" height="5.1"/>
		</g>
	</g>
	<g>
		<rect x="457.2" y="47.1" fill="#235468" width="7.5" height="83.4"/>
		
			<rect x="458.4" y="55.2" transform="matrix(-0.7071 0.7071 -0.7071 -0.7071 827.7366 -227.2702)" fill="#3C708B" width="5.1" height="5.1"/>
		
			<rect x="458.4" y="71.2" transform="matrix(-0.7071 0.7071 -0.7071 -0.7071 839.044 -199.9717)" fill="#3C708B" width="5.1" height="5.1"/>
		
			<rect x="458.4" y="87.2" transform="matrix(-0.7071 0.7071 -0.7071 -0.7071 850.3514 -172.6733)" fill="#3C708B" width="5.1" height="5.1"/>
		
			<rect x="458.4" y="103.2" transform="matrix(-0.7071 0.7071 -0.7071 -0.7071 861.6588 -145.3748)" fill="#3C708B" width="5.1" height="5.1"/>
		
			<rect x="458.4" y="119.2" transform="matrix(-0.7071 0.7071 -0.7071 -0.7071 872.9662 -118.0764)" fill="#3C708B" width="5.1" height="5.1"/>
	</g>
	<g>
		<rect x="302.9" y="47.1" fill="#235468" width="7.5" height="83.4"/>
		
			<rect x="304.1" y="55.2" transform="matrix(-0.7071 0.7071 -0.7071 -0.7071 564.4153 -118.199)" fill="#3C708B" width="5.1" height="5.1"/>
		
			<rect x="304.1" y="71.2" transform="matrix(-0.7071 0.7071 -0.7071 -0.7071 575.7228 -90.9005)" fill="#3C708B" width="5.1" height="5.1"/>
		
			<rect x="304.1" y="87.2" transform="matrix(-0.7071 0.7071 -0.7071 -0.7071 587.0302 -63.6021)" fill="#3C708B" width="5.1" height="5.1"/>
		
			<rect x="304.1" y="103.2" transform="matrix(-0.7071 0.7071 -0.7071 -0.7071 598.3375 -36.3036)" fill="#3C708B" width="5.1" height="5.1"/>
		
			<rect x="304.1" y="119.2" transform="matrix(-0.7071 0.7071 -0.7071 -0.7071 609.645 -9.0051)" fill="#3C708B" width="5.1" height="5.1"/>
	</g>
	<g>
		<rect x="307.2" y="132.5" fill="#235468" width="152" height="7.5"/>
		<g>
			
				<rect x="321.3" y="133.7" transform="matrix(0.7071 0.7071 -0.7071 0.7071 191.2041 -189.1075)" fill="#3C708B" width="5.1" height="5.1"/>
			
				<rect x="338.5" y="133.7" transform="matrix(0.7071 0.7071 -0.7071 0.7071 196.2356 -201.2546)" fill="#3C708B" width="5.1" height="5.1"/>
			
				<rect x="355.7" y="133.7" transform="matrix(0.7071 0.7071 -0.7071 0.7071 201.2671 -213.4017)" fill="#3C708B" width="5.1" height="5.1"/>
			
				<rect x="372.8" y="133.7" transform="matrix(0.7071 0.7071 -0.7071 0.7071 206.2986 -225.5488)" fill="#3C708B" width="5.1" height="5.1"/>
			
				<rect x="390" y="133.7" transform="matrix(0.7071 0.7071 -0.7071 0.7071 211.33 -237.6959)" fill="#3C708B" width="5.1" height="5.1"/>
			
				<rect x="407.2" y="133.7" transform="matrix(0.7071 0.7071 -0.7071 0.7071 216.3615 -249.8429)" fill="#3C708B" width="5.1" height="5.1"/>
			
				<rect x="424.4" y="133.7" transform="matrix(0.7071 0.7071 -0.7071 0.7071 221.393 -261.99)" fill="#3C708B" width="5.1" height="5.1"/>
			
				<rect x="441.6" y="133.7" transform="matrix(0.7071 0.7071 -0.7071 0.7071 226.4245 -274.1371)" fill="#3C708B" width="5.1" height="5.1"/>
		</g>
	</g>
	<rect x="453.3" y="34.9" fill="#898989" width="15.6" height="15.6"/>
	<rect x="453.3" y="128.5" fill="#898989" width="15.6" height="15.6"/>
	<rect x="299.1" y="34.9" fill="#898989" width="15.6" height="15.6"/>
	<rect x="299.1" y="128.5" fill="#898989" width="15.6" height="15.6"/>
</g>
<g id="floor">
	<defs>
		<rect id="SVGID_2_" y="285.9" width="768" height="131.1"/>
	</defs>
	<clipPath id="SVGID_3_">
		<use xlink:href="#SVGID_2_"  overflow="visible"/>
	</clipPath>
	
		<radialGradient id="SVGID_4_" cx="384" cy="285.8932" r="271.9031" gradientTransform="matrix(1 0 0 0.3 0 200.1252)" gradientUnits="userSpaceOnUse">
		<stop  offset="0" style="stop-color:#BF614C"/>
		<stop  offset="0.8587" style="stop-color:#BF614C;stop-opacity:0.1413"/>
		<stop  offset="1" style="stop-color:#BF614C;stop-opacity:0"/>
	</radialGradient>
	<ellipse clip-path="url(#SVGID_3_)" fill="url(#SVGID_4_)" cx="384" cy="285.9" rx="366.5" ry="116.4"/>
</g>
<g>
	<g>
		<path d="M373.2,83.3h21.7l-8.1-4.9c0-0.7,0.1-1.6,0.3-2.4c0.3-0.9,0.7-1.6,1.4-2.3c4.7-4.5,8.2-12,4.2-19.9
			c-3.3-6.4-4.4-13.9-4.5-15.3h2.4l-3.2-5.2H387l2.4-3.8h-4.8v-1.6h-1.1v1.6h-4.8l2.4,3.8h-0.2l-3.2,5.2h2.4
			c-0.2,1.4-1.3,8.9-4.5,15.3c-4,7.9-0.5,15.5,4.2,19.9c0.7,0.7,1.1,1.4,1.4,2.3l0,0c0.2,0.8,0.3,1.6,0.3,2.4L373.2,83.3z
			 M381.3,74.1c0.7-0.4,1.5-0.9,2.1-1.4v2.6h-1.6C381.7,74.8,381.5,74.4,381.3,74.1z M374.7,60.9c0,0.1,0.1,0.2,0.1,0.3
			c0,0.1-0.1,0.1-0.1,0.2C374.7,61.2,374.7,61,374.7,60.9z M375.5,62.2c0.7,1.3,1.7,2.8,2.9,4.4c-0.9,0.8-1.5,1.3-1.8,1.5
			c-0.8-1.6-1.5-3.3-1.7-5.1C375,62.8,375.2,62.5,375.5,62.2z M376.2,61.3c1-1.2,2.3-3,3.8-5.2c1,2,2.1,3.7,3.3,5.3
			c-1.4,1.9-2.9,3.4-4.1,4.5C377.9,64.1,376.9,62.5,376.2,61.3z M393.3,61.3c0-0.1-0.1-0.1-0.1-0.2c0.1-0.1,0.1-0.2,0.1-0.3
			C393.3,61,393.3,61.2,393.3,61.3z M393.1,62.9c-0.3,1.8-0.9,3.6-1.7,5.1c-0.3-0.2-0.9-0.7-1.8-1.5c1.2-1.6,2.2-3.1,2.9-4.4
			C392.8,62.5,393,62.8,393.1,62.9z M388.8,65.8c-1.2-1.1-2.6-2.6-4.1-4.5c1.1-1.5,2.3-3.3,3.3-5.3c1.5,2.2,2.8,4,3.8,5.2
			C391.1,62.5,390.1,64.1,388.8,65.8z M386.1,75.2h-1.6v-2.6c0.7,0.5,1.4,1,2.1,1.4C386.5,74.4,386.3,74.8,386.1,75.2z M388.1,66.7
			c-1,1.2-2.2,2.5-3.5,3.7v-7.4C385.8,64.4,387,65.7,388.1,66.7z M384.6,59.6v-9.1c0.9,1.6,1.8,3.1,2.7,4.5
			C386.4,56.7,385.5,58.2,384.6,59.6z M384.6,48.2c1.1-2.2,2.1-4.5,2.8-6.9c0.4,2,1,4.7,2,7.6c-0.4,1.7-1,3.3-1.6,4.8
			C386.7,52.1,385.6,50.2,384.6,48.2z M384.6,45.7v-7h2.4C386.4,41.1,385.6,43.5,384.6,45.7z M383.4,45.7c-1-2.3-1.9-4.6-2.4-7h2.4
			V45.7z M380.6,41.3c0.7,2.4,1.7,4.7,2.8,6.9c-1,2-2.1,3.9-3.2,5.5c-0.6-1.5-1.2-3.1-1.6-4.8C379.6,46,380.2,43.3,380.6,41.3z
			 M383.4,50.4v9.1c-1-1.4-1.9-2.9-2.7-4.6C381.6,53.6,382.6,52.1,383.4,50.4z M383.4,62.9v7.4c-1.3-1.2-2.5-2.4-3.5-3.7
			C381,65.7,382.2,64.4,383.4,62.9z M387.7,72.9c-0.1,0.1-0.2,0.2-0.3,0.3c-0.9-0.5-1.7-1.1-2.5-1.7c1.5-1.3,2.9-2.7,4-4.1
			c1,0.9,1.7,1.4,1.9,1.6C389.9,70.4,388.8,71.8,387.7,72.9z M393.1,58.7c-0.1,0.2-0.3,0.7-0.7,1.5c-1-1.3-2.4-3.1-3.8-5.3
			c0.6-1.3,1.1-2.7,1.6-4.1c0.5,1.2,1,2.3,1.6,3.5C392.4,55.7,392.9,57.2,393.1,58.7z M376.4,54.2c0.6-1.1,1.1-2.3,1.6-3.5
			c0.4,1.4,1,2.8,1.6,4.1c-1.4,2.2-2.8,4-3.8,5.3c-0.4-0.8-0.7-1.4-0.7-1.5C375.1,57.2,375.6,55.7,376.4,54.2z M377.2,69
			c0.2-0.1,0.9-0.7,1.9-1.6c1.1,1.4,2.5,2.8,4,4.1c-0.8,0.6-1.6,1.2-2.5,1.7c-0.1-0.1-0.2-0.2-0.3-0.3
			C379.2,71.7,378.1,70.4,377.2,69z"/>
		<linearGradient id="SVGID_5_" gradientUnits="userSpaceOnUse" x1="384.0001" y1="20.4492" x2="384.0001" y2="4.9612">
			<stop  offset="0" style="stop-color:#000000"/>
			<stop  offset="0.9932" style="stop-color:#E79376;stop-opacity:0"/>
		</linearGradient>
		<path fill="url(#SVGID_5_)" d="M384.9,17.3c0.8,0,1.4-0.6,1.4-1.4v-3.2c0-0.8-0.6-1.4-1.4-1.4h-0.4V0h-1.1v11.4h-0.4
			c-0.8,0-1.4,0.6-1.4,1.4V16c0,0.8,0.6,1.4,1.4,1.4h0.4v5.2h-0.4c-0.8,0-1.4,0.6-1.4,1.4v3.2c0,0.8,0.6,1.4,1.4,1.4h1.9
			c0.8,0,1.4-0.6,1.4-1.4v-3.2c0-0.8-0.6-1.4-1.4-1.4h-0.4v-5.2H384.9z M385.2,23.9v3.2c0,0.1-0.1,0.3-0.3,0.3h-1.9
			c-0.1,0-0.3-0.1-0.3-0.3v-3.2c0-0.1,0.1-0.3,0.3-0.3h1.9C385.1,23.7,385.2,23.8,385.2,23.9z M382.8,16v-3.2c0-0.1,0.1-0.3,0.3-0.3
			h1.9c0.1,0,0.3,0.1,0.3,0.3V16c0,0.1-0.1,0.3-0.3,0.3h-1.9C382.9,16.2,382.8,16.1,382.8,16z"/>
	</g>
	<g>
		<g>
			<path fill="#FFFAC1" d="M436.8,106c-0.6-0.1-2.8-0.9-4.3-3.9c-1.5-3-2.2-9.4-2.8-12.6c-0.6-3.3-4.6-4.9-4.6-4.9h-11.1
				c0,0-4,1.6-4.6,4.9c-0.6,3.3-1.3,9.7-2.8,12.6c-1.5,3-3.7,3.7-4.3,3.9c-0.6,0.1-0.6,1.6,1.8,2.1c2.4,0.4,4.2,0,5.6,1
				c1.5,1,1.8,1,4.2,1s2.8-1.6,4.5-1.6c0.9,0,1.8,0,2.5,0c1.6,0,2.1,1.6,4.5,1.6c2.4,0,2.7,0,4.2-1c1.5-1,3.3-0.6,5.6-1
				C437.4,107.6,437.4,106.2,436.8,106z"/>
			<path fill="none" stroke="#000000" stroke-width="2" stroke-miterlimit="10" d="M397.8,84.7c0,0,4.9-0.2,4.6,2.8
				c-0.3,3-4.7,3.6-6.6,2.7c-4.1-1.9-6.3-8.8,2.2-17s13.4-9,18.2-8c4.8,1.1,7.3,7,6.8,11.1s-2.7,4.6-4.9,4.1
				c-1.9-0.4-3.6-1.5-3.8-6.5"/>
			<path d="M420.2,81.4h-1.7c-2.6,0-4.8,1.6-5.7,3.9h13.1C425,83,422.8,81.4,420.2,81.4z"/>
		</g>
		<g>
			<path fill="#FFFAC1" d="M331.2,106c0.6-0.1,2.8-0.9,4.3-3.9c1.5-3,2.2-9.4,2.8-12.6c0.6-3.3,4.6-4.9,4.6-4.9h11.1
				c0,0,4,1.6,4.6,4.9c0.6,3.3,1.3,9.7,2.8,12.6c1.5,3,3.7,3.7,4.3,3.9c0.6,0.1,0.6,1.6-1.8,2.1c-2.4,0.4-4.2,0-5.6,1
				c-1.5,1-1.8,1-4.2,1s-2.8-1.6-4.5-1.6c-0.9,0-1.8,0-2.5,0c-1.6,0-2.1,1.6-4.5,1.6c-2.4,0-2.7,0-4.2-1c-1.5-1-3.3-0.6-5.6-1
				C330.6,107.6,330.6,106.2,331.2,106z"/>
			<path fill="none" stroke="#000000" stroke-width="2" stroke-miterlimit="10" d="M370.2,84.7c0,0-4.9-0.2-4.6,2.8
				c0.3,3,4.7,3.6,6.6,2.7c4.1-1.9,6.3-8.8-2.2-17s-13.4-9-18.2-8c-4.8,1.1-7.3,7-6.8,11.1s2.7,4.6,4.9,4.1c1.9-0.4,3.6-1.5,3.8-6.5
				"/>
			<path d="M347.8,81.4h1.7c2.6,0,4.8,1.6,5.7,3.9h-13.1C343,83,345.2,81.4,347.8,81.4z"/>
		</g>
	</g>
</g>
<path fill="#D1816B" d="M544.2,295.8h-29.1l-6.7-8.5h-1.3l6.7,8.5h-26.6l-5.1-8.5H481l5.1,8.5h-25l-3.7-8.5h-1.1l3.7,8.5h-25.8
	l-2.2-8.5h-1l2.2,8.5h-23.6l-0.9-8.5h-1l0.9,8.5h-24.1v-8.5h-1v8.5h-24.1l0.9-8.5h-1l-0.9,8.5h-23.6l2.2-8.5h-1l-2.2,8.5H308
	l3.7-8.5h-1.1l-3.7,8.5h-25l5.1-8.5h-1.2l-5.1,8.5h-26.6l6.7-8.5h-1.3l-6.7,8.5h-29.1l8.4-8.5h-1.4l-8.4,8.5h-34
	c0.3,0.3,0.7,0.7,1,1h32l-13.2,13.4c0.3,0.2,0.6,0.3,0.9,0.5l13.7-13.9h29.3l-14.8,18.7h-18.7c0.7,0.3,1.5,0.7,2.2,1h15.7l-3.8,4.8
	c0.3,0.1,0.7,0.2,1,0.4l4.1-5.1h30.5l-7.9,13.2c0.3,0.1,0.7,0.2,1,0.3l8.1-13.5H298l-8.3,19.4c0.3,0.1,0.7,0.1,1,0.2l8.4-19.5h29.3
	l-5.5,21h-23c2.3,0.3,4.6,0.7,7,1h15.8l-0.5,1.8c0.3,0,0.7,0.1,1,0.1l0.5-1.9h30.3l-0.4,6c0.3,0,0.7,0,1,0l0.5-6.1h28.7v9.2
	c0.3,0,0.7,0,1,0v-9.2h28.7l0.4,5.8c0.3,0,0.7,0,1-0.1l-0.4-5.8h30.3l0.4,1.4c0.3,0,0.7-0.1,1-0.1l-0.3-1.3h10.5
	c2.4-0.3,4.7-0.7,7-1h-17.7l-5.5-21h29.3l8,18.7c0.3-0.1,0.7-0.1,1-0.2l-7.9-18.5h28.5l7.3,12.3c0.3-0.1,0.7-0.2,1-0.3l-7.2-12h30.5
	l2.8,3.6c0.3-0.1,0.7-0.3,1-0.4l-2.5-3.2h10.3c0.8-0.3,1.5-0.7,2.2-1h-13.4l-14.8-18.7h29.3l11.8,12c0.3-0.2,0.6-0.3,0.9-0.5
	l-11.3-11.5h26.7c0.3-0.3,0.7-0.7,1-1h-28.6l-8.4-8.5h-1.4L544.2,295.8z M334.6,296.8h23.7l-2,18.7h-26.7L334.6,296.8z M268.9,315.5
	h-30.3l14.8-18.7h26.8L268.9,315.5z M298.4,315.5h-28.3l11.2-18.7h25.2L298.4,315.5z M299.5,315.5l8-18.7h26l-4.9,18.7H299.5z
	 M354,337.5h-30.1l5.5-21h26.8L354,337.5z M383.5,337.5H355l2.2-21h26.3V337.5z M383.5,315.5h-26.2l2-18.7h24.2V315.5z M433.4,296.8
	l4.9,18.7h-26.7l-2-18.7H433.4z M384.5,296.8h24.2l2,18.7h-26.2V296.8z M384.5,337.5v-21h26.3l2.2,21H384.5z M444.2,337.5H414
	l-2.2-21h26.8L444.2,337.5z M439.4,315.5l-4.9-18.7h26l8,18.7H439.4z M469.6,315.5l-8-18.7h25.2l11.2,18.7H469.6z M529.4,315.5
	h-30.3l-11.2-18.7h26.8L529.4,315.5z"/>
<linearGradient id="SVGID_6_" gradientUnits="userSpaceOnUse" x1="144.5" y1="238.7423" x2="623.5" y2="238.7423">
	<stop  offset="0" style="stop-color:#E79376;stop-opacity:0"/>
	<stop  offset="3.176562e-02" style="stop-color:#EA9E82;stop-opacity:6.545526e-02"/>
	<stop  offset="9.629258e-02" style="stop-color:#EDAD94;stop-opacity:0.1984"/>
	<stop  offset="0.1732" style="stop-color:#F0B9A1;stop-opacity:0.3568"/>
	<stop  offset="0.2735" style="stop-color:#F2BFA9;stop-opacity:0.5635"/>
	<stop  offset="0.4853" style="stop-color:#F2C1AB"/>
	<stop  offset="0.7214" style="stop-color:#F2BFA9;stop-opacity:0.5413"/>
	<stop  offset="0.8244" style="stop-color:#F0B9A2;stop-opacity:0.3412"/>
	<stop  offset="0.9014" style="stop-color:#EDAE95;stop-opacity:0.1916"/>
	<stop  offset="0.9652" style="stop-color:#EA9F83;stop-opacity:6.764621e-02"/>
	<stop  offset="1" style="stop-color:#E79376;stop-opacity:0"/>
</linearGradient>
<rect x="144.5" y="191.6" fill="url(#SVGID_6_)" width="479" height="94.3"/>
<linearGradient id="SVGID_7_" gradientUnits="userSpaceOnUse" x1="144.5" y1="186.4949" x2="623.5" y2="186.4949">
	<stop  offset="0" style="stop-color:#E79376;stop-opacity:0"/>
	<stop  offset="3.176562e-02" style="stop-color:#EA9E82;stop-opacity:6.545526e-02"/>
	<stop  offset="9.629258e-02" style="stop-color:#EDAD94;stop-opacity:0.1984"/>
	<stop  offset="0.1732" style="stop-color:#F0B9A1;stop-opacity:0.3568"/>
	<stop  offset="0.2735" style="stop-color:#F2BFA9;stop-opacity:0.5635"/>
	<stop  offset="0.4853" style="stop-color:#F2C1AB"/>
	<stop  offset="0.7214" style="stop-color:#F2BFA9;stop-opacity:0.5413"/>
	<stop  offset="0.8244" style="stop-color:#F0B9A2;stop-opacity:0.3412"/>
	<stop  offset="0.9014" style="stop-color:#EDAE95;stop-opacity:0.1916"/>
	<stop  offset="0.9652" style="stop-color:#EA9F83;stop-opacity:6.764621e-02"/>
	<stop  offset="1" style="stop-color:#E79376;stop-opacity:0"/>
</linearGradient>
<rect x="144.5" y="183.8" fill="url(#SVGID_7_)" width="479" height="5.5"/>
<g>
	<g>
		<polygon fill="#483C2F" points="582.1,293.9 578.7,304.1 580.1,308.2 583.4,298 		"/>
		<polygon fill="#483C2F" points="585.4,292.1 588.7,281.9 587.3,277.8 584,288 		"/>
		<polygon fill="#483C2F" points="573.5,320.1 574.8,324.2 578.2,314.1 576.8,309.9 		"/>
		<polygon fill="#483C2F" points="571.5,326 570.8,328.2 572.3,328.2 		"/>
		<path fill="#483C2F" d="M590.6,276.1l3.3-10.2l-1-3.2l0.1,0c-0.2,0-0.5,0-0.7,0l-3,9.3L590.6,276.1z"/>
		<polygon fill="#483C2F" points="576.4,296.9 579.7,286.7 578.4,282.6 575,292.8 		"/>
		<polygon fill="#483C2F" points="573.1,298.7 569.8,308.9 571.1,313 574.5,302.8 		"/>
		<polygon fill="#483C2F" points="585,270.7 583.7,266.6 580.3,276.8 581.7,280.9 		"/>
		<polygon fill="#483C2F" points="569.2,318.9 569.2,318.9 569.2,318.9 		"/>
		<path fill="#483C2F" d="M586.9,264.8l0.7-2.3c-0.5,0-1,0-1.5,0L586.9,264.8z"/>
		<path fill="#483C2F" d="M568.9,289.2c0.2,2.2,0.3,4.5,0.5,6.9l1.5-4.5l-1.4-4.1L568.9,289.2z"/>
		<path fill="#483C2F" d="M578,269.6l2.4-7.2c-0.7,0-1.7,0.1-2.7,0.1l-1,3L578,269.6z"/>
		<polygon fill="#483C2F" points="572.7,285.7 576,275.5 574.7,271.4 571.4,281.6 		"/>
		<polygon fill="#483C2F" points="587.7,299.2 589,303.4 592.4,293.2 591,289.1 		"/>
		<polygon fill="#483C2F" points="580.5,321.2 578.2,328.2 580.9,328.2 581.8,325.3 		"/>
		<path fill="#483C2F" d="M594.3,287.3l1-2.9c0.4-4,0.8-7.6,1.2-10.8l-0.2-0.6l-3.3,10.2L594.3,287.3z"/>
		<polygon fill="#483C2F" points="585.8,305.1 582.4,315.3 583.8,319.4 587.1,309.2 		"/>
		<polygon fill="#483C2F" points="589.4,316.4 586.1,326.6 586.6,328.2 588.3,328.2 590.8,320.5 		"/>
		<path fill="#483C2F" d="M594.2,302l-2.8,8.5l1.4,4.1l1.4-4.2C594.1,307.6,594.1,304.8,594.2,302z"/>
		<path fill="#483C2F" d="M568.8,273.9l3.3-10.2l-0.3-1c-0.7,0-1.4,0-2,0l-2.3,7.1L568.8,273.9z"/>
		<g>
			<polygon fill="#74521E" points="578.4,282.6 580.3,276.8 578,269.6 576,275.5 			"/>
			<path fill="#74521E" d="M572.2,263.7l2.5,7.7l1.9-5.9l-1-2.9c-1,0-2.1,0.1-3.1,0.1L572.2,263.7z"/>
			<polygon fill="#74521E" points="584,288 581.7,280.9 579.7,286.7 582.1,293.9 			"/>
			<path fill="#74521E" d="M590.8,320.5l2.5,7.7h2.3c-0.4-2.5-0.7-5.1-1-7.7l-1.9-5.8L590.8,320.5z"/>
			<polygon fill="#74521E" points="587.1,309.2 589.4,316.4 591.4,310.5 589,303.4 			"/>
			<polygon fill="#74521E" points="585.4,292.1 583.4,298 585.8,305.1 587.7,299.2 			"/>
			<polygon fill="#74521E" points="582.1,293.9 583.4,298 585.4,292.1 584,288 			"/>
			<polygon fill="#74521E" points="579.7,286.7 581.7,280.9 580.3,276.8 578.4,282.6 			"/>
			<polygon fill="#74521E" points="578,269.6 576.6,265.5 574.7,271.4 576,275.5 			"/>
			<polygon fill="#74521E" points="585.8,305.1 587.1,309.2 589,303.4 587.7,299.2 			"/>
			<polygon fill="#74521E" points="590.8,320.5 592.7,314.6 591.4,310.5 589.4,316.4 			"/>
			<path fill="#74521E" d="M571.8,262.7l0.3,1l0.3-1C572.3,262.7,572.1,262.7,571.8,262.7z"/>
			<polygon fill="#74521E" points="591,289.1 593,283.2 590.6,276.1 588.7,281.9 			"/>
			<path fill="#74521E" d="M585,262.5c-1.2,0-2.2-0.1-2.7-0.1l1.4,4.2L585,262.5z"/>
			<polygon fill="#74521E" points="587.3,277.8 589.3,271.9 586.9,264.8 585,270.7 			"/>
			<path fill="#74521E" d="M592.4,293.2l1.9,5.7c0.1-3.4,0.3-6.7,0.6-9.9l-0.6-1.7L592.4,293.2z"/>
			<polygon fill="#74521E" points="588.7,281.9 590.6,276.1 589.3,271.9 587.3,277.8 			"/>
			<path fill="#74521E" d="M586.9,264.8l-0.8-2.3c-0.4,0-0.8,0-1.2,0l-1.3,4.1l1.4,4.1L586.9,264.8z"/>
			<polygon fill="#74521E" points="593,283.2 591,289.1 592.4,293.2 594.3,287.3 			"/>
			<path fill="#74521E" d="M595,262.7l-1,3.2l2.3,7.1l0.5-1.5c0.3-2.4,0.7-4.5,0.9-6l-0.9-2.8C596.3,262.7,595.7,262.7,595,262.7z"
				/>
			<path fill="#74521E" d="M593,262.7L593,262.7l1,3.2l1-3.2C594.4,262.7,593.7,262.7,593,262.7z"/>
			<path fill="#74521E" d="M596.8,271.5l-0.5,1.5l0.2,0.6C596.6,272.9,596.7,272.2,596.8,271.5z"/>
			<path fill="#74521E" d="M569.4,287.4l1.9-5.9l-2.5-7.7l-1.1,3.5c0.3,2.2,0.5,4.6,0.8,7.1L569.4,287.4z"/>
			<polygon fill="#74521E" points="572.7,285.7 570.8,291.6 573.1,298.7 575,292.8 			"/>
			<polygon fill="#74521E" points="586.1,326.6 583.8,319.4 581.8,325.3 582.8,328.2 585.6,328.2 			"/>
			<path fill="#74521E" d="M567.5,269.8l-1.6-4.7c0.3,1.5,0.6,3.7,1,6.5L567.5,269.8z"/>
			<polygon fill="#74521E" points="574.5,302.8 576.8,309.9 578.7,304.1 576.4,296.9 			"/>
			<polygon fill="#74521E" points="580.1,308.2 578.2,314.1 580.5,321.2 582.4,315.3 			"/>
			<polygon fill="#74521E" points="578.7,304.1 576.8,309.9 578.2,314.1 580.1,308.2 			"/>
			<polygon fill="#74521E" points="576.4,296.9 575,292.8 573.1,298.7 574.5,302.8 			"/>
			<polygon fill="#74521E" points="571.4,281.6 569.4,287.4 570.8,291.6 572.7,285.7 			"/>
			<polygon fill="#74521E" points="580.5,321.2 581.8,325.3 583.8,319.4 582.4,315.3 			"/>
			<polygon fill="#74521E" points="586.6,328.2 586.1,326.6 585.6,328.2 			"/>
			<path fill="#74521E" d="M567.5,269.8l-0.6,1.7c0.2,1.8,0.5,3.7,0.8,5.9l1.1-3.5L567.5,269.8z"/>
			<polygon fill="#74521E" points="571.1,313 569.2,318.9 571.5,326 573.5,320.1 			"/>
			<path fill="#74521E" d="M569.6,308.4c0,0.3,0,0.7,0,1l0.2-0.5L569.6,308.4z"/>
			<polygon fill="#74521E" points="573.5,328.2 576.1,328.2 574.8,324.2 			"/>
			<polygon fill="#74521E" points="571.5,326 572.3,328.2 573.5,328.2 574.8,324.2 573.5,320.1 			"/>
			<path fill="#74521E" d="M569.8,308.9l-0.2,0.5c0,3.2-0.2,6.4-0.4,9.5l0,0l1.9-5.9L569.8,308.9z"/>
		</g>
		<rect x="548.1" y="258.9" fill="#E6C033" width="67.9" height="5.5"/>
		<rect x="548.1" y="258.2" fill="#483C2F" width="67.9" height="1.1"/>
		<rect x="569" y="324.8" fill="#483C2F" width="26.7" height="3.3"/>
	</g>
	<g>
		<path fill="#D9BAB1" d="M586.7,225.7c0-4.5,2.3-7.9,2.3-7.9l-7.3,0.1l-7.3-0.1c0,0,2.3,3.4,2.3,7.9c0,4.5-5.1,8.5-5.1,13
			c0,3.9,2.6,6.8,7.1,7.6v0.2c0.4,0,1.1,0,2.3,0c0.5,0,0.9,0,1.3,0c1.2,0,1.9,0,2.3,0v-0.2c4.6-0.7,7.1-3.7,7.1-7.6
			C591.8,234.2,586.7,230.2,586.7,225.7z"/>
		<g>
			<defs>
				<path id="SVGID_8_" d="M584.6,246h-0.3h-5.1h-0.3c0,0,0.3,9-4.4,10.8v1.5h7.1h0.1h7.1v-1.5C584.3,254.9,584.6,246,584.6,246z"/>
			</defs>
			<use xlink:href="#SVGID_8_"  overflow="visible" fill="#9B4533"/>
			<clipPath id="SVGID_9_">
				<use xlink:href="#SVGID_8_"  overflow="visible"/>
			</clipPath>
			<g clip-path="url(#SVGID_9_)">
				
					<rect x="582.8" y="249.6" transform="matrix(0.7071 0.7071 -0.7071 0.7071 349.2179 -339.8332)" fill="#E6C033" width="4" height="4"/>
				
					<rect x="576.7" y="249.6" transform="matrix(0.7071 0.7071 -0.7071 0.7071 347.4178 -335.4874)" fill="#E6C033" width="4" height="4"/>
			</g>
			<rect x="578.5" y="247.7" clip-path="url(#SVGID_9_)" fill="#E6C033" width="6.6" height="0.7"/>
			<rect x="574.6" y="257.1" clip-path="url(#SVGID_9_)" fill="#E6C033" width="14.4" height="0.7"/>
		</g>
		<rect x="579.2" y="232.9" fill="#FFFAC1" width="5" height="13"/>
		<path fill="#FFFFFF" d="M581.8,225.8c0,0,2.5,1.8,1.8,4.5c-0.7,2.7-4.4,1.4-3.4-0.6S582.2,227.9,581.8,225.8z"/>
	</g>
</g>
<path fill="#392D21" d="M448.1,192.4c-13.7-6.9-31.1-9.6-44.5-10.6c-2.8-0.2-5.5-0.3-7.8-0.4H385c0,0-0.3,0-1,0c-0.6,0-1,0-1,0
	h-10.8c-2.4,0.1-5,0.2-7.8,0.4c-13.4,1-30.8,3.7-44.5,10.6c-25.8,13.1-79.6,17.3-79.6,17.3l37.7,78.4l105.9-2.4l105.9,2.4l37.7-78.4
	C527.7,209.6,473.9,205.5,448.1,192.4z"/>
<rect x="254.7" y="301.8" fill="#6C2D21" width="258.5" height="18"/>
<g>
	<rect x="497.6" y="324.3" fill="#6C2D21" width="15.3" height="4.7"/>
	<path fill="#7C3B33" d="M516.3,303.6h-18.7c0,0-1.9,15-22.9,16c0,0,9.1,3.4,21,3.1v3.8h21.2L516.3,303.6z"/>
	<rect x="255.1" y="324.3" fill="#6C2D21" width="15.3" height="4.7"/>
	<path fill="#7C3B33" d="M251.7,303.6h18.7c0,0,1.9,15,22.9,16c0,0-9.1,3.4-21,3.1v3.8h-21.2L251.7,303.6z"/>
</g>
<path fill="#E4DBC5" d="M314.9,195l1.5-1.1c-2.7,1.2-5.6,2.3-8.6,3.3l7.8,4.6l4.9-3.5L314.9,195z"/>
<path fill="#E4DBC5" d="M453.2,198.4l3.8,2.7l5.2-3.1c-1.8-0.6-3.6-1.2-5.4-1.8L453.2,198.4z"/>
<polygon fill="#3C708B" points="347.4,211.3 345,212.9 350.6,216.3 353,214.6 353,214.6 353,214.6 "/>
<path fill="#3C708B" d="M320.6,198.4l2.4-1.7l-5.4-3.2c-0.3,0.2-0.7,0.3-1.1,0.5l-1.5,1.1L320.6,198.4z"/>
<polygon fill="#3C708B" points="331,201.6 328.7,203.2 334.3,206.6 336.7,204.9 "/>
<polygon fill="#3C708B" points="358.8,221.1 364.4,224.5 366.8,222.8 361.1,219.5 "/>
<polygon fill="#3C708B" points="374.9,227.7 372.5,229.3 378.2,232.7 380.6,231 380.6,231 380.5,231 "/>
<polygon fill="#3C708B" points="420.8,214.6 420.8,214.6 420.8,214.6 423.2,216.3 428.8,212.9 426.5,211.3 "/>
<path fill="#3C708B" d="M450.9,196.7l2.4,1.7l3.7-2.2c-1.1-0.4-2.1-0.8-3.1-1.2L450.9,196.7z"/>
<polygon fill="#3C708B" points="439.5,206.6 445.1,203.2 442.8,201.6 437.1,204.9 "/>
<polygon fill="#3C708B" points="407,222.8 407,222.8 407,222.8 409.4,224.5 415,221.1 412.7,219.5 "/>
<polygon fill="#3C708B" points="393.3,231 393.3,231 393.3,231 395.6,232.7 401.3,229.3 398.9,227.7 "/>
<path fill="#E79A34" d="M462.3,198l-5.2,3.1l-3.8-2.7l-2.4-1.7l2.9-1.7c0,0,0,0,0,0c-1-0.4-2-0.8-3-1.3l-2.3,1.3l-2.5,1.5l2.4,1.7
	l0.9,0.6l5.3,3.8l-11.3,6.7l-3.8-2.7l-2.4-1.7l5.6-3.4l-2.4-1.7l-5.6,3.4l-2.5,1.5l2.4,1.7l0,0l0.8,0.6l1.5,1.1l0,0l3.8,2.7
	l-5.6,3.3l-5.9-4.2l-0.2-0.1l-2.4-1.7l-2.5,1.5l-5.6,3.4l2.4,1.7l0,0l5.6-3.4l2.4,1.7l3.8,2.7l-11.3,6.7l-5-3.6l-1-0.7l0,0l0,0
	l-2.4-1.7l-2.5,1.5l-5.6,3.4l2.4,1.7l0,0l5.6-3.4l2.4,1.7l3.7,2.6l-11.3,6.7l-4.2-3l-1.8-1.3l-2.4-1.7l-2.5,1.5l0,0l-5.6,3.4
	l2.4,1.7l0,0l5.6-3.4l2.4,1.7l3.7,2.6l-19.2,11.4l-17.9-10.6l4.8-3.4l2.4-1.7l5.6,3.4l0,0l2.4-1.7l-5.6-3.4l-2.5-1.5l-2.4,1.7
	l-2.4,1.7l-4.8,3.4l-11.3-6.7l4.8-3.4l2.4-1.7l5.6,3.4l2.4-1.7l-8.2-4.9l-2.4,1.7l-0.5,0.4l-6.6,4.7l-11.3-6.7l4.9-3.4l2.4-1.7
	l5.6,3.4l0,0l2.4-1.7l-5.6-3.4l-2.5-1.5l-2.4,1.7l0,0h0l-0.5,0.4l-6.7,4.7l-5.6-3.3l6.4-4.5l0.9-0.6l2.4-1.7l-8.2-4.9l-2.4,1.7
	l5.6,3.4l-2.4,1.7l-4.9,3.5l-11.3-6.7l6.4-4.5l0.9-0.6l2.4-1.7l-7.5-4.5c-0.2,0.1-0.4,0.2-0.6,0.3c-0.7,0.4-1.5,0.7-2.3,1.1
	l-0.2-0.1l0,0l0.2,0.1l5.4,3.2l-2.4,1.7l-4.9,3.5l-7.8-4.6c-2.5,0.8-5.1,1.6-7.8,2.4l85.4,50.4l84.4-49.9
	C467.3,199.5,464.7,198.8,462.3,198z"/>
<path fill="#E4DBC5" d="M330.4,188c-3.5,1.2-6.9,2.5-10.1,4.1l7.5,4.5l-2.4,1.7l-0.9,0.6l-6.4,4.5l11.3,6.7l4.9-3.5l-5.6-3.4
	l2.4-1.7l2.4-1.7l8.2,4.9l-2.4,1.7l-0.9,0.6l-6.4,4.5l5.6,3.3l6.7-4.7l0.5-0.4l2.4-1.7l2.5,1.5l5.6,3.4l-2.4,1.7l-2.4,1.7l-5.6-3.4
	l-4.9,3.4l11.3,6.7l6.6-4.7l0.5-0.4l2.4-1.7l8.2,4.9l-2.4,1.7l-2.4,1.7l-5.6-3.4l-4.8,3.4l11.3,6.7l4.8-3.4l2.4-1.7l2.4-1.7l2.5,1.5
	l5.6,3.4l-2.4,1.7l-2.4,1.7l-5.6-3.4l-4.8,3.4l17.9,10.6l19.2-11.4l-3.7-2.6l-5.6,3.4l-2.4-1.7l-2.4-1.7l8.2-4.9l2.4,1.7l1.8,1.3
	l4.2,3l11.3-6.7l-3.7-2.6l-5.6,3.4l-2.4-1.7l-2.4-1.7l5.6-3.4l2.5-1.5l8.4,6l11.3-6.7l-3.8-2.7l-5.6,3.4l-2.4-1.7l-2.4-1.7l5.6-3.4
	l2.5-1.5l8.5,6l5.6-3.3l-5.3-3.7l-0.8-0.6l-2.4-1.7l2.5-1.5l5.6-3.4l2.4,1.7l2.4,1.7l-5.6,3.4l3.8,2.7l11.3-6.7l-5.3-3.8l-0.9-0.6
	l-2.4-1.7l2.5-1.5l2.3-1.3c-1-0.4-1.9-0.9-2.8-1.3c-2.6-1.3-5.4-2.5-8.2-3.5l-54,31.7L330.4,188z"/>
<path fill="#3C708B" d="M385.8,210.1l-43.1-25.3c-4.1,0.9-8.3,2-12.3,3.3l55.4,32.6l54-31.7c-3.9-1.4-7.9-2.6-11.9-3.5L385.8,210.1z
	"/>
<path fill="#E4DBC5" d="M357.1,182.4c-4.6,0.5-9.5,1.3-14.4,2.3l43.1,25.3l42.1-24.7c-4.7-1.1-9.5-1.9-14-2.5l-28,16.5L357.1,182.4z
	"/>
<path fill="#6C2D21" d="M395.6,181.3h-10.8c0,0-0.3,0-1,0c-0.6,0-1,0-1,0h-10.8c-2.4,0.1-5,0.2-7.8,0.4c-2.3,0.2-4.7,0.4-7.2,0.7
	l28.7,16.9l28-16.5c-3.6-0.5-7.1-0.8-10.3-1.1C400.7,181.5,398,181.4,395.6,181.3z"/>
<g>
	<g>
		<rect x="179.2" y="36" fill="#F2D9B5" width="78.3" height="2"/>
		<rect x="181.9" y="34.9" fill="#A0463B" width="72.9" height="158.8"/>
		<polygon fill="#3C708B" points="246.7,95.3 246.7,101.9 238.6,101.9 238.6,95.3 230.5,95.3 230.5,101.9 222.4,101.9 222.4,95.3 
			214.3,95.3 214.3,101.9 206.2,101.9 206.2,95.3 198.1,95.3 198.1,101.9 190,101.9 190,95.3 181.9,95.3 181.9,129.2 190,129.2 
			190,135.7 198.1,135.7 198.1,129.2 206.2,129.2 206.2,135.7 214.3,135.7 214.3,129.2 222.4,129.2 222.4,135.7 230.5,135.7 
			230.5,129.2 238.6,129.2 238.6,135.7 246.7,135.7 246.7,129.2 254.8,129.2 254.8,95.3 		"/>
		<g>
			<polygon fill="#E4DBC5" points="218.1,54.4 202.5,78.3 218.1,102.2 233.7,78.3 			"/>
			<polygon fill="#392D21" points="218.1,54.4 214.7,49.1 213.3,51.3 218.1,58.6 222.8,51.3 221.5,49.1 			"/>
			<g>
				<polygon fill="#392D21" points="219.8,60.8 221.2,62.8 226,55.5 224.6,53.4 				"/>
				<polygon fill="#392D21" points="222.7,65 224,67.1 228.8,59.8 227.5,57.6 				"/>
				<polygon fill="#392D21" points="225.6,69.3 226.9,71.3 231.7,64 230.3,61.9 				"/>
				<polygon fill="#392D21" points="228.4,73.5 229.8,75.6 234.5,68.2 233.2,66.1 				"/>
				<polygon fill="#392D21" points="231.3,77.8 232.6,79.8 237.4,72.5 236,70.4 				"/>
			</g>
			<g>
				<polygon fill="#392D21" points="198.9,83.8 200.3,85.8 205.1,78.5 203.7,76.4 				"/>
				<polygon fill="#392D21" points="201.8,88 203.1,90.1 207.9,82.7 206.6,80.6 				"/>
				<polygon fill="#392D21" points="204.7,92.3 206,94.3 210.8,87 209.4,84.9 				"/>
				<polygon fill="#392D21" points="207.5,96.5 208.9,98.5 213.6,91.2 212.3,89.1 				"/>
				<polygon fill="#392D21" points="210.4,100.7 211.7,102.8 216.5,95.4 215.1,93.3 				"/>
			</g>
			<g>
				<polygon fill="#392D21" points="217,60.8 215.7,62.8 210.9,55.5 212.3,53.4 				"/>
				<polygon fill="#392D21" points="214.1,65 212.8,67.1 208,59.8 209.4,57.6 				"/>
				<polygon fill="#392D21" points="211.3,69.3 210,71.3 205.2,64 206.5,61.9 				"/>
				<polygon fill="#392D21" points="208.4,73.5 207.1,75.6 202.3,68.2 203.7,66.1 				"/>
				<polygon fill="#392D21" points="205.6,77.8 204.2,79.8 199.5,72.5 200.8,70.4 				"/>
			</g>
			<g>
				<polygon fill="#392D21" points="236.9,83.8 235.6,85.8 230.8,78.5 232.2,76.4 				"/>
				<polygon fill="#392D21" points="234,88 232.7,90.1 227.9,82.7 229.3,80.6 				"/>
				<polygon fill="#392D21" points="231.2,92.3 229.8,94.3 225.1,87 226.4,84.9 				"/>
				<polygon fill="#392D21" points="228.3,96.5 227,98.5 222.2,91.2 223.6,89.1 				"/>
				<polygon fill="#392D21" points="225.5,100.7 224.1,102.8 219.3,95.4 220.7,93.3 				"/>
			</g>
			<polygon fill="#392D21" points="218.1,102.2 221.5,107.4 222.8,105.3 218.1,98 213.3,105.3 214.7,107.4 			"/>
		</g>
		<g>
			<polygon fill="#E4DBC5" points="218.1,125.9 202.5,149.8 218.1,173.7 233.7,149.8 			"/>
			<polygon fill="#392D21" points="218.1,125.9 214.7,120.7 213.3,122.8 218.1,130.1 222.8,122.8 221.5,120.7 			"/>
			<g>
				<polygon fill="#392D21" points="219.8,132.3 221.2,134.4 226,127 224.6,124.9 				"/>
				<polygon fill="#392D21" points="222.7,136.6 224,138.6 228.8,131.3 227.5,129.2 				"/>
				<polygon fill="#392D21" points="225.6,140.8 226.9,142.8 231.7,135.5 230.3,133.4 				"/>
				<polygon fill="#392D21" points="228.4,145 229.8,147.1 234.5,139.7 233.2,137.6 				"/>
				<polygon fill="#392D21" points="231.3,149.3 232.6,151.3 237.4,144 236,141.9 				"/>
			</g>
			<g>
				<polygon fill="#392D21" points="198.9,155.3 200.3,157.4 205.1,150 203.7,147.9 				"/>
				<polygon fill="#392D21" points="201.8,159.5 203.1,161.6 207.9,154.3 206.6,152.2 				"/>
				<polygon fill="#392D21" points="204.7,163.8 206,165.8 210.8,158.5 209.4,156.4 				"/>
				<polygon fill="#392D21" points="207.5,168 208.9,170.1 213.6,162.7 212.3,160.6 				"/>
				<polygon fill="#392D21" points="210.4,172.3 211.7,174.3 216.5,167 215.1,164.9 				"/>
			</g>
			<g>
				<polygon fill="#392D21" points="217,132.3 215.7,134.4 210.9,127 212.3,124.9 				"/>
				<polygon fill="#392D21" points="214.1,136.6 212.8,138.6 208,131.3 209.4,129.2 				"/>
				<polygon fill="#392D21" points="211.3,140.8 210,142.8 205.2,135.5 206.5,133.4 				"/>
				<polygon fill="#392D21" points="208.4,145 207.1,147.1 202.3,139.7 203.7,137.6 				"/>
				<polygon fill="#392D21" points="205.6,149.3 204.2,151.3 199.5,144 200.8,141.9 				"/>
			</g>
			<g>
				<polygon fill="#392D21" points="236.9,155.3 235.6,157.4 230.8,150 232.2,147.9 				"/>
				<polygon fill="#392D21" points="234,159.5 232.7,161.6 227.9,154.3 229.3,152.2 				"/>
				<polygon fill="#392D21" points="231.2,163.8 229.8,165.8 225.1,158.5 226.4,156.4 				"/>
				<polygon fill="#392D21" points="228.3,168 227,170.1 222.2,162.7 223.6,160.6 				"/>
				<polygon fill="#392D21" points="225.5,172.3 224.1,174.3 219.3,167 220.7,164.9 				"/>
			</g>
			<polygon fill="#392D21" points="218.1,173.7 221.5,179 222.8,176.9 218.1,169.5 213.3,176.9 214.7,179 			"/>
		</g>
	</g>
	<g>
		<rect x="510.5" y="36" fill="#F2D9B5" width="78.3" height="2"/>
		<rect x="513.2" y="34.9" fill="#A0463B" width="72.9" height="158.8"/>
		<polygon fill="#3C708B" points="578,95.3 578,101.9 569.9,101.9 569.9,95.3 561.8,95.3 561.8,101.9 553.7,101.9 553.7,95.3 
			545.6,95.3 545.6,101.9 537.5,101.9 537.5,95.3 529.4,95.3 529.4,101.9 521.3,101.9 521.3,95.3 513.2,95.3 513.2,129.2 
			521.3,129.2 521.3,135.7 529.4,135.7 529.4,129.2 537.5,129.2 537.5,135.7 545.6,135.7 545.6,129.2 553.7,129.2 553.7,135.7 
			561.8,135.7 561.8,129.2 569.9,129.2 569.9,135.7 578,135.7 578,129.2 586.1,129.2 586.1,95.3 		"/>
		<g>
			<polygon fill="#E4DBC5" points="549.4,54.4 533.8,78.3 549.4,102.2 565,78.3 			"/>
			<polygon fill="#392D21" points="549.4,54.4 546,49.1 544.6,51.3 549.4,58.6 554.2,51.3 552.8,49.1 			"/>
			<g>
				<polygon fill="#392D21" points="551.2,60.8 552.5,62.8 557.3,55.5 555.9,53.4 				"/>
				<polygon fill="#392D21" points="554,65 555.4,67.1 560.2,59.8 558.8,57.6 				"/>
				<polygon fill="#392D21" points="556.9,69.3 558.2,71.3 563,64 561.6,61.9 				"/>
				<polygon fill="#392D21" points="559.8,73.5 561.1,75.6 565.9,68.2 564.5,66.1 				"/>
				<polygon fill="#392D21" points="562.6,77.8 564,79.8 568.7,72.5 567.4,70.4 				"/>
			</g>
			<g>
				<polygon fill="#392D21" points="530.3,83.8 531.6,85.8 536.4,78.5 535,76.4 				"/>
				<polygon fill="#392D21" points="533.1,88 534.5,90.1 539.3,82.7 537.9,80.6 				"/>
				<polygon fill="#392D21" points="536,92.3 537.3,94.3 542.1,87 540.7,84.9 				"/>
				<polygon fill="#392D21" points="538.9,96.5 540.2,98.5 545,91.2 543.6,89.1 				"/>
				<polygon fill="#392D21" points="541.7,100.7 543.1,102.8 547.8,95.4 546.5,93.3 				"/>
			</g>
			<g>
				<polygon fill="#392D21" points="548.3,60.8 547,62.8 542.2,55.5 543.6,53.4 				"/>
				<polygon fill="#392D21" points="545.5,65 544.1,67.1 539.4,59.8 540.7,57.6 				"/>
				<polygon fill="#392D21" points="542.6,69.3 541.3,71.3 536.5,64 537.9,61.9 				"/>
				<polygon fill="#392D21" points="539.8,73.5 538.4,75.6 533.6,68.2 535,66.1 				"/>
				<polygon fill="#392D21" points="536.9,77.8 535.6,79.8 530.8,72.5 532.2,70.4 				"/>
			</g>
			<g>
				<polygon fill="#392D21" points="568.2,83.8 566.9,85.8 562.1,78.5 563.5,76.4 				"/>
				<polygon fill="#392D21" points="565.4,88 564,90.1 559.3,82.7 560.6,80.6 				"/>
				<polygon fill="#392D21" points="562.5,92.3 561.2,94.3 556.4,87 557.8,84.9 				"/>
				<polygon fill="#392D21" points="559.7,96.5 558.3,98.5 553.5,91.2 554.9,89.1 				"/>
				<polygon fill="#392D21" points="556.8,100.7 555.5,102.8 550.7,95.4 552.1,93.3 				"/>
			</g>
			<polygon fill="#392D21" points="549.4,102.2 552.8,107.4 554.2,105.3 549.4,98 544.6,105.3 546,107.4 			"/>
		</g>
		<g>
			<polygon fill="#E4DBC5" points="549.4,125.9 533.8,149.8 549.4,173.7 565,149.8 			"/>
			<polygon fill="#392D21" points="549.4,125.9 546,120.7 544.6,122.8 549.4,130.1 554.2,122.8 552.8,120.7 			"/>
			<g>
				<polygon fill="#392D21" points="551.2,132.3 552.5,134.4 557.3,127 555.9,124.9 				"/>
				<polygon fill="#392D21" points="554,136.6 555.4,138.6 560.2,131.3 558.8,129.2 				"/>
				<polygon fill="#392D21" points="556.9,140.8 558.2,142.8 563,135.5 561.6,133.4 				"/>
				<polygon fill="#392D21" points="559.8,145 561.1,147.1 565.9,139.7 564.5,137.6 				"/>
				<polygon fill="#392D21" points="562.6,149.3 564,151.3 568.7,144 567.4,141.9 				"/>
			</g>
			<g>
				<polygon fill="#392D21" points="530.3,155.3 531.6,157.4 536.4,150 535,147.9 				"/>
				<polygon fill="#392D21" points="533.1,159.5 534.5,161.6 539.3,154.3 537.9,152.2 				"/>
				<polygon fill="#392D21" points="536,163.8 537.3,165.8 542.1,158.5 540.7,156.4 				"/>
				<polygon fill="#392D21" points="538.9,168 540.2,170.1 545,162.7 543.6,160.6 				"/>
				<polygon fill="#392D21" points="541.7,172.3 543.1,174.3 547.8,167 546.5,164.9 				"/>
			</g>
			<g>
				<polygon fill="#392D21" points="548.3,132.3 547,134.4 542.2,127 543.6,124.9 				"/>
				<polygon fill="#392D21" points="545.5,136.6 544.1,138.6 539.4,131.3 540.7,129.2 				"/>
				<polygon fill="#392D21" points="542.6,140.8 541.3,142.8 536.5,135.5 537.9,133.4 				"/>
				<polygon fill="#392D21" points="539.8,145 538.4,147.1 533.6,139.7 535,137.6 				"/>
				<polygon fill="#392D21" points="536.9,149.3 535.6,151.3 530.8,144 532.2,141.9 				"/>
			</g>
			<g>
				<polygon fill="#392D21" points="568.2,155.3 566.9,157.4 562.1,150 563.5,147.9 				"/>
				<polygon fill="#392D21" points="565.4,159.5 564,161.6 559.3,154.3 560.6,152.2 				"/>
				<polygon fill="#392D21" points="562.5,163.8 561.2,165.8 556.4,158.5 557.8,156.4 				"/>
				<polygon fill="#392D21" points="559.7,168 558.3,170.1 553.5,162.7 554.9,160.6 				"/>
				<polygon fill="#392D21" points="556.8,172.3 555.5,174.3 550.7,167 552.1,164.9 				"/>
			</g>
			<polygon fill="#392D21" points="549.4,173.7 552.8,179 554.2,176.9 549.4,169.5 544.6,176.9 546,179 			"/>
		</g>
	</g>
</g>
<g>
	<defs>
		<path id="SVGID_10_" d="M305.7,275.9c-0.2,0.1-0.6-0.1-0.8-0.1c-0.3,0-0.6,0.1-0.9,0.1c-0.9,0.2-1.7,0.3-2.6,0.5
			c-0.5,0.1-0.9,0.1-1.4,0.3c-0.5,0.1-0.9,0.3-1.4,0.4c-0.5,0.1-0.9,0.3-1.4,0.3c-0.5,0.1-1.1,0.2-1.6,0.3c-1.2,0.2-2.5,0.4-3.7,0.7
			c-0.9,0.2-1.9,0.3-2.8,0.6c-1.1,0.4-2.3,0.7-3.3,1.2c-0.3,0.1-0.6,0.2-0.9,0.3c-0.3,0.1-0.5,0.3-0.7,0.4c-0.6,0.3-1.1,0.7-1.7,1
			c-0.2,0.1-0.3,0.3-0.5,0.4c-0.2,0.1-0.4,0.2-0.6,0.3c-0.3,0.2-0.6,0.2-0.9,0.4c-0.3,0.1-0.6,0.3-0.9,0.4c-1,0.4-2,0.7-3.1,0.9
			c-0.5,0.1-1,0.1-1.5,0.3c-0.6,0.2-1.1,0.4-1.7,0.6c-0.6,0.2-1.1,0.4-1.7,0.5c-0.3,0.1-1,0.3-1.3,0c-0.1-0.1-0.1-0.3-0.2-0.4
			c0-0.1-0.1-0.3-0.1-0.4c0-0.4,0.1-0.8,0.1-1.2c0.1-0.9,0.4-1.9,0.5-2.8c0.1-0.9,0.2-1.8,0.4-2.6c0.2-0.8,0.3-1.7,0.5-2.5
			c0.1-0.4,0.2-0.9,0.3-1.3c0-0.3,0-0.7,0-1c0-0.8-0.4-1.6-0.4-2.4c0-0.7,0-1.3,0-1.9c0-0.8-0.1-1.6,0.3-2.3
			c0.2-0.4,0.3-0.8,0.6-1.1c0.1-0.1,0.3-0.2,0.4-0.4c0.1-0.2,0.1-0.4,0.1-0.6c0-0.3-0.2-0.5-0.2-0.7c0-0.2,0-0.3-0.1-0.5
			c0-0.1-0.1-0.2-0.2-0.4c-0.1-0.3-0.1-0.6-0.2-1c-0.1-0.4-0.1-0.7-0.2-1.1c-0.1-0.3,0-0.5,0-0.8c0-0.3-0.1-0.7-0.2-1
			c-0.1-0.4-0.2-0.8-0.3-1.2c-0.2-0.6-0.2-1.2-0.4-1.8c-0.2-0.6-0.3-1.2-0.4-1.8c-0.1-0.7-0.3-1.5-0.5-2.2c-0.2-0.7-0.3-1.3-0.5-2
			c-0.2-0.7-0.4-1.3-0.6-2c-0.1-0.6-0.1-1.1-0.4-1.7c-0.2-0.5-0.3-1-0.5-1.4c-0.6-1.1-1.1-2.2-1.6-3.4c-0.2-0.6-0.4-1.2-0.5-1.9
			c0-0.3-0.2-0.6-0.1-0.9c0.1-0.3,0.7-0.5,1-0.6c0.4-0.1,0.7,0,1.1,0.1c0.5,0.2,1.1,0.2,1.7,0.3c0.5,0.1,1,0.1,1.5,0.1
			c0.7,0,1.3-0.1,2-0.1c0.5,0.1,1,0.2,1.5,0.3c0.5,0.1,0.9,0.3,1.4,0.3c0.2,0,0.5,0,0.7-0.1c0.4-0.1,0.7,0,1.1-0.1
			c0.7-0.1,1.5-0.3,2.2-0.5c0.6-0.1,1.1-0.4,1.7-0.6c0.4-0.1,0.7-0.1,1.1-0.2c0.5-0.1,0.9-0.3,1.4-0.4c0.9-0.2,1.7-0.4,2.6-0.3
			c0.9,0,1.8,0.1,2.8,0c0.8-0.1,1.6-0.3,2.4-0.5c0.9-0.3,1.9-0.4,2.8-0.6c0.8-0.1,1.6-0.4,2.4-0.4c0.3,0,0.7,0,1,0
			c0.5,0,0.9-0.1,1.3-0.2c0.7-0.1,1.3-0.3,2-0.5c0.6-0.2,1.2-0.3,1.8-0.4c1.4-0.4,2.6-1.1,3.9-1.7c0.6-0.2,1.1-0.6,1.7-0.7
			c0.6-0.2,1.2-0.2,1.8-0.4c0.8-0.3,1.7-0.3,2.5-0.5c0.4-0.1,0.5,0,0.6,0.4c0.1,0.3,0.1,0.7,0.1,1c0,0.4,0,0.8-0.1,1.2
			c-0.2,0.6-0.4,1.2-0.5,1.7c-0.1,0.4-0.2,0.7-0.3,1.1c-0.1,0.3-0.1,0.7-0.1,1c-0.1,0.8-0.1,1.6-0.1,2.4c0.1,1.8,0.1,3.6,0,5.4
			c-0.1,0.6-0.2,1.3-0.2,1.9c0,0.5,0,1,0.1,1.5c0,0.4,0,0.7,0.1,1.1c0.1,0.4,0.2,0.9,0.2,1.3c0.1,0.4,0.1,0.7,0.2,1.1
			c0.1,0.2,0.1,0.4,0.2,0.7c0.2,0.6,0.2,1.2,0.4,1.8c0.2,1,0.6,2,0.9,2.9c0.2,0.7,0.3,1.4,0.5,2.1c0.1,0.4,0.3,0.9,0.4,1.3
			c0,0.2,0.1,0.4,0.1,0.6c0.1,0.4,0.2,0.7,0.4,1.1c0.5,1.2,0.8,2.5,1.3,3.6c0.2,0.4,0.3,0.9,0.5,1.3c0.2,0.4,0.3,0.7,0.5,1.1
			c0.1,0.3,0.2,0.5,0.2,0.8c0,0.2,0,0.3,0,0.5c0,0.1-0.1,0.3,0,0.4c0.1,0.1,0.5,0.3,0.6,0.4c0.3,0.2,0.6,0.3,0.9,0.6
			c0.3,0.3,0.5,0.6,0.7,0.9c0.3,0.3,0.6,0.7,0.8,1.1c0.5,0.9,1.6,2.2,0.7,3.2c-0.5,0.6-1.6,0.6-2.3,0.5c-0.9-0.1-1.8-0.3-2.7-0.4
			c-0.5-0.1-0.9-0.3-1.4-0.3c-0.6,0-1.2,0-1.8,0c-0.5,0-1.1,0-1.6,0.1c-0.7,0.1-1.4,0.3-2.1,0.2c-0.6,0-1.2-0.1-1.8-0.1
			c-0.6,0-1.1-0.3-1.7-0.3c-0.3,0-0.6-0.1-0.9-0.2c-0.3,0-0.5,0-0.8-0.1"/>
	</defs>
	<clipPath id="SVGID_11_">
		<use xlink:href="#SVGID_10_"  overflow="visible"/>
	</clipPath>
	<g clip-path="url(#SVGID_11_)">
		
			<rect x="255.4" y="199.8" transform="matrix(0.9928 -0.1201 0.1201 0.9928 -22.0294 35.7499)" fill="#F2D9B5" width="60.3" height="1.6"/>
		
			<rect x="264.6" y="198.5" transform="matrix(0.9928 -0.1201 0.1201 0.9928 -29.0698 37.0356)" fill="#A0463B" width="56.1" height="122.2"/>
		<polygon fill="#E79A34" points="312.6,242.5 313.2,247.5 307,248.3 306.4,243.3 300.2,244 300.8,249 294.6,249.7 294,244.8 
			287.8,245.5 288.4,250.5 282.2,251.2 281.6,246.3 275.4,247 276,252 269.8,252.7 269.2,247.8 263.1,248.5 266.2,274.4 
			272.4,273.6 273,278.6 279.2,277.8 278.6,272.9 284.8,272.1 285.4,277.1 291.5,276.3 290.9,271.4 297.1,270.6 297.7,275.6 
			303.9,274.9 303.3,269.9 309.5,269.1 310.1,274.1 316.3,273.4 315.7,268.4 321.9,267.6 318.8,241.8 		"/>
		<g>
			<polygon fill="#E4DBC5" points="286.9,213.9 277.2,233.6 291.3,250.4 301,230.7 			"/>
			<polygon fill="#392D21" points="286.9,213.9 283.8,210.2 283,211.9 287.3,217.1 290.3,211 289,209.5 			"/>
			<g>
				<polygon fill="#392D21" points="288.9,218.6 290.1,220 293.1,214 291.8,212.5 				"/>
				<polygon fill="#392D21" points="291.5,221.6 292.7,223 295.6,217 294.4,215.5 				"/>
				<polygon fill="#392D21" points="294,224.6 295.2,226 298.2,219.9 297,218.5 				"/>
				<polygon fill="#392D21" points="296.6,227.5 297.8,229 300.8,222.9 299.5,221.4 				"/>
				<polygon fill="#392D21" points="299.2,230.5 300.4,231.9 303.4,225.9 302.1,224.4 				"/>
			</g>
			<g>
				<polygon fill="#392D21" points="275,238.1 276.2,239.5 279.2,233.5 278,232 				"/>
				<polygon fill="#392D21" points="277.6,241.1 278.8,242.5 281.8,236.5 280.5,235 				"/>
				<polygon fill="#392D21" points="280.2,244.1 281.4,245.5 284.4,239.4 283.1,238 				"/>
				<polygon fill="#392D21" points="282.8,247 284,248.5 286.9,242.4 285.7,240.9 				"/>
				<polygon fill="#392D21" points="285.3,250 286.5,251.4 289.5,245.4 288.3,243.9 				"/>
			</g>
			<g>
				<polygon fill="#392D21" points="286.7,218.9 285.9,220.6 281.5,215.4 282.4,213.7 				"/>
				<polygon fill="#392D21" points="284.9,222.4 284.1,224.1 279.7,218.9 280.6,217.2 				"/>
				<polygon fill="#392D21" points="283.1,225.9 282.3,227.6 277.9,222.4 278.8,220.7 				"/>
				<polygon fill="#392D21" points="281.3,229.4 280.5,231.1 276.2,225.9 277,224.2 				"/>
				<polygon fill="#392D21" points="279.5,232.9 278.7,234.6 274.4,229.4 275.2,227.7 				"/>
			</g>
			<g>
				<polygon fill="#392D21" points="304,234.6 303.2,236.3 298.9,231.1 299.7,229.4 				"/>
				<polygon fill="#392D21" points="302.2,238.1 301.4,239.8 297.1,234.6 297.9,232.9 				"/>
				<polygon fill="#392D21" points="300.4,241.6 299.6,243.3 295.3,238.1 296.1,236.4 				"/>
				<polygon fill="#392D21" points="298.7,245.1 297.8,246.8 293.5,241.6 294.3,239.9 				"/>
				<polygon fill="#392D21" points="296.9,248.6 296,250.3 291.7,245.1 292.5,243.4 				"/>
			</g>
			<polygon fill="#392D21" points="291.3,250.4 294.4,254.1 295.3,252.4 290.9,247.2 288,253.2 289.2,254.7 			"/>
		</g>
		<g>
			<polygon fill="#E4DBC5" points="293.5,268.5 283.8,288.2 298,305.1 307.7,285.4 			"/>
			<polygon fill="#392D21" points="293.5,268.5 290.4,264.8 289.6,266.6 293.9,271.7 296.9,265.7 295.7,264.2 			"/>
			<g>
				<polygon fill="#392D21" points="295.5,273.3 296.7,274.7 299.7,268.7 298.4,267.2 				"/>
				<polygon fill="#392D21" points="298.1,276.2 299.3,277.7 302.3,271.6 301,270.2 				"/>
				<polygon fill="#392D21" points="300.6,279.2 301.9,280.7 304.8,274.6 303.6,273.1 				"/>
				<polygon fill="#392D21" points="303.2,282.2 304.4,283.6 307.4,277.6 306.2,276.1 				"/>
				<polygon fill="#392D21" points="305.8,285.2 307,286.6 310,280.6 308.7,279.1 				"/>
			</g>
			<g>
				<polygon fill="#392D21" points="281.6,292.8 282.8,294.2 285.8,288.2 284.6,286.7 				"/>
				<polygon fill="#392D21" points="284.2,295.7 285.4,297.2 288.4,291.1 287.2,289.7 				"/>
				<polygon fill="#392D21" points="286.8,298.7 288,300.2 291,294.1 289.7,292.6 				"/>
				<polygon fill="#392D21" points="289.4,301.7 290.6,303.1 293.6,297.1 292.3,295.6 				"/>
				<polygon fill="#392D21" points="291.9,304.7 293.2,306.1 296.1,300.1 294.9,298.6 				"/>
			</g>
			<g>
				<polygon fill="#392D21" points="293.3,273.5 292.5,275.2 288.2,270.1 289,268.3 				"/>
				<polygon fill="#392D21" points="291.5,277 290.7,278.7 286.4,273.6 287.2,271.8 				"/>
				<polygon fill="#392D21" points="289.7,280.5 288.9,282.2 284.6,277.1 285.4,275.3 				"/>
				<polygon fill="#392D21" points="287.9,284 287.1,285.7 282.8,280.6 283.6,278.8 				"/>
				<polygon fill="#392D21" points="286.1,287.5 285.3,289.2 281,284.1 281.8,282.3 				"/>
			</g>
			<g>
				<polygon fill="#392D21" points="310.6,289.3 309.8,290.9 305.5,285.8 306.3,284 				"/>
				<polygon fill="#392D21" points="308.9,292.8 308,294.5 303.7,289.3 304.5,287.6 				"/>
				<polygon fill="#392D21" points="307.1,296.3 306.2,298 301.9,292.8 302.7,291.1 				"/>
				<polygon fill="#392D21" points="305.3,299.8 304.4,301.5 300.1,296.3 301,294.6 				"/>
				<polygon fill="#392D21" points="303.5,303.3 302.6,305 298.3,299.8 299.2,298.1 				"/>
			</g>
			<polygon fill="#392D21" points="298,305.1 301,308.8 301.9,307 297.6,301.9 294.6,307.9 295.8,309.4 			"/>
		</g>
	</g>
</g>
<g>
	<defs>
		<path id="SVGID_12_" d="M463.5,275.9c0.2,0.1,0.6-0.1,0.8-0.1c0.3,0,0.6,0.1,0.9,0.1c0.9,0.2,1.7,0.3,2.6,0.5
			c0.5,0.1,0.9,0.1,1.4,0.3c0.5,0.1,0.9,0.3,1.4,0.4c0.5,0.1,0.9,0.3,1.4,0.3c0.5,0.1,1.1,0.2,1.6,0.3c1.2,0.2,2.5,0.4,3.7,0.7
			c0.9,0.2,1.9,0.3,2.8,0.6c1.1,0.4,2.3,0.7,3.3,1.2c0.3,0.1,0.6,0.2,0.9,0.3c0.3,0.1,0.5,0.3,0.7,0.4c0.6,0.3,1.1,0.7,1.7,1
			c0.2,0.1,0.3,0.3,0.5,0.4c0.2,0.1,0.4,0.2,0.6,0.3c0.3,0.2,0.6,0.2,0.9,0.4c0.3,0.1,0.6,0.3,0.9,0.4c1,0.4,2,0.7,3.1,0.9
			c0.5,0.1,1,0.1,1.5,0.3c0.6,0.2,1.1,0.4,1.7,0.6c0.6,0.2,1.1,0.4,1.7,0.5c0.3,0.1,1,0.3,1.3,0c0.1-0.1,0.1-0.3,0.2-0.4
			c0-0.1,0.1-0.3,0.1-0.4c0-0.4-0.1-0.8-0.1-1.2c-0.1-0.9-0.4-1.9-0.5-2.8c-0.1-0.9-0.2-1.8-0.4-2.6c-0.2-0.8-0.3-1.7-0.5-2.5
			c-0.1-0.4-0.2-0.9-0.3-1.3c0-0.3,0-0.7,0-1c0-0.8,0.4-1.6,0.4-2.4c0-0.7,0-1.3,0-1.9c0-0.8,0.1-1.6-0.3-2.3
			c-0.2-0.4-0.3-0.8-0.6-1.1c-0.1-0.1-0.3-0.2-0.4-0.4c-0.1-0.2-0.1-0.4-0.1-0.6c0-0.3,0.2-0.5,0.2-0.7c0-0.2,0-0.3,0.1-0.5
			c0-0.1,0.1-0.2,0.2-0.4c0.1-0.3,0.1-0.6,0.2-1c0.1-0.4,0.1-0.7,0.2-1.1c0.1-0.3,0-0.5,0-0.8c0-0.3,0.1-0.7,0.2-1
			c0.1-0.4,0.2-0.8,0.3-1.2c0.2-0.6,0.2-1.2,0.4-1.8c0.2-0.6,0.3-1.2,0.4-1.8c0.1-0.7,0.3-1.5,0.5-2.2c0.2-0.7,0.3-1.3,0.5-2
			c0.2-0.7,0.4-1.3,0.6-2c0.1-0.6,0.1-1.1,0.4-1.7c0.2-0.5,0.3-1,0.5-1.4c0.6-1.1,1.1-2.2,1.6-3.4c0.2-0.6,0.4-1.2,0.5-1.9
			c0-0.3,0.2-0.6,0.1-0.9c-0.1-0.3-0.7-0.5-1-0.6c-0.4-0.1-0.7,0-1.1,0.1c-0.5,0.2-1.1,0.2-1.7,0.3c-0.5,0.1-1,0.1-1.5,0.1
			c-0.7,0-1.3-0.1-2-0.1c-0.5,0.1-1,0.2-1.5,0.3c-0.5,0.1-0.9,0.3-1.4,0.3c-0.2,0-0.5,0-0.7-0.1c-0.4-0.1-0.7,0-1.1-0.1
			c-0.7-0.1-1.5-0.3-2.2-0.5c-0.6-0.1-1.1-0.4-1.7-0.6c-0.4-0.1-0.7-0.1-1.1-0.2c-0.5-0.1-0.9-0.3-1.4-0.4c-0.9-0.2-1.7-0.4-2.6-0.3
			c-0.9,0-1.8,0.1-2.8,0c-0.8-0.1-1.6-0.3-2.4-0.5c-0.9-0.3-1.9-0.4-2.8-0.6c-0.8-0.1-1.6-0.4-2.4-0.4c-0.3,0-0.7,0-1,0
			c-0.5,0-0.9-0.1-1.3-0.2c-0.7-0.1-1.3-0.3-2-0.5c-0.6-0.2-1.2-0.3-1.8-0.4c-1.4-0.4-2.6-1.1-3.9-1.7c-0.6-0.2-1.1-0.6-1.7-0.7
			c-0.6-0.2-1.2-0.2-1.8-0.4c-0.8-0.3-1.7-0.3-2.5-0.5c-0.4-0.1-0.5,0-0.6,0.4c-0.1,0.3-0.1,0.7-0.1,1c0,0.4,0,0.8,0.1,1.2
			c0.2,0.6,0.4,1.2,0.5,1.7c0.1,0.4,0.2,0.7,0.3,1.1c0.1,0.3,0.1,0.7,0.1,1c0.1,0.8,0.1,1.6,0.1,2.4c-0.1,1.8-0.1,3.6,0,5.4
			c0.1,0.6,0.2,1.3,0.2,1.9c0,0.5,0,1-0.1,1.5c0,0.4,0,0.7-0.1,1.1c-0.1,0.4-0.2,0.9-0.2,1.3c-0.1,0.4-0.1,0.7-0.2,1.1
			c-0.1,0.2-0.1,0.4-0.2,0.7c-0.2,0.6-0.2,1.2-0.4,1.8c-0.2,1-0.6,2-0.9,2.9c-0.2,0.7-0.3,1.4-0.5,2.1c-0.1,0.4-0.3,0.9-0.4,1.3
			c0,0.2-0.1,0.4-0.1,0.6c-0.1,0.4-0.2,0.7-0.4,1.1c-0.5,1.2-0.8,2.5-1.3,3.6c-0.2,0.4-0.3,0.9-0.5,1.3c-0.2,0.4-0.3,0.7-0.5,1.1
			c-0.1,0.3-0.2,0.5-0.2,0.8c0,0.2,0,0.3,0,0.5c0,0.1,0.1,0.3,0,0.4c-0.1,0.1-0.5,0.3-0.6,0.4c-0.3,0.2-0.6,0.3-0.9,0.6
			c-0.3,0.3-0.5,0.6-0.7,0.9c-0.3,0.3-0.6,0.7-0.8,1.1c-0.5,0.9-1.6,2.2-0.7,3.2c0.5,0.6,1.6,0.6,2.3,0.5c0.9-0.1,1.8-0.3,2.7-0.4
			c0.5-0.1,0.9-0.3,1.4-0.3c0.6,0,1.2,0,1.8,0c0.5,0,1.1,0,1.6,0.1c0.7,0.1,1.4,0.3,2.1,0.2c0.6,0,1.2-0.1,1.8-0.1
			c0.6,0,1.1-0.3,1.7-0.3c0.3,0,0.6-0.1,0.9-0.2c0.3,0,0.5,0,0.8-0.1"/>
	</defs>
	<clipPath id="SVGID_13_">
		<use xlink:href="#SVGID_12_"  overflow="visible"/>
	</clipPath>
	<g clip-path="url(#SVGID_13_)">
		
			<rect x="453.6" y="199.8" transform="matrix(-0.9928 -0.1201 0.1201 -0.9928 939.8353 457.8561)" fill="#F2D9B5" width="60.3" height="1.6"/>
		
			<rect x="448.5" y="198.5" transform="matrix(-0.9928 -0.1201 0.1201 -0.9928 918.507 574.6532)" fill="#A0463B" width="56.1" height="122.2"/>
		<polygon fill="#E79A34" points="456.7,242.5 456.1,247.5 462.3,248.3 462.9,243.3 469,244 468.4,249 474.6,249.7 475.2,244.8 
			481.4,245.5 480.8,250.5 487,251.2 487.6,246.3 493.8,247 493.2,252 499.4,252.7 500,247.8 506.2,248.5 503.1,274.4 496.9,273.6 
			496.3,278.6 490.1,277.8 490.7,272.9 484.5,272.1 483.9,277.1 477.7,276.3 478.3,271.4 472.1,270.6 471.5,275.6 465.3,274.9 
			465.9,269.9 459.7,269.1 459.1,274.1 452.9,273.4 453.5,268.4 447.3,267.6 450.5,241.8 		"/>
		<g>
			<polygon fill="#E4DBC5" points="482.3,213.9 492,233.6 477.9,250.4 468.2,230.7 			"/>
			<polygon fill="#392D21" points="482.3,213.9 485.4,210.2 486.3,211.9 481.9,217.1 479,211 480.2,209.5 			"/>
			<g>
				<polygon fill="#392D21" points="480.4,218.6 479.2,220 476.2,214 477.4,212.5 				"/>
				<polygon fill="#392D21" points="477.8,221.6 476.6,223 473.6,217 474.8,215.5 				"/>
				<polygon fill="#392D21" points="475.2,224.6 474,226 471,219.9 472.3,218.5 				"/>
				<polygon fill="#392D21" points="472.6,227.5 471.4,229 468.4,222.9 469.7,221.4 				"/>
				<polygon fill="#392D21" points="470.1,230.5 468.8,231.9 465.9,225.9 467.1,224.4 				"/>
			</g>
			<g>
				<polygon fill="#392D21" points="494.2,238.1 493,239.5 490,233.5 491.3,232 				"/>
				<polygon fill="#392D21" points="491.6,241.1 490.4,242.5 487.4,236.5 488.7,235 				"/>
				<polygon fill="#392D21" points="489.1,244.1 487.8,245.5 484.9,239.4 486.1,238 				"/>
				<polygon fill="#392D21" points="486.5,247 485.3,248.5 482.3,242.4 483.5,240.9 				"/>
				<polygon fill="#392D21" points="483.9,250 482.7,251.4 479.7,245.4 481,243.9 				"/>
			</g>
			<g>
				<polygon fill="#392D21" points="482.5,218.9 483.4,220.6 487.7,215.4 486.8,213.7 				"/>
				<polygon fill="#392D21" points="484.3,222.4 485.2,224.1 489.5,218.9 488.6,217.2 				"/>
				<polygon fill="#392D21" points="486.1,225.9 487,227.6 491.3,222.4 490.4,220.7 				"/>
				<polygon fill="#392D21" points="487.9,229.4 488.7,231.1 493.1,225.9 492.2,224.2 				"/>
				<polygon fill="#392D21" points="489.7,232.9 490.5,234.6 494.9,229.4 494,227.7 				"/>
			</g>
			<g>
				<polygon fill="#392D21" points="465.2,234.6 466,236.3 470.4,231.1 469.5,229.4 				"/>
				<polygon fill="#392D21" points="467,238.1 467.8,239.8 472.2,234.6 471.3,232.9 				"/>
				<polygon fill="#392D21" points="468.8,241.6 469.6,243.3 474,238.1 473.1,236.4 				"/>
				<polygon fill="#392D21" points="470.6,245.1 471.4,246.8 475.7,241.6 474.9,239.9 				"/>
				<polygon fill="#392D21" points="472.4,248.6 473.2,250.3 477.5,245.1 476.7,243.4 				"/>
			</g>
			<polygon fill="#392D21" points="477.9,250.4 474.8,254.1 474,252.4 478.3,247.2 481.3,253.2 480,254.7 			"/>
		</g>
		<g>
			<polygon fill="#E4DBC5" points="475.7,268.5 485.4,288.2 471.3,305.1 461.6,285.4 			"/>
			<polygon fill="#392D21" points="475.7,268.5 478.8,264.8 479.7,266.6 475.3,271.7 472.3,265.7 473.6,264.2 			"/>
			<g>
				<polygon fill="#392D21" points="473.7,273.3 472.5,274.7 469.6,268.7 470.8,267.2 				"/>
				<polygon fill="#392D21" points="471.2,276.2 470,277.7 467,271.6 468.2,270.2 				"/>
				<polygon fill="#392D21" points="468.6,279.2 467.4,280.7 464.4,274.6 465.7,273.1 				"/>
				<polygon fill="#392D21" points="466,282.2 464.8,283.6 461.8,277.6 463.1,276.1 				"/>
				<polygon fill="#392D21" points="463.4,285.2 462.2,286.6 459.3,280.6 460.5,279.1 				"/>
			</g>
			<g>
				<polygon fill="#392D21" points="487.6,292.8 486.4,294.2 483.4,288.2 484.7,286.7 				"/>
				<polygon fill="#392D21" points="485,295.7 483.8,297.2 480.8,291.1 482.1,289.7 				"/>
				<polygon fill="#392D21" points="482.4,298.7 481.2,300.2 478.3,294.1 479.5,292.6 				"/>
				<polygon fill="#392D21" points="479.9,301.7 478.7,303.1 475.7,297.1 476.9,295.6 				"/>
				<polygon fill="#392D21" points="477.3,304.7 476.1,306.1 473.1,300.1 474.3,298.6 				"/>
			</g>
			<g>
				<polygon fill="#392D21" points="475.9,273.5 476.8,275.2 481.1,270.1 480.2,268.3 				"/>
				<polygon fill="#392D21" points="477.7,277 478.5,278.7 482.9,273.6 482,271.8 				"/>
				<polygon fill="#392D21" points="479.5,280.5 480.3,282.2 484.7,277.1 483.8,275.3 				"/>
				<polygon fill="#392D21" points="481.3,284 482.1,285.7 486.5,280.6 485.6,278.8 				"/>
				<polygon fill="#392D21" points="483.1,287.5 483.9,289.2 488.3,284.1 487.4,282.3 				"/>
			</g>
			<g>
				<polygon fill="#392D21" points="458.6,289.3 459.4,290.9 463.8,285.8 462.9,284 				"/>
				<polygon fill="#392D21" points="460.4,292.8 461.2,294.5 465.5,289.3 464.7,287.6 				"/>
				<polygon fill="#392D21" points="462.2,296.3 463,298 467.3,292.8 466.5,291.1 				"/>
				<polygon fill="#392D21" points="464,299.8 464.8,301.5 469.1,296.3 468.3,294.6 				"/>
				<polygon fill="#392D21" points="465.8,303.3 466.6,305 470.9,299.8 470.1,298.1 				"/>
			</g>
			<polygon fill="#392D21" points="471.3,305.1 468.2,308.8 467.3,307 471.7,301.9 474.7,307.9 473.4,309.4 			"/>
		</g>
	</g>
</g>
<path fill="#483C2F" d="M561.4,215.7c-7.8-8.7-25.2-16.1-45.3,0.9c-22.6,19.2-23.5,60.1-23.5,60.1h-28.5H303.8h-28.5
	c0,0-0.9-40.9-23.5-60.1c-20-17-37.4-9.6-45.3-0.9c-10.7,11.9,3.5,35.7,33.9,28.7c0,0,16.5,20.9,13.9,60.1h49.3h160.4h49.3
	c-2.6-39.2,13.9-60.1,13.9-60.1C558,251.4,572.1,227.6,561.4,215.7z"/>
<path fill="#487E36" d="M165.7,256c0,0-4-4.2,0.4-10.4c0,0-4.2,3.2-4.4,6.1c0,0-4.8-10.8-10.8-13.4c0,0-0.1,6.9,5.9,11.6
	c0,0-5.2-2.4-11.6-0.9c0,0,3,3.4,9.6,4s11.5,4.2,11.5,4.2L165.7,256z"/>
<path fill="#487E36" d="M174.6,254c0,0,1.8-1.5,2.9-3.1s2.5-2.1,2.5-2.1s8.8,1.1,14-1.9s6.1-3.6,6.1-3.6s-9.9-0.9-16.5,1.9l1-2.9
	l-4.4,1.9c0,0,2.9-5,7.6-6.8s10.5-2.2,10.5-2.2s-9.5-1.5-17.5,5c0,0,2.5-5,2.9-9.9s0.4-7,0.4-7s-2.2,4.4-4.2,12.4
	c0,0-0.8-16.8-3.1-23.5c0,0-3.8,14.4,0.6,29.2l-0.9,1.9c0,0-0.9-14.1-7.1-20.8c0,0,0.5,10.6,3.4,18.1s4.6,7.6,0.8,11.8L174.6,254z"
	/>
<path fill="#487E36" d="M164.7,248.5c0,0-0.1-3.8-6.5-10.1s-13.8-18-13.8-18s6.5,4.1,9.9,8s6.6,9,6.6,9s-3.4-7-10.2-16.5
	s-7.6-14.9-7.6-14.9s14.6,13.1,18.8,27.8c0,0-0.6-20.1,4-28.4c0,0,3.1,15.8,0.5,28.6c0,0,3.9-21.6,12-26.4c0,0-6,20.9-12.4,30.6
	l0.1,1.4c0,0,2.5-3.9,5.8-5.6s10.1-2,10.1-2s-17.5,3.2-15.6,16.9L164.7,248.5z"/>
<path fill="#483C2F" d="M173.2,280.1c0,0,1.5-13.5,0.6-22s-1.4-9.4-1.4-9.4s-4.1-1.6-7.4,1.5c0,0,3.8,14.8,2.4,29.2L173.2,280.1z"/>
<path fill="#483C2F" d="M167.4,256.8c-0.3-0.2-2.2-1.2-2.2-1.2l-0.2,0.8c0,0,2,1.5,2.3,3.3"/>
<path fill="#483C2F" d="M171.9,253.5l2.3-1.9c0,0-0.3,1.2,1.2,1.6c0,0-2,1.3-2.3,6.2"/>
<path fill="#483C2F" d="M167.4,249.7c0,0-1.2-0.4-1.2-2.1l-1.5,0.7l0.9,3.5l1.3-0.5"/>
<polygon fill="#A0463B" points="179.2,295.7 162.3,295.7 159.8,275.3 181.7,275.3 "/>
<g>
	<path fill="#E4DBC5" d="M183.8,195.3c0,0-2.2,3,0,8C183.8,203.3,186.6,199.9,183.8,195.3z"/>
	<path fill="#E4DBC5" d="M190.7,195.3c0,0-2.2,3,0,8C190.7,203.3,193.5,199.9,190.7,195.3z"/>
	<path fill="#E4DBC5" d="M197.6,195.3c0,0-2.2,3,0,8C197.6,203.3,200.5,199.9,197.6,195.3z"/>
	<path fill="#E4DBC5" d="M204.5,195.3c0,0-2.2,3,0,8C204.5,203.3,207.4,199.9,204.5,195.3z"/>
	<path fill="#E4DBC5" d="M211.4,195.3c0,0-2.2,3,0,8C211.4,203.3,214.3,199.9,211.4,195.3z"/>
	<path fill="#E4DBC5" d="M218.3,195.3c0,0-2.2,3,0,8C218.3,203.3,221.2,199.9,218.3,195.3z"/>
	<path fill="#E4DBC5" d="M225.3,195.3c0,0-2.2,3,0,8C225.3,203.3,228.1,199.9,225.3,195.3z"/>
	<path fill="#E4DBC5" d="M232.2,195.3c0,0-2.2,3,0,8C232.2,203.3,235,199.9,232.2,195.3z"/>
	<path fill="#E4DBC5" d="M239.1,195.3c0,0-2.2,3,0,8C239.1,203.3,241.9,199.9,239.1,195.3z"/>
	<path fill="#E4DBC5" d="M246,195.3c0,0-2.2,3,0,8C246,203.3,248.8,199.9,246,195.3z"/>
	<path fill="#E4DBC5" d="M252.9,195.3c0,0-2.2,3,0,8C252.9,203.3,255.8,199.9,252.9,195.3z"/>
</g>
<g>
	<path fill="#E4DBC5" d="M515.1,195.3c0,0-2.2,3,0,8C515.1,203.3,518,199.9,515.1,195.3z"/>
	<path fill="#E4DBC5" d="M522,195.3c0,0-2.2,3,0,8C522,203.3,524.9,199.9,522,195.3z"/>
	<path fill="#E4DBC5" d="M528.9,195.3c0,0-2.2,3,0,8C528.9,203.3,531.8,199.9,528.9,195.3z"/>
	<path fill="#E4DBC5" d="M535.8,195.3c0,0-2.2,3,0,8C535.8,203.3,538.7,199.9,535.8,195.3z"/>
	<path fill="#E4DBC5" d="M542.8,195.3c0,0-2.2,3,0,8C542.8,203.3,545.6,199.9,542.8,195.3z"/>
	<path fill="#E4DBC5" d="M549.7,195.3c0,0-2.2,3,0,8C549.7,203.3,552.5,199.9,549.7,195.3z"/>
	<path fill="#E4DBC5" d="M556.6,195.3c0,0-2.2,3,0,8C556.6,203.3,559.4,199.9,556.6,195.3z"/>
	<path fill="#E4DBC5" d="M563.5,195.3c0,0-2.2,3,0,8C563.5,203.3,566.4,199.9,563.5,195.3z"/>
	<path fill="#E4DBC5" d="M570.4,195.3c0,0-2.2,3,0,8C570.4,203.3,573.3,199.9,570.4,195.3z"/>
	<path fill="#E4DBC5" d="M577.3,195.3c0,0-2.2,3,0,8C577.3,203.3,580.2,199.9,577.3,195.3z"/>
	<path fill="#E4DBC5" d="M584.2,195.3c0,0-2.2,3,0,8C584.2,203.3,587.1,199.9,584.2,195.3z"/>
</g>
</svg>
