<?xml version="1.0" encoding="utf-8"?>
<!-- Generator: Adobe Illustrator 18.0.0, SVG Export Plug-In . SVG Version: 6.00 Build 0)  -->
<!DOCTYPE svg PUBLIC "-//W3C//DTD SVG 1.1//EN" "http://www.w3.org/Graphics/SVG/1.1/DTD/svg11.dtd">
<svg version="1.1" id="Layer_1" xmlns="http://www.w3.org/2000/svg" xmlns:xlink="http://www.w3.org/1999/xlink" x="0px" y="0px"
	 viewBox="0 0 768 417" enable-background="new 0 0 768 417" xml:space="preserve">
<rect x="482.5" y="76.5" fill="#F2F2F2" width="121" height="133.9"/>
<rect x="488.6" y="83.1" fill="#E8E8E8" width="50.8" height="120.6"/>
<rect x="546.3" y="83.1" fill="#E8E8E8" width="51.2" height="120.6"/>
<path fill="#E6F2FB" d="M592.1,87.5h-40.6V137c14.9-3,29.5-4.4,40.6-5.1V87.5z"/>
<path fill="#D0DBBD" d="M534.3,199.3v-58.1c-8.5,2.5-16.8,5.6-24.3,9.4c-4.8,2.5-10.4,4.9-16.3,7.2v41.4H534.3z"/>
<path fill="#D0DBBD" d="M592.1,199.3v-67.4c-11.1,0.7-25.6,2.1-40.6,5.1v62.3H592.1z"/>
<rect x="153.3" y="210.3" fill="#E8E8E8" width="137.3" height="3.4"/>
<rect x="474.7" y="210.3" fill="#E8E8E8" width="137.3" height="3.4"/>
<rect x="164.5" y="76.5" fill="#F2F2F2" width="121" height="133.9"/>
<rect x="170.6" y="83.1" fill="#E8E8E8" width="50.8" height="120.6"/>
<rect x="228.3" y="83.1" fill="#E8E8E8" width="51.2" height="120.6"/>
<path fill="#E6F2FB" d="M216.3,87.5h-40.6v56.8c11.7,2.4,26,5.7,40.6,10V87.5z"/>
<path fill="#D0DBBD" d="M216.3,199.3v-45.1c-14.6-4.3-28.9-7.6-40.6-10v55H216.3z"/>
<path fill="#D0DBBD" d="M274.1,199.3v-22.8c-5.8-2.2-11-4.4-15.5-6.5c-7.8-3.8-16.4-7.2-25.1-10.3v39.6H274.1z"/>
<rect x="583.9" y="217.2" transform="matrix(0.2475 -0.9689 0.9689 0.2475 218.824 737.8418)" fill="#ACACAC" width="1.1" height="21.8"/>
<g>
	<linearGradient id="SVGID_1_" gradientUnits="userSpaceOnUse" x1="363.2223" y1="362" x2="363.2223" y2="82.6468">
		<stop  offset="0" style="stop-color:#AAC1CC"/>
		<stop  offset="0.8587" style="stop-color:#AAC1CC;stop-opacity:0.1413"/>
		<stop  offset="1" style="stop-color:#AAC1CC;stop-opacity:0"/>
	</linearGradient>
	<rect x="330.2" y="50.7" fill="url(#SVGID_1_)" width="66" height="237.3"/>
	<linearGradient id="SVGID_2_" gradientUnits="userSpaceOnUse" x1="413.2581" y1="362" x2="413.2581" y2="82.6468">
		<stop  offset="0" style="stop-color:#D5D0BB"/>
		<stop  offset="0.8587" style="stop-color:#D5D0BB;stop-opacity:0.1413"/>
		<stop  offset="1" style="stop-color:#D5D0BB;stop-opacity:0"/>
	</linearGradient>
	<rect x="402.9" y="50.7" fill="url(#SVGID_2_)" width="20.7" height="237.3"/>
	<linearGradient id="SVGID_3_" gradientUnits="userSpaceOnUse" x1="434.176" y1="362" x2="434.176" y2="82.6468">
		<stop  offset="0" style="stop-color:#888783"/>
		<stop  offset="0.8587" style="stop-color:#888783;stop-opacity:0.1413"/>
		<stop  offset="1" style="stop-color:#888783;stop-opacity:0"/>
	</linearGradient>
	<rect x="430.6" y="50.7" fill="url(#SVGID_3_)" width="7.2" height="237.3"/>
</g>
<rect x="309.7" y="153.5" fill="#6E6E6E" width="2.1" height="54.5"/>
<linearGradient id="SVGID_4_" gradientUnits="userSpaceOnUse" x1="139.25" y1="268.5" x2="628.75" y2="268.5">
	<stop  offset="0" style="stop-color:#FFFFFF;stop-opacity:0"/>
	<stop  offset="4.072615e-02" style="stop-color:#FBFBFB;stop-opacity:7.861429e-02"/>
	<stop  offset="0.167" style="stop-color:#F4F4F4;stop-opacity:0.3224"/>
	<stop  offset="0.5181" style="stop-color:#F2F2F2"/>
	<stop  offset="0.8223" style="stop-color:#F4F4F4;stop-opacity:0.3687"/>
	<stop  offset="0.9638" style="stop-color:#FCFCFC;stop-opacity:7.504243e-02"/>
	<stop  offset="1" style="stop-color:#FFFFFF;stop-opacity:0"/>
</linearGradient>
<rect x="139.2" y="267.4" fill="url(#SVGID_4_)" width="489.5" height="2.2"/>
<g>
	<defs>
		<path id="SVGID_5_" d="M646,285.9c41.1,25.6,82.2,51.2,123.3,76.8H768c-40.9-25.6-81.9-51.2-122.8-76.8c-5.5,0-10.9,0-16.4,0
			c38.3,25.6,76.7,51.2,115,76.8h-1.3c-38.2-25.6-76.4-51.2-114.6-76.8c-5.5,0-10.9,0-16.4,0c35.6,25.6,71.2,51.2,106.8,76.8H717
			c-35.5-25.6-71-51.2-106.4-76.8c-5.5,0-10.9,0-16.4,0c32.9,25.6,65.8,51.2,98.6,76.8h-1.3c-32.7-25.6-65.5-51.2-98.2-76.8
			c-5.5,0-10.9,0-16.4,0c30.1,25.6,60.3,51.2,90.4,76.8h-1.3c-30-25.6-60-51.2-90-76.8c-5.5,0-10.9,0-16.4,0
			c27.4,25.6,54.8,51.2,82.2,76.8h-1.3c-27.3-25.6-54.6-51.2-81.8-76.8c-5.5,0-10.9,0-16.4,0c24.7,25.6,49.4,51.2,74,76.8h-1.3
			c-24.5-25.6-49.1-51.2-73.6-76.8c-5.5,0-10.9,0-16.4,0c21.9,25.6,43.9,51.2,65.8,76.8h-1.3c-21.8-25.6-43.6-51.2-65.4-76.8
			c-5.5,0-10.9,0-16.4,0c19.2,25.6,38.4,51.2,57.6,76.8h-1.3c-19.1-25.6-38.1-51.2-57.2-76.8c-5.5,0-10.9,0-16.4,0
			c16.5,25.6,32.9,51.2,49.4,76.8h-1.3c-16.3-25.6-32.7-51.2-49-76.8c-5.5,0-10.9,0-16.4,0c13.7,25.6,27.5,51.2,41.2,76.8h-1.3
			c-13.6-25.6-27.2-51.2-40.8-76.8c-5.5,0-10.9,0-16.4,0c11,25.6,22,51.2,33,76.8h-1.3c-10.9-25.6-21.7-51.2-32.6-76.8
			c-5.5,0-10.9,0-16.4,0c8.3,25.6,16.5,51.2,24.8,76.8h-1.3c-8.1-25.6-16.3-51.2-24.4-76.8c-5.5,0-10.9,0-16.4,0
			c5.5,25.6,11.1,51.2,16.6,76.8H437c-5.4-25.6-10.8-51.2-16.2-76.8c-5.5,0-10.9,0-16.4,0c2.8,25.6,5.6,51.2,8.4,76.8h-1.3
			c-2.7-25.6-5.3-51.2-8-76.8c-5.5,0-10.9,0-16.4,0c0.1,25.6,0.1,51.2,0.2,76.8H386c0.1-25.6,0.1-51.2,0.2-76.8
			c-5.5,0-10.9,0-16.4,0c-2.7,25.6-5.3,51.2-8,76.8h-1.3c2.8-25.6,5.6-51.2,8.4-76.8c-5.5,0-10.9,0-16.4,0
			c-5.4,25.6-10.8,51.2-16.2,76.8h-1.3c5.5-25.6,11.1-51.2,16.6-76.8c-5.5,0-10.9,0-16.4,0c-8.1,25.6-16.3,51.2-24.4,76.8h-1.3
			c8.3-25.6,16.5-51.2,24.8-76.8c-5.5,0-10.9,0-16.4,0c-10.9,25.6-21.7,51.2-32.6,76.8h-1.3c11-25.6,22-51.2,33-76.8
			c-5.5,0-10.9,0-16.4,0c-13.6,25.6-27.2,51.2-40.8,76.8h-1.3c13.7-25.6,27.5-51.2,41.2-76.8c-5.5,0-10.9,0-16.4,0
			c-16.3,25.6-32.7,51.2-49,76.8h-1.3c16.5-25.6,32.9-51.2,49.4-76.8c-5.5,0-10.9,0-16.4,0c-19.1,25.6-38.1,51.2-57.2,76.8h-1.3
			c19.2-25.6,38.4-51.2,57.6-76.8c-5.5,0-10.9,0-16.4,0c-21.8,25.6-43.6,51.2-65.4,76.8h-1.3c21.9-25.6,43.9-51.2,65.8-76.8
			c-5.5,0-10.9,0-16.4,0c-24.5,25.6-49.1,51.2-73.6,76.8h-1.3c24.7-25.6,49.4-51.2,74-76.8c-5.5,0-10.9,0-16.4,0
			c-27.3,25.6-54.6,51.2-81.8,76.8h-1.3c27.4-25.6,54.8-51.2,82.2-76.8c-5.5,0-10.9,0-16.4,0c-30,25.6-60,51.2-90,76.8H106
			c30.1-25.6,60.3-51.2,90.4-76.8c-5.5,0-10.9,0-16.4,0c-32.7,25.6-65.5,51.2-98.2,76.8h-1.3c32.9-25.6,65.8-51.2,98.6-76.8
			c-5.5,0-10.9,0-16.4,0c-35.5,25.6-71,51.2-106.4,76.8H55c35.6-25.6,71.2-51.2,106.8-76.8c-5.5,0-10.9,0-16.4,0
			c-38.2,25.6-76.4,51.2-114.6,76.8h-1.3c38.3-25.6,76.7-51.2,115-76.8c-5.5,0-10.9,0-16.4,0c-40.9,25.6-81.9,51.2-122.8,76.8H4.1
			c41.1-25.6,82.2-51.2,123.3-76.8c-5.5,0-127.4,0-127.4,0V417h768v-35.3V286C768,286,650.1,285.9,646,285.9z"/>
	</defs>
	<clipPath id="SVGID_6_">
		<use xlink:href="#SVGID_5_"  overflow="visible"/>
	</clipPath>
	<g id="floor" clip-path="url(#SVGID_6_)">
		<defs>
			<rect id="SVGID_7_" y="285.9" width="768" height="131.1"/>
		</defs>
		<clipPath id="SVGID_8_">
			<use xlink:href="#SVGID_7_"  overflow="visible"/>
		</clipPath>
		
			<radialGradient id="SVGID_9_" cx="384" cy="285.8932" r="271.9031" gradientTransform="matrix(1 0 0 0.3 0 200.1252)" gradientUnits="userSpaceOnUse">
			<stop  offset="0" style="stop-color:#E2DED7"/>
			<stop  offset="0.8587" style="stop-color:#E2DED7;stop-opacity:0.1413"/>
			<stop  offset="1" style="stop-color:#E2DED7;stop-opacity:0"/>
		</radialGradient>
		<ellipse clip-path="url(#SVGID_8_)" fill="url(#SVGID_9_)" cx="384" cy="285.9" rx="366.5" ry="116.4"/>
	</g>
</g>
<g>
	<path d="M338.1,258.6h-67.9c-3.3,0-6-2.7-6-6v-51c0-3.3,2.7-6,6-6h67.9c3.3,0,6,2.7,6,6v51C344.1,255.9,341.4,258.6,338.1,258.6z"
		/>
	<path d="M497.8,258.6h-67.9c-3.3,0-6-2.7-6-6v-51c0-3.3,2.7-6,6-6h67.9c3.3,0,6,2.7,6,6v51C503.8,255.9,501.1,258.6,497.8,258.6z"
		/>
	<path d="M417.9,258.6h-67.9c-3.3,0-6-2.7-6-6v-51c0-3.3,2.7-6,6-6h67.9c3.3,0,6,2.7,6,6v51C423.9,255.9,421.2,258.6,417.9,258.6z"
		/>
</g>
<rect x="250.3" y="284.2" fill="#685249" width="267.5" height="6"/>
<polygon fill="#454545" points="461.5,222.8 477,208.6 462.8,224.1 477,239.7 461.5,225.4 445.9,239.7 460.2,224.1 445.9,208.6 "/>
<polygon fill="#454545" points="382.8,222.8 398.4,208.6 384.1,224.1 398.4,239.7 382.8,225.4 367.3,239.7 381.5,224.1 367.3,208.6 
	"/>
<polygon fill="#454545" points="308,222.8 323.6,208.6 309.3,224.1 323.6,239.7 308,225.4 292.4,239.7 306.7,224.1 292.4,208.6 "/>
<polygon fill="#685249" points="255.4,309 250.3,309 250.3,286.7 257.9,286.7 "/>
<polygon fill="#685249" points="512.6,309 517.7,309 517.7,286.7 510.1,286.7 "/>
<g>
	<defs>
		<path id="SVGID_10_" d="M320.5,246.6c-0.2,0.1-0.6-0.1-0.8-0.1c-0.3,0-0.6,0.1-0.9,0.1c-0.9,0.2-1.7,0.3-2.6,0.5
			c-0.5,0.1-0.9,0.1-1.4,0.3c-0.5,0.1-0.9,0.3-1.4,0.4c-0.5,0.1-0.9,0.3-1.4,0.3c-0.5,0.1-1.1,0.2-1.6,0.3c-1.2,0.2-2.5,0.4-3.7,0.7
			c-0.9,0.2-1.9,0.3-2.8,0.6c-1.1,0.4-2.3,0.7-3.3,1.2c-0.3,0.1-0.6,0.2-0.9,0.3c-0.3,0.1-0.5,0.3-0.7,0.4c-0.6,0.3-1.1,0.7-1.7,1
			c-0.2,0.1-0.3,0.3-0.5,0.4c-0.2,0.1-0.4,0.2-0.6,0.3c-0.3,0.2-0.6,0.2-0.9,0.4c-0.3,0.1-0.6,0.3-0.9,0.4c-1,0.4-2,0.7-3.1,0.9
			c-0.5,0.1-1,0.1-1.5,0.3c-0.6,0.2-1.1,0.4-1.7,0.6c-0.6,0.2-1.1,0.4-1.7,0.5c-0.3,0.1-1,0.3-1.3,0c-0.1-0.1-0.1-0.3-0.2-0.4
			c0-0.1-0.1-0.3-0.1-0.4c0-0.4,0.1-0.8,0.1-1.2c0.1-0.9,0.4-1.9,0.5-2.8c0.1-0.9,0.2-1.8,0.4-2.6c0.2-0.8,0.3-1.7,0.5-2.5
			c0.1-0.4,0.2-0.9,0.3-1.3c0-0.3,0-0.7,0-1c0-0.8-0.4-1.6-0.4-2.4c0-0.7,0-1.3,0-1.9c0-0.8-0.1-1.6,0.3-2.3
			c0.2-0.4,0.3-0.8,0.6-1.1c0.1-0.1,0.3-0.2,0.4-0.4c0.1-0.2,0.1-0.4,0.1-0.6c0-0.3-0.2-0.5-0.2-0.7c0-0.2,0-0.3-0.1-0.5
			c0-0.1-0.1-0.2-0.2-0.4c-0.1-0.3-0.1-0.6-0.2-1c-0.1-0.4-0.1-0.7-0.2-1.1c-0.1-0.3,0-0.5,0-0.8c0-0.3-0.1-0.7-0.2-1
			c-0.1-0.4-0.2-0.8-0.3-1.2c-0.2-0.6-0.2-1.2-0.4-1.8c-0.2-0.6-0.3-1.2-0.4-1.8c-0.1-0.7-0.3-1.5-0.5-2.2c-0.2-0.7-0.3-1.3-0.5-2
			c-0.2-0.7-0.4-1.3-0.6-2c-0.1-0.6-0.1-1.1-0.4-1.7c-0.2-0.5-0.3-1-0.5-1.4c-0.6-1.1-1.1-2.2-1.6-3.4c-0.2-0.6-0.4-1.2-0.5-1.9
			c0-0.3-0.2-0.6-0.1-0.9c0.1-0.3,0.7-0.5,1-0.6c0.4-0.1,0.7,0,1.1,0.1c0.5,0.2,1.1,0.2,1.7,0.3c0.5,0.1,1,0.1,1.5,0.1
			c0.7,0,1.3-0.1,2-0.1c0.5,0.1,1,0.2,1.5,0.3c0.5,0.1,0.9,0.3,1.4,0.3c0.2,0,0.5,0,0.7-0.1c0.4-0.1,0.7,0,1.1-0.1
			c0.7-0.1,1.5-0.3,2.2-0.5c0.6-0.1,1.1-0.4,1.7-0.6c0.4-0.1,0.7-0.1,1.1-0.2c0.5-0.1,0.9-0.3,1.4-0.4c0.9-0.2,1.7-0.4,2.6-0.3
			c0.9,0,1.8,0.1,2.8,0c0.8-0.1,1.6-0.3,2.4-0.5c0.9-0.3,1.9-0.4,2.8-0.6c0.8-0.1,1.6-0.4,2.4-0.4c0.3,0,0.7,0,1,0
			c0.5,0,0.9-0.1,1.3-0.2c0.7-0.1,1.3-0.3,2-0.5c0.6-0.2,1.2-0.3,1.8-0.4c1.4-0.4,2.6-1.1,3.9-1.7c0.6-0.2,1.1-0.6,1.7-0.7
			c0.6-0.2,1.2-0.2,1.8-0.4c0.8-0.3,1.7-0.3,2.5-0.5c0.4-0.1,0.5,0,0.6,0.4c0.1,0.3,0.1,0.7,0.1,1c0,0.4,0,0.8-0.1,1.2
			c-0.2,0.6-0.4,1.2-0.5,1.7c-0.1,0.4-0.2,0.7-0.3,1.1c-0.1,0.3-0.1,0.7-0.1,1c-0.1,0.8-0.1,1.6-0.1,2.4c0.1,1.8,0.1,3.6,0,5.4
			c-0.1,0.6-0.2,1.3-0.2,1.9c0,0.5,0,1,0.1,1.5c0,0.4,0,0.7,0.1,1.1c0.1,0.4,0.2,0.9,0.2,1.3c0.1,0.4,0.1,0.7,0.2,1.1
			c0.1,0.2,0.1,0.4,0.2,0.7c0.2,0.6,0.2,1.2,0.4,1.8c0.2,1,0.6,2,0.9,2.9c0.2,0.7,0.3,1.4,0.5,2.1c0.1,0.4,0.3,0.9,0.4,1.3
			c0,0.2,0.1,0.4,0.1,0.6c0.1,0.4,0.2,0.7,0.4,1.1c0.5,1.2,0.8,2.5,1.3,3.6c0.2,0.4,0.3,0.9,0.5,1.3c0.2,0.4,0.3,0.7,0.5,1.1
			c0.1,0.3,0.2,0.5,0.2,0.8c0,0.2,0,0.3,0,0.5c0,0.1-0.1,0.3,0,0.4c0.1,0.1,0.5,0.3,0.6,0.4c0.3,0.2,0.6,0.3,0.9,0.6
			c0.3,0.3,0.5,0.6,0.7,0.9c0.3,0.3,0.6,0.7,0.8,1.1c0.5,0.9,1.6,2.2,0.7,3.2c-0.5,0.6-1.6,0.6-2.3,0.5c-0.9-0.1-1.8-0.3-2.7-0.4
			c-0.5-0.1-0.9-0.3-1.4-0.3c-0.6,0-1.2,0-1.8,0c-0.5,0-1.1,0-1.6,0.1c-0.7,0.1-1.4,0.3-2.1,0.2c-0.6,0-1.2-0.1-1.8-0.1
			c-0.6,0-1.1-0.3-1.7-0.3c-0.3,0-0.6-0.1-0.9-0.2c-0.3,0-0.5,0-0.8-0.1"/>
	</defs>
	<clipPath id="SVGID_11_">
		<use xlink:href="#SVGID_10_"  overflow="visible"/>
	</clipPath>
	<g id="zaUvVq_1_" clip-path="url(#SVGID_11_)">
		<g>
			<path fill="#914F6E" d="M285.1,194.7c0.7-0.1,1.4-0.2,2-0.4c0,0.2,0,0.5,0,0.7c0.1,1.9,0.7,3.5,2.1,4.8c2.6,2.3,5.5,2.8,8.7,1.4
				c3.1-1.3,6-5.4,3.8-9.5c0.8-0.1,1.5-0.3,2.3-0.4c0.4,2.5,0.9,4.9,1.3,7.4c0.3,1.5-0.1,2.8-1,3.9c-0.7,0.8-1.4,1.6-2.1,2.5
				c-0.7,0.9-1.4,1.7-1.7,2.9c-0.7,2.6,0.5,5.7,2.8,7.3c1.6,1.1,3.3,1.5,5.2,1.5c0.9,5.1,1.8,10.1,2.7,15.2c0.2,1.2,0,2.3-0.7,3.2
				c-0.8,1-1.6,1.9-2.4,2.9c-0.9,1.1-1.7,2.1-1.8,3.5c-0.5,4.5,2.9,7.8,7.3,8c0.3,0,0.5,0,0.8,0.1c0.9,5.3,1.9,10.5,2.8,15.8
				c0.1,0.4,0,0.9,0,1.3c-6.2,1.1-12.4,2.2-18.6,3.3c-0.5-1.2-0.7-2.4-0.9-3.7c-0.8-4.4-1.6-8.8-2.3-13.2c1.5-0.5,2.9-1.3,3.9-2.6
				c2.5-3.1,2.3-6.9-1.1-9.4c-0.8-0.6-1.7-1.2-2.6-1.6c-2.1-1.1-3.3-2.7-3.7-5.1c-0.8-4.8-1.7-9.7-2.6-14.5c2.5-0.8,4.2-2.4,5.2-4.8
				c0.9-2.2,0.3-5.2-1.8-6.8c-1-0.8-2.1-1.5-3.2-2.1c-1.9-1.1-3.2-2.5-3.5-4.8C285.9,199.1,285.5,196.9,285.1,194.7z M297.3,203.7
				c-1.3-0.3-1.7,0-1.5,1.2c0.7,4,1.4,8,2.1,12.1c0.2,1.3,0,2.5-0.9,3.5c-0.9,1.1-1.9,2.2-2.8,3.3c-2.1,2.7-1.8,6.4,0.7,8.8
				c1.7,1.7,3.9,2.3,6.2,2.2c-0.1,0.4,0,0.9,0.1,1.3c0.8,4.7,1.7,9.5,2.5,14.2c0.2,1.2,0,2.3-0.7,3.2c-0.9,1.1-1.8,2.3-2.8,3.4
				c-2.6,2.9-1.5,6.9,0.6,8.9c3.4,3.2,8.5,2.8,11.5-0.7c2.4-2.9,2.4-6.7-0.6-9.1c-1-0.8-2.1-1.5-3.3-2.1c-1.8-1-2.9-2.4-3.2-4.5
				c-0.7-4.6-1.6-9.1-2.4-13.7c-0.1-0.4-0.1-0.8-0.4-1.2c1.9-0.6,3.5-1.7,4.6-3.4c1.9-2.9,1.4-6.3-1.2-8.3c-0.9-0.7-1.9-1.4-3-2
				c-0.8-0.4-1.5-0.9-2.2-1.6c-0.5-0.5-0.9-1.1-1-1.8c-0.7-4.2-1.5-8.4-2.2-12.6C297.6,204.4,297.5,204.1,297.3,203.7z"/>
			<path fill="#914F6E" d="M322.5,188c0.7-0.1,1.4-0.3,2.2-0.4c0.4,2.5,0.9,4.9,1.3,7.4c0.3,1.5-0.1,2.8-1.1,3.9
				c-0.5,0.5-1,1.1-1.4,1.7c-0.8,1-1.7,1.9-2.2,3.1c-1,2.8,0.4,6.4,3.1,8c1.5,0.9,3.1,1.2,4.7,1.2c0.9,5.2,1.8,10.3,2.7,15.5
				c0.2,1.4-0.1,2.6-1,3.7c-0.9,1-1.8,2.1-2.6,3.1c-1.8,2.3-2,5-0.5,7.4c1.7,2.7,4.2,3.7,7.3,3.6c0,0.6,0.1,1.1,0.2,1.7
				c0.8,5.1,1.9,10.1,2.6,15.2c-2.8,0.5-5.7,1-8.5,1.5c-0.1-0.3-0.1-0.5,0.2-0.7c2.5-0.9,4.2-2.6,5-5.2c0.6-2.1,0.2-3.9-1.3-5.6
				c-1.1-1.2-2.5-2.1-3.9-2.8c-2.1-1.1-3.2-2.7-3.6-5.1c-0.7-4.7-1.6-9.4-2.5-14.1c0,0,0-0.1,0-0.1c2.4-0.7,4.1-2.3,5.1-4.6
				c1-2.3,0.5-4.8-1.3-6.6c-1-0.9-2.1-1.7-3.3-2.3c-2.3-1.2-3.6-2.9-3.9-5.5c-0.6-4.4-1.5-8.8-2.3-13.2c-0.1-0.4-0.1-0.8-0.3-1.1
				c0.2-0.1,0.3-0.1,0.5-0.2C322.1,196.2,324,192.3,322.5,188z"/>
			<path fill="#914F6E" d="M281.3,195.4c0.7-0.1,1.4-0.3,2.2-0.4c0.4,2.5,0.9,5,1.3,7.5c0.2,1.1,0,2.2-0.7,3.1
				c-0.8,1.1-1.7,2.2-2.7,3.2c-3,3.3-1.6,7.8,1.4,9.9c1.6,1.1,3.3,1.4,5.2,1.4c0.1,0.4,0.1,0.7,0.2,1.1c0.8,4.7,1.7,9.4,2.5,14.2
				c0.3,1.5,0,2.8-1,4c-0.9,1-1.8,2-2.6,3.1c-2,2.6-1.9,5.9,0.3,8.4c1.7,1.9,3.9,2.7,6.5,2.6c0.7,4,1.4,7.9,2.1,11.9
				c0.3,1.7,0.7,3.3,0.7,5c-2.8,0.5-5.6,1-8.4,1.5c-0.1-0.2-0.1-0.4-0.2-0.6c2.2-0.7,3.8-2,4.8-4c0.6-1.2,0.9-2.4,0.7-3.8
				c-0.3-1.8-1.3-3.1-2.6-4.1c-1.1-0.8-2.2-1.4-3.4-2.1c-1-0.6-1.9-1.3-2.3-2.5c0.1-0.6-0.3-1.2-0.4-1.8c-0.8-4.4-1.6-8.9-2.4-13.3
				c-0.1-0.4-0.1-0.8-0.3-1.1l0,0c0.2-0.2,0.5-0.3,0.7-0.4c2-0.8,3.4-2.3,4.3-4.2c1-2.2,0.6-4.6-1-6.4c-1.1-1.3-2.6-2.1-4.1-2.9
				c-2-1.1-2.9-2.7-3.3-4.9c-0.8-4.9-1.7-9.7-2.6-14.6c0.3-0.1,0.6-0.2,0.9-0.3c2.8-1.1,5.5-4.8,4.5-8.2
				C281.5,196.2,281.4,195.8,281.3,195.4z"/>
			<path fill="#914F6E" d="M305.7,191c0.7-0.1,1.4-0.2,2-0.4c0,2.3,0.8,4.2,2.7,5.7c1.6,1.3,3.5,1.8,5.6,1.7c-0.1,0.4,0,0.8,0.1,1.2
				c0.8,4.7,1.6,9.4,2.5,14c0.3,1.5,0,2.8-1,4c-0.9,1.1-1.8,2.1-2.7,3.2c-0.8,1-1.3,2.2-1.3,3.5c-0.1,3.6,2.9,6.8,6.6,7.2
				c0.5,0.1,1.1,0,1.6,0.2l0,0c-0.1,0.3,0,0.6,0,1c0.9,5,1.8,10,2.7,15.1l0,0c0,0.2,0,0.3-0.1,0.5c0.1,1-0.6,1.7-1.1,2.3
				c-0.9,1.2-2,2.3-2.9,3.5c-0.9,1.3-1.2,2.7-0.9,4.2c0.6,3.8,3.8,6.3,7.9,6.2c0.2,0.1,0.3,0.3,0.3,0.6c-2.8,0.5-5.5,1-8.3,1.5
				c-0.4-0.5-0.5-1.1-0.7-1.7c-0.9-5.1-1.8-10.2-2.7-15.3c2.2-0.8,3.8-2.2,5-4.3c1.1-1.9,0.5-5.6-1.4-7.1c-1.2-1-2.6-1.8-3.9-2.6
				c-1.6-0.9-2.6-2.2-2.9-4.1c-0.9-4.9-1.7-9.9-2.6-14.8c1.4-0.5,2.7-1.2,3.7-2.4c2.6-3,2.8-7-0.9-9.6c-1.1-0.8-2.2-1.4-3.3-2.1
				c-1.5-0.9-2.4-2.1-2.7-3.8C306.6,196,306.1,193.5,305.7,191z"/>
			<path fill="#C290A3" d="M305.7,191c0.4,2.5,0.9,4.9,1.3,7.4c0.3,1.7,1.2,2.9,2.7,3.8c1.1,0.7,2.3,1.3,3.3,2.1
				c3.7,2.7,3.5,6.7,0.9,9.6c-1,1.2-2.3,1.9-3.7,2.4c-0.5,0.1-1.1,0.2-1.6,0.3c-1.9,0.1-3.6-0.4-5.2-1.5c-2.3-1.6-3.5-4.7-2.8-7.3
				c0.3-1.1,1-2,1.7-2.9c0.7-0.8,1.4-1.6,2.1-2.5c1-1.1,1.3-2.4,1-3.9c-0.5-2.5-0.9-4.9-1.3-7.4C304.6,191.2,305.2,191.1,305.7,191z
				"/>
			<path fill="#814162" d="M287.9,220.1c-1.8,0-3.6-0.3-5.2-1.4c-3-2.1-4.4-6.6-1.4-9.9c0.9-1,1.9-2.1,2.7-3.2
				c0.7-0.9,0.9-2,0.7-3.1c-0.4-2.5-0.9-5-1.3-7.5c0.5-0.1,1.1-0.2,1.6-0.3c0.4,2.2,0.9,4.4,1.2,6.6c0.3,2.3,1.6,3.7,3.5,4.8
				c1.1,0.6,2.2,1.3,3.2,2.1c2,1.6,2.7,4.6,1.8,6.8c-1,2.4-2.7,4-5.2,4.8C289,219.9,288.5,220,287.9,220.1z"/>
			<path fill="#814162" d="M329.2,212.8c-1.7,0-3.3-0.3-4.7-1.2c-2.8-1.6-4.2-5.1-3.1-8c0.4-1.2,1.4-2.1,2.2-3.1
				c0.4-0.6,0.9-1.1,1.4-1.7c1-1.1,1.4-2.4,1.1-3.9c-0.5-2.5-0.9-4.9-1.3-7.4c0.5-0.1,1.1-0.2,1.6-0.3c0.4,2.4,0.8,4.8,1.3,7.2
				c0.3,1.4,0.8,2.8,2.4,3.4c0.8,4.6,1.7,9.3,2.5,13.9c-0.6,0.2-1.1,0.4-1.7,0.6C330.2,212.6,329.7,212.7,329.2,212.8z"/>
			<path fill="#B26D89" d="M301.8,191.7c2.2,4.1-0.7,8.2-3.8,9.5c-3.2,1.3-6.1,0.9-8.7-1.4c-1.4-1.2-2-2.9-2.1-4.8
				c0-0.2,0-0.5,0-0.7C292,193.5,296.9,192.6,301.8,191.7z"/>
			<path fill="#ECC269" d="M316,198.1c-2.1,0.1-4-0.4-5.6-1.7c-1.8-1.4-2.6-3.4-2.7-5.7c4.9-0.9,9.9-1.7,14.8-2.6
				c1.5,4.2-0.4,8.1-4.7,9.6c-0.2,0.1-0.3,0.1-0.4,0.2C316.9,197.9,316.5,198,316,198.1z"/>
			<path fill="#B26D89" d="M276.3,205.1c0.9,4.9,1.8,9.7,2.6,14.6c0.4,2.2,1.3,3.8,3.3,4.9c1.5,0.8,2.9,1.6,4.1,2.9
				c1.6,1.8,2,4.2,1,6.4c-0.9,1.9-2.3,3.4-4.3,4.2c-0.3,0.1-0.5,0.2-0.7,0.4c-0.1,0-0.2,0-0.3-0.1l0,0c-0.2,0.1-0.4,0.1-0.6,0.2
				c-2-11.1-3.9-22.2-5.9-33.2C275.6,205.2,275.9,205.1,276.3,205.1z"/>
			<path fill="#ECC269" d="M281.9,238.4c0.1,0,0.2,0,0.3,0.1c0,0,0,0,0,0c0,0.1,0,0.2,0,0.3c0,0.2,0,0.4,0,0.6
				c0.8,4.5,1.6,9.1,2.4,13.6c0,0.2,0.1,0.5,0.2,0.7c0.1,0.3,0.2,0.7,0.4,1c0.4,1.2,1.3,1.8,2.3,2.5c1.1,0.7,2.3,1.3,3.4,2.1
				c1.4,1.1,2.4,2.3,2.6,4.1c0.2,1.4-0.1,2.6-0.7,3.8c-1,2-2.7,3.3-4.8,4c-0.3,0-0.6,0.2-0.9,0.1c-1.9-10.9-3.9-21.8-5.8-32.7
				C281.5,238.5,281.7,238.5,281.9,238.4C281.8,238.4,281.9,238.4,281.9,238.4z"/>
			<path fill="#ECC269" d="M276.3,205.1c-0.3,0-0.6,0.1-0.9,0.3c-0.5-2.8-1-5.5-1.5-8.3c-0.1-0.3,0-0.4,0.3-0.5
				c2.4-0.4,4.7-0.8,7.1-1.2c0.1,0.4,0.2,0.8,0.4,1.2c1,3.4-1.7,7-4.5,8.2C276.9,204.9,276.6,205,276.3,205.1z"/>
			<path fill="#ECC269" d="M332.4,211.9c-0.8-4.6-1.7-9.3-2.5-13.9c-0.1-0.4-0.1-0.9-0.2-1.3c-0.6-3.2-1.1-6.4-1.7-9.6
				c0,0,0.1-0.1,0.1,0c0,0.2,0.1,0.4,0.1,0.5c4.4,24.7,8.8,49.5,13.2,74.2c0.1,0.5,0,0.6-0.5,0.7c-17.7,3.1-35.5,6.3-53.2,9.4
				c-0.2,0-0.4,0.2-0.6,0c0.3-0.1,0.7-0.1,1-0.2c2.8-0.5,5.6-1,8.4-1.5c0.7-0.1,1.4-0.2,2.1-0.4c6.2-1.1,12.4-2.2,18.6-3.3
				c0.7-0.1,1.4-0.3,2.2-0.4c2.8-0.5,5.5-1,8.3-1.5c0.6-0.1,1.2-0.2,1.8-0.3c2.8-0.5,5.7-1,8.5-1.5c0.7-0.1,1.3-0.2,2-0.3
				c0.2,0,0.4-0.1,0.5-0.1c1-0.2,1-0.2,0.8-1.1c-0.9-5.3-1.9-10.6-2.8-16c-0.5-2.8-1-5.5-1.4-8.3c-0.4-2-0.7-4.1-1.1-6.1
				C334.7,224.6,333.6,218.3,332.4,211.9z"/>
			<path fill="#914F6E" d="M328.1,187.1c0.6,3.2,1.1,6.4,1.7,9.6c0.1,0.4,0.1,0.9,0.2,1.3c-1.6-0.6-2.1-2-2.4-3.4
				c-0.5-2.4-0.9-4.8-1.3-7.2C326.9,187.3,327.5,187.2,328.1,187.1z"/>
			<path fill="#B26D89" d="M288.2,271.8c-0.3,0.1-0.7,0.1-1,0.2c0-0.2-0.1-0.5-0.1-0.7c0.3,0.1,0.6-0.1,0.9-0.1
				C288.1,271.4,288.1,271.6,288.2,271.8z"/>
			<path fill="#C290A3" d="M287.9,220.1c0.5-0.1,1-0.2,1.6-0.3c0.9,4.8,1.8,9.7,2.6,14.5c0.4,2.4,1.5,4.1,3.7,5.1
				c0.9,0.5,1.7,1,2.6,1.6c3.4,2.5,3.6,6.3,1.1,9.4c-1,1.3-2.4,2.1-3.9,2.6c-0.5,0.1-1.1,0.2-1.6,0.3c-2.5,0.1-4.8-0.7-6.5-2.6
				c-2.2-2.5-2.3-5.8-0.3-8.4c0.8-1.1,1.7-2,2.6-3.1c1-1.2,1.3-2.5,1-4c-0.9-4.7-1.7-9.4-2.5-14.2C288,220.8,288,220.4,287.9,220.1z
				"/>
			<path fill="#B26D89" d="M302.6,234.6c0.3,0.3,0.3,0.8,0.4,1.2c0.8,4.6,1.7,9.1,2.4,13.7c0.3,2.1,1.4,3.5,3.2,4.5
				c1.1,0.6,2.3,1.3,3.3,2.1c3,2.4,3.1,6.2,0.6,9.1c-3,3.5-8.1,3.9-11.5,0.7c-2.2-2-3.2-6-0.6-8.9c1-1.1,1.9-2.2,2.8-3.4
				c0.8-1,1-2.1,0.7-3.2c-0.9-4.7-1.7-9.5-2.5-14.2c-0.1-0.4-0.2-0.9-0.1-1.3C301.7,234.7,302.2,234.6,302.6,234.6z"/>
			<path fill="#814162" d="M308.6,216.6c0.5-0.1,1.1-0.2,1.6-0.3c0.9,4.9,1.8,9.9,2.6,14.8c0.3,1.9,1.3,3.2,2.9,4.1
				c1.3,0.8,2.7,1.6,3.9,2.6c1.9,1.5,2.4,5.2,1.4,7.1c-1.2,2.1-2.8,3.5-5,4.3c-0.5,0-1.1,0.1-1.6,0.3c-0.3,0-0.5,0-0.8-0.1
				c-4.4-0.2-7.8-3.5-7.3-8c0.2-1.4,1-2.5,1.8-3.5c0.8-1,1.6-1.9,2.4-2.9c0.7-0.9,0.9-2,0.7-3.2
				C310.4,226.8,309.5,221.7,308.6,216.6z"/>
			<path fill="#ECC269" d="M302.6,234.6c-0.4,0.1-0.9,0.2-1.3,0.2c-2.4,0.1-4.5-0.5-6.2-2.2c-2.5-2.4-2.8-6.1-0.7-8.8
				c0.9-1.1,1.9-2.2,2.8-3.3c0.8-1,1.1-2.2,0.9-3.5c-0.7-4-1.4-8-2.1-12.1c-0.2-1.2,0.2-1.5,1.5-1.2c0.8,4.4,1.5,8.8,2.3,13.2
				c0,0.2,0.1,0.4,0.2,0.6c0.1,0.7,0.5,1.3,1,1.8c0.6,0.7,1.4,1.1,2.2,1.6c1,0.6,2,1.2,3,2c2.6,2,3.1,5.4,1.2,8.3
				C306.1,232.8,304.5,233.9,302.6,234.6z"/>
			<path fill="#C290A3" d="M314.4,249.5c0.5-0.2,1.1-0.3,1.6-0.3c0.9,5.1,1.8,10.2,2.7,15.3c0.1,0.6,0.3,1.2,0.7,1.7
				c-0.7,0.1-1.4,0.3-2.2,0.4c0-0.4,0.1-0.9,0-1.3C316.3,260.1,315.3,254.8,314.4,249.5z"/>
			<path fill="#814162" d="M293.8,253.3c0.5-0.1,1.1-0.2,1.6-0.3c0.8,4.4,1.6,8.8,2.3,13.2c0.2,1.2,0.4,2.5,0.9,3.7
				c-0.7,0.1-1.4,0.2-2.1,0.4c0.1-1.7-0.4-3.4-0.7-5C295.2,261.3,294.5,257.3,293.8,253.3z"/>
			<path fill="#814162" d="M299.9,217.5c-0.2-0.2-0.2-0.4-0.2-0.6c-0.8-4.4-1.6-8.8-2.3-13.2c0.2,0.3,0.2,0.7,0.3,1.1
				C298.4,209,299.1,213.3,299.9,217.5z"/>
			<path fill="#B26D89" d="M316,198.1c0.5-0.1,0.9-0.2,1.4-0.2c0.2,0.3,0.3,0.7,0.3,1.1c0.8,4.4,1.7,8.8,2.3,13.2
				c0.4,2.6,1.7,4.3,3.9,5.5c1.2,0.6,2.3,1.3,3.3,2.3c1.8,1.8,2.3,4.3,1.3,6.6c-1,2.3-2.7,3.8-5.1,4.6c-0.1,0-0.1,0-0.2,0
				c-0.5,0.2-1,0.1-1.4,0.4c-0.5-0.2-1.1-0.1-1.6-0.2c-3.7-0.4-6.6-3.6-6.6-7.2c0-1.3,0.5-2.5,1.3-3.5c0.9-1.1,1.8-2.2,2.7-3.2
				c1-1.2,1.3-2.5,1-4c-0.9-4.7-1.7-9.4-2.5-14C316.1,198.9,316,198.5,316,198.1z"/>
			<path fill="#ECC269" d="M321.8,231.4c0.4-0.3,1-0.2,1.4-0.4c0,0,0.1,0,0.1,0c0.8,4.7,1.8,9.4,2.5,14.1c0.4,2.4,1.5,4,3.6,5.1
				c1.4,0.7,2.8,1.6,3.9,2.8c1.4,1.6,1.9,3.5,1.3,5.6c-0.8,2.5-2.5,4.3-5,5.2c-0.7,0.2-1.4,0.3-2.2,0.4c-4.1,0.1-7.2-2.4-7.9-6.2
				c-0.2-1.5,0.1-2.9,0.9-4.2c0.9-1.2,1.9-2.3,2.9-3.5c0.6-0.7,1.2-1.4,1.1-2.3c0.1-0.2,0.1-0.3,0.1-0.5l0,0
				c0.1-0.2,0.1-0.4,0.1-0.6c0-0.2,0-0.5-0.1-0.7c-0.8-4.6-1.6-9.2-2.5-13.9c0-0.2-0.1-0.4-0.2-0.6
				C321.9,231.6,321.9,231.5,321.8,231.4L321.8,231.4z"/>
			<path fill="#C290A3" d="M335.9,231c0.4,2,0.7,4.1,1.1,6.1c0.5,2.8,1,5.5,1.4,8.3c-0.2-0.3-0.4-0.2-0.6-0.1
				c-0.4,0.1-0.7,0.3-1.1,0.4c-0.5,0.1-1,0.2-1.5,0.3c-3.1,0.1-5.6-0.9-7.3-3.6c-1.6-2.5-1.4-5.1,0.5-7.4c0.8-1.1,1.7-2.1,2.6-3.1
				c0.9-1.1,1.2-2.3,1-3.7c-0.9-5.1-1.8-10.3-2.7-15.5c0.5-0.1,1-0.2,1.5-0.3c0.1,0.3,0.1,0.5,0.2,0.8c0.8,4.7,1.7,9.3,2.5,14
				c0.1,0.6,0.2,1.1,0.4,1.7c0.3,0.8,0.8,1.5,1.5,2.1C335.5,231.1,335.7,231.4,335.9,231z"/>
			<path fill="#814162" d="M335.2,246c0.5-0.1,1-0.2,1.5-0.3c0.1,0.4,0.1,0.9,0.2,1.3c1.1,5.2,1.6,10.5,3,15.6
				c-0.7,0.1-1.3,0.2-2,0.3c-0.7-5.1-1.8-10.1-2.6-15.2C335.2,247.1,335.2,246.6,335.2,246z"/>
			<path fill="#B26D89" d="M327.4,264.2c0.7-0.1,1.5-0.2,2.2-0.4c-0.2,0.2-0.3,0.4-0.2,0.7c-0.6,0.1-1.2,0.2-1.8,0.3
				C327.7,264.5,327.6,264.3,327.4,264.2z"/>
			<path fill="#C290A3" d="M323.4,231.1c0,0-0.1,0-0.1,0C323.3,231,323.4,231,323.4,231.1C323.4,231,323.4,231.1,323.4,231.1z"/>
			<path fill="#814162" d="M282.2,238.8c0-0.1,0-0.2,0-0.3c0.2,0.3,0.3,0.7,0.3,1.1c0.8,4.4,1.6,8.9,2.4,13.3
				c0.1,0.6,0.4,1.2,0.4,1.8c-0.1-0.3-0.2-0.7-0.4-1c-0.7-4.2-1.5-8.5-2.2-12.7C282.5,240.2,282.4,239.5,282.2,238.8z"/>
			<path fill="#814162" d="M324.6,246.9c0,0.2,0.1,0.4-0.1,0.6c-0.9-5-1.8-10-2.7-15.1c-0.1-0.3-0.1-0.6,0-1c0,0.1,0.1,0.2,0.1,0.3
				c0.2,1.2,0.4,2.4,0.6,3.6C323.2,239.2,323.9,243,324.6,246.9z"/>
			<path fill="#814162" d="M324.5,247.4c0.1,0.2,0.1,0.4-0.1,0.5C324.5,247.8,324.5,247.6,324.5,247.4z"/>
			<path fill="#914F6E" d="M335.9,231c-0.2,0.4-0.4,0.1-0.5,0c-0.7-0.5-1.2-1.2-1.5-2.1c-0.2-0.5-0.3-1.1-0.4-1.7
				c-0.8-4.7-1.6-9.3-2.5-14c0-0.3-0.1-0.5-0.2-0.8c0.6-0.2,1.1-0.4,1.7-0.6C333.6,218.3,334.7,224.6,335.9,231z"/>
			<path fill="#C290A3" d="M281.9,238.4C281.9,238.4,281.8,238.4,281.9,238.4L281.9,238.4z"/>
			<path fill="#C290A3" d="M282.2,238.8c0.1,0.7,0.3,1.5,0.4,2.2c0.8,4.2,1.5,8.5,2.2,12.7c-0.1-0.2-0.2-0.5-0.2-0.7
				c-0.8-4.5-1.6-9.1-2.4-13.6C282.2,239.2,282.2,239,282.2,238.8z"/>
			<path fill="#914F6E" d="M339.9,262.6c-1.5-5.1-2-10.4-3-15.6c-0.1-0.4-0.1-0.9-0.2-1.3c0.4-0.1,0.7-0.3,1.1-0.4
				c0.2-0.1,0.4-0.2,0.6,0.1c0.9,5.3,1.9,10.7,2.8,16c0.2,1,0.2,1-0.8,1.1C340.3,262.5,340.1,262.5,339.9,262.6z"/>
			<path fill="#C290A3" d="M324.6,246.9c-0.7-3.8-1.4-7.6-2.1-11.5c-0.2-1.2-0.4-2.4-0.6-3.6c0.1,0.2,0.1,0.4,0.2,0.6
				c0.8,4.6,1.6,9.2,2.5,13.9C324.6,246.4,324.6,246.6,324.6,246.9z"/>
		</g>
	</g>
</g>
<path fill="#353535" d="M490.9,271.6H277.3c-4.3,0-7.7-3.5-7.7-7.7v-9c0-4.3,3.5-7.7,7.7-7.7h213.6c4.3,0,7.7,3.5,7.7,7.7v9
	C498.6,268.1,495.2,271.6,490.9,271.6z"/>
<path d="M525.4,232.7c0-3.9-3.2-7.1-7.1-7.1h-32c-3.9,0-7.1,3.2-7.1,7.1v35.5c-1.3-3.1-4.4-5.4-8-5.4H296.9c-3.8,0-7.1,2.5-8.3,6
	v-36.1c0-3.9-3.2-7.1-7.1-7.1h-32c-3.9,0-7.1,3.2-7.1,7.1l7.7,52.9h267.5L525.4,232.7z"/>
<g>
	<g>
		<path fill="#B26D89" d="M617.5,251.9c8.7,0,15.7,7.1,15.7,15.7v20.3c0,8.7-7.1,15.7-15.7,15.7h-66.3c-8.7,0-15.7-7.1-15.7-15.7
			v-20.3c0-8.7,7.1-15.7,15.7-15.7H617.5 M617.5,246.9h-66.3c-11.4,0-20.7,9.3-20.7,20.7v20.3c0,11.4,9.3,20.7,20.7,20.7h66.3
			c11.4,0,20.7-9.3,20.7-20.7v-20.3C638.2,256.2,628.9,246.9,617.5,246.9L617.5,246.9z"/>
	</g>
	<line fill="none" stroke="#B26D89" stroke-width="5" stroke-miterlimit="10" x1="533.8" y1="277.2" x2="636.3" y2="277.2"/>
</g>
<polygon fill="#D0DBBD" points="317.2,112.5 304.3,112.5 302.5,147 319,147 "/>
<polygon fill="#D4E6E5" points="319.3,154 319,147 302.5,147 302.2,154 "/>
<g>
	<path fill="#629165" stroke="#629165" stroke-miterlimit="10" d="M566,164.7c-1,0-2.3-0.3-3.1,0.3c-0.4,0.3-0.6,0.6-0.8,1
		c-0.2,0.4,0,0.9-0.2,1.2c-0.3,1-1.5,1.2-1.9,2.2c-0.1,0.4-0.1,0.7-0.2,1.1c-0.2,0.8-0.8,1.1-1.4,1.5c-0.6,0.4-0.8,0.8-1.1,1.5
		c-0.3,0.8-0.9,1.4-1,2.2c-0.1,0.8-0.1,1.8,0,2.6c0.1,1.3,1.3,1.7,1.6,2.9c0.1,0.4,0.1,0.8,0.2,1.2c0.1,0.4,0.3,0.5,0.5,0.8
		c0.5,0.8,0.1,1.7,0.6,2.3c0.2,0.3,0.8,0.5,1,0.8c0.4,0.4,0.7,0.7,1.2,1c0.4,0.2,0.7,0.6,1.1,0.8c0.6,0.4,1.3,0.6,1.8,0.9
		c0.7,0.5,0.8,1.5,1.4,1.9c0.7,0.5,1.6,0,2.3,0.2c1,0.2,1.9,0.5,2.9,0.5c1.1,0,2.1,0.1,3.2,0.3c1,0.2,2.3,0,3.3-0.3
		c0.3-0.1,0.5-0.1,0.8-0.2c0.4-0.2,0.6-0.4,0.9-0.6c0.8-0.5,1.7-0.4,2.5-0.7c0.4-0.2,1-0.5,1.4-0.8c0.5-0.4,0.7-1,1-1.5
		c0.6-0.8,1.1-1.6,1.7-2.3c0.7-0.7,1.1-0.9,1-1.8c0-0.6,0-1.2,0-1.7c0-1,0.9-1.5,0.7-2.5c-0.1-0.5-0.4-1-0.5-1.6c0-0.7,0-1.4,0-2.1
		c0-1.3,0.4-3.5-0.5-4.5c-0.3-0.4-0.9-0.5-1.3-0.9c-0.4-0.4-0.5-1-0.8-1.4c-0.5-0.9-1.2-1.5-1.7-2.4c-0.6-1.2-2.2-2.8-3.6-2.7
		c-1.3,0-2.1-0.7-3.3-1.2c-1-0.4-2-0.3-3.1-0.3c-1.1,0-2.1-0.1-3.1,0.3c-0.3,0.1-0.6,0.3-1,0.5c-0.5,0.2-1,0.2-1.5,0.3
		c-0.8,0.2-1.3,0.6-2.1,0.7"/>
	<path fill="#FFFFFF" d="M573.2,200.5v-8c0,0,3.9-1.8,6.4-3.8c0,0-5.1,2.2-6,2.4l-0.6-0.5h-2.2v9.8L573.2,200.5z"/>
	<g>
		<polygon fill="#ACACAC" points="577.7,210.3 566,210.3 564.8,195.3 578.8,195.3 		"/>
		<rect x="566.3" y="202.6" fill="#CDCDCD" width="11.2" height="0.4"/>
	</g>
</g>
<g>
	<linearGradient id="SVGID_12_" gradientUnits="userSpaceOnUse" x1="384.9402" y1="32.1948" x2="384.9402" y2="27.2985">
		<stop  offset="0" style="stop-color:#ACACAC"/>
		<stop  offset="0.9932" style="stop-color:#ACACAC;stop-opacity:0"/>
	</linearGradient>
	<rect x="384.2" y="25.8" fill="url(#SVGID_12_)" width="1.5" height="18.4"/>
	<rect x="318.3" y="43.9" fill="#ACACAC" width="133.3" height="2.3"/>
	<rect x="323.4" y="45.5" fill="#ACACAC" width="1.8" height="6.6"/>
	<rect x="442.8" y="45.5" fill="#ACACAC" width="1.8" height="6.6"/>
	<rect x="354.5" y="45.5" fill="#ACACAC" width="1.8" height="9.2"/>
	<rect x="415.9" y="45.5" fill="#ACACAC" width="1.8" height="9.2"/>
	<rect x="384" y="45.5" fill="#ACACAC" width="1.8" height="9.2"/>
	<g>
		
			<rect x="316" y="51.3" transform="matrix(0.9854 -0.1704 0.1704 0.9854 -4.4169 55.7748)" fill="#ACACAC" width="13.4" height="4.7"/>
		<polygon fill="#ACACAC" points="317,57.2 311.9,59.7 310.5,51.6 316.1,52.2 		"/>
	</g>
	<g>
		
			<rect x="438.5" y="51.3" transform="matrix(-0.9854 -0.1704 0.1704 -0.9854 874.8313 182.3183)" fill="#ACACAC" width="13.4" height="4.7"/>
		<polygon fill="#ACACAC" points="451,57.2 456.1,59.7 457.5,51.6 451.9,52.2 		"/>
	</g>
	<g>
		
			<rect x="410.9" y="51.7" transform="matrix(-0.572 -0.8203 0.8203 -0.572 608.3536 425.4919)" fill="#ACACAC" width="8.5" height="4.7"/>
		<polygon fill="#ACACAC" points="415.3,58.6 417.1,63.9 423.8,59.2 419.4,55.7 		"/>
		
			<ellipse transform="matrix(0.5295 0.8483 -0.8483 0.5295 250.1612 -327.7261)" fill="#F1EBC4" cx="420.5" cy="61.7" rx="2.7" ry="4.1"/>
	</g>
	<g>
		
			<rect x="352.9" y="51.7" transform="matrix(0.572 -0.8203 0.8203 0.572 108.5351 316.0568)" fill="#ACACAC" width="8.5" height="4.7"/>
		<polygon fill="#ACACAC" points="357,58.6 355.2,63.9 348.5,59.2 352.9,55.7 		"/>
		
			<ellipse transform="matrix(-0.5295 0.8483 -0.8483 -0.5295 590.3567 -204.1165)" fill="#F1EBC4" cx="351.8" cy="61.7" rx="2.7" ry="4.1"/>
	</g>
	<g>
		<rect x="382.7" y="50" fill="#ACACAC" width="4.7" height="8.5"/>
		<polygon fill="#ACACAC" points="387.6,58 389.2,63.4 381,63.4 382.5,58 		"/>
		
			<ellipse transform="matrix(5.057497e-02 0.9987 -0.9987 5.057497e-02 429.0143 -324.2566)" fill="#F1EBC4" cx="385.1" cy="63.5" rx="2.7" ry="4.1"/>
	</g>
</g>
<g>
	<rect x="571.6" y="230.5" fill="#E5E5E5" width="26.3" height="15.6"/>
	<path fill="#D5D0BB" d="M597.1,231.2v14.1h-24.8v-14.1H597.1 M598.6,229.7h-27.8v17.1h27.8V229.7L598.6,229.7z"/>
</g>
<circle fill="#ACACAC" cx="593.1" cy="241.2" r="1.9"/>
<rect x="586.7" y="233.1" fill="#ACACAC" width="8.3" height="2.4"/>
<g>
	<g>
		
			<circle fill="none" stroke="#ACACAC" stroke-linecap="round" stroke-linejoin="round" stroke-dasharray="0.201,2.01" cx="579.4" cy="238.5" r="4.9"/>
	</g>
	<g>
		
			<circle fill="none" stroke="#ACACAC" stroke-linecap="round" stroke-linejoin="round" stroke-dasharray="0.2084,2.0845" cx="579.4" cy="238.5" r="3.3"/>
	</g>
	<g>
		
			<circle fill="none" stroke="#ACACAC" stroke-linecap="round" stroke-linejoin="round" stroke-dasharray="0.1876,1.876" cx="579.4" cy="238.5" r="1.6"/>
	</g>
</g>
<path fill="#E6F2FB" d="M534.3,87.5h-40.6v54.4c8.9,2.2,16.2,4.3,21.9,6.1c5.9-2.6,12.2-4.9,18.7-6.7V87.5z"/>
<path fill="#E6F2FB" d="M274.1,87.5h-40.6v72.2c1.7,0.6,3.4,1.2,5,1.8c5.5-2.9,17.8-8.9,35.5-15V87.5z"/>
<path fill="#CDD1C4" d="M493.7,157.9c6-2.3,11.5-4.7,16.3-7.2c1.8-0.9,3.7-1.8,5.6-2.7c-5.7-1.8-13.1-3.9-21.9-6.1V157.9z"/>
<path fill="#CDD1C4" d="M274.1,176.5v-29.9c-17.7,6.1-30,12.1-35.5,15c7,2.6,13.8,5.4,20.1,8.4C263.1,172.2,268.3,174.3,274.1,176.5
	z"/>
<path fill="#97A285" d="M200.2,187.5c3,0,6.5-0.5,6.5-0.5c-4.3-2.1-8.4-17.9-8.4-17.9c1.6,0.5,5.7,0.8,5.7,0.8c-4-2.4-7.3-16-7.3-16
	c1.1,1,5.1,0.5,5.1,0.5c-3.2-1.3-7.1-13.3-6-12.4c1.1,1,4,0.3,4,0.3c-2.3-1.4-4.5-6.2-5.6-9c-0.2-0.4-0.3-0.8-0.4-1.2
	c-0.1,0.3-0.3,0.7-0.4,1.2c-1.1,2.8-3.3,7.6-5.6,9c0,0,2.9,0.6,4-0.3c1.1-1-2.9,11.1-6,12.4c0,0,4,0.5,5.1-0.5c0,0-3.3,13.6-7.3,16
	c0,0,4.1-0.3,5.7-0.8c0,0-4.1,15.9-8.4,17.9c0,0,3.5,0.5,6.5,0.5c0,0-2.8,2.9-3.6,3.2c0.8-0.1,5.7-0.4,10.1-1.4
	c4.3,1,9.3,1.3,10.1,1.4C203,190.4,200.2,187.5,200.2,187.5z"/>
<path fill="#97A285" d="M262.5,157.4c1.6,0,3.5-0.3,3.5-0.3c-2.3-1.1-4.5-9.6-4.5-9.6c0.9,0.3,3.1,0.4,3.1,0.4
	c-2.1-1.3-3.9-8.6-3.9-8.6c0.6,0.5,2.7,0.3,2.7,0.3c-1.7-0.7-3.8-7.2-3.2-6.7c0.6,0.5,2.1,0.2,2.1,0.2c-1.2-0.8-2.4-3.4-3-4.9
	c-0.1-0.2-0.2-0.5-0.2-0.6c-0.1,0.2-0.1,0.4-0.2,0.6c-0.6,1.5-1.8,4.1-3,4.9c0,0,1.5,0.3,2.1-0.2c0.6-0.5-1.5,6-3.2,6.7
	c0,0,2.1,0.3,2.7-0.3c0,0-1.8,7.3-3.9,8.6c0,0,2.2-0.2,3.1-0.4c0,0-2.2,8.5-4.5,9.6c0,0,1.9,0.3,3.5,0.3c0,0-1.5,1.6-1.9,1.7
	c0.4,0,3.1-0.2,5.4-0.7c2.3,0.5,5,0.7,5.4,0.7C264,159,262.5,157.4,262.5,157.4z"/>
<path fill="#97A285" d="M520.5,160.1c1.6,0,3.5-0.3,3.5-0.3c-2.3-1.1-4.5-9.6-4.5-9.6c0.9,0.3,3.1,0.4,3.1,0.4
	c-2.1-1.3-3.9-8.6-3.9-8.6c0.6,0.5,2.7,0.3,2.7,0.3c-1.7-0.7-3.8-7.2-3.2-6.7c0.6,0.5,2.1,0.2,2.1,0.2c-1.2-0.8-2.4-3.4-3-4.9
	c-0.1-0.2-0.2-0.5-0.2-0.6c-0.1,0.2-0.1,0.4-0.2,0.6c-0.6,1.5-1.8,4.1-3,4.9c0,0,1.5,0.3,2.1-0.2c0.6-0.5-1.5,6-3.2,6.7
	c0,0,2.1,0.3,2.7-0.3c0,0-1.8,7.3-3.9,8.6c0,0,2.2-0.2,3.1-0.4c0,0-2.2,8.5-4.5,9.6c0,0,1.9,0.3,3.5,0.3c0,0-1.5,1.6-1.9,1.7
	c0.4,0,3.1-0.2,5.4-0.7c2.3,0.5,5,0.7,5.4,0.7C522,161.6,520.5,160.1,520.5,160.1z"/>
<path fill="#97A285" d="M581.8,143.8c2.3,0,4.9-0.4,4.9-0.4c-3.2-1.5-6.3-13.4-6.3-13.4c1.2,0.4,4.3,0.6,4.3,0.6
	c-3-1.8-5.5-12-5.5-12c0.8,0.7,3.8,0.4,3.8,0.4c-2.4-0.9-5.3-10-4.5-9.2c0.8,0.7,3,0.2,3,0.2c-1.7-1.1-3.3-4.7-4.2-6.8
	c-0.1-0.3-0.2-0.6-0.3-0.9c-0.1,0.2-0.2,0.5-0.3,0.9c-0.8,2.1-2.4,5.7-4.2,6.8c0,0,2.1,0.5,3-0.2c0.8-0.7-2.1,8.3-4.5,9.2
	c0,0,3,0.4,3.8-0.4c0,0-2.5,10.2-5.5,12c0,0,3.1-0.2,4.3-0.6c0,0-3.1,11.8-6.3,13.4c0,0,2.6,0.4,4.9,0.4c0,0-2.1,2.2-2.7,2.4
	c0.6-0.1,4.3-0.3,7.5-1c3.2,0.7,6.9,1,7.5,1C583.9,146,581.8,143.8,581.8,143.8z"/>
</svg>
